<?xml version="1.0" encoding="utf-8"?>
<!-- Generator: Adobe Illustrator 18.1.1, SVG Export Plug-In . SVG Version: 6.00 Build 0)  -->
<!DOCTYPE svg PUBLIC "-//W3C//DTD SVG 1.1//EN" "http://www.w3.org/Graphics/SVG/1.1/DTD/svg11.dtd">
<svg version="1.1" id="Layer_1" xmlns="http://www.w3.org/2000/svg" xmlns:xlink="http://www.w3.org/1999/xlink" x="0px" y="0px"
	 viewBox="0 0 75 75" enable-background="new 0 0 75 75" xml:space="preserve">
<path fill="#F68D1E" d="M55.8,20.4h-3c0-2.6-0.8-5.4-2.4-5.4c-1.7,0-2.4,2.8-2.4,5.4H27.1c0-2.6-0.8-5.4-2.4-5.4
	c-1.7,0-2.4,2.8-2.4,5.4h-2.9c-1,0-1.7,0.8-1.7,1.7v6.1h40v-6.1C57.5,21.1,56.7,20.4,55.8,20.4z M25.8,25.4c-0.1,0.5-0.5,1-1.1,1
	c-0.5,0-1-0.4-1.1-0.8c0.3,0.2,0.6,0.4,1,0.4s0.7-0.3,0.7-0.7s-0.3-0.7-0.7-0.7c-0.3-0.1-1.1-1.5-1.1-4.1s0.8-4,1-4.1
	c0.3,0.1,1.1,1.5,1.1,4.1H24l0,0c0,1.9,0.4,3.2,0.7,3.7c0.4,0,0.8,0.3,0.9,0.7c0,0.1,0.1,0.2,0.1,0.3C25.9,25.3,25.8,25.3,25.8,25.4
	z M35.4,26.6C35.4,26.6,35.4,26.7,35.4,26.6l-0.8,0.1c0,0-0.1,0-0.1-0.1v-2.5L33.7,26c0,0.1-0.1,0.1-0.1,0.1h-0.5C33,26,33,26,33,26
	l-0.8-1.9v2.5c0,0,0,0.1-0.1,0.1h-0.8c0,0-0.1,0-0.1-0.1v-4.3c0,0,0-0.1,0.1-0.1h0.8c0.1,0,0.1,0,0.1,0.1l1.1,2.5l1.1-2.5l0.1-0.1
	h0.8c0,0,0.1,0,0.1,0.1C35.4,22.3,35.4,26.6,35.4,26.6z M40.2,26.7h-0.9c0,0-0.1,0-0.1-0.1L39,25.8h-1.6l-0.3,0.8c0,0,0,0.1-0.1,0.1
	h-0.9c0,0-0.1,0,0-0.1l1.6-4.3c0,0,0-0.1,0.1-0.1h0.8c0,0,0.1,0,0.1,0.1L40.2,26.7C40.3,26.6,40.2,26.7,40.2,26.7z M43.8,22.3
	l-1.3,2.6v1.7c0,0,0,0.1-0.1,0.1h-0.8c0,0-0.1,0-0.1-0.1v-1.7l-1.3-2.6v-0.1h0.9c0,0,0.1,0,0.1,0.1l0.8,1.6l0.8-1.6l0.1-0.1
	L43.8,22.3C43.8,22.2,43.9,22.3,43.8,22.3z M50.3,25.9c0.4,0,0.7-0.1,1-0.4c-0.1,0.5-0.6,0.8-1.1,0.8c-0.6,0-1-0.4-1.1-1
	c0-0.1,0-0.1,0-0.2s0-0.2,0.1-0.3c0.1-0.4,0.5-0.7,0.9-0.7c0.3-0.6,0.7-1.8,0.7-3.7l0,0h-1.6c0-2.6,0.8-4,1.1-4.1
	c0.3,0.1,1,1.5,1,4.1s-0.8,4-1.1,4.1c-0.4,0-0.7,0.3-0.7,0.7S50,25.9,50.3,25.9z M38.2,23.5L37.7,25h1L38.2,23.5z M42.8,49.7
	c1.6,0,2.7-1.1,2.7-2.8c0-1.6-1.1-2.7-2.7-2.7s-2.7,1.1-2.7,2.7C40.1,48.6,41.2,49.7,42.8,49.7z M17.5,55.3c0,0.9,0.8,1.7,1.7,1.7
	h36.5c1,0,1.7-0.8,1.7-1.7V29.2h-40L17.5,55.3L17.5,55.3z M36.4,38.5c0-3,2.3-5.7,6.4-5.7s6.4,2.7,6.4,5.7c0,1.9-1,3.3-2,3.9v0.1
	c1.3,0.8,2.4,2.4,2.4,4.6c0,3.6-2.9,6-6.9,6c-3.9,0-6.9-2.4-6.9-6c0-2.2,1.1-3.8,2.4-4.6v-0.1C37.4,41.8,36.4,40.4,36.4,38.5z
	 M25.3,36c0-0.2,0.1-0.3,0.2-0.4l3.4-2.4c0.1-0.1,0.3-0.2,0.5-0.2h3.3c0.2,0,0.3,0.1,0.3,0.3v19.2c0,0.2-0.1,0.3-0.3,0.3h-3.6
	c-0.2,0-0.3-0.1-0.3-0.3V37.7h-0.1l-3.2,2.1c-0.2,0.1-0.3,0.1-0.3-0.2L25.3,36L25.3,36z M42.8,40.8c1.4,0,2.3-1,2.3-2.3
	s-0.9-2.3-2.3-2.3c-1.4,0-2.3,1-2.3,2.3C40.5,39.7,41.4,40.8,42.8,40.8z"/>
</svg>

