<?xml version="1.0" encoding="utf-8"?>
<!-- Generator: Adobe Illustrator 18.1.1, SVG Export Plug-In . SVG Version: 6.00 Build 0)  -->
<!DOCTYPE svg PUBLIC "-//W3C//DTD SVG 1.1//EN" "http://www.w3.org/Graphics/SVG/1.1/DTD/svg11.dtd">
<svg version="1.1" id="Layer_1" xmlns="http://www.w3.org/2000/svg" xmlns:xlink="http://www.w3.org/1999/xlink" x="0px" y="0px"
	 viewBox="0 0 75 75" enable-background="new 0 0 75 75" xml:space="preserve">
<path fill="#F68D1E" d="M55.2,42.9C50.9,52,41.6,54.3,39.4,54.7v0.1c0,0-0.1,0-0.2,0c-0.2,0-0.2,0-0.2,0v-0.1
	c-2.3-0.4-11.6-2.7-16-11.8c0,0-0.2-3,1-5.9l15.1,7.5L54.2,37C55.4,39.9,55.2,42.9,55.2,42.9z"/>
<path fill="#F68D1E" d="M65.7,29l0.4-0.1l-27-10.2L12.2,28.8l0.4,0.1L12.2,29l0.4,0.1l-0.4,0.1l0.4,0.1l-0.4,0.1l0.4,0.1l-0.4,0.1
	l0.4,0.1L12.2,30l0.4,0.1l-0.4,0.1l0.4,0.1l-0.4,0.1l0.4,0.1l-0.4,0.1l4.1,1.8c-0.1,0.3-0.2,0.6-0.3,1c-0.2,0.8-0.3,1.7-0.2,2.5
	c0,0.7,0.1,1.4,0.2,2.1h-0.6c-0.5,0-0.9,0.4-0.9,0.9v2.2c0,0.5,0.4,0.9,0.9,0.9h0.3l-2.2,13.6c0,0,0.7-0.4,1.1-0.5
	c0.2,0,0.1,0.9,0.3,1c0.6,0.2,0.8-0.7,1.5-0.7c0.4,0,0.8,0.9,1.2,0.8s0.5-0.6,0.7-0.9c0.1-0.3,1.2,0.2,1.2,0.2L17.2,42h0.2
	c0.5,0,0.9-0.4,0.9-0.9V39c0-0.5-0.4-0.9-0.9-0.9h-0.6c0-0.6,0-1.3,0.1-1.9c0-0.4,0.1-0.7,0.2-1.1s0.2-0.7,0.3-1.1
	c0.1-0.3,0.2-0.6,0.3-0.9l21.4,9.5l26.9-12l-0.4-0.1l0.4-0.1l-0.4-0.1l0.4-0.1l-0.4-0.1L66,30l-0.4-0.1l0.4-0.1l-0.4-0.1l0.4-0.1
	l-0.4-0.1l0.4-0.1l-0.4-0.1l0.4-0.1C66,29.2,65.7,29,65.7,29z M39.1,29.1c-1.1,0-1.9-0.4-1.9-0.8c0-0.5,0.9-0.8,1.9-0.8
	c1.1,0,1.9,0.4,1.9,0.8C41.1,28.7,40.2,29.1,39.1,29.1z"/>
</svg>

