<?xml version="1.0" encoding="utf-8"?>
<!-- Generator: Adobe Illustrator 18.1.1, SVG Export Plug-In . SVG Version: 6.00 Build 0)  -->
<!DOCTYPE svg PUBLIC "-//W3C//DTD SVG 1.1//EN" "http://www.w3.org/Graphics/SVG/1.1/DTD/svg11.dtd">
<svg version="1.1" id="Layer_1" xmlns="http://www.w3.org/2000/svg" xmlns:xlink="http://www.w3.org/1999/xlink" x="0px" y="0px"
	 viewBox="0 0 396.4 17.1" enable-background="new 0 0 396.4 17.1" xml:space="preserve">
<g>
	<g>
		<g>
			<path fill="#FFFFFF" d="M295.6,2.5l-0.1-0.1h-0.3l-2.5,6.8h5.3L295.6,2.5z M295.3,2.5L295.3,2.5l2.4,6.4H293L295.3,2.5z"/>
			<path fill="#FFFFFF" d="M392.2,5.3c-0.8-0.9-1.8-1.3-3-1.3c-1.2,0-2.3,0.5-3,1.3c-0.8,0.9-1.1,2-1.1,3.4V9c0,1.4,0.4,2.5,1.1,3.4
				c0.8,0.9,1.8,1.3,3,1.3c1.2,0,2.3-0.5,3-1.3c0.8-0.9,1.1-2,1.1-3.4V8.7C393.4,7.3,393,6.2,392.2,5.3z M389.2,12.5
				c-0.9,0-1.5-0.3-2-1c-0.5-0.7-0.8-1.5-0.8-2.5V8.7c0-1,0.3-1.8,0.8-2.5c0.5-0.7,1.2-1,2-1c0.9,0,1.5,0.3,2,1
				c0.5,0.7,0.8,1.5,0.8,2.5V9c0,1-0.2,1.8-0.7,2.5C390.7,12.1,390.1,12.5,389.2,12.5z"/>
			<path fill="#FFFFFF" d="M382.5,12.3V0.2h-2.8v1.1l1.4,0.1v3.7c-0.2-0.3-0.5-0.5-0.9-0.7c-0.5-0.3-1.1-0.4-1.7-0.4
				c-1.2,0-2.1,0.5-2.7,1.4c-0.6,0.9-1,2.1-1,3.6v0.2c0,1.4,0.3,2.5,1,3.3c0.7,0.8,1.5,1.3,2.7,1.3c0.7,0,1.3-0.1,1.8-0.4
				c0.3-0.2,0.6-0.4,0.9-0.7l0.1,1h2.6v-1.1L382.5,12.3z M381.2,6.8V11c-0.2,0.5-0.5,0.8-0.9,1.1c-0.4,0.3-0.9,0.4-1.5,0.4
				c-0.8,0-1.4-0.3-1.8-0.9c-0.4-0.6-0.6-1.4-0.6-2.5V8.9c0-1.1,0.2-2,0.6-2.7c0.4-0.7,1-1,1.8-1c0.6,0,1.1,0.1,1.5,0.4
				C380.7,6,380.9,6.3,381.2,6.8z"/>
			<path fill="#FFFFFF" d="M357.9,12.3c0-0.1,0-0.2,0-0.3c0-0.2,0-0.3,0-0.5V7.1c0-1-0.3-1.8-1-2.3c-0.6-0.5-1.5-0.8-2.5-0.8
				c-0.7,0-1.3,0.1-1.9,0.3c-0.6,0.2-1.1,0.5-1.6,0.8l-0.1,0.1l0,2h1.2l0.1-1.3c0.2-0.2,0.5-0.3,0.9-0.5c0.4-0.1,0.8-0.2,1.3-0.2
				c0.7,0,1.2,0.2,1.6,0.5s0.5,0.8,0.5,1.4v1h-1.8c-1.2,0-2.3,0.3-3,0.8c-0.8,0.5-1.2,1.2-1.2,2.1c0,0.8,0.3,1.5,0.8,2
				c0.5,0.5,1.2,0.7,2.2,0.7c0.7,0,1.4-0.2,2-0.5c0.4-0.2,0.8-0.5,1-0.8c0,0.1,0,0.1,0,0.2c0,0.2,0.1,0.5,0.1,0.8l0,0.2h2.1v-1.1
				L357.9,12.3z M352.6,9.8c0.5-0.4,1.2-0.5,2-0.5h1.8v1.5c-0.2,0.5-0.6,0.9-1.1,1.2c-0.5,0.3-1.1,0.5-1.8,0.5c-0.5,0-1-0.1-1.2-0.4
				c-0.3-0.3-0.4-0.6-0.4-1C351.9,10.5,352.2,10.1,352.6,9.8z"/>
			<path fill="#FFFFFF" d="M335.3,12.3c0-0.1,0-0.2,0-0.3c0-0.2,0-0.3,0-0.5V7.1c0-1-0.3-1.8-1-2.3c-0.6-0.5-1.5-0.8-2.5-0.8
				c-0.7,0-1.3,0.1-1.9,0.3c-0.6,0.2-1.1,0.5-1.5,0.8l-0.1,0.1l0,2h1.2l0.1-1.3c0.2-0.2,0.6-0.3,0.9-0.5c0.4-0.1,0.8-0.2,1.3-0.2
				c0.7,0,1.2,0.2,1.6,0.5s0.5,0.8,0.5,1.4v1h-1.8c-1.3,0-2.3,0.3-3,0.8c-0.8,0.5-1.2,1.2-1.2,2.1c0,0.8,0.3,1.5,0.8,2
				c0.5,0.5,1.2,0.7,2.2,0.7c0.7,0,1.4-0.2,2-0.5c0.4-0.2,0.8-0.5,1.1-0.8c0,0.1,0,0.1,0,0.2c0,0.2,0.1,0.5,0.1,0.8l0,0.2h2.1v-1.1
				L335.3,12.3z M330,9.8c0.5-0.4,1.2-0.5,2-0.5h1.8v1.5c-0.2,0.5-0.6,0.9-1.1,1.2c-0.5,0.3-1.1,0.5-1.8,0.5c-0.5,0-1-0.1-1.2-0.4
				c-0.3-0.3-0.4-0.6-0.4-1C329.3,10.5,329.6,10.1,330,9.8z"/>
			<path fill="#FFFFFF" d="M268.1,12.3c0-0.1,0-0.2,0-0.3c0-0.2,0-0.3,0-0.5V7.1c0-1-0.3-1.8-1-2.3c-0.6-0.5-1.5-0.8-2.5-0.8
				c-0.7,0-1.3,0.1-1.9,0.3c-0.6,0.2-1.1,0.5-1.5,0.8l-0.1,0.1l0,2h1.2l0.1-1.3c0.2-0.2,0.5-0.3,0.9-0.5c0.4-0.1,0.8-0.2,1.3-0.2
				c0.7,0,1.2,0.2,1.6,0.5s0.5,0.8,0.5,1.4v1h-1.8c-1.3,0-2.3,0.3-3,0.8c-0.8,0.5-1.2,1.2-1.2,2.1c0,0.8,0.3,1.5,0.8,2
				c0.5,0.5,1.3,0.7,2.2,0.7c0.7,0,1.4-0.2,2-0.5c0.4-0.2,0.8-0.5,1.1-0.8c0,0.1,0,0.1,0,0.2c0,0.2,0.1,0.5,0.2,0.8l0,0.2h2.1v-1.1
				L268.1,12.3z M262.9,9.8c0.5-0.4,1.2-0.5,2-0.5h1.8v1.5c-0.2,0.5-0.6,0.9-1.1,1.2c-0.5,0.3-1.1,0.5-1.8,0.5c-0.5,0-1-0.1-1.2-0.4
				c-0.3-0.3-0.4-0.6-0.4-1C262.1,10.5,262.4,10.1,262.9,9.8z"/>
			<path fill="#FFFFFF" d="M240.6,5.3c-0.8-0.9-1.8-1.3-3-1.3c-1.2,0-2.3,0.5-3,1.3c-0.8,0.9-1.1,2-1.1,3.4V9c0,1.4,0.4,2.5,1.1,3.4
				s1.8,1.3,3,1.3c1.2,0,2.3-0.5,3-1.3s1.1-2,1.1-3.4V8.7C241.7,7.3,241.3,6.2,240.6,5.3z M237.6,12.5c-0.9,0-1.5-0.3-2-1
				c-0.5-0.7-0.8-1.5-0.8-2.5V8.7c0-1,0.2-1.8,0.8-2.5c0.5-0.7,1.1-1,2-1c0.9,0,1.5,0.3,2,1s0.8,1.5,0.8,2.5V9c0,1-0.2,1.8-0.8,2.5
				C239.1,12.1,238.4,12.5,237.6,12.5z"/>
			<path fill="#FFFFFF" d="M201.8,4.1l-0.1,1.1c-0.3-0.3-0.6-0.6-0.9-0.8c-0.5-0.3-1.1-0.5-1.8-0.5c-1.2,0-2.1,0.5-2.7,1.4
				c-0.6,0.9-1,2.1-1,3.6v0.2c0,1.4,0.3,2.5,1,3.3c0.7,0.8,1.6,1.3,2.7,1.3c0.7,0,1.2-0.1,1.7-0.4c0.3-0.2,0.6-0.4,0.9-0.7v0.6
				c0,0.8-0.2,1.5-0.6,2c-0.4,0.5-1,0.7-1.8,0.7c-0.4,0-0.8,0-1.2-0.1s-0.8-0.2-1.1-0.4l-0.2-0.1l-0.4,1.2l0.1,0.1
				c0.4,0.2,0.8,0.3,1.3,0.5c0.5,0.1,1,0.2,1.4,0.2c1.2,0,2.1-0.3,2.8-1.1c0.7-0.7,1-1.7,1-2.9V4.1H201.8z M201.7,6.9v4.1
				c-0.2,0.5-0.5,0.8-0.9,1.1c-0.4,0.3-0.9,0.4-1.5,0.4c-0.8,0-1.4-0.3-1.8-0.9c-0.4-0.6-0.6-1.4-0.6-2.5V8.9c0-1.1,0.2-2,0.6-2.7
				c0.4-0.7,1-1,1.8-1c0.6,0,1.1,0.1,1.5,0.5C201.2,6,201.5,6.4,201.7,6.9z"/>
			<path fill="#FFFFFF" d="M156.9,9.1V8c0-1.2-0.3-2.2-1-2.9c-0.7-0.7-1.6-1.1-2.8-1.1c-1.1,0-2.1,0.5-2.8,1.3
				c-0.8,0.9-1.2,2-1.2,3.3v0.5c0,1.3,0.4,2.4,1.2,3.3c0.8,0.9,1.8,1.3,3,1.3c0.7,0,1.4-0.1,1.9-0.3c0.5-0.2,1-0.5,1.3-0.9l0.1-0.1
				l-0.6-1l-0.2,0.2c-0.3,0.3-0.6,0.5-1,0.7c-0.4,0.2-0.9,0.2-1.5,0.2c-0.8,0-1.5-0.3-2-0.9c-0.5-0.6-0.8-1.5-0.8-2.4v0H156.9z
				 M153.1,5.2c0.7,0,1.3,0.2,1.7,0.7c0.4,0.5,0.6,1.1,0.6,1.8v0.1h-4.9c0.1-0.7,0.4-1.3,0.8-1.8C151.9,5.5,152.4,5.2,153.1,5.2z"/>
			<path fill="#FFFFFF" d="M119.8,5.3C119,4.4,118,4,116.8,4c-1.2,0-2.3,0.5-3,1.3c-0.8,0.9-1.1,2-1.1,3.4V9c0,1.4,0.4,2.5,1.1,3.4
				c0.8,0.9,1.8,1.3,3,1.3c1.2,0,2.3-0.5,3-1.3c0.8-0.9,1.1-2,1.1-3.4V8.7C120.9,7.3,120.5,6.2,119.8,5.3z M116.8,12.5
				c-0.9,0-1.5-0.3-2-1C114.2,10.8,114,10,114,9V8.7c0-1,0.3-1.8,0.8-2.5c0.5-0.7,1.2-1,2-1c0.9,0,1.5,0.3,2,1
				c0.5,0.7,0.8,1.5,0.8,2.5V9c0,1-0.2,1.8-0.7,2.5C118.3,12.1,117.6,12.5,116.8,12.5z"/>
			<path fill="#FFFFFF" d="M107.1,9.1V8c0-1.2-0.3-2.2-1-2.9c-0.7-0.7-1.6-1.1-2.8-1.1c-1.1,0-2,0.5-2.8,1.3c-0.8,0.9-1.1,2-1.1,3.3
				v0.5c0,1.3,0.4,2.4,1.2,3.3c0.8,0.9,1.8,1.3,3,1.3c0.7,0,1.4-0.1,1.9-0.3c0.5-0.2,1-0.5,1.3-0.9l0.1-0.1l-0.6-1l-0.2,0.2
				c-0.3,0.3-0.6,0.5-1,0.7c-0.4,0.2-0.9,0.2-1.5,0.2c-0.8,0-1.5-0.3-2-0.9c-0.5-0.6-0.8-1.5-0.8-2.4v0H107.1z M103.3,5.2
				c0.7,0,1.3,0.2,1.7,0.7c0.4,0.5,0.6,1.1,0.6,1.8v0.1h-4.9c0.1-0.7,0.4-1.3,0.8-1.8C102.1,5.5,102.7,5.2,103.3,5.2z"/>
			<path fill="#FFFFFF" d="M59.5,9.1V8c0-1.2-0.3-2.2-1-2.9C57.9,4.3,57,4,55.8,4c-1.1,0-2,0.5-2.8,1.3c-0.8,0.9-1.2,2-1.2,3.3v0.5
				c0,1.3,0.4,2.4,1.2,3.3c0.8,0.9,1.8,1.3,3,1.3c0.7,0,1.4-0.1,1.9-0.3c0.5-0.2,1-0.5,1.3-0.9l0.1-0.1l-0.6-1l-0.2,0.2
				c-0.3,0.3-0.6,0.5-1,0.7c-0.4,0.2-0.9,0.2-1.5,0.2c-0.8,0-1.5-0.3-2-0.9c-0.5-0.6-0.8-1.5-0.8-2.4v0H59.5z M55.8,5.2
				c0.7,0,1.3,0.2,1.7,0.7c0.4,0.5,0.6,1.1,0.6,1.8v0.1h-4.9c0.1-0.7,0.4-1.3,0.8-1.8C54.6,5.5,55.1,5.2,55.8,5.2z"/>
		</g>
	</g>
	<g>
		<g>
			<path fill="#FFFFFF" d="M295.6,2.5l-0.1-0.1h-0.3l-2.5,6.8h5.3L295.6,2.5z M293.2,8.7l2.1-5.7l2.1,5.7H293.2z M295.6,2.5
				l-0.1-0.1h-0.3l-2.5,6.8h5.3L295.6,2.5z M293.2,8.7l2.1-5.7l2.1,5.7H293.2z M295.6,2.5l-0.1-0.1h-0.3l-2.5,6.8h5.3L295.6,2.5z
				 M293.2,8.7l2.1-5.7l2.1,5.7H293.2z M295.6,2.5l-0.1-0.1h-0.3l-2.5,6.8h5.3L295.6,2.5z M293.2,8.7l2.1-5.7l2.1,5.7H293.2z
				 M295.6,2.5l-0.1-0.1h-0.3l-2.5,6.8h5.3L295.6,2.5z M293.2,8.7l2.1-5.7l2.1,5.7H293.2z M295.6,2.5l-0.1-0.1h-0.3l-2.5,6.8h5.3
				L295.6,2.5z M293.2,8.7l2.1-5.7l2.1,5.7H293.2z M295.6,2.5l-0.1-0.1h-0.3l-2.5,6.8h5.3L295.6,2.5z M293.2,8.7l2.1-5.7l2.1,5.7
				H293.2z M295.6,2.5l-0.1-0.1h-0.3l-2.5,6.8h5.3L295.6,2.5z M293.2,8.7l2.1-5.7l2.1,5.7H293.2z M295.6,2.5l-0.1-0.1h-0.3l-2.5,6.8
				h5.3L295.6,2.5z M293.2,8.7l2.1-5.7l2.1,5.7H293.2z M295.6,2.5l-0.1-0.1h-0.3l-2.5,6.8h5.3L295.6,2.5z M293.2,8.7l2.1-5.7
				l2.1,5.7H293.2z M295.6,2.5l-0.1-0.1h-0.3l-2.5,6.8h5.3L295.6,2.5z M293.2,8.7l2.1-5.7l2.1,5.7H293.2z M295.6,2.5l-0.1-0.1h-0.3
				l-2.5,6.8h5.3L295.6,2.5z M293.2,8.7l2.1-5.7l2.1,5.7H293.2z M295.6,2.5l-0.1-0.1h-0.3l-2.5,6.8h5.3L295.6,2.5z M293.2,8.7
				l2.1-5.7l2.1,5.7H293.2z M295.6,2.5l-0.1-0.1h-0.3l-2.5,6.8h5.3L295.6,2.5z M293.2,8.7l2.1-5.7l2.1,5.7H293.2z M295.6,2.5
				l-0.1-0.1h-0.3l-2.5,6.8h5.3L295.6,2.5z M293.2,8.7l2.1-5.7l2.1,5.7H293.2z M295.6,2.5l-0.1-0.1h-0.3l-2.5,6.8h5.3L295.6,2.5z
				 M293.2,8.7l2.1-5.7l2.1,5.7H293.2z M295.6,2.5l-0.1-0.1h-0.3l-2.5,6.8h5.3L295.6,2.5z M293.2,8.7l2.1-5.7l2.1,5.7H293.2z
				 M295.6,2.5l-0.1-0.1h-0.3l-2.5,6.8h5.3L295.6,2.5z M293.2,8.7l2.1-5.7l2.1,5.7H293.2z M295.6,2.5l-0.1-0.1h-0.3l-2.5,6.8h5.3
				L295.6,2.5z M293.2,8.7l2.1-5.7l2.1,5.7H293.2z M295.6,2.5l-0.1-0.1h-0.3l-2.5,6.8h5.3L295.6,2.5z M293.2,8.7l2.1-5.7l2.1,5.7
				H293.2z M295.6,2.5l-0.1-0.1h-0.3l-2.5,6.8h5.3L295.6,2.5z M293.2,8.7l2.1-5.7l2.1,5.7H293.2z M295.6,2.5l-0.1-0.1h-0.3l-2.5,6.8
				h5.3L295.6,2.5z M293.2,8.7l2.1-5.7l2.1,5.7H293.2z M295.6,2.5l-0.1-0.1h-0.3l-2.5,6.8h5.3L295.6,2.5z M293.2,8.7l2.1-5.7
				l2.1,5.7H293.2z M295.6,2.5l-0.1-0.1h-0.3l-2.5,6.8h5.3L295.6,2.5z M293.2,8.7l2.1-5.7l2.1,5.7H293.2z M295.6,2.5l-0.1-0.1h-0.3
				l-2.5,6.8h5.3L295.6,2.5z M293.2,8.7l2.1-5.7l2.1,5.7H293.2z M295.6,2.5l-0.1-0.1h-0.3l-2.5,6.8h5.3L295.6,2.5z M293.2,8.7
				l2.1-5.7l2.1,5.7H293.2z M295.6,2.5l-0.1-0.1h-0.3l-2.5,6.8h5.3L295.6,2.5z M293.2,8.7l2.1-5.7l2.1,5.7H293.2z M295.6,2.5
				l-0.1-0.1h-0.3l-2.5,6.8h5.3L295.6,2.5z M293.2,8.7l2.1-5.7l2.1,5.7H293.2z M295.6,2.5l-0.1-0.1h-0.3l-2.5,6.8h5.3L295.6,2.5z
				 M293.2,8.7l2.1-5.7l2.1,5.7H293.2z M295.6,2.5l-0.1-0.1h-0.3l-2.5,6.8h5.3L295.6,2.5z M293.2,8.7l2.1-5.7l2.1,5.7H293.2z
				 M295.6,2.5l-0.1-0.1h-0.3l-2.5,6.8h5.3L295.6,2.5z M293.2,8.7l2.1-5.7l2.1,5.7H293.2z M295.6,2.5l-0.1-0.1h-0.3l-2.5,6.8h5.3
				L295.6,2.5z M293.2,8.7l2.1-5.7l2.1,5.7H293.2z M295.6,2.5l-0.1-0.1h-0.3l-2.5,6.8h5.3L295.6,2.5z M293.2,8.7l2.1-5.7l2.1,5.7
				H293.2z M295.6,2.5l-0.1-0.1h-0.3l-2.5,6.8h5.3L295.6,2.5z M293.2,8.7l2.1-5.7l2.1,5.7H293.2z M295.6,2.5l-0.1-0.1h-0.3l-2.5,6.8
				h5.3L295.6,2.5z M293.2,8.7l2.1-5.7l2.1,5.7H293.2z M295.6,2.5l-0.1-0.1h-0.3l-2.5,6.8h5.3L295.6,2.5z M293.2,8.7l2.1-5.7
				l2.1,5.7H293.2z M295.6,2.5l-0.1-0.1h-0.3l-2.5,6.8h5.3L295.6,2.5z M293.2,8.7l2.1-5.7l2.1,5.7H293.2z M295.6,2.5l-0.1-0.1h-0.3
				l-2.5,6.8h5.3L295.6,2.5z M293.2,8.7l2.1-5.7l2.1,5.7H293.2z M295.6,2.5l-0.1-0.1h-0.3l-2.5,6.8h5.3L295.6,2.5z M293.2,8.7
				l2.1-5.7l2.1,5.7H293.2z M295.6,2.5l-0.1-0.1h-0.3l-2.5,6.8h5.3L295.6,2.5z M293.2,8.7l2.1-5.7l2.1,5.7H293.2z M295.6,2.5
				l-0.1-0.1h-0.3l-2.5,6.8h5.3L295.6,2.5z M293.2,8.7l2.1-5.7l2.1,5.7H293.2z M295.6,2.5l-0.1-0.1h-0.3l-2.5,6.8h5.3L295.6,2.5z
				 M293.2,8.7l2.1-5.7l2.1,5.7H293.2z M295.6,2.5l-0.1-0.1h-0.3l-2.5,6.8h5.3L295.6,2.5z M293.2,8.7l2.1-5.7l2.1,5.7H293.2z
				 M295.6,2.5l-0.1-0.1h-0.3l-2.5,6.8h5.3L295.6,2.5z M293.2,8.7l2.1-5.7l2.1,5.7H293.2z M295.6,2.5l-0.1-0.1h-0.3l-2.5,6.8h5.3
				L295.6,2.5z M293.2,8.7l2.1-5.7l2.1,5.7H293.2z M295.6,2.5l-0.1-0.1h-0.3l-2.5,6.8h5.3L295.6,2.5z M293.2,8.7l2.1-5.7l2.1,5.7
				H293.2z M295.6,2.5l-0.1-0.1h-0.3l-2.5,6.8h5.3L295.6,2.5z M293.2,8.7l2.1-5.7l2.1,5.7H293.2z M295.6,2.5l-0.1-0.1h-0.3l-2.5,6.8
				h5.3L295.6,2.5z M293.2,8.7l2.1-5.7l2.1,5.7H293.2z M295.6,2.5l-0.1-0.1h-0.3l-2.5,6.8h5.3L295.6,2.5z M293.2,8.7l2.1-5.7
				l2.1,5.7H293.2z M295.6,2.5l-0.1-0.1h-0.3l-2.5,6.8h5.3L295.6,2.5z M293.2,8.7l2.1-5.7l2.1,5.7H293.2z M295.6,2.5l-0.1-0.1h-0.3
				l-2.5,6.8h5.3L295.6,2.5z M293.2,8.7l2.1-5.7l2.1,5.7H293.2z M295.6,2.5l-0.1-0.1h-0.3l-2.5,6.8h5.3L295.6,2.5z M293.2,8.7
				l2.1-5.7l2.1,5.7H293.2z M295.6,2.5l-0.1-0.1h-0.3l-2.5,6.8h5.3L295.6,2.5z M293.2,8.7l2.1-5.7l2.1,5.7H293.2z M295.6,2.5
				l-0.1-0.1h-0.3l-2.5,6.8h5.3L295.6,2.5z M293.2,8.7l2.1-5.7l2.1,5.7H293.2z M295.6,2.5l-0.1-0.1h-0.3l-2.5,6.8h5.3L295.6,2.5z
				 M293.2,8.7l2.1-5.7l2.1,5.7H293.2z M295.6,2.5l-0.1-0.1h-0.3l-2.5,6.8h5.3L295.6,2.5z M293.2,8.7l2.1-5.7l2.1,5.7H293.2z
				 M295.6,2.5l-0.1-0.1h-0.3l-2.5,6.8h5.3L295.6,2.5z M293.2,8.7l2.1-5.7l2.1,5.7H293.2z M295.6,2.5l-0.1-0.1h-0.3l-2.5,6.8h5.3
				L295.6,2.5z M293.2,8.7l2.1-5.7l2.1,5.7H293.2z M295.6,2.5l-0.1-0.1h-0.3l-2.5,6.8h5.3L295.6,2.5z M293.2,8.7l2.1-5.7l2.1,5.7
				H293.2z M295.6,2.5l-0.1-0.1h-0.3l-2.5,6.8h5.3L295.6,2.5z M293.2,8.7l2.1-5.7l2.1,5.7H293.2z M295.6,2.5l-0.1-0.1h-0.3l-2.5,6.8
				h5.3L295.6,2.5z M293.2,8.7l2.1-5.7l2.1,5.7H293.2z M295.6,2.5l-0.1-0.1h-0.3l-2.5,6.8h5.3L295.6,2.5z M293.2,8.7l2.1-5.7
				l2.1,5.7H293.2z M295.6,2.5l-0.1-0.1h-0.3l-2.5,6.8h5.3L295.6,2.5z M293.2,8.7l2.1-5.7l2.1,5.7H293.2z M295.6,2.5l-0.1-0.1h-0.3
				l-2.5,6.8h5.3L295.6,2.5z M293.2,8.7l2.1-5.7l2.1,5.7H293.2z M295.6,2.5l-0.1-0.1h-0.3l-2.5,6.8h5.3L295.6,2.5z M293.2,8.7
				l2.1-5.7l2.1,5.7H293.2z"/>
			<rect x="394.9" y="4.2" fill="#FFFFFF" width="1.5" height="1.8"/>
			<rect x="394.9" y="11.8" fill="#FFFFFF" width="1.5" height="1.8"/>
			<path fill="#FFFFFF" d="M369.6,12.4v1.1h-4.1v-1.1l1.4-0.1V7.9c0-1-0.2-1.7-0.5-2c-0.3-0.4-0.8-0.6-1.5-0.6
				c-0.6,0-1.2,0.2-1.6,0.5c-0.4,0.3-0.7,0.8-0.9,1.3v5.2l1.4,0.1v1.1h-4.1v-1.1l1.4-0.1V5.4l-1.4-0.1V4.1h2.6l0.1,1.1
				c0.2-0.3,0.6-0.6,0.9-0.8c0.5-0.3,1.1-0.5,1.9-0.5c1,0,1.8,0.3,2.4,1c0.5,0.6,0.8,1.6,0.8,2.9v4.4L369.6,12.4z"/>
			<path fill="#FFFFFF" d="M349,10.6c0,0.9-0.3,1.6-1.1,2.2c-0.7,0.6-1.6,0.9-2.5,0.9c-1.3,0-2.3-0.5-3-1.3c-0.7-0.9-1-2-1-3.4V8.7
				c0-1.3,0.3-2.5,1-3.3c0.7-0.9,1.7-1.3,3-1.3c0.7,0,1.4,0.1,2,0.4c0.6,0.3,1.1,0.7,1.5,1.1l0,0l0.1,2.2h-1.2l-0.2-1.7
				c-0.2-0.2-0.5-0.5-0.9-0.6c-0.4-0.2-0.8-0.2-1.3-0.2c-0.9,0-1.5,0.3-2,0.9c-0.4,0.7-0.7,1.5-0.7,2.5V9c0,1,0.2,1.9,0.7,2.5
				c0.4,0.6,1.1,0.9,2,0.9c0.6,0,1.2-0.2,1.6-0.5c0.5-0.3,0.7-0.8,0.7-1.4v-0.2h1.2L349,10.6z"/>
			<path fill="#FFFFFF" d="M326.8,12.4v1.1h-4.1v-1.1l1.4-0.1V7.8c0-0.9-0.2-1.6-0.5-2c-0.3-0.4-0.8-0.6-1.4-0.6
				c-0.6,0-1.2,0.2-1.6,0.5c-0.4,0.3-0.7,0.8-0.9,1.3v5.3l1.4,0.1v1.1h-4.1v-1.1l1.4-0.1V1.4l-1.4-0.1V0.2h2.7v5
				c0.3-0.3,0.6-0.6,0.9-0.8c0.5-0.3,1.1-0.5,1.8-0.5c1,0,1.8,0.3,2.3,1c0.5,0.6,0.8,1.6,0.8,2.9v4.5L326.8,12.4z"/>
			<path fill="#FFFFFF" d="M315,5.3c-0.7-0.9-1.6-1.4-2.7-1.4c-0.7,0-1.3,0.2-1.8,0.4c-0.3,0.2-0.7,0.5-0.9,0.8l-0.1-1H307v1.1
				l1.4,0.1v10.4l-1.4,0.1V17h4.1v-1.1l-1.4-0.1v-3.1c0.2,0.3,0.5,0.5,0.9,0.6c0.5,0.2,1.1,0.4,1.8,0.4c1.1,0,2-0.4,2.7-1.3
				c0.6-0.8,1-2,1-3.3V8.9C316,7.4,315.7,6.2,315,5.3z M314.6,8.9v0.2c0,1-0.2,1.9-0.6,2.5c-0.4,0.6-1,0.9-1.8,0.9
				c-0.6,0-1.1-0.1-1.5-0.4c-0.4-0.2-0.7-0.6-0.9-1V6.8c0.2-0.5,0.5-0.8,0.9-1.1c0.4-0.3,0.9-0.4,1.5-0.4c0.8,0,1.4,0.3,1.8,1
				C314.4,6.9,314.6,7.8,314.6,8.9z"/>
			<polygon fill="#FFFFFF" points="306.1,12.4 306.1,13.5 302,13.5 302,12.4 303.3,12.3 303.3,1.4 302,1.3 302,0.2 304.7,0.2 
				304.7,12.3 			"/>
			<path fill="#FFFFFF" d="M300.2,12.3L296,1h-1.2l-4.3,11.3l-1,0.1v1.1h3.4v-1.1l-1-0.1l0.9-2.3h5.1l0.9,2.3l-1,0.1v1.1h3.4v-1.1
				L300.2,12.3z M295.5,2.3l0.1,0.1l2.5,6.7h-5.3l2.5-6.8H295.5z"/>
			<rect x="286.8" y="1" fill="#FFFFFF" width="1.2" height="14.7"/>
			<path fill="#FFFFFF" d="M285.5,12.4v1.1h-4.1v-1.1l1.4-0.1V8.1c0-1.1-0.2-1.8-0.5-2.2c-0.3-0.4-0.8-0.6-1.5-0.6
				c-0.7,0-1.2,0.2-1.6,0.7c-0.4,0.5-0.6,1.1-0.7,1.8c0,0,0,0,0,0.1v4.5l1.4,0.1v1.1h-4.1v-1.1l1.4-0.1V8.1c0-1-0.2-1.8-0.6-2.2
				c-0.4-0.4-0.8-0.6-1.5-0.6c-0.7,0-1.2,0.2-1.5,0.5C273,6,272.8,6.5,272.6,7v5.2l1.4,0.1v1.1h-4.1v-1.1l1.3-0.1V5.4l-1.3-0.1V4.1
				h2.6l0.1,1.1c0.2-0.3,0.5-0.6,0.9-0.8c0.5-0.3,1.1-0.5,1.8-0.5c0.7,0,1.4,0.2,1.8,0.5c0.4,0.3,0.7,0.7,0.9,1.2
				c0.3-0.5,0.6-0.8,1-1.1c0.5-0.4,1.2-0.6,2-0.6c1,0,1.8,0.3,2.4,1c0.5,0.7,0.8,1.7,0.8,3.1v4.2L285.5,12.4z"/>
			<path fill="#FFFFFF" d="M259.8,4.1l-0.2,1.3l-0.9-0.1c-0.6,0-1,0.2-1.4,0.5c-0.4,0.3-0.6,0.8-0.8,1.3v5.2l1.4,0.1v1.1h-4.1v-1.1
				l1.4-0.1V5.4l-1.4-0.1V4.1h2.6l0.1,1.1c0.2-0.3,0.5-0.6,0.8-0.8c0.5-0.3,1-0.5,1.7-0.5c0.1,0,0.3,0,0.4,0c0.1,0,0.2,0,0.3,0.1
				L259.8,4.1z"/>
			<path fill="#FFFFFF" d="M253.3,0.2l-0.2,1.2l-0.2,0c-0.1,0-0.2-0.1-0.4-0.1s-0.3,0-0.5,0c-0.5,0-0.8,0.1-1.1,0.4
				c-0.3,0.3-0.4,0.8-0.4,1.3v1.1h2.1v1.2h-2.1v6.9l1.4,0.1v1.1h-4.1v-1.1l1.4-0.1V5.4h-1.5V4.1h1.5V3c0-1,0.2-1.7,0.7-2.2
				c0.5-0.5,1.2-0.8,2-0.8c0.2,0,0.4,0,0.6,0c0.2,0,0.4,0.1,0.6,0.1L253.3,0.2z"/>
			<polygon fill="#FFFFFF" points="246.7,12.4 246.7,13.5 242.6,13.5 242.6,12.4 243.9,12.3 243.9,1.4 242.6,1.3 242.6,0.2 
				245.3,0.2 245.3,12.3 			"/>
			<polygon fill="#FFFFFF" points="233.1,1 233.1,2.2 232.2,2.2 229.4,13.5 228.1,13.5 225.3,4.1 225.1,3.5 225,4.1 222.1,13.5 
				220.9,13.5 218,2.2 217.1,2.2 217.1,1 220.7,1 220.7,2.2 219.5,2.2 221.3,9.9 221.5,10.9 221.8,9.9 224.5,1 225.7,1 228.4,9.8 
				228.7,11 228.9,9.9 230.8,2.2 229.6,2.2 229.6,1 			"/>
			<path fill="#FFFFFF" d="M212,11c0,0.8-0.3,1.5-1,2c-0.6,0.5-1.5,0.7-2.5,0.7c-0.7,0-1.3-0.1-1.9-0.3c-0.6-0.2-1.1-0.5-1.5-0.8
				l-0.1-0.1v-2.1h1.2l0.2,1.4c0.2,0.2,0.5,0.4,0.9,0.5c0.4,0.1,0.8,0.2,1.2,0.2c0.7,0,1.2-0.1,1.6-0.4c0.4-0.3,0.5-0.6,0.5-1
				c0-0.4-0.1-0.7-0.5-1c-0.3-0.3-0.9-0.5-1.8-0.7c-1.1-0.2-1.9-0.6-2.5-1c-0.6-0.4-0.9-1-0.9-1.8s0.3-1.4,1-1.9
				c0.6-0.5,1.4-0.8,2.4-0.8c0.7,0,1.3,0.1,1.9,0.3c0.6,0.2,1,0.5,1.4,0.9l0.1,0.1l0,2.1h-1.2l-0.1-1.4c-0.2-0.2-0.5-0.4-0.8-0.5
				c-0.3-0.1-0.8-0.2-1.2-0.2c-0.7,0-1.2,0.1-1.5,0.4c-0.3,0.3-0.5,0.6-0.5,1c0,0.4,0.1,0.6,0.4,0.9c0.3,0.2,0.9,0.5,1.8,0.7
				c1.1,0.2,1.9,0.6,2.5,1C211.7,9.6,212,10.2,212,11z"/>
			<path fill="#FFFFFF" d="M194.3,12.4v1.1h-4.1v-1.1l1.3-0.1V7.9c0-1-0.2-1.7-0.5-2c-0.4-0.4-0.8-0.6-1.5-0.6
				c-0.6,0-1.2,0.2-1.6,0.5c-0.4,0.3-0.7,0.8-0.9,1.3v5.2l1.3,0.1v1.1h-4.1v-1.1l1.3-0.1V5.4l-1.3-0.1V4.1h2.6l0.1,1.1
				c0.2-0.3,0.5-0.6,0.9-0.8c0.5-0.3,1.1-0.5,1.8-0.5c1,0,1.8,0.3,2.4,1c0.5,0.6,0.8,1.6,0.8,2.9v4.4L194.3,12.4z"/>
			<rect x="180.5" y="0.2" fill="#FFFFFF" width="1.4" height="1.8"/>
			<polygon fill="#FFFFFF" points="183.2,12.4 183.2,13.5 179.2,13.5 179.2,12.4 180.5,12.3 180.5,5.4 179.2,5.3 179.2,4.1 
				181.9,4.1 181.9,12.3 			"/>
			<path fill="#FFFFFF" d="M178.1,12.4v1.1H174v-1.1l1.3-0.1V7.8c0-0.9-0.2-1.6-0.5-2c-0.4-0.4-0.8-0.6-1.4-0.6
				c-0.6,0-1.2,0.2-1.6,0.5c-0.4,0.3-0.7,0.8-0.9,1.3v5.3l1.4,0.1v1.1h-4.1v-1.1l1.4-0.1V1.4l-1.4-0.1V0.2h2.7v5
				c0.3-0.3,0.6-0.6,0.9-0.8c0.5-0.3,1.1-0.5,1.8-0.5c1,0,1.8,0.3,2.3,1c0.5,0.6,0.8,1.6,0.8,2.9v4.5L178.1,12.4z"/>
			<path fill="#FFFFFF" d="M167.4,13.4l-0.1,0.1c-0.2,0.1-0.4,0.1-0.7,0.2c-0.2,0-0.5,0.1-0.7,0.1c-0.7,0-1.2-0.2-1.6-0.7
				c-0.4-0.4-0.6-1.1-0.6-2V5.4h-1.5V4.1h1.5V1.8h1.4v2.3h2v1.2h-2V11c0,0.5,0.1,0.9,0.3,1.1c0.2,0.2,0.4,0.3,0.7,0.3
				c0.2,0,0.3,0,0.5,0c0.1,0,0.3,0,0.5-0.1l0.2,0L167.4,13.4z"/>
			<path fill="#FFFFFF" d="M148.1,12.4v1.1H144v-1.1l1.4-0.1V7.8c0-0.9-0.2-1.6-0.5-2c-0.3-0.4-0.8-0.6-1.4-0.6
				c-0.6,0-1.2,0.2-1.6,0.5c-0.4,0.3-0.7,0.8-0.9,1.3v5.3l1.3,0.1v1.1h-4.1v-1.1l1.4-0.1V1.4l-1.4-0.1V0.2h2.8v5
				c0.2-0.3,0.5-0.6,0.9-0.8c0.5-0.3,1.2-0.5,1.8-0.5c1,0,1.8,0.3,2.3,1c0.5,0.6,0.8,1.6,0.8,2.9v4.5L148.1,12.4z"/>
			<path fill="#FFFFFF" d="M137.3,13.4l-0.2,0.1c-0.2,0.1-0.4,0.1-0.6,0.2c-0.2,0-0.5,0.1-0.8,0.1c-0.7,0-1.2-0.2-1.6-0.7
				c-0.4-0.4-0.6-1.1-0.6-2V5.4H132V4.1h1.5V1.8h1.4v2.3h2v1.2h-2V11c0,0.5,0.1,0.9,0.3,1.1c0.2,0.2,0.4,0.3,0.7,0.3
				c0.2,0,0.3,0,0.5,0c0.1,0,0.3,0,0.5-0.1l0.2,0L137.3,13.4z"/>
			<path fill="#FFFFFF" d="M127.6,0.2l-0.2,1.2l-0.2,0c-0.1,0-0.2-0.1-0.4-0.1s-0.3,0-0.5,0c-0.5,0-0.8,0.1-1.1,0.4
				C125,2,124.9,2.5,124.9,3v1.1h2.1v1.2h-2.1v6.9l1.3,0.1v1.1h-4.1v-1.1l1.3-0.1V5.4H122V4.1h1.5V3c0-1,0.2-1.7,0.7-2.2
				c0.6-0.7,1.5-0.9,2.6-0.8c0.2,0,0.4,0.1,0.6,0.1L127.6,0.2z"/>
			<path fill="#FFFFFF" d="M98.6,12.4v1.1h-4.1v-1.1l1.3-0.1V8.1c0-1.1-0.2-1.8-0.5-2.2c-0.4-0.4-0.8-0.6-1.5-0.6
				c-0.7,0-1.3,0.2-1.6,0.7c-0.4,0.5-0.6,1.1-0.7,1.8v0.1c0,0,0,0.1,0,0.2v4.4l1.4,0.1v1.1h-4.1v-1.1l1.4-0.1V8.1
				c0-1-0.2-1.8-0.5-2.2c-0.4-0.4-0.8-0.6-1.5-0.6c-0.7,0-1.2,0.2-1.5,0.5S85.8,6.5,85.7,7v5.2l1.3,0.1v1.1h-4.1v-1.1l1.3-0.1V5.4
				l-1.3-0.1V4.1h2.6l0.1,1.1c0.2-0.3,0.5-0.6,0.9-0.8C87,4.1,87.6,4,88.3,4c0.7,0,1.3,0.2,1.8,0.5c0.4,0.3,0.7,0.7,0.9,1.2
				c0.3-0.5,0.6-0.8,1-1.1C92.6,4.2,93.2,4,94,4c1,0,1.8,0.3,2.4,1c0.5,0.7,0.8,1.7,0.8,3.1v4.2L98.6,12.4z"/>
			<path fill="#FFFFFF" d="M80.8,5.3C80,4.4,79,4,77.7,4c-1.2,0-2.3,0.5-3,1.3c-0.8,0.9-1.1,2-1.1,3.4V9c0,1.4,0.4,2.5,1.1,3.4
				c0.8,0.9,1.8,1.3,3,1.3c1.2,0,2.3-0.5,3-1.3c0.8-0.9,1.1-2,1.1-3.4V8.7C81.9,7.3,81.5,6.2,80.8,5.3z M77.8,12.5
				c-0.9,0-1.5-0.3-2-1C75.2,10.8,75,10,75,9V8.7c0-1,0.2-1.8,0.8-2.5c0.5-0.7,1.1-1,2-1c0.9,0,1.5,0.3,2,1c0.5,0.7,0.8,1.5,0.8,2.5
				V9c0,1-0.2,1.8-0.8,2.5C79.3,12.1,78.6,12.5,77.8,12.5z"/>
			<path fill="#FFFFFF" d="M72.2,11c0,0.8-0.3,1.5-1,2c-0.6,0.5-1.5,0.7-2.5,0.7c-0.7,0-1.3-0.1-1.9-0.3c-0.6-0.2-1.1-0.5-1.5-0.8
				l-0.1-0.1v-2.1h1.2l0.1,1.4c0.2,0.2,0.5,0.4,0.9,0.5c0.4,0.1,0.8,0.2,1.2,0.2c0.7,0,1.2-0.1,1.6-0.4c0.4-0.3,0.5-0.6,0.5-1
				c0-0.4-0.2-0.7-0.5-1c-0.3-0.3-0.9-0.5-1.8-0.7c-1.1-0.2-1.9-0.6-2.5-1c-0.6-0.4-0.9-1-0.9-1.8s0.3-1.4,0.9-1.9
				C66.8,4.2,67.6,4,68.6,4c0.7,0,1.3,0.1,1.9,0.3c0.6,0.2,1,0.5,1.4,0.9l0.1,0.1l0,2.1h-1.2l-0.1-1.4c-0.2-0.2-0.5-0.4-0.8-0.5
				c-0.4-0.1-0.8-0.2-1.2-0.2c-0.7,0-1.2,0.1-1.5,0.4c-0.3,0.3-0.5,0.6-0.5,1c0,0.4,0.1,0.6,0.4,0.9c0.3,0.2,0.9,0.5,1.8,0.7
				c1.1,0.2,1.9,0.6,2.5,1C71.9,9.6,72.2,10.2,72.2,11z"/>
			<path fill="#FFFFFF" d="M51.1,4.1l-0.2,1.3L50,5.3c-0.6,0-1,0.2-1.4,0.5c-0.4,0.3-0.6,0.8-0.8,1.3v5.2l1.3,0.1v1.1H45v-1.1
				l1.4-0.1V5.4L45,5.3V4.1h2.6l0.1,1.1C48,5,48.2,4.7,48.5,4.5C49,4.1,49.5,4,50.2,4c0.1,0,0.3,0,0.4,0c0.1,0,0.2,0,0.3,0.1
				L51.1,4.1z"/>
			<path fill="#FFFFFF" d="M42.8,5.3C42,4.4,41,4,39.7,4s-2.3,0.5-3,1.3c-0.8,0.9-1.1,2-1.1,3.4V9c0,1.4,0.4,2.5,1.1,3.4
				c0.8,0.9,1.8,1.3,3.1,1.3c1.2,0,2.3-0.5,3-1.3c0.8-0.9,1.1-2,1.1-3.4V8.7C43.9,7.3,43.5,6.2,42.8,5.3z M39.7,12.5
				c-0.9,0-1.6-0.3-2-1c-0.5-0.7-0.7-1.5-0.7-2.5V8.7c0-1,0.2-1.8,0.8-2.5c0.5-0.7,1.2-1,2-1s1.5,0.3,2,1c0.5,0.7,0.8,1.5,0.8,2.5V9
				c0,1-0.3,1.8-0.8,2.5C41.2,12.1,40.6,12.5,39.7,12.5z"/>
			<polygon fill="#FFFFFF" points="34.5,12.4 34.5,13.5 30.4,13.5 30.4,12.4 31.8,12.3 31.8,1.4 30.4,1.3 30.4,0.2 33.2,0.2 
				33.2,12.3 			"/>
			<path fill="#FFFFFF" d="M28.6,5.3C27.9,4.4,27,4,25.9,4c-0.7,0-1.3,0.2-1.8,0.4c-0.4,0.2-0.7,0.5-0.9,0.8l-0.1-1h-2.6v1.1
				l1.4,0.1v10.4l-1.4,0.1V17h4.1v-1.1l-1.4-0.1v-3.1c0.2,0.3,0.5,0.5,0.9,0.6c0.5,0.2,1.1,0.4,1.8,0.4c1.1,0,2-0.4,2.7-1.3
				c0.6-0.8,1-2,1-3.3V8.9C29.5,7.4,29.2,6.2,28.6,5.3z M28.1,8.9v0.2c0,1-0.2,1.9-0.6,2.5c-0.4,0.6-1,0.9-1.8,0.9
				c-0.6,0-1.1-0.1-1.5-0.4c-0.4-0.2-0.7-0.6-0.9-1V6.8c0.2-0.5,0.5-0.8,0.9-1.1c0.4-0.3,0.9-0.4,1.5-0.4c0.8,0,1.4,0.3,1.8,1
				C27.9,6.9,28.1,7.8,28.1,8.9z"/>
			<polygon fill="#FFFFFF" points="19.9,12.4 19.9,13.5 16.5,13.5 16.5,12.4 17.2,12.4 15.3,9.8 13.4,12.4 14.1,12.4 14.1,13.5 
				10.7,13.5 10.7,12.4 11.8,12.3 14.5,8.8 11.9,5.4 10.8,5.3 10.8,4.1 14.3,4.1 14.3,5.3 13.5,5.3 15.3,7.7 17,5.3 16.3,5.3 
				16.3,4.1 19.8,4.1 19.8,5.3 18.7,5.4 16.1,8.8 18.8,12.3 			"/>
			<polygon fill="#FFFFFF" points="9.4,10.5 9.4,13.5 0,13.5 0,12.4 1.4,12.3 1.4,2.3 0,2.2 0,1 9.4,1 9.4,4.1 8.1,4.1 8,2.3 
				2.7,2.3 2.7,6.4 7.7,6.4 7.7,7.7 2.7,7.7 2.7,12.3 8.1,12.3 8.1,10.5 			"/>
		</g>
	</g>
</g>
</svg>

