<?xml version="1.0" encoding="utf-8"?>
<!-- Generator: Adobe Illustrator 18.1.1, SVG Export Plug-In . SVG Version: 6.00 Build 0)  -->
<!DOCTYPE svg PUBLIC "-//W3C//DTD SVG 1.1//EN" "http://www.w3.org/Graphics/SVG/1.1/DTD/svg11.dtd">
<svg version="1.1" id="Layer_1" xmlns="http://www.w3.org/2000/svg" xmlns:xlink="http://www.w3.org/1999/xlink" x="0px" y="0px"
	 viewBox="0 0 75 75" enable-background="new 0 0 75 75" xml:space="preserve">
<g>
	<polygon fill="#F78E1E" points="29.3,24.3 29,24.2 29.3,24.3 27.6,22.3 22.6,24.1 19.2,30.2 29.8,25 	"/>
	<polygon fill="#F78E1E" points="46,24.2 45.7,24.3 45.2,25 55.8,30.2 52.4,24.1 47.4,22.3 45.7,24.3 	"/>
	<polygon fill="#F78E1E" points="45.1,25 44.9,24.9 42.2,26.7 42.2,26.7 44.9,24.9 37.5,22.3 30.1,24.9 32.8,26.7 32.8,26.7 
		30.1,24.9 29.8,25 37.5,30.2 45.2,25 45.1,25 	"/>
	<path fill="#F78E1E" d="M57.3,26.7L57.3,26.7L54,23.2l-1.9-2h-3.6h0H37.5h0h0h0H26.5h-3.6l-1.9,2l-3.5,3.7l-4.3,4.5l13.2,13.2
		l6.6,6.6l4.5,4.5v0l0,0l0,0v0l2.9-2.9l8.2-8.2l13.2-13.2L57.3,26.7z M37.5,53.5l-3.4-7.8L19.7,31.5l7.7,12L15.6,31.5
		c0,0,1.3-1.3,4.2,0c0,0,2.6-1.1,10.8,0l3.6,14.3l3.4-14.3V53.5z M37.5,30.2c-4.1,0.6-7.7,0-7.7,0s-6.6,0.6-10.6,0
		c0,0-1.9,0.4-2.4,0l5.8-6.1l1.7-1.8h3.3h9.9h0h0h0h9.9h0h3.3l1.7,1.8l5.8,6.1c-0.5,0.4-2.4,0-2.4,0c-4.1,0.6-10.6,0-10.6,0
		S41.6,30.7,37.5,30.2z M47.5,43.5l7.7-12L40.8,45.8l3.6-14.3c8.3-1.1,10.8,0,10.8,0c2.8-1.3,4.2,0,4.2,0L47.5,43.5z"/>
</g>
</svg>

