<?xml version="1.0" encoding="utf-8"?>
<!-- Generator: Adobe Illustrator 18.1.1, SVG Export Plug-In . SVG Version: 6.00 Build 0)  -->
<!DOCTYPE svg PUBLIC "-//W3C//DTD SVG 1.1//EN" "http://www.w3.org/Graphics/SVG/1.1/DTD/svg11.dtd">
<svg version="1.1" id="Layer_1" xmlns="http://www.w3.org/2000/svg" xmlns:xlink="http://www.w3.org/1999/xlink" x="0px" y="0px"
	 viewBox="0 0 75 75" enable-background="new 0 0 75 75" xml:space="preserve">
<path fill="#F68D1E" d="M23.8,23.2c-0.3,0.9-1,1.4-1.2,2.3c-0.1,0.5,0.1,1-0.1,1.5s-0.9,0.9-0.8,1.5c0.7-0.1,1.1-0.4,1.8-0.5
	c0.2,0.8-2,0.2-1.7,1.5c0.9-0.3,1.4,0,2.2,0.5c1.8-1.8,0.5-6.2,0.6-9.1C24.1,21.2,24.2,22.3,23.8,23.2z"/>
<path fill="#F68D1E" d="M39.3,33.4c0.1,0,0.2,0,0.2-0.1C39.4,33.3,39.4,33.3,39.3,33.4z"/>
<path fill="#F68D1E" d="M25.6,59c-0.5-0.7-0.8-1.5-0.4-2.3c0.1-0.1,0.1-0.1,0.1-0.2l0,0c0-0.1,0-0.4,0.1-0.7c0,0,0,0-0.1-0.1
	c-0.3-0.3-1.1-1.1-0.2-2.4c0.2-0.3,0.3-0.4,0.3-0.5c0.1-0.5,0.2-0.9,0.9-1.7c0.1-0.1,0.1-0.1,0.1-0.2l0,0c-0.8-1.3,0.5-2.2,1.2-2.6
	c0.1,0,0.1-0.1,0.1-0.1c-0.1-0.2-0.2-0.4-0.2-0.7c0-0.6,0.5-1.1,1-1.4l0.1-0.1c-0.1-0.2-0.1-0.4-0.1-0.6c-0.6,0.5-1.5,1-1.9,1.4
	c-1.1,0.9-2,1.8-2.7,2.5c-1.8,1.9-3.5,3.6-4.8,5.6c0,0.1,0,0.3,0,0.4c1.3,0,3.5,0.5,5.8,4c0.2,0.1,0.3,0.1,0.5,0.1
	c0.1,0,0.1,0,0.2,0C25.6,59.4,25.6,59.2,25.6,59z"/>
<path fill="#F68D1E" d="M55.6,46c-1.8-1.1-3.7-2.3-2.3-3.8c-0.3-0.9-0.6-2.1-1.1-3.1c-0.4-0.7-1.1-2.1-1.9-2.3c-0.5-0.1-1,0-1.6,0.1
	l0,0l0.1,0.2c0.1,0.2,0.2,0.3,0.2,0.4l0.1,0.3v0.3c-0.1,0.4-0.7,3.7-8.9,5.4v0.6l0.2,0.6c0.2,0.5,0.5,1.2,0.9,1.9h0.3v0.9
	c0.1,1.4-0.1,2.2-0.6,2.7c-0.1,0.1-0.3,0.3-0.5,0.3c0.3,0.7,0.5,1.5,0.1,2.2c-0.2,0.3-0.5,0.8-1.2,1.1c-0.1,0-0.1,0-0.1,0.1V54
	c0.2,1.2,0,2.4-2.5,3.5c-0.1,0.1-0.2,0.1-0.3,0.2c0,0.2-0.2,0.5-0.6,0.9c-1.6,1.6-1,3.2-0.5,3.8c0,0,8.8-4.2,10.4-2.8
	c0,0,0.8,0.1,1.7-0.7s1.1-1.3,3-1.5s0.9-2,2.1-3.4s0.1-1.2,2.3-1.9s0.1-1.7,1.4-2.2s2.1-0.7,2-1.1C58.8,47.4,56.5,46.6,55.6,46z"/>
<path fill="#F68D1E" d="M39.3,52.8c1.9-0.6-0.4-3.4,0.2-3.4c0,0,0.1,0,0.2,0.1c0.2,0.1,0.3,0.1,0.4,0.1c0.6,0,0.8-1,0.8-2.2l0,0
	c-0.6-1-0.9-1.9-1.2-2.5l0,0c-0.3-0.7-0.8-0.8-1.2-0.8c-0.2,0-0.4,0-0.5,0.1l0,0h-0.1l0,0l0,0c-0.2,0-0.3,0.1-0.5,0.1h-0.1
	c-0.1,0-0.2,0-0.2,0c-0.1,0-0.2,0-0.3,0c-0.7,0.2-1.3,0.8-2.1,1.1c-0.2,0.1-0.4,0.2-0.7,0.2c-0.2,0-0.5,0-0.7-0.1
	c-0.3-0.1-0.7-0.2-1-0.2h-0.1c-0.8,0-1.5,0.4-2.1,1c0.4-0.7,1.2-1.2,2-1.3c0.1,0,0.2,0,0.3,0c0.3,0,0.7,0.1,1,0.2
	c0.2,0.1,0.3,0.1,0.5,0.1s0.3,0,0.5-0.1c0.7-0.3,1.3-1,2.2-1.2c0.1,0,0.2,0,0.4,0c0.1,0,0.2,0,0.3,0h0.1c0.1,0,0.3,0,0.4-0.1
	c0.3-0.1,0.7-0.4,1.2-0.4c0.1,0,0.2,0,0.3,0c0-0.7,0.2-0.8,0.2-0.8c8.2-1.6,8.7-4.7,8.7-4.7s-0.1-0.2-0.4-0.4c-0.2-0.2,0-0.3,0-0.3
	l-0.4-1.4l-0.2-0.3l-0.7-0.5H46c-0.3,2.1-8.4,6.9-13,7.3c-0.5,0-0.9,0.1-1.2,0.1c-3.1,0-2-1.4-2-1.4l-0.4,0.2c0,0-0.2,0.2-0.3,0.5
	c0,0.1,0,0.2,0,0.2l0,0c0,0,0,0,0,0.1s0,0.1,0,0.1s0,0,0.1,0c0,0,0.1,0,0.1,0.1c0.2,0.2-0.1,0.2,0,0.4s0.2,0.2,0.4,0.5
	c0.2,0.2,0,0,0,0.4s0,0,0.1,0.4c0,0.1,0.1,0.2,0,0.2c0,0,0,0-0.1,0c0,0-0.1,0-0.1,0.1c-0.1,0.2,0.1,0.2,0,0.6c0,0.2-0.1,0.2-0.1,0.2
	V45c0,0,0,0,0,0.1c0,0.2,0,0.3,0,0.3l-0.1,0.5c0,0.5,0.1,0.8,0.4,1.1c-0.3,0.1-0.5,0.3-0.8,0.5c-1.8,1.2,1.4,0.7-0.9,2.2
	c-2.3,1.4,0.1,1.1-1.1,2.6c-1.1,1.5-0.3,1-1.1,2.2c-0.8,1.1,0.5,1.1,0.4,1.9c-0.2,0.9,0.1,0.7-0.3,1.4c-0.4,0.6,0.7,1.6,0.7,1.6
	s-1.1,1.1,1.8,1.1c0.4,0,0.8,0,1.3-0.1c4.4-0.3,3-1.6,6.8-3.3C40.4,54.8,37.2,53.5,39.3,52.8L39.3,52.8z"/>
<path fill="#F68D1E" d="M32.9,24c0.7,0.3,1.1-0.5,1.8-0.4c-0.5,0.6-1.7,0.6-1.8,1.6c0.9-0.6,2.2-1,3.7-1.1
	C36.7,22.5,33.5,23.2,32.9,24z"/>
<path fill="#F68D1E" d="M25.7,18c0.1-0.1,0.1-0.3,0.2-0.4C25.8,17.7,25.7,17.8,25.7,18z"/>
<path fill="#F68D1E" d="M25.5,18.6c0-0.1,0.1-0.3,0.1-0.4C25.6,18.3,25.5,18.5,25.5,18.6z"/>
<path fill="#F68D1E" d="M25.8,17.5c-0.1,0.2-0.1,0.3-0.2,0.4c0,0.1,0,0.2-0.1,0.2c0,0.1-0.1,0.3-0.1,0.4c-0.1,0.5-0.2,1.1-0.3,1.6
	c-0.1,1,0.1,1.8,0,2.7l0,0c1.6-0.8,3.9-0.4,4.6,1.1c0,0.3,0,1.9-0.2,2.9c-0.2,1.2-0.8,3.8-0.3,4.3s0.5,0.5,1.5,0.3
	c0,0,0.6-0.5,0.5-1.1c-0.3-1.3-0.3-2.8,0.3-5c0.2-0.6-0.4-1.5-0.3-2.4c0.9-0.8,2.5-1.6,4-1.5c1,0,1.7,0.8,2.7,0.7
	c0.7-0.6,0.1-1.3,0.1-2.2c0-1.3,1-2.9,0.7-4.7c-0.2-0.9-0.9-1.5-1.7-2c0.2,0,0.4,0,0.6,0c-0.3-0.2-0.9-0.5-1.7-0.8
	c-0.8,0-1.7,0.1-2.5,0.2c0.3-0.2,0.8-0.3,1.4-0.5c-2-0.4-4.6-0.3-6.5,1.5C27.3,14.8,26.4,16.1,25.8,17.5z"/>
<path fill="#F68D1E" d="M27.5,36.7c0.4,0.7,1,1.1,1.6,1.8c0.4,0.5,0.7,1.4,1.2,1.7c1.5,0.8,4.1-0.1,5.1-0.9c1,0.1,1.8-0.1,2.4-0.6
	l0,0c0,0,1-0.7,1.1-0.8s0.3-0.3,0.4-0.3c0.1,0-0.1,0.1,0.1,0s0.5-0.4,0.5-0.4l0,0c0.6-0.2,1.1-1.6,0.6-2c0,0-0.2-1-0.2-1.1
	s0-0.1,0-0.3s-0.1-0.2-0.1-0.3s0-0.2,0-0.2s0.1-0.2-0.1-0.2c-0.2,0,0-0.1-0.2,0s-0.5,0.3-0.6,0.3s-0.2,0.1-0.3,0.1
	c-0.2,0.2-0.2,0-0.2,0s-0.2-0.3,0.1-0.7c0.3-0.3,0.4-0.7,0.4-0.7v-0.2c0,0,0-0.1,0-0.2s0-0.1,0-0.2s0-1.7,0-1.8
	c0.1-1.2,0.1-2.4,0.7-3.2c0.1-0.8-0.1-1.3-0.4-1.8c-0.9-0.1-1.8-0.3-2.5-0.7c0.4,0.9-0.2,1.7-1.1,1.8c-0.2-0.2,0.7-0.4,0.4-0.8
	c-0.7,0.1-1.1,0.6-2,0.5c-0.3-0.1,0.3-0.8-0.3-0.8c-0.4,0.1-0.1,0.6,0,0.8c-0.4,0-0.7-0.2-1,0c0.1,0.6,0.1,1.3,0.5,1.6
	c-0.2,0.4-0.5,0.4-0.6,0.7c-0.5,1.6,1.8,3,0.4,3.9c-0.2,0.1-0.6,0.1-0.9,0.3c-0.4,0.2-0.7,0.4-0.8,0.5C30.6,32.6,29.1,32,29,31
	c-0.2-1.5,0.6-3.6,0.1-5.5c-0.8,0.4-1.5,0.4-2.2-0.1C26.8,25.7,27,25.7,27,26c-0.3,0-0.5-0.1-0.8-0.2c0.3-1.2,1.7-1.2,3-0.9
	c0.1-1-1.8-1.5-2.7-0.8c-0.2,0.2-0.2,0.7-0.6,0.8c-0.2-0.3,0.1-1-0.3-1.2c-0.1,0-0.2,0.1-0.2,0.2l0,0l0,0
	C25.4,28,25.7,33.8,27.5,36.7z M30.8,38c0.3-0.8,2.3-0.8,3-0.4C32.8,37.7,31.7,37.7,30.8,38z M33.1,35.6c-0.3,0.1-0.5,0.1-0.8,0.1
	s-0.5,0-0.8,0s-0.5-0.1-0.8-0.2c0.5-0.2,1-0.2,1.5-0.3c0.2,0,0.5,0,0.8,0s0.5,0,0.8,0.1C33.6,35.5,33.4,35.6,33.1,35.6z M31.6,33.5
	h0.3c0.2,0,0.4,0,0.6,0c-0.2,0.2-0.4,0.3-0.6,0.3s-0.5,0-0.6-0.3C31.4,33.6,31.5,33.5,31.6,33.5z M30.7,34.3
	c0.3-0.1,0.5-0.1,0.8-0.1s0.5,0,0.8,0.1c0.3-0.1,0.5-0.1,0.8-0.2c0.3,0,0.6,0,0.9,0c0.6,0.1,1.1,0.1,1.7,0.3L34,34.5h-0.8
	c-0.3,0-0.5,0.1-0.8,0.2h-0.1c-0.2,0-0.5-0.1-0.7-0.1l-0.7,0.1c-0.5,0-1,0.1-1.5,0.1C29.7,34.6,30.2,34.4,30.7,34.3z"/>
<path fill="#F68D1E" d="M32.9,25.1c0.9-0.6,2.2-1,3.7-1.1c0.1-1.6-3.1-0.9-3.7-0.1c0.7,0.3,1.1-0.5,1.8-0.4
	C34.2,24.1,33,24.1,32.9,25.1z"/>
<path fill="#F68D1E" d="M32.4,31.5c0.2-0.1,0.3-0.1,0.3-0.1c0.2-0.6,0-1.5-0.2-1.6s-0.3,0-0.3,0C31.4,31.2,32.4,31.5,32.4,31.5z"/>
<path fill="#F68D1E" d="M37.2,23.9L37.2,23.9C37.2,23.8,37.2,23.9,37.2,23.9z"/>
<path fill="#F68D1E" d="M24.5,20.9c-0.5,0.3-0.4,1.4-0.8,2.3c-0.3,0.9-1,1.4-1.2,2.3c-0.1,0.5,0.1,1-0.1,1.5s-0.9,0.9-0.8,1.5
	c0.7-0.1,1.1-0.4,1.8-0.5c0.2,0.8-2,0.2-1.7,1.5c0.9-0.3,1.4,0,2.2,0.5C25.8,28.1,24.5,23.8,24.5,20.9z"/>
<path fill="#F68D1E" d="M44,29.9c0-0.3,0-0.6,0-0.8c-0.4-0.3-1.1-0.9-1.9-0.6C42.5,29.2,42.8,29.9,44,29.9z"/>
<path fill="#F68D1E" d="M42.5,29.9c-0.4,0.3,0.1,1.3,0.6,1.3C43.5,30.6,42.9,30.1,42.5,29.9z"/>
<path fill="#F68D1E" d="M34,10.7c-2.4,0.2-4.7,1.8-6.5,3.9c2.9-2.9,5.5-2.3,6.2-2.1c1.2-0.5,3.7-0.7,4.5,0.1c-1.4-0.1-2.9-0.1-4.2,0
	c1.8,0,2.9,0.7,2.9,0.7c2.2-0.4,3.6,0.9,4.4,2.3c-1.2-0.1-1.2-1.4-2.3-1.6c0.5,1.7,0.7,3.4,1.7,4.6c0.3,0.4,0.9,0.6,1.2,0.9
	c0.7,0.7,1,1.6,1.8,2.1c-1.4,0.1-1.4-2.1-3-2.2c-0.4,1.3,0.6,1.9,1.2,2.5c-0.3,0.2-0.7-0.3-1.2-0.3c-0.5,3,1.3,4.5,3.6,5.1
	c-0.9,0.5-1.8-0.4-2.6-0.7c-0.6,1.8,1.1,1.7,2.3,2.1c0.7,0.2,1.1,0.8,1.6,0.8c0.6,0,1.1-0.6,1.1-0.8c0.1-0.7-0.6-0.6-0.7-1.3
	c1-0.1,3.2,1.2,3.9,0.1c0.3-0.4,0.2-0.8-0.1-1.3c-0.4-0.3-0.8,0.1-1.1,0.2c-0.1-0.4,0.3-0.4,0.4-0.7c0.9-0.1,1.1,0.5,1.8,0.7
	c1.3-1.2-0.7-2.4-0.8-3.2c-0.1-0.3,0.2-0.8,0.1-1.2C50,20,48,20.2,48.7,21.6c-0.7,0.1-0.5-0.7-0.9-0.8c-1.1-0.3-1.9-0.9-2.8-1.4
	c0.7-0.2,3.8,2.1,4.1,0.4c0.1-0.5-0.2-0.7-0.6-0.9c-0.6-0.2-0.3,0.6-0.8,0.6c-0.1-0.4,0.6-2-0.1-2.8c-1.6,0.2-1.9-1.1-2.6-2
	c-1-1.2-3-1.8-3.9-2.9c-0.3-0.2-0.8-0.4-1.3-0.5C38.2,10.8,36.2,10.4,34,10.7z"/>
</svg>

