<?xml version="1.0" encoding="utf-8"?>
<!-- Generator: Adobe Illustrator 18.1.1, SVG Export Plug-In . SVG Version: 6.00 Build 0)  -->
<!DOCTYPE svg PUBLIC "-//W3C//DTD SVG 1.1//EN" "http://www.w3.org/Graphics/SVG/1.1/DTD/svg11.dtd">
<svg version="1.1" id="Layer_1" xmlns="http://www.w3.org/2000/svg" xmlns:xlink="http://www.w3.org/1999/xlink" x="0px" y="0px"
	 viewBox="0 0 75 75" enable-background="new 0 0 75 75" xml:space="preserve">
<path fill="#F68D1E" d="M14.5,58.9h44.1v1.3H14.5V58.9z"/>
<path fill="#F68D1E" d="M57.2,29.7h1.3v30.5h-1.3V29.7z"/>
<path fill="#F68D1E" d="M31.4,36.9l-1.6-2.5l-3.7,2.5l-1.7-2.4l-1.2,6.1l6.2,1.2l-1.7-2.4L31.4,36.9z"/>
<path fill="#F68D1E" d="M28.6,15.7l1.2-0.8l-4.4-2.1l0.3,4.8l1.3-0.8l5.1,7.8l1.7-1.1L28.6,15.7z"/>
<path fill="#F68D1E" d="M47.1,21.7l0.9,1.2l-4,2.6l1.1,1.7l3.9-2.7l0.8,1.2l2.2-4.3L47.1,21.7z"/>
<path fill="#F68D1E" d="M39.4,40.1v9h1.5l-2.5,4.2L36,49.1h1.5v-7.7l-23,15.3h40.4v-27L39.4,40.1z"/>
<path fill="#F68D1E" d="M35.7,40.6L28,29.1l11.5-7.7l7.7,11.5L35.7,40.6z"/>
</svg>

