<?xml version="1.0" encoding="utf-8"?>
<!-- Generator: Adobe Illustrator 18.1.1, SVG Export Plug-In . SVG Version: 6.00 Build 0)  -->
<!DOCTYPE svg PUBLIC "-//W3C//DTD SVG 1.1//EN" "http://www.w3.org/Graphics/SVG/1.1/DTD/svg11.dtd">
<svg version="1.1" id="Layer_1" xmlns="http://www.w3.org/2000/svg" xmlns:xlink="http://www.w3.org/1999/xlink" x="0px" y="0px"
	 viewBox="0 0 75 75" enable-background="new 0 0 75 75" xml:space="preserve">
<path fill="#F68D1E" d="M31.1,40.8c0.3,0.1,0.5,0.1,0.8,0.2c0-0.2,0-0.5,0.1-0.7c-0.3-0.1-0.5-0.1-0.8-0.2
	C31.1,40.3,31.1,40.6,31.1,40.8z"/>
<path fill="#F68D1E" d="M34.7,47.1c0.2,0.1,0.6,0.2,0.8,0.3c0-0.5,0.1-1,0.1-1.5c-0.3-0.1-0.5-0.1-0.8-0.2
	C34.8,46,34.8,46.6,34.7,47.1z"/>
<path fill="#F68D1E" d="M26.8,43.4c0.2,0.1,0.6,0.2,0.8,0.3c0-0.2,0-0.5,0.1-0.7c-0.3-0.1-0.5-0.1-0.8-0.2
	C26.7,42.9,26.8,43.2,26.8,43.4z"/>
<path fill="#F68D1E" d="M28.5,43.2c-0.1,0.1-0.1,0.5-0.1,0.7c0.3,0.1,0.5,0.1,0.8,0.2c0-0.2,0-0.5,0.1-0.7
	C29,43.3,28.7,43.2,28.5,43.2z"/>
<path fill="#F68D1E" d="M28.2,46.1c-1.3-0.4-2.7-0.7-4-1.1c-0.2,1.1-0.2,2.4-0.3,3.6c1.3,0.4,2.7,0.7,4,1.1
	C28,48.5,28.1,47.3,28.2,46.1z M27.2,48.8c-0.8-0.2-1.6-0.4-2.4-0.7c0.1-0.7,0.1-1.4,0.2-2.2c0.8,0.2,1.6,0.4,2.4,0.7
	C27.3,47.3,27.2,48,27.2,48.8z"/>
<path fill="#F68D1E" d="M24.7,38.4c1.4,0.3,2.7,0.7,4.1,1c0.1-1.2,0.2-2.5,0.3-3.7c-1.3-0.3-2.7-0.7-4-1
	C24.8,35.9,24.8,37.2,24.7,38.4z M25.7,35.7c0.8,0.2,1.6,0.4,2.4,0.6C28,37,28,37.8,27.9,38.5c-0.8-0.2-1.6-0.4-2.4-0.6
	C25.6,37.2,25.6,36.4,25.7,35.7z"/>
<path fill="#F68D1E" d="M35.6,45.8c0.3,0.1,0.5,0.1,0.8,0.2c0.1-0.1,0.1-0.5,0.1-0.7c-0.3-0.1-0.5-0.1-0.8-0.2
	C35.6,45.3,35.7,45.6,35.6,45.8z"/>
<path fill="#F68D1E" d="M57.7,51.1L57,34.4l-0.2-6.6v-0.5c0-0.5-0.3-0.9-0.8-1l-7.4-2.2c0.1-1.8,0.5-11.4-6.2-12.3
	c-1.4-0.2-2.6,0.2-3.6,1c-1.7,1.4-2.4,3.9-2.7,5.7c-0.6-0.4-1.2-0.7-1.9-0.8c-1.1-0.2-2.1,0.1-2.9,0.8c-0.1,0.1-0.2,0.2-0.3,0.3
	l-2-0.5c-0.3-0.1-0.7,0-0.9,0.2L19.5,25c-0.4,0.3-0.5,0.8-0.4,1.2v2.9l-1,23.6l28.8,9l10.9-9.1C57.8,52.6,57.7,51.1,57.7,51.1z
	 M39.5,13.6c0.8-0.7,1.7-0.9,2.8-0.8c5.5,0.7,5.4,8.9,5.3,10.9L38.1,21c-0.3-0.6-0.7-1.2-1.2-1.6C37.2,17.6,37.9,14.9,39.5,13.6z
	 M34,18.8c0.7,0.1,1.4,0.4,1.9,0.9c0,0.2,0,0.4-0.1,0.6l-3.7-1.1C32.6,18.8,33.3,18.7,34,18.8z M38,23.2c0.9,2.8,1,6.2,1,8.2
	l-10-2.9c0.1-1.3,0.4-5,1.7-7.4C30.7,21.1,38,23.2,38,23.2z M23.8,39c0.1-1.7,0.3-3.3,0.4-5c0-0.1,0-0.1,0-0.1
	c1.9,0.5,3.8,0.9,5.6,1.4c-0.1,1.7-0.3,3.4-0.4,5.2C27.6,39.9,25.7,39.4,23.8,39z M25.4,40.1c0,0.2,0,0.5-0.1,0.7
	c-0.5-0.1-1.1-0.3-1.6-0.4c0-0.2,0-0.5,0.1-0.7C24.3,39.8,24.8,40,25.4,40.1z M29,20.6l0.7,0.2c-1.2,2.5-1.6,5.9-1.7,7.4l-6.5-1.9
	C21.5,26.3,29,20.6,29,20.6z M28.7,50.6c-1.9-0.5-3.8-1-5.7-1.6c0.1-1.6,0.2-3.3,0.4-4.9c0-0.1,0-0.1,0-0.1c1.9,0.5,3.8,1,5.6,1.5
	C28.9,47.3,28.8,49,28.7,50.6z M39.2,53.6c-0.3-0.1-0.5-0.2-0.8-0.2c0-0.2,0-0.5,0.1-0.7c0.3,0.1,0.5,0.2,0.8,0.2
	C39.2,53.1,39.2,53.4,39.2,53.6z M40.1,52.4c-0.3-0.1-0.5-0.2-0.8-0.2c0-0.5,0.1-1,0.1-1.5c-0.3-0.1-0.5-0.2-0.8-0.2
	c0-0.2,0-0.5,0.1-0.7c0.5,0.2,1.1,0.3,1.6,0.5C40.2,50.9,40.1,51.6,40.1,52.4z M40.5,47.2c-0.5-0.1-1.1-0.3-1.6-0.4
	c0-0.2,0-0.5,0.1-0.7c-0.2-0.1-0.6-0.2-0.8-0.3c0,0.5-0.1,1-0.1,1.5c-0.3-0.1-0.5-0.1-0.8-0.2c0-0.2,0-0.5,0.1-0.7
	c-0.2-0.1-0.6-0.2-0.8-0.3c0,0.5-0.1,1-0.1,1.5c1.1,0.3,2.2,0.6,3.2,0.9c0-0.2,0-0.5,0.1-0.7c0.3,0.1,0.5,0.2,0.8,0.2
	c0,0.2,0,0.5-0.1,0.7c-0.3-0.1-0.5-0.2-0.8-0.2c0,0.2,0,0.5-0.1,0.7c-0.8-0.2-1.6-0.4-2.4-0.7C37,48.7,37.1,49,37,49.2
	c0.3,0.1,0.5,0.2,0.8,0.2c0,0.2,0,0.5-0.1,0.7c-0.3-0.1-0.5-0.1-0.8-0.2c-0.1,0.4-0.1,1-0.2,1.4c0.2,0.1,0.5,0.2,0.8,0.3
	c0-0.2,0-0.5,0.1-0.7c0.3,0.1,0.5,0.2,0.8,0.2c0,0.2,0,0.5-0.1,0.7c-0.3-0.1-0.5-0.2-0.8-0.2c0,0.2,0,0.5-0.1,0.7
	c-0.3-0.1-0.5-0.2-0.8-0.2c0-0.2,0-0.5,0.1-0.7c-0.2-0.1-0.6-0.2-0.8-0.3c0,0.2,0,0.5-0.1,0.7c-0.3-0.1-0.5-0.1-0.8-0.2
	c-0.1,0.1-0.1,0.5-0.1,0.7c-0.3-0.1-0.5-0.2-0.8-0.2c0-0.2,0-0.5,0.1-0.7c0.3,0.1,0.5,0.2,0.8,0.2c0-0.2,0-0.5,0.1-0.7
	c0.3,0.1,0.5,0.1,0.8,0.2C36,51,36,50.6,36,50.4c-0.5-0.2-1.1-0.3-1.6-0.5c0,0.2,0,0.5-0.1,0.7c-0.3-0.1-0.5-0.1-0.8-0.2
	c-0.1,0.1-0.1,0.5-0.1,0.7c-0.4,0-0.9-0.1-1.4-0.3c0-0.5,0.1-0.9,0.1-1.4c-0.2-0.1-0.6-0.2-0.8-0.3c0,0.5-0.1,1-0.1,1.5
	c-0.3-0.1-0.5-0.1-0.8-0.2c-0.1,0.1-0.1,0.5-0.1,0.7C30,51,29.8,51,29.5,50.9c0-0.5,0.1-1,0.1-1.5c0.3,0.1,0.5,0.1,0.8,0.2
	c0.1-0.1,0.1-0.5,0.1-0.7c-0.3-0.1-0.5-0.1-0.8-0.2c0-0.2,0-0.5,0.1-0.7c0.3,0.1,0.5,0.1,0.8,0.2c0.1-0.4,0.1-1,0.2-1.5
	c-0.3-0.1-0.5-0.1-0.8-0.2c0.1-0.7,0.1-1.5,0.2-2.2c-0.3-0.1-0.5-0.1-0.8-0.2c0,0.2,0,0.5-0.1,0.7C28,44.5,27,44.2,25.9,44
	c0-0.2,0-0.5,0.1-0.7c-0.5-0.2-1.1-0.3-1.6-0.5c0-0.2,0-0.5,0.1-0.7C24.2,42,24,42,23.7,41.9c0-0.2,0-0.5,0.1-0.7
	c0.3,0.1,0.5,0.1,0.8,0.2c0,0.2,0,0.5-0.1,0.7c0.5,0.2,1.1,0.3,1.6,0.5c0.1-0.7,0.1-1.5,0.2-2.2c0.3,0.1,0.5,0.1,0.8,0.2
	c0,0.2,0,0.5-0.1,0.7c0.2,0.1,0.6,0.2,0.8,0.2c0,0.5-0.1,1-0.1,1.5c0.3,0.1,0.5,0.1,0.8,0.2c0.1-0.1,0.1-0.5,0.1-0.7
	c0.3,0.1,0.5,0.1,0.8,0.2c0,0.2,0,0.5-0.1,0.7c0.3,0.1,0.5,0.1,0.8,0.2c0.1-0.4,0.1-1,0.2-1.5c-0.5-0.1-1.1-0.3-1.6-0.4
	c0-0.2,0-0.5,0.1-0.7c0.5,0.1,1.1,0.3,1.6,0.4c0.1-1,0.2-2,0.2-2.9c0.3,0.1,0.5,0.1,0.8,0.2c0.1-0.1,0.1-0.5,0.1-0.7
	c-0.3-0.1-0.5-0.1-0.8-0.2c0-0.5,0.1-1,0.1-1.5c0.3,0.1,0.5,0.1,0.8,0.2c0.1-0.1,0.1-0.5,0.1-0.7c0.3,0.1,0.5,0.1,0.8,0.2
	c0,0.5-0.1,1-0.1,1.5c0.5,0.1,1.1,0.3,1.6,0.4c0,0.2,0,0.5-0.1,0.7c0.2,0.1,0.6,0.2,0.8,0.2c0,0.2,0,0.5-0.1,0.7
	c-0.3-0.1-0.5-0.1-0.8-0.2c0-0.2,0-0.5,0.1-0.7c-0.2-0.1-0.6-0.2-0.8-0.2c0,0.5-0.1,1-0.1,1.5c-0.3-0.1-0.5-0.1-0.8-0.2
	c0,0.2,0,0.5-0.1,0.7c0.3,0.1,0.5,0.1,0.8,0.2c0,0.2,0,0.5-0.1,0.7c0.2,0.1,0.6,0.2,0.8,0.3c0-0.2,0-0.5,0.1-0.7
	c0.3,0.1,0.5,0.1,0.8,0.2c0,0.2,0,0.5-0.1,0.7c-0.3-0.1-0.5-0.1-0.8-0.2c0,0.2,0,0.5-0.1,0.7c0.3,0.1,0.5,0.1,0.8,0.2
	c-0.1,1-0.2,1.9-0.2,2.9c0.2,0.1,0.6,0.2,0.8,0.3c0-0.2,0-0.5,0.1-0.7c0.3,0.1,0.5,0.1,0.8,0.2c0-0.2,0-0.5,0.1-0.7
	c0.3,0.1,0.5,0.1,0.8,0.2c0.1-0.1,0.1-0.5,0.1-0.7c-0.5-0.1-1.1-0.3-1.6-0.4c0-0.2,0-0.5,0.1-0.7c0.8,0.2,1.6,0.4,2.4,0.7
	c0,0.5-0.1,1-0.1,1.5c-0.3-0.1-0.5-0.1-0.8-0.2c0,0.2,0,0.5-0.1,0.7c0.5,0.1,1.1,0.3,1.6,0.4c0-0.2,0-0.5,0.1-0.7
	c0.3,0.1,0.5,0.1,0.8,0.2c0,0.2,0,0.5-0.1,0.7c0.2,0.1,0.6,0.2,0.8,0.3c0-0.5,0.1-1,0.1-1.5c-0.5-0.2-1.1-0.3-1.6-0.5
	c0-0.2,0-0.5,0.1-0.7c0.5,0.1,1.1,0.3,1.6,0.4c0,0.2,0,0.5-0.1,0.7c0.2,0.1,0.6,0.2,0.8,0.3C40.6,45.7,40.6,46.4,40.5,47.2
	L40.5,47.2z M40.8,43.5c-1.9-0.5-3.8-1-5.7-1.5c0.1-1.7,0.3-3.4,0.4-5.1c0-0.1,0-0.1,0-0.1c1.9,0.5,3.8,1,5.6,1.5
	C41.1,40,40.9,41.7,40.8,43.5z M47.1,33.8L40,31.7c0-1.9-0.1-5.3-0.9-8.2L54.6,28L47.1,33.8z"/>
<path fill="#F68D1E" d="M35.5,48.1c-0.8-0.2-1.6-0.4-2.4-0.7c0.1-1.7,0.3-3.4,0.4-5.2c-0.3-0.1-0.5-0.1-0.8-0.2
	c-0.1,0.1-0.1,0.5-0.1,0.7c-0.3-0.1-0.5-0.1-0.8-0.2c0-0.2,0-0.5,0.1-0.7c-0.5-0.2-1.1-0.3-1.6-0.5c0,0.2,0,0.5-0.1,0.7
	c0.3,0.1,0.5,0.1,0.8,0.2c0,0.2,0,0.5-0.1,0.7c0.5,0.2,1.1,0.3,1.6,0.5c0,0.2,0,0.5-0.1,0.7c-0.8-0.2-1.6-0.4-2.4-0.7
	c0,0.2,0,0.5-0.1,0.7c0.3,0.1,0.5,0.1,0.8,0.2c0,0.2,0,0.5-0.1,0.7c0.2,0.1,0.6,0.2,0.8,0.3c0-0.2,0-0.5,0.1-0.7
	c0.3,0.1,0.5,0.1,0.8,0.2c-0.1,1-0.2,2-0.2,2.9c-0.3-0.1-0.5-0.1-0.8-0.2c-0.1,0.1-0.1,0.5-0.1,0.7c0.5,0.1,1.1,0.3,1.6,0.4
	c0-0.2,0-0.5,0.1-0.7c0.3,0.1,0.5,0.1,0.8,0.2c0,0.5-0.1,1-0.1,1.4c0.2,0.1,0.6,0.2,0.8,0.3c0-0.2,0-0.5,0.1-0.7
	c0.3,0.1,0.5,0.1,0.8,0.2c0-0.2,0-0.5,0.1-0.7c0.3,0.1,0.5,0.1,0.8,0.2c0.1-0.4,0.1-1,0.2-1.5c-0.3-0.1-0.5-0.1-0.8-0.2
	C35.5,47.5,35.5,47.8,35.5,48.1z"/>
<path fill="#F68D1E" d="M40.3,38.7c-1.3-0.4-2.7-0.7-4-1.1c-0.2,1.1-0.2,2.5-0.3,3.7c1.3,0.4,2.7,0.7,4,1.1
	C40.1,41.2,40.2,40,40.3,38.7z M39.3,41.5c-0.8-0.2-1.6-0.4-2.4-0.7c0.1-0.7,0.1-1.5,0.2-2.2c0.8,0.2,1.6,0.4,2.4,0.6
	C39.4,40,39.4,40.8,39.3,41.5z"/>
<path fill="#F68D1E" d="M31.5,46.2c-0.3-0.1-0.5-0.1-0.8-0.2c0,0.2,0,0.5-0.1,0.7c0.3,0.1,0.5,0.1,0.8,0.2
	C31.5,46.8,31.4,46.4,31.5,46.2z"/>
</svg>

