<svg id="Layer_1" xmlns="http://www.w3.org/2000/svg" viewBox="0 0 36 41"><style>.st0{fill-rule:evenodd;clip-rule:evenodd;fill:#F06026;} .st1{fill-rule:evenodd;clip-rule:evenodd;fill:#939393;} .st2{fill-rule:evenodd;clip-rule:evenodd;fill:#CA2128;}</style><path class="st0" d="M5 7h6c.6 0 1 .4 1 1v6c0 .6-.4 1-1 1H5c-.6 0-1-.4-1-1V8c0-.6.4-1 1-1zM14 7h6c.6 0 1 .4 1 1v6c0 .6-.4 1-1 1h-6c-.6 0-1-.4-1-1V8c0-.6.4-1 1-1zM23 7h6c.6 0 1 .4 1 1v6c0 .6-.4 1-1 1h-6c-.6 0-1-.4-1-1V8c0-.6.4-1 1-1zM29 24c.6 0 1-.4 1-1v-6c0-.6-.4-1-1-1h-6c-.6 0-1 .4-1 1v6c0 .6.4 1 1 1h3.1l1.4-1.9 1.4 1.9h.1zM14 16h6c.6 0 1 .4 1 1v6c0 .6-.4 1-1 1h-6c-.6 0-1-.4-1-1v-6c0-.6.4-1 1-1zM5 16h6c.6 0 1 .4 1 1v6c0 .6-.4 1-1 1H5c-.6 0-1-.4-1-1v-6c0-.6.4-1 1-1zM21 26c0-.6-.4-1-1-1h-6c-.6 0-1 .4-1 1v6c0 .6.4 1 1 1h5.3l.5-.5-2.9-3.3 4.1-1V26zM5 25h6c.6 0 1 .4 1 1v6c0 .6-.4 1-1 1H5c-.6 0-1-.4-1-1v-6c0-.6.4-1 1-1z"/><path class="st1" d="M32 0H2C.9 0 0 .9 0 2v33c0 1.1.9 2 2 2h16v-1H2c-.5 0-1-.4-1-1V5c0-.6.5-1 1-1h30c.5 0 1 .4 1 1v19c0 .1 1 0 1 0V2c0-1.1-.9-2-2-2zM3 3c-.5 0-1-.4-1-1s.5-1 1-1 1 .4 1 1-.5 1-1 1zm3 0c-.5 0-1-.4-1-1s.5-1 1-1 1 .4 1 1-.5 1-1 1zm3 0c-.5 0-1-.4-1-1s.5-1 1-1 1 .4 1 1-.5 1-1 1z"/><g><path class="st2" d="M33.5 32.5l1.9-2 .6-.6-.8-.2-2.8-.6.3-2.7.1-.8-.8.4-2.6 1-1.4-2.3-.5-.7-.4.7-1.5 2.3-2.6-1.1-.8-.3.1.8.3 2.7-2.8.6-.8.2.6.6 1.9 2-1.9 2-.6.6.8.2 2.8.6-.3 2.7-.1.8.8-.4 2.6-1.1 1.4 2.3.4.7.4-.7 1.4-2.3 2.6 1.1.8.3-.1-.8-.3-2.7 2.8-.6.8-.2-.6-.6-1.7-1.9zM30 34h-5v-1h5v1zm0-2h-5v-1h5v1z"/></g></svg>