<?xml version="1.0" encoding="utf-8"?>
<!-- Generator: Adobe Illustrator 18.1.1, SVG Export Plug-In . SVG Version: 6.00 Build 0)  -->
<!DOCTYPE svg PUBLIC "-//W3C//DTD SVG 1.1//EN" "http://www.w3.org/Graphics/SVG/1.1/DTD/svg11.dtd">
<svg version="1.1" id="Layer_1" xmlns="http://www.w3.org/2000/svg" xmlns:xlink="http://www.w3.org/1999/xlink" x="0px" y="0px"
	 viewBox="0 0 75 75" enable-background="new 0 0 75 75" xml:space="preserve">
<g>
	<g>
		<g>
			<g>
				<g>
					<path fill="#F78E1E" d="M17.6,30.9c-0.6,0-1.2-0.2-1.6-0.7c-0.9-0.9-0.9-2.4,0-3.3c5.7-5.7,13.4-8.9,21.5-8.9
						c8.1,0,15.8,3.2,21.5,8.9c0.9,0.9,0.9,2.4,0,3.3c-0.9,0.9-2.4,0.9-3.3,0c-4.9-4.9-11.3-7.6-18.2-7.6c-6.9,0-13.4,2.7-18.2,7.6
						C18.8,30.6,18.2,30.9,17.6,30.9L17.6,30.9z"/>
				</g>
			</g>
			<g>
				<g>
					<path fill="#F78E1E" d="M50.4,37.9c-0.6,0-1.2-0.2-1.6-0.7c-3-3-7-4.7-11.2-4.7c-4.2,0-8.2,1.7-11.2,4.7
						c-0.9,0.9-2.4,0.9-3.3,0c-0.9-0.9-0.9-2.4,0-3.3c3.9-3.9,9-6,14.5-6c5.5,0,10.6,2.1,14.5,6c0.9,0.9,0.9,2.4,0,3.3
						C51.6,37.6,51,37.9,50.4,37.9L50.4,37.9z"/>
				</g>
			</g>
			<g>
				<g>
					<path fill="#F78E1E" d="M43.4,44.8c-0.6,0-1.2-0.2-1.6-0.7c-2.3-2.3-6.2-2.4-8.5,0c-0.9,0.9-2.4,0.9-3.3,0
						c-0.9-0.9-0.9-2.4,0-3.3c4.1-4.2,10.9-4.1,15,0c0.9,0.9,0.9,2.4,0,3.3C44.6,44.6,44,44.8,43.4,44.8L43.4,44.8z"/>
				</g>
			</g>
		</g>
	</g>
	<circle fill="#F78E1E" cx="37.5" cy="51.5" r="3.5"/>
</g>
</svg>

