<svg id="Layer_1" xmlns="http://www.w3.org/2000/svg" viewBox="0 0 39 35"><style>.st0{fill:#E8E7E6;} .st1{fill:#C0C1C3;} .st2{fill:#F89A1C;} .st3{fill:#F16623;} .st4{fill:#6D6E71;}</style><path class="st0" d="M6 17h29V7H1v18c0 2.2 1.8 4 4 4h16v-6H6c-.6 0-1-.4-1-1v-4c0-.5.4-1 1-1z"/><path class="st1" d="M36 17V7h-1v10H6c-.6 0-1 .5-1 1v4c0 .6.4 1 1 1h15v6H5c-2.2 0-4-1.8-4-4V7H0v18c0 2.8 2.2 5 5 5h16v2c0 1.7 1.3 3 3 3h12c1.7 0 3-1.3 3-3V20c0-1.7-1.3-3-3-3zm-15 3v2H6v-4h15.8c-.5.5-.8 1.2-.8 2zm17 12c0 1.1-.9 2-2 2H24c-1.1 0-2-.9-2-2V20c0-1.1.9-2 2-2h12c1.1 0 2 .9 2 2v12z"/><path class="st2" d="M36 5v2H0V5c0-2.8 2.2-5 5-5h26c2.8 0 5 2.2 5 5z"/><g><path class="st3" d="M35.9 22.9l-7.2 7.3c-.1.1-.4.1-.5 0l-3.7-3.8c-.1-.1-.1-.4 0-.5l1.2-1.2c.1-.2.4-.2.5 0l2.2 2.2 5.7-5.8c.1-.1.4-.1.5 0l1.2 1.2c.2.2.2.4.1.6z"/></g><g><path class="st4" d="M8.9 12.7c-.1-.1-.2-.1-.4-.2-.2 0-.3-.1-.4-.1v-.1-.1c.1 0 .1-.1.2-.1s.2 0 .2.1c.1 0 .1.1.1.1l.4.1c0-.1-.1-.2-.2-.3-.1-.1-.2-.1-.4-.1s-.4 0-.5.1c-.1.1-.2.2-.2.3 0 .2.1.3.2.3.1.1.3.2.6.3.1 0 .1 0 .1.1v.1s0 .1-.1.1-.1.1-.2.1-.2 0-.2-.1c-.1 0-.1-.1-.1-.2l-.4.1c0 .1.1.3.2.3.1.1.3.1.5.1s.4 0 .5-.1c.2-.2.3-.3.3-.5 0-.1-.1-.2-.2-.3zM10.7 12.2c-.2-.2-.4-.2-.6-.2-.2 0-.3 0-.4.1l-.3.3c-.1.1-.1.3-.1.4 0 .2 0 .3.1.4l.3.3c.1.1.3.1.4.1.2 0 .4-.1.6-.2.1-.2.2-.3.2-.6s-.1-.5-.2-.6zm-.3.9c-.1.1-.2.1-.3.1-.1 0-.2 0-.3-.1-.1-.1-.1-.2-.1-.3s0-.3.1-.3c.1-.1.2-.1.3-.1.1 0 .2 0 .3.1.1.1.1.2.1.3s-.1.2-.1.3zM11.2 11.4v2.1h.4v-2.1h-.4zM13 12l-.3.8v.2l-.1-.3-.4-.7h-.4l.6 1.5h.4l.6-1.5H13zM14.4 13.2s-.1.1-.2.1-.2 0-.2-.1c-.1-.1-.1-.2-.1-.3h1c0-.3-.1-.5-.2-.7-.1-.2-.3-.2-.5-.2s-.4.1-.5.2c-.1.1-.2.3-.2.6 0 .2.1.4.2.5.1.2.3.3.6.3.2 0 .3 0 .4-.1.1-.1.2-.2.2-.3l-.4-.2c0 .1-.1.2-.1.2zm-.4-.8c.1-.1.1-.1.2-.1s.2 0 .2.1c.1.1.1.2.1.3h-.6c0-.2 0-.3.1-.3z"/><g><path class="st4" d="M17.1 13.2c0-.1.2-.2.3-.3l.4-.4c.1-.1.2-.2.2-.4 0-.1.1-.2.1-.4s-.1-.4-.2-.6c-.2-.2-.4-.2-.6-.2-.3 0-.5.1-.6.2-.2.1-.3.3-.3.6l.5.1c0-.2.1-.3.1-.3.1-.1.2-.1.3-.1.1 0 .2 0 .3.1.1.1.1.2.1.3 0 .1 0 .2-.1.3-.1.1-.2.2-.4.5-.3.3-.5.5-.6.7-.1.2-.2.3-.2.5H18v-.5h-1s0-.1.1-.1zM19.6 12.7l.7-1h-.6l-.4.6-.4-.6h-.6l.7 1-.7 1h.6l.4-.6.4.6h.6l-.7-1zM20.6 12.5v.5h1v-.5h-1zM23.4 12.2c-.2-.2-.4-.3-.6-.3-.1 0-.2 0-.4.1l.1-.5h1V11h-1.4l-.3 1.4.4.1c.1-.1.3-.2.4-.2.1 0 .2 0 .3.1.1.1.1.2.1.4s0 .3-.1.4c-.1.1-.2.1-.3.1-.1 0-.2 0-.3-.1-.1-.1-.1-.2-.1-.3l-.5.1c0 .2.1.4.3.6.2.1.4.2.6.2.3 0 .6-.1.8-.4.1-.2.2-.4.2-.6.1-.2 0-.4-.2-.6zM23.9 11.8v.5h1.9v-.5h-1.9zm0 .8v.5h1.9v-.5h-1.9zM27.7 11.4c-.2-.2-.4-.3-.7-.3-.3 0-.5.1-.6.3-.2.2-.3.4-.3.7 0 .3.1.5.2.7s.3.3.6.3c.2 0 .4-.1.5-.2 0 .3-.1.5-.1.6-.1.1-.2.2-.3.2-.1 0-.2 0-.2-.1-.1-.1-.1-.1-.1-.2l-.5.1c0 .2.1.4.3.5.1.1.3.2.5.2.3 0 .6-.1.7-.3.2-.2.3-.6.3-1.1 0-.8-.1-1.2-.3-1.4zm-.4 1c-.1.1-.2.1-.3.1-.1 0-.2 0-.3-.1-.1-.1-.1-.2-.1-.4s0-.3.1-.4c.1-.1.2-.1.3-.1s.2.1.3.1c.1.1.1.2.1.4s0 .3-.1.4z"/></g></g></svg>