<svg xmlns="http://www.w3.org/2000/svg" viewBox="0 0 585.6 94.3"><linearGradient id="a" gradientUnits="userSpaceOnUse" x1="44.2" y1="28.4" x2="44.2" y2=".7"><stop offset="0" stop-color="#F7AAAC"/><stop offset="1" stop-color="#F38486"/></linearGradient><path fill="url(#a)" d="M44.7.7L35.2 16l8.5 12.4 9.5-12.2"/><linearGradient id="b" gradientUnits="userSpaceOnUse" x1="49.6" y1="31.8" x2="64.5" y2="6"><stop offset="0" stop-color="#F06365"/><stop offset=".2" stop-color="#EF5253"/><stop offset=".5" stop-color="#EE403F"/><stop offset=".7" stop-color="#ED3533"/><stop offset="1" stop-color="#ED312F"/></linearGradient><path fill="url(#b)" d="M53.2 16.2l-9.5 12.2L60 21.6l10.4-12"/><path fill="#F48561" d="M60 21.6l-.2 18.2 9-12.2 1.6-18"/><linearGradient id="c" gradientUnits="userSpaceOnUse" x1="59.8" y1="36.3" x2="85.9" y2="36.3"><stop offset="0" stop-color="#F0ABA0"/><stop offset="1" stop-color="#F48A79"/></linearGradient><path fill="url(#c)" d="M68.8 27.6l-9 12.2 14 5.2 12-14"/><path fill="#F2736C" d="M74 45l-14.2-5.2L70 53.2l16.3 6.6"/><path fill="#972520" d="M70 53.2l-16.2 4.4 15 4.3 17.5-2.2"/><linearGradient id="d" gradientUnits="userSpaceOnUse" x1="60.9" y1="57.6" x2="60.9" y2="80.5"><stop offset=".3" stop-color="#DF3E3E"/><stop offset="1" stop-color="#EC1C24"/></linearGradient><path fill="url(#d)" d="M68.7 62l-15-4.4-1 14 16.3 9"/><path fill="#F05759" d="M44 72l-.3 16.8 9-17 1-14.2"/><path fill="#F3806D" d="M35.2 16l-17-7L28 22l15.7 6.4"/><path fill="#660E12" d="M28 22L18.2 9l2 18.8 8.4 11"/><linearGradient id="e" gradientUnits="userSpaceOnUse" x1="2.5" y1="33.2" x2="28.8" y2="37.8"><stop offset="0" stop-color="#EE3B56"/><stop offset=".5" stop-color="#E04A5C"/><stop offset=".6" stop-color="#DB4F5E"/><stop offset="1" stop-color="#F1788B"/></linearGradient><path fill="url(#e)" d="M20 27.8l-17 3 12.5 13 13-5"/><path fill="#EA2537" d="M15.5 44L.8 57.7l17-5.4 10.8-13.7"/><path fill="#5F1726" d="M17.8 52.4l-17 5.4 19.5 3 14-2.8"/><linearGradient id="f" gradientUnits="userSpaceOnUse" x1="24.7" y1="82" x2="29.1" y2="57.1"><stop offset="0" stop-color="#972225"/><stop offset=".5" stop-color="#992226"/><stop offset=".7" stop-color="#A0212A"/><stop offset=".8" stop-color="#AD2030"/><stop offset="1" stop-color="#BF1F38"/><stop offset="1" stop-color="#C21F3A"/></linearGradient><path fill="url(#f)" d="M34.4 58l-14 3L17 80.5l17.4-9"/><linearGradient id="g" gradientUnits="userSpaceOnUse" x1="39.1" y1="58" x2="39.1" y2="88.8"><stop offset="0" stop-color="#511119"/><stop offset="1" stop-color="#731D33"/></linearGradient><path fill="url(#g)" d="M34.4 58l.2 13.6 9 17.2.3-17"/><linearGradient id="h" gradientUnits="userSpaceOnUse" x1="41.2" y1="40.2" x2="63.3" y2="27.4"><stop offset="0" stop-color="#CE4150"/><stop offset="1" stop-color="#B3333E"/></linearGradient><path fill="url(#h)" d="M44 45l15.8-5.2V21.6l-16 6.8"/><path fill="#F2726B" d="M59.8 39.8l-16 5 10 12.8L70 53.2"/><path fill="#F69F9F" d="M44 45l-9.6 13L44 72l9.8-14.4"/><linearGradient id="i" gradientUnits="userSpaceOnUse" x1="35.8" y1="57.2" x2="26" y2="40.2"><stop offset="0" stop-color="#F38788"/><stop offset=".4" stop-color="#F38C8A"/><stop offset=".8" stop-color="#F59992"/><stop offset="1" stop-color="#F6A397"/></linearGradient><path fill="url(#i)" d="M17.8 52.4L34.4 58 44 45l-15.4-6.3"/><linearGradient id="j" gradientUnits="userSpaceOnUse" x1="46.6" y1="37.3" x2="25.3" y2="29.6"><stop offset="0" stop-color="#C34357"/><stop offset=".6" stop-color="#EE3C4A"/><stop offset=".7" stop-color="#EE4555"/><stop offset="1" stop-color="#EF566C"/></linearGradient><path fill="url(#j)" d="M44 45l-.3-16.6L28 22l.6 16.7"/><g><linearGradient id="k" gradientUnits="userSpaceOnUse" x1="5.1" y1="66.9" x2="81.9" y2="22.5"><stop offset="0" stop-color="#831A1D"/><stop offset=".2" stop-color="#8D1A1E"/><stop offset=".5" stop-color="#A91B20"/><stop offset=".8" stop-color="#D51C22"/><stop offset="1" stop-color="#EC1C24"/></linearGradient><path fill="url(#k)" d="M69.4 80.4L69 62.2 87 60 74.4 45l12.2-14.4H86l-16.7-3.3L71 9l-17.6 6.8L44.7 0 35 15.5 18 8.3l2 19.2-17.6 3.2.5.5L15 43.8 0 58l20 3.2-3.2 20 .6-.2 17-9 9.3 17.5L53 72.2 69.5 81v-.6zm-17-8.8l-8.3 15.7.3-15.3 9-13-.5 6.6-.3 6zm-17.5-5l-.2-7.4 6.8 10 2 3-.2 15L35 71.5v-4.7zm-14.7-6l-18-3L17.7 53l2.2.7L33 58l-4 .7-8.7 1.8zm2.2-19l5-2-10 12.4-15.3 5 13.5-13 6.8-2.5zM36.3 18l6.5 9.4-14.4-6-9-12L35 16.4l1.3 2zm17-1.7l16-6.3-9.4 11-9.3 3.8-5.8 2.4 2.6-3.5 5.8-7.5zm11.3 16.2l-4.5 6 .2-4.7V22L70 10.5l-1.4 16.8-4 5.3zm9 12.6L85 58.7 70.4 53 63 43l-2-2.7.7.3 12 4.5zM44 71.3l-2.2-3-7-10.3-.5-.3-16-5.4 1.2-1.6 9-11.4.4-.3v-.4L28.4 26v-3.3l4 1.6 11 4.5h.5l15.6-6.5v12.4l-.2 5v.5l.4.4L69.4 53 54 57.4l-.6.3L51 61l-7 10.3zm26-17.7l15 6-16.3 2-13.6-4 15-4zM27.6 22l.2 6.4.2 9-5.6-7-2-2.7-2-17.5 9 12zm46 22.6l-5.4-2-8-3L69 28l16.2 3-11.4 13.6zm-29-43.2l8 14.7-6.6 8.7-2.2 3-3-4.2-5-7.5 9-14.6zM20 28.2l8 10.3-7.8 3.2-4.5 1.8L3.7 31 20 28.3zm.6 33L34 58.4l.2 13L17.7 80l3-18.8zm32.6 10.3l.4-6.2.5-7.3 14.3 4 .4 17.8-15.5-8.3z"/></g><g><linearGradient id="l" gradientUnits="userSpaceOnUse" x1="44" y1="72.5" x2="44" y2="21.1"><stop offset="0" stop-color="#F48A79"/><stop offset=".1" stop-color="#EA8170"/><stop offset=".3" stop-color="#DD7364"/><stop offset=".5" stop-color="#D86F60"/><stop offset=".5" stop-color="#CE574E"/><stop offset=".5" stop-color="#C4413D"/><stop offset=".6" stop-color="#BD3031"/><stop offset=".7" stop-color="#B82528"/><stop offset=".7" stop-color="#B51E22"/><stop offset="1" stop-color="#B41C21"/></linearGradient><path fill="url(#l)" d="M70.8 53.3L60.2 39.7l.2-18.6-16.6 7-16-6.5.5 17-11 14 17 5.8L44 72.5l.3-.4L54 58 71 53.2zm-16.8 4L44.6 45l2.3-.7 12.7-4 9.8 12.6L54 57zM59.7 22l-.2 17.5-15 4.8-.3-15.7L59.7 22zm-16.2 6.6v.8l.2 15-4.6-2-10-4-.5-15.8 15 6zM29 39l14.4 6-3 4.2-6 8.4-16-5.4 10.5-13zm15 32.3L35 58l9-12.6 5.7 7.3 3.7 5L44 71.2z"/></g><g><linearGradient id="m" gradientUnits="userSpaceOnUse" x1="44.1" y1="72.8" x2="44.1" y2="20.6"><stop offset="0" stop-color="#721F18"/><stop offset="1" stop-color="#A1342E"/></linearGradient><path fill="url(#m)" d="M34.2 58.4L17.7 53l.2-.7.4.4-.5-.4-.3.6-.7-.5 11.2-14.2-.6-17.3L44 27.6l16.7-7-.2 19 10.7 13.8-17 4.6-10 14.8-10-14.4zm.8-1l9 13.4L53.7 57l15.6-4.3L59.4 40l.2-17.6L44 29l-15.2-6.2.6 16L19 52l16 5.4z"/></g><g><g fill="#D71920"><path d="M176 19c-6 .8-6.8 1.6-9.4 8.8-2 5.7-7.2 22-14.5 46.5h-3c-4.8-14-10.6-30-15.2-43h-.2c-4.8 15.2-9.6 29-14 43h-3.2c-4.6-16-9.5-31-14.3-46.7-2-7-3.4-8-8.7-8.7v-2.6h22V19c-6.4.7-6.5 1.6-5.2 6l10.5 35h.2c4.6-14.5 9.5-28.8 14-43h2.8l15.2 43h.2c3.6-11.4 8.2-28 9.5-34 1.2-5.3 1-6.3-6-7v-2.6H176V19zM186.2 34c11 0 19 8.8 19 19.4 0 14.2-10.3 21-19.2 21-12.4 0-19.5-9.7-19.5-19.4 0-14.4 11.3-21 19.7-21zm-1.2 3c-5 0-9.5 5.2-9.5 15.2 0 11 4.5 19.3 11.5 19.3 5 0 9.3-3.7 9.3-16 0-10.5-4-18.6-11.3-18.6zM207 73.4V71c5.4-.6 6-1 6-6.8V23c0-6-.4-6-6-6.7v-2c4.7-.6 10.4-2 13.7-3.2v53c0 6 .7 6.4 6.3 7v2.3h-20zM235.8 35v-2c0-2.4.3-5 1-6.8.6-2 2.2-6.2 7-10.3 3-2.7 6-4.3 9.7-4.7 3 0 5.5 1.2 7 3 .8 1 1 2 .4 3-.4.8-1 1.6-2 2.4-.8.7-1.6.6-2.4-.2-1.8-1.8-4.4-3.4-7.2-3.4-2 0-3.4 1-4.3 2.6-1 1.7-1.7 5.7-1.6 13.2V35h10.3c.4.8 0 3-1 3.6h-9.4v25.2c0 6.2.6 6.6 7.5 7.3v2.4h-21.2V71c5.5-.5 6-1 6-6.8V38.6h-6l-.3-1 2.5-2.6h4z"/><path d="M269 43.2c2.6-4.6 6.3-9.3 10.3-9.3 3.2 0 5.3 2.3 5.3 4.5 0 2-1.2 4-3 4.7-1.2.4-2 .3-2.5-.3-1.2-1.3-2.3-2-3.8-2-2 0-4.7 2.4-6.6 7v16c0 5.8.4 6.3 7.2 7v2.3H255V71c5.3-.5 6-1 6-6.8V46c0-5.7-.4-6-5.3-6.8v-2c4.5-.7 8.5-1.8 13-3.5v9.5h.2zM313.3 74.4c-1.5 0-3.3-.8-4.3-1.8s-1.8-2.4-2-3.8c-3.6 2.4-7.8 5.5-10.3 5.5-6.4 0-10.8-5.3-10.8-10.8 0-4.4 2.2-7 7-8.6 5.2-2 11.6-4.3 13.6-6v-1.7c0-6-2.8-9.6-7-9.6-1.6 0-3 .6-3.8 1.7-1 1.2-1.8 3.2-2.5 6-.4 1.5-1.4 2-2.8 2-1.7 0-4-1.7-4-3.8 0-1.4 1-2.4 2.8-3.7 2.5-2 8.4-5.3 13.4-6.2 2.7 0 5.4.8 7.4 2.4 3.3 2.6 4.2 6.2 4.2 11v16c0 4 1.5 5.2 3 5.2 1 0 2.3-.4 3.2-1l1 2.5-8 4.4zm-6.7-22c-1.8 1-5.4 2.6-7.4 3.5-3.2 1.5-5 3-5 6.3 0 4.6 3.3 6.7 6 6.7 2 0 4.8-1.3 6.4-2.8V52.4z"/><path d="M369.7 73.4V71c5-.5 5.8-1 5.8-7V49.3c0-6.4-2.4-9.8-7.4-9.8-3 0-6 1.6-9.2 4.2.2 1 .3 2 .3 3.7v17.2c0 5.4 1 6 5.5 6.5v2.5h-19V71c5.2-.5 6-1 6-6.6V49.2c0-6.5-2.5-9.8-7.5-9.8-3.2 0-6.5 2.2-9 4.3v20.8c0 5.5.7 6 4.8 6.6v2.5h-19V71c5.8-.5 6.5-1 6.5-6.8v-18c0-5.6-.3-6-5.2-7v-2c4-.7 8.7-1.8 13-3.6v7l6-4.3c2.5-1.5 4.6-2.5 7.4-2.5 4.3 0 8 2.7 9.7 7.2 2.6-2 5-3.5 7.2-5 2-1 4.2-2.2 6.7-2.2 7 0 11.2 5 11.2 13.5v17c0 5.7-.5 6 4.5 6.6v2.3h-18z"/></g><g fill="#F48020"><path d="M441.4 73.4V71c5.5-.6 6.2-1 6.2-6.8V23c0-6-.5-6-6-6.7v-2c4.6-.6 10.3-2 13.6-3.2v53c0 6 .7 6.4 6.3 7v2.3h-20z"/><path d="M482 35.3c1.7-1 3.3-1.4 4.5-1.4 9.8 0 15.6 8 15.6 16.6 0 13-10.3 21.7-21.7 23.8-2.5 0-4.7-1-6-1.5v11.4c0 6.3.7 6.8 7.5 7.4v2.5h-21.4v-2.5c5.6-.5 6.3-1 6.3-6.7V45.6c0-5.5-.4-5.8-5.7-6.4v-2c4-.8 9-2.3 13.4-4v6.8l7.7-4.5zm-7.6 31.4c1.8 2 5.2 3.4 8 3.4 7 0 11.6-6 11.6-16 0-9.5-5.4-14.5-11.4-14.5-2.6 0-6 1.8-8.2 3.4v23.7zM527.4 73.4V71c5-.5 5.5-1 5.5-6.7V49.7c0-7.2-3-10.5-8.3-10.5-3.2 0-6.3 1.5-8.7 4v21c0 5.6.5 6.2 5.4 6.8v2.4h-19V71c5.3-.5 6-1 6-6.8V22.6c0-5.4-.3-5.8-5.8-6.3v-2c4.3-.7 9.7-2 13.4-3.2v29c3.2-3 7.8-6 12.4-6 7.2 0 12 4.5 12 14.8v15.5c0 5.7.7 6 5.7 6.7v2.4h-18.6zM574.7 74.4c-1.5 0-3.3-.8-4.3-1.8s-1.8-2.4-2-3.8c-3.6 2.4-7.8 5.5-10.3 5.5-6.3 0-10.7-5.3-10.7-10.8 0-4.4 2.3-7 7-8.6 5.3-2 11.7-4.3 13.7-6v-1.7c0-6-2.8-9.6-7-9.6-1.6 0-3 .6-3.8 1.7-1 1.2-1.8 3.2-2.5 6-.4 1.5-1.4 2-2.8 2-1.8 0-4.2-1.7-4.2-3.8 0-1.4 1-2.4 3-3.7 2.4-2 8.3-5.3 13.3-6.2 2.8 0 5.5.8 7.5 2.4 3.2 2.6 4 6.2 4 11v16c0 4 1.6 5.2 3 5.2 1.2 0 2.4-.4 3.3-1l1 2.5-8 4.4zm-6.6-22c-1.7 1-5.3 2.6-7.3 3.5-3.2 1.5-5 3-5 6.3 0 4.6 3.3 6.7 6 6.7 2 0 4.7-1.3 6.3-2.8V52.4zM433.2 61.8l-17-46.7-3 1-17 43.3c-2.6 6.3-5.3 10.4-8.4 11.8v2.5h16.6V71c-6.6-.7-7.2-1.6-5.4-7 1-3.5 2.4-7 3.7-11H421c2 5.2 3.6 9.7 4.7 13 1 3.5.4 4.3-5 5v2.5H443V71c-6-.8-7-1.6-9.8-9.2zM404 49l8-21.6h.3l7.4 21.7H404z"/></g></g><g><path fill="#F68D1E" d="M585.6 28.2c0 2.8-2.2 5-5 5s-5-2.3-5-5c0-2.8 2-5 5-5 2.8 0 5 2.2 5 5zm-8.8 0c0 2.2 1.6 4 3.8 4 2 0 3.7-1.8 3.7-4s-1.6-4-3.8-4c-2 0-3.7 1.8-3.7 4zm3 2.5h-1v-5h1.8c1 0 1.4 0 1.7.4.3.3.5.7.5 1.2 0 .6-.5 1-1 1.2.5.2.7.6 1 1.3 0 .8.2 1 .3 1.2h-1c-.3-.3-.3-.7-.5-1.3 0-.5-.4-.8-1-.8h-.5v1.7zm0-2.7h.5c.6 0 1-.2 1-.7 0-.5-.2-.8-1-.8h-.5V28z"/></g></svg>