<?xml version="1.0" encoding="utf-8"?>
<!-- Generator: Adobe Illustrator 18.1.1, SVG Export Plug-In . SVG Version: 6.00 Build 0)  -->
<!DOCTYPE svg PUBLIC "-//W3C//DTD SVG 1.1//EN" "http://www.w3.org/Graphics/SVG/1.1/DTD/svg11.dtd">
<svg version="1.1" id="Layer_1" xmlns="http://www.w3.org/2000/svg" xmlns:xlink="http://www.w3.org/1999/xlink" x="0px" y="0px"
	 viewBox="0 0 75 75" enable-background="new 0 0 75 75" xml:space="preserve">
<path fill="#F68D1E" d="M28.7,31.4c-0.7,0.2-0.9,0.8,0,0.9c0.6,0.1,1.5-0.2,2-0.6C32.3,30.7,29.2,31.2,28.7,31.4
	C28.4,31.5,29,31.3,28.7,31.4z"/>
<path fill="#F68D1E" d="M33.2,32c0.5-0.3,0.1-0.8-0.4-0.7C32.2,31.5,32.7,32.4,33.2,32C33.5,31.8,33,32.1,33.2,32z"/>
<path fill="#F68D1E" d="M36.4,32.4c-1.1-5.2-5.4-9.2-10.6-9.9s-10.3,2-12.8,6.6c-2.5,4.7-1.7,10.6,1.9,14.5c3.6,3.8,9.2,5,14,3
	C34.5,44.4,37.7,38.3,36.4,32.4C35,25.6,37.9,39.2,36.4,32.4z M33,30.9c0.9-0.4,1.7,0.7,0.7,1.2C32.9,32.7,31.9,31.5,33,30.9
	C33.2,30.9,32.7,31.1,33,30.9z M31.2,30.5c0.8,0.3,0.6,1,0.1,1.4c-0.6,0.5-1.7,0.7-2.5,0.5c-0.9-0.2-0.9-0.8-0.3-1.4
	C29.2,30.5,30.3,30.2,31.2,30.5C31.3,30.5,31,30.4,31.2,30.5z M18.3,27.1c3.7-1.2,8.2-2.3,12.1-1.7c-2.7-0.3-5.5,0.4-8.1,0.9
	s-5.5,1.1-7.7,2.4C15.7,28,17,27.5,18.3,27.1C19.6,26.7,17,27.5,18.3,27.1z M30,44.5c-3.1,1.3-7.9,2.5-11.1,1c2.2,1,5.2,0.5,7.5,0
	s5.2-1.2,6.9-3C32.3,43.4,31.2,44,30,44.5S31.2,44,30,44.5z M18.9,44c-0.1-0.6,1.4-0.8,1.5-0.2S19,44.6,18.9,44
	C18.9,43.8,18.9,44.2,18.9,44z M31.3,42.4c-0.5,0.2-2.7,0.8-2.9-0.1c-0.2-0.8,1.7-1.6,2.2-1.7c0.5-0.2,2.6-0.8,2.9,0
	C33.8,41.5,31.8,42.2,31.3,42.4C29.9,42.9,32.7,41.9,31.3,42.4z M34,40.6c0.6-2.2-3.9-0.4-4.5-0.2c0.9-0.6,1.9-1.1,3-1.2
	C33.2,39.2,34.5,39.5,34,40.6C34.1,40.1,34.1,40.4,34,40.6z M30.5,38.4c-2.6,0.8-5.3,1.4-8,1.9s-5.5,0.9-8.2,0.5
	c3.7,0.2,7.5-0.7,11-1.5c3.4-0.7,7.1-1.5,10.3-3C34,37.3,32.2,37.9,30.5,38.4C28.7,39,32.2,37.9,30.5,38.4z M30,34.7
	c-5.5,1.5-11.4,2.8-17.1,3.1c3.8-0.4,7.6-1.4,11.4-2.2s7.6-1.5,11.3-2.6C33.7,33.7,31.9,34.2,30,34.7C28.1,35.2,31.9,34.2,30,34.7z"
	/>
<path fill="#F68D1E" d="M44.4,48.7l0.3-0.1c-0.1,0.1,0.3,0.1,0.3,0.1c0.1,0-0.2-0.3-0.3-0.2C44.6,48.5,44.3,48.7,44.4,48.7
	L44.4,48.7z"/>
<path fill="#F68D1E" d="M47.1,42.1c-0.1,0-0.2-0.1-0.2-0.1l0,0C46.9,42.1,47.1,42.1,47.1,42.1z M47,42.1C46.9,42.1,47,42.1,47,42.1
	L47,42.1z"/>
<path fill="#F68D1E" d="M47.3,42.2C47.2,42.2,47.3,42.2,47.3,42.2C47.2,42.2,47.3,42.2,47.3,42.2z"/>
<path fill="#F68D1E" d="M47.4,42.2C47.2,42.2,47.4,42.2,47.4,42.2L47.4,42.2z"/>
<path fill="#F68D1E" d="M46.8,42.1C46.8,42.1,46.9,42.1,46.8,42.1L46.8,42.1z"/>
<path fill="#F68D1E" d="M45.6,41.9c-0.1,0-0.2,0-0.3,0c0.2,0,0.3,0,0.5,0C45.8,41.8,45.7,41.9,45.6,41.9S45.6,41.9,45.6,41.9z"/>
<path fill="#F68D1E" d="M45.6,48.9C45.6,48.9,45.7,48.9,45.6,48.9c0.1-0.2-0.2-0.1-0.2,0C45.5,49,45.6,48.9,45.6,48.9
	C45.7,48.9,45.6,48.9,45.6,48.9z"/>
<path fill="#F68D1E" d="M45.2,49.2c-0.1,0.2,0.3-0.1,0.4-0.2l0,0C45.6,49.1,45.2,49.2,45.2,49.2L45.2,49.2z"/>
<path fill="#F68D1E" d="M41.1,43.2C41.3,43.2,41.1,43.1,41.1,43.2C41.2,43.2,41.1,43.2,41.1,43.2z"/>
<path fill="#F68D1E" d="M45,48.7c-0.1,0-0.2,0.1-0.2,0.2l0.1-0.1c0,0-0.1,0.5,0,0.5c0.2-0.1-0.1-0.9,0.3-0.3
	c-0.1-0.1,0.2,0.1,0.1,0.1c0.1,0,0-0.2,0-0.3c0,0,0.1,0.1,0.2,0c-0.1-0.2,0,0.1,0,0C45.5,48.6,45.2,48.7,45,48.7l0.3,0
	C45.2,48.7,45,48.8,45,48.7z"/>
<path fill="#F68D1E" d="M48.8,42.9C48.8,42.8,48.9,42.9,48.8,42.9C48.8,42.8,48.8,42.9,48.8,42.9z"/>
<path fill="#F68D1E" d="M49,43L49,43L49,43z"/>
<path fill="#F68D1E" d="M48.9,43.2c0,0-0.5-0.6-0.6-0.5v0.1l-0.1-0.1c0,0.1-0.1,0-0.1-0.1c0.1,0.1,0.4,0.2,0.4,0.2l0.1,0.1l0,0
	c0-0.1-0.1-0.1-0.1,0c0.1,0,0.1,0.1,0,0c0.2,0.1,0.4,0.3,0.6,0.3C49,43.3,49,43.2,48.9,43.2z"/>
<path fill="#F68D1E" d="M48.2,42.6L48.2,42.6L48.2,42.6z"/>
<path fill="#F68D1E" d="M45.2,41.4c-6.8,0-10,8.7-4.8,13.1s13.3-0.3,12.1-7C51.9,44,48.7,41.4,45.2,41.4z M48.7,42.8L48.7,42.8
	C48.6,42.7,48.7,42.7,48.7,42.8z M40.7,46C40.6,45.9,40.7,46,40.7,46L40.7,46z M40.7,46C40.7,46,40.6,46,40.7,46L40.7,46z
	 M50.7,52.4c-0.2,0.6-0.4,0.9-0.8,1.3c-0.2,0.2-1.1,0.8-1.2,1.1c0.1,0,0,0,0.1,0c0.2-0.1-1,0.5-0.8,0.4l0,0
	c-0.3,0.1-0.5,0.2-0.8,0.3c0-0.1,0.5-0.3,0.5-0.6c0-0.5-0.3-0.2-0.7-0.4c-0.3-0.1-0.7-0.3-0.6-0.6c0,0-0.3,0-0.3-0.1
	s0.3-0.4,0.3-0.4c0-0.2,0.3-0.3,0-0.6c-0.1-0.1-0.3-0.1-0.3,0.1c-0.2,0.1-0.6-0.2-0.6-0.1c-0.1,0-0.4-0.2-0.3-0.4
	c-0.2,0.2-0.9-0.1-1.1-0.2c-0.3-0.1-0.7-0.1-1-0.4s-0.5-1.2-0.8-1.5c-0.3-0.2,0.2,0.9,0.3,1c-0.3-0.3-0.4-0.6-0.5-0.9
	c-0.2-0.4-0.5-0.9-0.5-1.2c0-0.2,0.2-1,0.3-1.1c0.1,0,0.1,0.1,0.1,0.2c0-0.1,0.1-0.3-0.1-0.3c0,0,0,0.1,0,0.2l0,0
	c0,0.1-0.2-0.3-0.2-0.4c0.1,0,0,0.1,0.1,0.1c0-0.2,0-0.5,0-0.6c0,0,0,0-0.1,0v-0.2c0-0.1,0.1,0,0.1-0.2c0,0.1,0,0.1-0.1,0.1
	c0.2-0.2,0.1-0.1,0.1-0.2c-0.1-0.1,0,0.2-0.1,0c0,0.1,0,0.2-0.1,0.3c0.1-0.3-0.2-0.6-0.1-0.8c-0.1,0-0.2,0.1-0.3,0
	c0-0.1,0.2-0.1,0.2-0.1c-0.2,0-0.7,0.2-0.8,0c0,0.1,0.4,0,0.5-0.1c-0.2,0-0.1-0.2,0-0.3c0.2-0.4,0.3-0.1,0.5-0.3
	c-0.1-0.2,0-0.4,0.1-0.1c0-0.1,0.1-0.2,0.2-0.3c0.1,0,0.4,0,0.5,0.1c0,0.1-0.1,0.3,0.1,0.4c0.1,0.1,0.3,0.2,0.3,0.3c0,0,0.1,0,0.2,0
	c0,0.2,0,0.1,0.1,0.1c0,0.1,0.3,0.3,0.2,0.4c0.1,0.1,0.3,0,0.3,0.2c0.2-0.3,0.3,0,0.5-0.3c0.2,0,0,0.2,0.1,0.3
	c0.3-0.1-0.2-0.7,0.1-0.8h0.1c0,0.2-0.1,0.5,0,0.6c0-0.1,0-0.1,0-0.1c0.2,0.2-0.1,0,0.1,0.2c0.1-0.1,0-0.2,0.1-0.3
	c0.2,0.1,0.3,0.2,0.1,0.3c0.1,0.1-0.1,0-0.1,0c-0.1,0.3-0.5,0.6-0.4,0.9s1,0.4,1.2,0.7c0-0.1,0-0.5,0-0.5c0-0.2-0.2-0.3-0.2-0.5
	s-0.1-0.1,0-0.3c0,0,0.3-0.1,0.3,0.1c0.2,0,0.3,0.4,0.4-0.1c0.3,0.3,0.4,0.4,0.7,0.4c-0.1,0.2,0.2,0,0.2,0.2s-0.3,0.3-0.4,0.4
	c-0.3,0.3-0.2,0.1-0.4,0.6c0.1-0.1,0.2-0.6,0.4-0.4l0,0c0,0.1-0.1,0.1-0.2,0.1c0.1-0.1,0.4,0.1,0.4,0.1c0.1-0.1,0,0,0.1-0.2
	c0.1,0.1,0,0,0.1,0.1c-0.1,0.1-0.3,0.5-0.4,0.5c0,0,0.1-0.3,0-0.3l-0.2,0.2c0,0-0.2,0.4-0.1,0.5c-0.1,0-0.3,0.1-0.2,0.2
	c-0.2,0.2,0,0-0.1,0.3c-0.1,0-0.1,0-0.1-0.1c-0.1,0.1,0.1,0.2,0,0.3c0-0.1-0.1-0.2-0.1-0.3c0,0.1,0,0.1,0,0.2c0.1,0.1,0.1,0.1,0,0.1
	c0.1,0,0.1,0.1,0.1,0.1h0.1c0,0.1-0.1,0.1-0.1,0.1c0.1,0-0.1,0.1,0.1,0c0,0.1-0.2,0.2-0.3,0.3c0,0.1-0.1,0.2-0.1,0.3
	c0,0.2,0.4,0.4,0.2,0.6c0,0-0.5-0.4-0.6-0.4c-0.2,0-0.5,0-0.6,0h0.1c-0.1,0.2-0.6,0-0.8,0.2c-0.1,0.1-0.1,0.7,0,0.8
	c0.2,0.3,0.4,0.3,0.6,0.3c0.1,0,0.1-0.1,0.2-0.1c-0.2,0.1,0.5-0.4,0.4-0.3l-0.1,0.6c0.1,0.1,0.4-0.1,0.5-0.1
	c0.1,0.1,0.2,0.4,0.2,0.4c0.1,0.1,0.2,0.2,0.4,0.2c0.3,0.1,1-0.5,1.1-0.6c0,0-0.2,0.4,0,0.3c0.1-0.1,0-0.3,0.1-0.3
	c-0.1,0,0.3,0,0.2,0c0.3-0.1,0.8-0.4,0.8-0.2c0.2-0.1,0.4,0,0.6,0s0.3-0.3,0.5-0.2s0.2,0.2,0.2,0.3l0,0c0,0.1,0,0.1,0,0.2
	c0,0,0.3-0.4,0.2-0.1c0-0.1,0.5-0.4,0.4-0.2c0.1-0.2,0.5-0.5,0.7-0.5C51,51.9,50.8,52.2,50.7,52.4z M43.7,45.1
	C43.7,45.1,43.7,45,43.7,45.1L43.7,45.1z M43.7,45.3C43.8,45.4,43.7,45.3,43.7,45.3C43.7,45.2,43.8,45.2,43.7,45.3L43.7,45.3
	c0,0.1,0,0.1-0.2,0.1C43.5,45.4,43.7,45.4,43.7,45.3C43.6,45.4,43.6,45.3,43.7,45.3c-0.2,0.1-0.1,0-0.2,0H43.7
	C43.7,45.3,43.6,45.3,43.7,45.3z M43.7,45.1C43.8,45.1,43.7,45.1,43.7,45.1C43.8,45.1,43.7,45.1,43.7,45.1z M43.7,45
	C43.8,45,43.7,45,43.7,45S43.7,45.1,43.7,45z M43.9,45.2C43.9,45.2,43.9,45.5,43.9,45.2C44,45.2,44,45.3,43.9,45.2
	C43.9,45.3,44,45.2,43.9,45.2c0.1,0,0.1,0.3,0,0.2v-0.1C43.9,45.4,43.9,45.2,43.9,45.2z M43.9,45.1C44,45.1,43.7,45.3,43.9,45.1
	L43.9,45.1z M44,45C44,45,44.1,45,44,45C44,45.2,43.9,45,44,45z M44,45.1C44,45.2,44,45.1,44,45.1L44,45.1z M43.9,45.7
	C43.9,45.7,43.9,45.6,43.9,45.7C44.1,45.6,44,45.7,43.9,45.7C44.1,45.7,44,45.7,43.9,45.7c0.1,0,0.1,0.2,0,0.2
	C43.9,45.7,43.8,45.7,43.9,45.7z M43.9,45.4C43.9,45.4,43.9,45.3,43.9,45.4L43.9,45.4z M43.9,46L43.9,46C43.8,46.1,43.8,46,43.9,46
	c-0.2,0.1-0.6,0.1-0.7-0.1c0-0.1,0.2,0,0.2,0c0-0.1-0.1,0-0.2-0.1c0,0,0.1-0.1,0.1,0c0-0.1-0.1,0,0.1-0.2c0,0,0.1,0.1,0,0.1
	c0.1,0,0.1-0.1,0.1-0.1c0,0.1,0,0.1,0,0.2c0,0,0.1-0.2,0.2-0.2S43.7,45.9,43.9,46z M43.5,45.3C43.5,45.2,43.5,45.3,43.5,45.3
	L43.5,45.3z M43.7,45.2C43.6,45.2,43.7,45.2,43.7,45.2L43.7,45.2z M43.6,45.1C43.6,45.2,43.6,45.3,43.6,45.1c-0.1,0-0.2,0.1-0.2,0.1
	l0,0C43.4,45.2,43.7,45.1,43.6,45.1z M43.4,45.4c0.2,0.1-0.2,0.3-0.3,0.3C43.1,45.4,43.3,45.4,43.4,45.4L43.4,45.4z M44.2,44.9
	C44.2,44.9,44.3,44.8,44.2,44.9L44.2,44.9c0.1-0.1,0.2,0.1,0.2,0.1c-0.1,0.1-0.1,0.1-0.1,0.1C44.1,45.1,44.3,45,44.2,44.9
	C44.1,45,44.2,44.9,44.2,44.9z M44.4,44.7C44.4,44.7,44.4,44.5,44.4,44.7c0.2-0.3,0.2,0,0.3,0c0.1-0.1,0,0.1,0,0.1s0,0.1-0.1,0.1
	c0,0.1,0.2,0.2-0.1,0.2c0,0,0,0,0,0.1h0.1c0,0,0,0.1-0.1,0.1h-0.2c0.1,0,0-0.2,0-0.2s0.1,0.1,0.1,0c0,0,0,0,0-0.1
	c-0.1,0,0,0.1-0.1,0c0,0,0,0.1-0.1,0.1c0.1-0.1,0.3-0.1,0.3-0.1S44.4,44.9,44.4,44.7l0.1,0.1C44.5,45,44.5,44.7,44.4,44.7
	C44.4,44.8,44.4,45,44.4,44.7c0,0.1,0,0.1,0,0.2L44.4,44.7C44.3,44.7,44.4,44.7,44.4,44.7C44.4,44.7,44.4,44.7,44.4,44.7z
	 M44.8,44.8c0,0,0-0.2,0-0.3c0,0,0.1,0,0.1,0.1c0-0.1,0.1,0,0-0.1H45c-0.1,0-0.1-0.1,0-0.1c-0.2-0.2,0.2,0,0.2,0
	c0.1-0.1,0-0.1,0.2-0.1c0,0-0.1-0.1-0.1-0.2c0.2,0,0.4,0.3,0.6,0.2c-0.1,0.1,0,0,0,0.1c0.1,0.1,0.3,0,0.3,0s-0.1,0.1,0,0.1
	c0,0,0-0.1,0.1,0s-0.1,0-0.1,0.1c-0.1,0,0.3,0,0.2,0c0,0-0.3,0.1-0.1,0.1c0,0,0.2-0.1,0.3,0l0,0c-0.1,0-0.1,0-0.2,0
	c0,0,0.1,0.1,0.2,0.1c0-0.1,0-0.1,0.1-0.1c0,0.1,0.2,0.4,0,0.4c0.1,0.1,0.2,0.4,0.1,0.3c-0.2,0.2,0.4,0.5,0.3,0.7
	c-0.1,0-0.8-0.1-0.6-0.2c-0.1,0,0,0.1,0,0.1c-0.3-0.3-0.3-0.5-0.7-0.7c0,0,0.1,0.1,0,0.1l0,0c-0.1,0-0.6-0.3-0.6-0.3s-0.1,0-0.2,0
	c0-0.1,0.1,0,0.1-0.1c0,0-0.1,0-0.2,0C44.7,44.9,44.9,44.9,44.8,44.8C44.8,44.8,44.8,44.8,44.8,44.8z M45.8,46.6L45.8,46.6
	L45.8,46.6z M45.6,46.5c0.1-0.1-0.6,0.1-0.6,0s0.2-0.2,0.2-0.2c0-0.1,0-0.4-0.2-0.3c-0.1,0-0.1-0.1-0.2-0.2c0,0,0,0,0,0.1
	c-0.1,0.1-0.5,0-0.4,0c0,0,0.1,0,0.2,0c0.1-0.1-0.2-0.4,0.3-0.3c-0.1,0.1-0.1,0-0.2,0v0.1l0,0c0.1-0.1,0,0,0.1,0c0-0.2,0.1,0,0.1,0
	h0.2c-0.1,0,0,0.1,0,0.1v-0.1v0.1c0,0,0-0.1,0.1-0.1v0.1c0,0,0.1-0.1,0.1,0c0,0.3,0.4,0.1,0.4,0.2c-0.1,0.1,0,0.1,0,0.2
	c-0.1-0.1-0.1-0.1-0.2-0.1c0,0,0,0.1,0,0c0,0.1,0.3,0.2,0.3,0.3c-0.1,0.1-0.2-0.1-0.2,0C45.5,46.5,45.6,46.5,45.6,46.5z M45.7,46.8
	C45.7,46.9,45.7,46.7,45.7,46.8L45.7,46.8z M45,46.6C45.1,46.7,45,46.5,45,46.6L45,46.6z M45,46.8C45.1,46.7,44.7,46.9,45,46.8
	C45,46.8,44.9,46.8,45,46.8z M44.9,46.1C45,46,45.1,46.1,44.9,46.1C44.9,46.2,44.9,46.2,44.9,46.1C44.9,46.1,44.9,46.2,44.9,46.1z
	 M45,46.1C45.1,46.1,45,46.1,45,46.1L45,46.1z M44.8,46.6c-0.2-0.1,0,0-0.2,0.1c0.1,0-0.1,0-0.1,0s0.1-0.3,0-0.3
	C44.7,46.4,44.8,46.7,44.8,46.6z M44.8,46.7C44.8,46.8,44.8,46.8,44.8,46.7C44.7,46.8,44.8,46.7,44.8,46.7z M44.8,46
	C44.9,46,44.8,46,44.8,46L44.8,46z M44.3,45.8c-0.1-0.1,0.1-0.2,0.2-0.2c-0.1,0,0,0.3,0,0.3L44.3,45.8z M44.2,45.3
	c-0.1-0.2,0.4,0.1,0.4,0C44.6,45.6,44.3,45.4,44.2,45.3z M44.2,45.3C44,45.4,44.3,45.2,44.2,45.3L44.2,45.3z M44.2,45.5
	C44.2,45.5,44.1,45.4,44.2,45.5C44.1,45.4,44.2,45.3,44.2,45.5z M44.2,45.2C44,45.2,44.2,45.2,44.2,45.2L44.2,45.2z M44.3,45.1
	C44.4,45.1,44.2,45.2,44.3,45.1C44.3,45.1,44.3,45.2,44.3,45.1z M44.2,45.1C44.1,45.1,44.1,45,44.2,45.1L44.2,45.1z M44.1,44.9
	L44.1,44.9L44.1,44.9z M47,44.9L47,44.9C47,45,47,44.9,47,44.9z M47,44.8c0-0.2,0.5,0.3,0,0.3C47,45,47,44.8,47,44.8z M47,51.4h0.3
	c0,0.1-0.6,0.2-0.6,0.2c0.1,0,0.2,0,0.3-0.1l-0.2-0.1C46.8,51.5,47,51.4,47,51.4C47,51.4,47,51.4,47,51.4z M46.4,51.5L46.4,51.5
	C46.3,51.6,46.3,51.5,46.4,51.5c-0.3-0.2-0.8-0.1-1,0c0.1-0.3,1.1-0.3,1.2-0.1C46.6,51.5,46.5,51.5,46.4,51.5
	C46.4,51.5,46.5,51.5,46.4,51.5z M46.5,51.8c0,0-0.2,0.1-0.2,0l0,0C46.3,51.8,46.5,51.7,46.5,51.8z M48.1,44.5c0,0,0.2-0.1,0.2,0.1
	c0.1,0.1,0.8-0.3,0.6,0.4c-0.1,0-0.1-0.2-0.1-0.2c0,0.1,0,0.1,0,0.1c-0.1-0.1-0.1-0.1-0.1-0.1s-0.2-0.1-0.2-0.2v0.1l0,0l-0.1-0.1
	l0.1,0.1C48,44.8,48.1,44.5,48.1,44.5z M48.3,44.9c-0.1-0.2,0.6,0.2,0.4,0.3C48.6,45.2,48.4,44.9,48.3,44.9z M52,48.1
	c-0.1,0.7-0.2,0.4-0.6,0.4c-0.2-0.5-0.4-0.7-0.6-1.1c-0.1-0.3-0.1-0.6-0.2-0.8c-0.2-0.4-0.3-0.7-0.4-1s-0.2-0.7-0.2-1
	c0.1,0.1,0.1,0.1,0.2,0.2c0.5-0.2-0.9-1.6-1.2-1.7c0.2,0.1,0.3,0.2,0.4,0.4c-0.1,0.1-0.3-0.1-0.3-0.2c0.2,0.3,0.4,0.4,0.5,0.5
	c-0.1,0-0.1,0-0.3,0c0.1,0-0.2,0.3-0.1,0.3c0.2,0.2,0.3-0.1,0.4-0.1c0,0,0.1,0,0,0s0.2,0.2,0.2,0.2c-1.1,0,0.7,1.3,0.2,1.8
	c-0.5,0-0.6-1.1-0.7-1c-0.1,0-0.2,0-0.3,0.1c0,0,0,0-0.1,0c-0.2-0.1-0.1-0.5-0.5-0.7c0.2-0.1-0.5-0.3-0.5-0.4c0.1,0,0.1,0,0.1,0
	c0.1,0,0.1,0.1,0.3,0.1c0-0.1-0.1-0.1-0.1-0.1s0,0,0.1,0c-0.3-0.3-0.6-0.6-1-0.7l0,0c0.8,0.3-0.5,0.2-0.4,0.1c0.1,0.4,1.2,0,1.3,0.5
	c-0.1,0-0.3,0-0.4,0c0.1,0,0.1,0.1,0.2,0.2c0.1,0.2-1.5-0.6-1.1-0.3c-0.2-0.1-0.5-0.3-0.5-0.3c-0.1,0-0.1,0,0,0c0,0-0.2-0.3-0.1-0.4
	c0,0.1,0.7,0.1,0.5,0c-0.2,0-0.4,0-0.6,0c0,0,0,0,0-0.1s0.1,0,0.1-0.1c-0.2-0.2-0.8,0-0.9-0.2c-0.1,0-0.1,0.3-0.3,0.2
	c0-0.2,0.2-0.3,0.4-0.3c-0.1-0.1-0.4,0-0.6,0c0.1,0,0.2,0.1,0.3,0.1c0,0.1-0.1,0.1-0.2,0.2c0,0,0-0.3-0.1-0.1c0,0,0,0,0.1,0
	c-0.1,0.2-0.3-0.1-0.3-0.1l0.1,0.2c-0.2,0.1-1.2,0.7-0.9,0.1c-0.2,0.2-0.6,0.3-0.7,0.3c-0.2,0-0.3,0.1-0.4,0.2h0.1
	c0.1,0-0.1,0.1,0,0.1c-0.1,0-0.9,0.6-0.7,0.7c-0.1,0.1-0.1,0.1,0,0c-0.2,0.1-0.2,0.1,0,0.1c-0.1,0.2-0.2,0.4-0.4,0.6h0.1
	c-0.1,0.1-0.1,0.2-0.2,0.2c0,0,0.1-0.3,0.1-0.2l0,0h-0.1v-0.1C41.6,45,41.6,45,41.5,45c-0.2,0.1-0.2-0.4-0.2-0.5
	c-0.2,0-0.2,0.1-0.3,0.1c0-0.1,0-0.1-0.1,0c-0.1-0.2,0,0-0.2-0.1c0.2-0.2,0.9-0.1,0.8,0c0.1-0.1-0.1,0-0.1-0.2c0.2,0,0.1-0.2,0-0.2
	c0.3-0.1,0.3-0.6,0.4-0.8c-0.3,0.1-0.3,0.3-0.6,0.3c-0.1-0.4,1.2-0.9,1.5-1.1c1.7-0.7,3.7-0.8,5.4,0c-0.1,0-0.1,0,0,0
	c-0.1,0-0.2-0.1-0.2-0.1l0.1,0.1c-0.3-0.1,0,0.1-0.4,0c0.2,0.1,0.5,0.1,0.6,0.1s0.5,0.2,0-0.1c0.7,0.3,1.2,0.6,1.8,1.1
	c0.1,0.1-0.1-0.1-0.1-0.1c0.1,0,0.1,0.1,0.1,0.1c1,0.4,1.8,2.3,2.2,3.4c0-0.1,0.1,0.2,0,0C52,47.3,52,47.6,52,48.1
	C51.9,48.6,52,48.1,52,48.1z M49.4,43.3L49.4,43.3L49.4,43.3z M48.1,43.6C47.7,43.8,48.3,43.4,48.1,43.6L48.1,43.6z M41.4,43.3
	C41.3,43.3,41.4,43.3,41.4,43.3L41.4,43.3z"/>
<path fill="#F68D1E" d="M48.3,42.7C48.3,42.6,48.3,42.7,48.3,42.7L48.3,42.7z"/>
<path fill="#F68D1E" d="M48.5,42.7C48.5,42.7,48.3,42.7,48.5,42.7L48.5,42.7z"/>
<path fill="#F68D1E" d="M48.8,42.8C48.7,42.8,48.8,42.8,48.8,42.8L48.8,42.8z"/>
<path fill="#F68D1E" d="M48.4,42.7L48.4,42.7L48.4,42.7z"/>
<path fill="#F68D1E" d="M48.8,42.8L48.8,42.8L48.8,42.8z"/>
<path fill="#F68D1E" d="M49.6,52.4C49.5,52.4,49.5,52.4,49.6,52.4C49.5,52.4,49.6,52.4,49.6,52.4z"/>
<path fill="#F68D1E" d="M54.5,39.5L54.5,39.5L54.5,39.5z"/>
<path fill="#F68D1E" d="M54.5,39.7C54.5,39.7,54.5,39.6,54.5,39.7C54.5,39.6,54.5,39.7,54.5,39.7z"/>
<path fill="#F68D1E" d="M54.5,39.7C54.5,39.6,54.5,39.6,54.5,39.7C54.5,39.7,54.5,39.6,54.5,39.7z"/>
<path fill="#F68D1E" d="M54.5,39.5C54.5,39.5,54.5,39.4,54.5,39.5C54.4,39.5,54.4,39.5,54.5,39.5C54.5,39.5,54.6,39.4,54.5,39.5
	L54.5,39.5z"/>
<path fill="#F68D1E" d="M54.6,39.2C54.5,39.2,54.6,39.2,54.6,39.2L54.6,39.2z"/>
<path fill="#F68D1E" d="M53.6,39.3L53.6,39.3L53.6,39.3z"/>
<path fill="#F68D1E" d="M54.6,39.3C54.6,39.2,54.6,39.3,54.6,39.3L54.6,39.3z"/>
<path fill="#F68D1E" d="M54.1,40.3C54.1,40.3,54.1,40.2,54.1,40.3L54.1,40.3z"/>
<path fill="#F68D1E" d="M54.1,40.3L54.1,40.3L54.1,40.3z"/>
<path fill="#F68D1E" d="M53.9,40.5C53.9,40.5,53.9,40.4,53.9,40.5C53.9,40.5,53.9,40.4,53.9,40.5z"/>
<path fill="#F68D1E" d="M54.2,39.5c0,0,0.1,0,0.2,0c0,0-0.1,0,0,0C54.3,39.4,54.3,39.4,54.2,39.5C54.3,39.4,54.1,39.5,54.2,39.5
	L54.2,39.5z"/>
<path fill="#F68D1E" d="M54.4,39.9L54.4,39.9L54.4,39.9z"/>
<path fill="#F68D1E" d="M54.5,39.4C54.5,39.4,54.4,39.5,54.5,39.4C54.4,39.4,54.5,39.4,54.5,39.4S54.4,39.4,54.5,39.4
	C54.5,39.3,54.4,39.4,54.5,39.4z"/>
<path fill="#F68D1E" d="M54.6,39.3L54.6,39.3L54.6,39.3z"/>
<path fill="#F68D1E" d="M52.8,38.7L52.8,38.7L52.8,38.7z"/>
<path fill="#F68D1E" d="M52.9,38.6C52.8,38.6,52.9,38.6,52.9,38.6L52.9,38.6z"/>
<path fill="#F68D1E" d="M52.2,38.7C52.2,38.7,52.2,38.6,52.2,38.7L52.2,38.7z"/>
<path fill="#F68D1E" d="M51.6,39.8C51.6,39.8,51.6,39.9,51.6,39.8C51.6,39.8,51.6,39.9,51.6,39.8z"/>
<path fill="#F68D1E" d="M52.4,38.8C52.5,38.8,52.4,38.8,52.4,38.8L52.4,38.8z"/>
<path fill="#F68D1E" d="M53,38.5C52.9,38.5,52.9,38.6,53,38.5C53,38.5,52.9,38.5,53,38.5z"/>
<path fill="#F68D1E" d="M52.7,38.7C52.7,38.7,52.7,38.8,52.7,38.7L52.7,38.7z"/>
<path fill="#F68D1E" d="M52.6,38.8C52.5,38.8,52.6,38.7,52.6,38.8S52.5,38.8,52.6,38.8z"/>
<path fill="#F68D1E" d="M52.5,38.9L52.5,38.9L52.5,38.9z"/>
<path fill="#F68D1E" d="M52.5,38.8L52.5,38.8L52.5,38.8z"/>
<path fill="#F68D1E" d="M53.7,37.3C53.6,37.2,53.7,37.4,53.7,37.3L53.7,37.3z"/>
<path fill="#F68D1E" d="M54.5,40.2C54.5,40.2,54.5,40.3,54.5,40.2C54.5,40.3,54.5,40.2,54.5,40.2L54.5,40.2z"/>
<path fill="#F68D1E" d="M54.5,40.2C54.5,40.1,54.5,40.1,54.5,40.2L54.5,40.2z"/>
<path fill="#F68D1E" d="M54.5,40.2c0,0-0.3,0-0.2,0.1l0,0C54.3,40.3,54.3,40.3,54.5,40.2C54.4,40.3,54.4,40.3,54.5,40.2
	C54.4,40.3,54.5,40.3,54.5,40.2z"/>
<path fill="#F68D1E" d="M54.3,40.2L54.3,40.2L54.3,40.2z"/>
<path fill="#F68D1E" d="M54.5,40.2L54.5,40.2L54.5,40.2z"/>
<path fill="#F68D1E" d="M54.4,40.3c-0.1,0-0.1,0.1-0.2,0.1C54.6,40.2,54.2,40.4,54.4,40.3z"/>
<path fill="#F68D1E" d="M53.4,36.8c-2.9,0-2.9,4.5,0,4.5S56.3,36.8,53.4,36.8z M54.6,37.4c0-0.1,0.2,0.1,0.2,0.1s0,0-0.1,0
	c0.1,0.1,0,0.1,0.1,0c0,0,0.1,0.1,0,0.1c-0.1,0.1,0.1,0,0.1,0c0.1,0.1,0.3,0.3,0.3,0.5c0,0,0,0,0,0.1c-0.1-0.2-0.1-0.1,0-0.1
	L55.1,38l0,0c-0.1-0.1-0.2-0.2-0.3-0.3c0,0,0.1,0,0.1-0.1C54.5,37.6,54.7,37.5,54.6,37.4L54.6,37.4z M53.4,37.2
	c0.1-0.1,0.3,0.1,0.2,0.1c0,0,0.1,0,0.1,0.1l0,0c0,0,0.1,0,0.1,0.1h-0.1c0,0,0,0,0,0.1l0,0c-0.1-0.1-0.1,0-0.2,0.1l-0.1-0.1
	c0,0,0.1,0,0,0s-0.1,0.1-0.1,0.1C53.4,37.3,53.4,37.2,53.4,37.2C53.5,37.2,53.4,37.2,53.4,37.2z M51.8,38c0.1-0.1,0.2-0.2,0.3-0.3
	l0,0c-0.1,0.1,0,0,0,0.1c-0.1-0.1,0.6,0.3,0.1,0.3c0,0-0.2,0-0.3,0.1C51.8,38.1,51.9,38.1,51.8,38C51.8,38.1,51.9,38,51.8,38
	C51.7,38.2,51.8,38.1,51.8,38C51.8,38,51.8,38.1,51.8,38z M51.9,40.4c-0.3-0.3-0.4-1.2-0.5-1.3c0,0,0,0,0,0.1c0-0.1,0-0.2,0.1-0.2
	c0,0,0,0,0,0.1s0,0-0.1,0v0.3c0.1,0,0,0.2,0,0.2s-0.1,0-0.1-0.1c-0.1,0.1,0.1,0.4,0.1,0.4s0.3,0.1,0.3,0.2c0,0,0.1,0.2,0,0.3
	c0-0.1,0-0.1,0,0C51.8,40.3,52,40.4,51.9,40.4L51.9,40.4z M55.4,39.1c-0.1,0-0.1,0.3-0.1,0.3c0-0.1,0,0,0.1,0l0,0
	c0,0.3-0.1,0-0.1,0.2c0,0-0.1,0.2-0.1,0.3l0.1-0.1c0.1,0.1-0.5,0.9-0.7,0.9c0,0,0.1,0,0-0.1c-0.1,0.1,0,0.1-0.1,0.2v-0.1
	c-0.2,0.1-0.4,0.2-0.5,0.3c0,0,0.1-0.1-0.1,0c0-0.1-0.1-0.1-0.2,0c0,0,0,0,0.1,0c0,0-0.4,0.1-0.5,0.1c0-0.1-0.2-0.1-0.1,0
	c-0.2,0-0.8,0-1-0.2c0.1,0,0.4,0.1,0.4,0.1c0-0.1,0.2,0,0.3,0l0,0c0,0-0.1,0,0,0s-0.2-0.1-0.3,0l0,0c-0.2-0.1-0.4-0.1-0.5-0.2h0.1
	c0,0-0.1,0,0,0s-0.1,0,0,0c-0.1,0,0-0.1-0.1-0.2c0,0,0,0,0,0.1c-0.2-0.1-0.2-0.4-0.4-0.7c0,0,0,0,0,0.1c-0.1-0.1,0-0.1,0-0.2l0,0
	c-0.1,0,0,0,0,0.1l-0.1-0.2c0.1,0,0,0.1,0.1,0c0,0-0.2-0.6-0.1-0.5l0,0c0,0,0,0-0.1,0c0-0.1,0-0.1,0.1-0.2h-0.1c0.1,0,0.1-0.1,0-0.1
	c-0.1,0.1,0,0-0.1,0.1c0-0.1,0.1-0.1,0.1-0.2c0,0,0,0.1,0.1,0.1s0.1-0.2,0.1-0.2s0,0.1,0.1,0.1v-0.1c0.1,0.1,0,0.2,0,0.2
	c0.1-0.1,0.2-0.3,0.1-0.4c0.1-0.1,0.1,0,0.1-0.1c0,0-0.1-0.1,0-0.1c0-0.1,0.2-0.6,0.4-0.8c-0.1,0.1-0.1,0.1-0.1,0v-0.1l0,0v0.1
	c0.1-0.1,0-0.1,0.2-0.2l0,0c0,0.1,0,0,0.1,0.1c-0.1,0,0.1,0.1,0.1,0.1c0.1-0.1,0.1-0.1,0.2-0.1c0,0,0,0-0.1,0c0,0,0.3-0.1,0.2,0
	c0,0,0.1-0.1,0.2-0.1c0,0.1,0,0.1,0.1,0.1c-0.1,0.1-0.1,0.1-0.2,0.1c0.1,0-0.1,0.2-0.1,0.2v-0.1c-0.1,0-0.1,0.2-0.1,0.2l0,0l0,0
	c-0.1,0,0-0.1-0.1,0.1c0,0,0,0,0-0.1l0,0L52.6,38l0,0h0.1l0,0v0.1c-0.1-0.1-0.1,0-0.1,0.1c0.1,0,0.1,0.1,0,0.1l0,0
	c0.2,0,0.6-0.3,0.4-0.3c0.1,0,0-0.1,0.1-0.1l0,0V38c0.1-0.1,0.1-0.1,0.1-0.1c-0.1-0.1,0,0.1,0.1-0.2c0.1,0.1,0,0.2,0,0.3
	c0-0.1,0-0.1,0.1-0.1c-0.1,0.1,0,0,0,0S53.3,38,53.2,38l-0.1-0.1c0,0,0,0.3,0.1,0.3c-0.1,0-0.1,0.1-0.1,0.1c-0.1,0,0,0-0.1,0
	c-0.1,0.1,0,0.1-0.1,0.2H53c0,0,0,0.1-0.1,0.1l0.1-0.1c0,0.1,0,0-0.1,0.1l0,0c0,0,0-0.1,0.1,0l-0.2,0.1l0,0c0,0.1,0-0.1-0.1,0
	c0,0,0-0.1,0,0c-0.1,0.1,0,0-0.1,0l0,0c0,0,0,0,0,0.1c0.1,0,0,0.2,0.2-0.1v0.1c0,0,0,0,0.1-0.1c-0.1,0,0.2,0.1,0.1,0.1v0.1
	c0,0,0,0-0.1,0c0,0,0.1,0,0.1,0.1c0.1-0.1,0.2-0.2,0.4-0.3l0,0c0,0,0-0.1,0.1,0l-0.1,0.1c0,0,0,0,0.1,0l-0.1,0.1l0,0
	c0,0.1,0,0.2,0,0.3l0,0c0.1-0.1,0-0.1,0.1-0.1l0,0c0,0,0,0.2,0.1,0.1c0.1-0.1,0.1-0.1,0.1-0.1c-0.1,0,0-0.1,0.1-0.2l0,0h-0.1
	c0.1-0.1,0.6-0.3,0.5-0.2c0.1,0,0.1,0,0.2,0c0.1,0.2,0,0.2,0.1,0.3c0,0,0.2-0.3,0.1-0.3v0.1l0,0c0-0.1,0-0.1,0.1-0.2
	c0,0-0.1,0-0.2,0v-0.1c0,0-0.1,0-0.1,0.1v-0.1c-0.1-0.1-0.3,0-0.4-0.1c0.1-0.1,0-0.1,0.1-0.2c0,0,0-0.1-0.1-0.1c0,0,0,0-0.1,0.1
	c0,0,0-0.1-0.1-0.1l0,0c-0.1,0-0.1,0-0.1,0l0,0L53.6,38c0,0,0,0,0.1,0.1V38c0,0,0,0,0.1,0.1l0,0l0,0h0.1c0,0-0.1,0-0.1,0.1
	c0.1,0,0.1-0.1,0.2-0.1c0,0,0,0,0.1,0c0,0,0,0-0.1,0c0,0,0,0,0.1,0H54v-0.2c0,0,0,0,0.1,0c0,0,0.2,0.1,0.2,0.2c0-0.1-0.1-0.1,0-0.2
	c-0.1-0.1,0,0.1-0.1,0h0.1c-0.1,0-0.1,0.1,0,0.1c-0.1,0-0.1,0,0-0.1c0,0,0,0,0,0.1c0.1,0.1,0.1,0,0.2,0l0,0c0,0,0,0,0.1,0
	c0-0.2,0,0,0,0v-0.1c0.1,0.1,0.1,0.2,0,0.2l0,0c0.1,0.1,0,0.1,0,0c0,0,0,0.1,0.1,0c0,0.1,0,0,0,0.1c0,0,0,0,0.1,0v0.1l0,0
	c0-0.1,0-0.1,0.1,0c0-0.1-0.1-0.1,0-0.2c0.1,0,0,0,0.1,0c-0.1,0.1,0.2,0,0.2,0s-0.1,0.1,0,0.1c0-0.1,0.1-0.1,0.1,0
	c0,0,0-0.1,0.1-0.1c0,0.2-0.2,0.2-0.2,0.2v0.1c0.2,0,0.3-0.2,0.3-0.2l0,0c0-0.1,0-0.1-0.1,0v-0.1l0,0l0,0c0,0.1,0,0.1,0.1,0
	C55.5,38.5,55.3,38.7,55.4,39.1C55.4,39.1,55.4,39,55.4,39.1L55.4,39.1z"/>
<path fill="#F68D1E" d="M54.6,40.2C54.6,40.2,54.6,40.3,54.6,40.2C54.7,40.2,54.7,40.1,54.6,40.2C54.6,40.2,54.7,40.2,54.6,40.2z"/>
<path fill="#F68D1E" d="M54.2,40.2L54.2,40.2C54.3,40.2,54.3,40.2,54.2,40.2S54.2,40.2,54.2,40.2C54.1,40.2,54.3,40.2,54.2,40.2z"/>
<path fill="#F68D1E" d="M54.9,40.2C55,40.2,55.1,40.1,54.9,40.2C55,40.2,55,40.2,54.9,40.2z"/>
<path fill="#F68D1E" d="M54.9,39.6C54.7,39.8,54.9,39.4,54.9,39.6c0-0.3-0.1,0,0-0.2c0,0-0.1,0.1-0.2,0.1v-0.1c0,0,0.2-0.1,0.2-0.2
	c-0.1,0,0,0-0.1,0c0-0.1,0-0.1,0-0.1c-0.1,0-0.1,0-0.1,0s0,0.5-0.1,0.4l0,0c-0.3,0.2-0.1,0.1-0.1,0.1c0,0.1-0.1,0.2-0.1,0.2
	c0.1,0,0,0,0,0.1c0.2-0.2,0.2,0.1,0.3-0.1C54.8,39.7,54.8,39.8,54.9,39.6z"/>
<path fill="#F68D1E" d="M54.6,40.1C54.6,40.1,54.6,40.2,54.6,40.1L54.6,40.1z"/>
<path fill="#F68D1E" d="M53.9,40.6C54,40.6,54,40.5,53.9,40.6C53.9,40.5,53.8,40.5,53.9,40.6C53.9,40.5,53.9,40.6,53.9,40.6
	L53.9,40.6z"/>
<path fill="#F68D1E" d="M54.2,40.3C54.2,40.3,54.1,40.3,54.2,40.3L54.2,40.3z"/>
<path fill="#F68D1E" d="M53.8,40.6C53.9,40.6,53.7,40.5,53.8,40.6L53.8,40.6L53.8,40.6L53.8,40.6C53.7,40.7,53.9,40.6,53.8,40.6z"/>
<path fill="#F68D1E" d="M53.7,40.7C53.7,40.7,53.6,40.7,53.7,40.7C53.6,40.7,53.6,40.7,53.7,40.7L53.7,40.7z"/>
<path fill="#F68D1E" d="M53.6,40.8c0,0-0.2,0-0.3,0c0,0,0.1,0,0.1,0.1C53.4,40.8,53.5,40.8,53.6,40.8C53.6,40.9,53.6,40.8,53.6,40.8
	L53.6,40.8z"/>
<path fill="#F68D1E" d="M53.2,40.8C53.3,40.7,53.1,40.9,53.2,40.8C53.1,40.8,53.1,40.8,53.2,40.8C53.1,40.9,53.1,40.8,53.2,40.8
	L53.2,40.8z"/>
<path fill="#F68D1E" d="M53.2,40.9C53.2,40.8,53.2,40.8,53.2,40.9C53.3,40.9,53.1,40.8,53.2,40.9C53.2,40.9,53.2,40.8,53.2,40.9
	L53.2,40.9z"/>
<path fill="#F68D1E" d="M53.4,40.8C53.3,40.9,53.3,40.8,53.4,40.8C53.4,40.9,53.4,40.8,53.4,40.8z"/>
<path fill="#F68D1E" d="M54.2,40.4L54.2,40.4C54.1,40.5,54.1,40.5,54.2,40.4L54,40.5c0,0,0.1,0,0,0s0,0,0,0
	C54.1,40.5,54.2,40.5,54.2,40.4C54.2,40.4,54.2,40.4,54.2,40.4z"/>
<path fill="#F68D1E" d="M53.8,40.6C53.8,40.6,53.9,40.6,53.8,40.6L53.8,40.6z"/>
<path fill="#F68D1E" d="M54,40.6L54,40.6L54,40.6z"/>
<path fill="#F68D1E" d="M54,40.6C54,40.7,54,40.6,54,40.6L54,40.6z"/>
<path fill="#F68D1E" d="M53,40.9C53.1,40.9,53.1,40.8,53,40.9L53,40.9z"/>
<path fill="#F68D1E" d="M56.4,25.7c0.5-5.9-5.4-10.6-11.1-9.2c-0.8,0.2-1.6,0.5-2.3,0.9c-0.2,0.1-0.7,0.6-0.9,0.6
	c-0.3,0-1.2-0.5-1.5-0.6c-1.6-0.6-3.2-1.2-4.8-1.6c-1-0.3-4.4-1.3-4.9,0.3C30.3,17.8,33,20,34,20.9c2.6,2.3,5.5,4.3,8.5,6
	c3.3,1.9,6.7,3.6,10.2,5c2.8,1.1,5.8,2.2,8.8,2.4c1.6,0.1,3.8-0.2,2.6-2.2C62.4,29.4,59,27.4,56.4,25.7
	C56.4,25.5,61.8,29.2,56.4,25.7z M39.3,21.7c-0.5-0.4-5.3-3.4-4.5-4.4c0.3-0.4,1.6,0.1,1.9,0.2c1.5,0.4,3,0.9,4.5,1.5
	C40.4,19.7,39.7,20.6,39.3,21.7C36.2,19.6,39.7,20.6,39.3,21.7z M55,29.9c0.6-0.9,1-2,1.2-3.1c1.3,0.9,2.6,1.7,3.7,2.8
	c0.3,0.3,1.4,1,1.2,1.5C60.7,32.3,55.6,30.1,55,29.9C55.6,29,58.4,31.2,55,29.9z"/>
<path fill="#F68D1E" d="M45.2,29.6c-2.2-1.2-4.4-2.5-6.5-3.9c0.4,6.5,7.7,10.4,13.3,7.1C49.6,31.9,47.4,30.8,45.2,29.6
	C42.8,28.4,47.5,30.9,45.2,29.6z"/>
</svg>

