<?xml version="1.0" encoding="utf-8"?>
<!-- Generator: Adobe Illustrator 18.1.1, SVG Export Plug-In . SVG Version: 6.00 Build 0)  -->
<!DOCTYPE svg PUBLIC "-//W3C//DTD SVG 1.1//EN" "http://www.w3.org/Graphics/SVG/1.1/DTD/svg11.dtd">
<svg version="1.1" id="Layer_1" xmlns="http://www.w3.org/2000/svg" xmlns:xlink="http://www.w3.org/1999/xlink" x="0px" y="0px"
	 viewBox="0 0 75 75" enable-background="new 0 0 75 75" xml:space="preserve">
<g>
	<path fill="#F78E1E" d="M61.3,23.8c0,0-0.6,1.2-2,1c0,0-0.3,1.5-1.9,1c0,0-0.4,1.4-2.2,1.1c0,0-0.4,1.4-2.3,1c0,0-1.7,1.5-5.1,0.1
		c0,0-0.5-0.3-2.7,0.2c-2.2,0.5-4.5,0.2-4.6-1.8c-0.1-2,1.2-5,0.6-6c0,0,4.6,0.2,6.1-1c1.4-1.2,8.4,0.1,12.4,2.3c0,0,2.2,0.1,3,0
		C63.3,21.5,63.2,23.1,61.3,23.8z"/>
	<g>
		<path fill="#F78E1E" d="M40.5,43.7c-0.3,0.6-1.1,0.7-1.7,0.3l-4.5-2.6c-0.6-0.4-0.9-1.1-0.5-1.7c0.2-0.4,0.6-0.6,1-0.6
			c0.2,0,0.5,0.1,0.7,0.2l0.5,0.3l0-0.7c0.6,0,1.5,0.1,2.3,0.3l0,1.7l1.8,1.1C40.6,42.4,40.8,43.2,40.5,43.7z"/>
		<path fill="#F78E1E" d="M40,47.7c-0.3,0.5-1,0.6-1.5,0.3l-3.9-2.3c-0.5-0.3-0.8-1-0.5-1.5c0.2-0.3,0.5-0.5,0.9-0.5
			c0.2,0,0.4,0,0.6,0.2l0.4,0.2l0-1.1l2.2,1.3l0,1.1l1.4,0.8C40,46.6,40.3,47.2,40,47.7z"/>
		<path fill="#F78E1E" d="M39.5,51.4c-0.2,0.4-0.8,0.5-1.3,0.3l-3.3-2c-0.5-0.3-0.6-0.8-0.4-1.2c0.2-0.3,0.4-0.4,0.7-0.4
			c0.2,0,0.4,0,0.5,0.2l0.3,0.2l0-1.2l2.1,1.2l0,1.1l1,0.6C39.5,50.4,39.7,51,39.5,51.4z"/>
		<path fill="#F78E1E" d="M39,54.6c-0.2,0.4-0.7,0.5-1.1,0.2l-2.8-1.7c-0.4-0.2-0.5-0.7-0.3-1.1c0.1-0.2,0.4-0.3,0.6-0.3
			c0.2,0,0.3,0,0.5,0.1L36,52l0-1l2,1.2l0,1l0.7,0.4C39.1,53.8,39.2,54.3,39,54.6z"/>
	</g>
	<g>
		<path fill="#F78E1E" d="M34.8,16.9c0-1.2,1-2.2,2.2-2.2c1.2,0,2.2,1,2.2,2.2s-1,2.2-2.2,2.2C35.8,19.1,34.8,18.1,34.8,16.9z"/>
		<path fill="#F78E1E" d="M29.2,28.2c-2.2-0.5-2.7-0.2-2.7-0.2c-3.4,1.3-5.1-0.1-5.1-0.1c-1.9,0.4-2.3-1-2.3-1
			c-1.8,0.4-2.2-1.1-2.2-1.1c-1.7,0.5-1.9-1-1.9-1c-1.4,0.2-2-1-2-1c-1.9-0.7-2-2.3-1.2-2.1c0.8,0.2,3,0,3,0c4-2.1,11-3.5,12.4-2.3
			c1.4,1.2,6.1,1,6.1,1c-0.5,1,0.7,4,0.6,6C33.7,28.4,31.4,28.8,29.2,28.2z"/>
		<path fill="#F78E1E" d="M40.5,39.9c-0.1,0-0.3,0-0.3,0c-1.2-1.3-4.2-1.4-5.1-1.4c-0.2,0-0.3,0-0.3,0c-4.9,0-6.3-1.7-6.3-1.7
			c-2.9-3.8-0.1-6.5,1.8-7c0.7-0.2,1.4-0.3,2.1-0.3c1.1,0,2.1,0.3,2.4,1.1c0.5,1.2-0.6,1.5-0.6,1.5c-0.1,0-0.2,0-0.3,0
			c-0.9,0-1.8-0.3-1.8-0.3c-0.3-0.2-0.6-0.2-0.8-0.2c-0.7,0-1.1,0.5-1.1,0.5c-1.8,3.4,1.3,3.7,2.2,3.7c0.1,0,0.2,0,0.2,0s0,0,0.1,0
			c0.3,0,1.6,0,3.1,0.2l-0.2-16c0.4,0.2,0.9,0.3,1.4,0.3c0.5,0,0.9-0.1,1.3-0.3l-0.2,16.4c1.2,0.3,2.2,0.8,2.5,1.6
			C41.5,39.6,40.9,39.9,40.5,39.9z"/>
		<path fill="#F78E1E" d="M45.7,36.8c0,0-0.9,1.1-3.9,1.5c-0.1-0.3-0.2-0.5-0.3-0.7c-0.4-0.8-1.2-1.3-2.2-1.7
			c1.3-0.1,2.3-0.1,2.3-0.1s4.5,0.3,2.4-3.7c0,0-0.7-1-1.9-0.3c0,0-1,0.4-2.1,0.3c0,0-1.1-0.2-0.6-1.5c0.5-1.2,2.5-1.3,4.5-0.8
			C45.8,30.3,48.7,33,45.7,36.8z"/>
	</g>
	<path fill="#F78E1E" d="M34.9,57.1C34,58.3,34.7,60,34.7,60c-1-0.4-1.2-2.2-1.2-2.2c-0.3-2.5,1.4-2.4,1.4-2.4
		C35.8,56,34.9,57.1,34.9,57.1z"/>
	<path fill="#F78E1E" d="M40.4,57.8c0,0-0.2,1.8-1.2,2.2c0,0,0.7-1.7-0.2-2.9c0,0-0.9-1.1,0-1.7C39,55.5,40.7,55.4,40.4,57.8z"/>
	<path fill="#F78E1E" d="M37.9,55.5C37.9,55.5,37.9,55.5,37.9,55.5l0,6.9h-1.8l-0.1-8L37.9,55.5z"/>
</g>
</svg>

