<svg id="Layer_1" xmlns="http://www.w3.org/2000/svg" viewBox="0 0 44 32"><style>.st0{fill:#949494;} .st1{fill:#CB2128;}</style><path class="st0" d="M42 7h-8c-1.1 0-2 .9-2 2v21c0 1.1.9 2 2 2h8c1.1 0 2-.9 2-2V9c0-1.1-.9-2-2-2zm-4 24c-.3 0-.5-.2-.5-.5s.2-.5.5-.5.5.2.5.5c0 .2-.2.5-.5.5zm5-3c0 .6-.4 1-1 1h-8c-.6 0-1-.4-1-1V11c0-.6.4-1 1-1h8c.6 0 1 .4 1 1v17zM5 27c-.6 0-1-.4-1-1V3c0-.6.4-1 1-1h31c.6 0 1 .4 1 1v3h2V2c0-1.1-.9-2-2-2H2C.9 0 0 .9 0 2v25c0 1.1.9 2 2 2h29v-2H5zM2 16c-.6 0-1-.4-1-1s.4-1 1-1 1 .4 1 1c0 .5-.4 1-1 1z"/><path class="st1" d="M25.5 14.5l1.9-2 .6-.6-.8-.2-2.8-.6.3-2.7.1-.8-.8.3L21.4 9 20 6.7l-.4-.7-.4.7L17.8 9l-2.6-1.1-.8-.3.1.8.3 2.7-2.8.6-.8.2.6.6 1.9 2-1.9 2-.6.6.8.2 2.8.6-.3 2.7-.1.8.8-.3 2.6-1.1 1.4 2.3.4.7.4-.7 1.4-2.3 2.6 1.1.8.3-.1-.8-.3-2.7 2.8-.6.8-.2-.6-.6-1.9-2zM22 16h-5v-1h5v1zm0-2h-5v-1h5v1zM40.8 19l.9-.9.3-.3-.4-.1-1.3-.3.1-1.3v-.4l-.4.2-1.2.5-.7-1.1-.2-.3-.2.3-.7 1.1-1.2-.5-.4-.2v.4l.1 1.3-1.3.3-.4.1.3.3.9.9-.9.9-.3.3.4.1 1.3.3-.1 1.3v.4l.4-.2 1.2-.5.7 1.1.2.3.2-.3.7-1.1 1.2.5.4.2v-.4l-.1-1.3 1.3-.3.4-.1-.3-.3-.9-.9zM39 20h-2v-.5h2v.5zm0-1.5h-2v-.6h2v.6z"/></svg>