<?xml version="1.0" encoding="utf-8"?>
<!-- Generator: Adobe Illustrator 18.1.1, SVG Export Plug-In . SVG Version: 6.00 Build 0)  -->
<!DOCTYPE svg PUBLIC "-//W3C//DTD SVG 1.1//EN" "http://www.w3.org/Graphics/SVG/1.1/DTD/svg11.dtd">
<svg version="1.1" id="Layer_1" xmlns="http://www.w3.org/2000/svg" xmlns:xlink="http://www.w3.org/1999/xlink" x="0px" y="0px"
	 viewBox="0 0 75 75" enable-background="new 0 0 75 75" xml:space="preserve">
<path fill="#F68D1E" d="M51.9,18.8l-0.1,7H23.1l0.1-7H51.9z"/>
<path fill="#F68D1E" d="M48.5,27.1v4H26.2v-4H48.5z"/>
<path fill="#F68D1E" d="M36.6,34.1v17v0.1h-3.2v-0.1v-17c0-0.9,0.7-1.6,1.6-1.6S36.6,33.3,36.6,34.1z"/>
<path fill="#F68D1E" d="M48.5,51.2v4H26.2v-4h2.1c0-0.1,0-0.2,0-0.2V34c0-0.9,0.7-1.6,1.6-1.6s1.6,0.7,1.6,1.6v17c0,0.1,0,0.2,0,0.2
	h6.7c0-0.1,0-0.2,0-0.3V34c0-0.9,0.7-1.6,1.6-1.6s1.6,0.7,1.6,1.6v17c0,0.1,0,0.2,0,0.3H43v-0.1v-17c0-0.9,0.7-1.6,1.6-1.6
	s1.6,0.7,1.6,1.6v17v0.1L48.5,51.2L48.5,51.2z"/>
</svg>

