<?xml version="1.0" encoding="utf-8"?>
<!-- Generator: Adobe Illustrator 18.1.1, SVG Export Plug-In . SVG Version: 6.00 Build 0)  -->
<!DOCTYPE svg PUBLIC "-//W3C//DTD SVG 1.1//EN" "http://www.w3.org/Graphics/SVG/1.1/DTD/svg11.dtd">
<svg version="1.1" id="Layer_1" xmlns="http://www.w3.org/2000/svg" xmlns:xlink="http://www.w3.org/1999/xlink" x="0px" y="0px"
	 viewBox="0 0 75 75" enable-background="new 0 0 75 75" xml:space="preserve">
<path fill="#F68D1E" d="M28.9,54.9c-0.3-0.1-0.6-0.2-0.8-0.4C28.3,54.7,28.6,54.8,28.9,54.9z"/>
<path fill="#F68D1E" d="M26.4,53.7c0.2,0.1,0.3,0.2,0.5,0.2C26.7,53.9,26.6,53.8,26.4,53.7L26.4,53.7z"/>
<path fill="#F68D1E" d="M37.7,24.9c0.4,0,0.8,0.1,1.2,0.1c0.6,0,1.2,0,1.8,0.2c2.2-5.2,7.9-6.1,13.9-6.2c-2.2-1.6-5.5-2.7-8.4-2.8
	c-0.3,0-0.5,0-0.7-0.1c-0.4,0-0.7-0.1-1-0.1c-0.4,0-0.8,0.1-1.1,0.2c-0.5,0.2-1,0.8-1.4,1.3c-0.1,0.1-0.2,0.3-0.4,0.4
	C39.8,20.1,38.5,22.3,37.7,24.9z"/>
<path fill="#F68D1E" d="M33.8,24.9c0.3-1.2,0.6-3.2,0.4-4.6c-1.2,1.2-2.7,2.9-3.7,5.1c0.3,0,0.6-0.1,0.9-0.2
	C32.1,25.2,32.9,25,33.8,24.9z"/>
<path fill="#F68D1E" d="M35.9,28.3c0.1-0.3,0.1-0.6,0.2-0.9c0.2-0.6,0.3-1.2,0.3-1.8c-0.6,0.1-1.4,0-1.9,0.1
	c-0.3,1.3-0.9,2.5-1.4,3.6c1,0.5,1.9,1,2.5,1.4C35.6,30,35.7,29.2,35.9,28.3z"/>
<path fill="#F68D1E" d="M33.5,25.8c-1.1,0.2-2.3,0.4-3.4,0.7c-0.2,0.5-0.3,0.9-0.5,1.5c1,0.3,1.9,0.7,2.7,1.1
	C32.8,28,33.2,27,33.5,25.8z"/>
<path fill="#F68D1E" d="M45.4,38.2c-2.4-2.9-5.7-7-5-12.3c-1-0.1-2.1-0.2-3-0.2c-0.6,1.8-1,3.6-1.2,5.5c0.1,0.1,0.2,0.2,0.2,0.2
	c7,5.5,9.4,12.2,10.1,17.2c3.1-0.3,5.5-1.4,7.1-2.4C50.8,43.9,47.9,41.3,45.4,38.2z"/>
<path fill="#F68D1E" d="M58.1,22.3L58,22.1c-0.7-0.9-1.7-2.2-2.7-2.2c-0.5,0-1,0-1.5,0c-6.7,0-10.6,1.7-12.2,5.3
	c7.2,1,13.7,3.4,19.2,7.2c0.1,0.1,0.1,0.1,0.2,0.2c0.2,0.2,0.3,0.3,0.5,0.3l0,0C61.7,28.2,59.8,24.5,58.1,22.3z"/>
<path fill="#F68D1E" d="M41.2,26.2c-0.5,3,0.7,5.3,1.8,7.2c2.9,5,7.4,9,11.4,12.4c4-2.8,6.3-6.5,7-11.6
	C55.4,29.7,48.9,27.2,41.2,26.2C41.2,26.2,41.2,26.2,41.2,26.2z"/>
<path fill="#F68D1E" d="M35.9,24.8c0.1,0,0.3,0,0.4,0c0.2,0,0.4,0,0.5,0c1-3.2,2.6-5.9,5-8.4c-1.2,0.2-2.2,0.6-3.6,1.3L38,17.8
	c-0.8,0.4-2.7,1.3-2.9,1.9c-0.1,0.2,0,0.4,0,0.6s0,0.3,0,0.5c0,1-0.2,2.2-0.3,3.3c0,0.3-0.1,0.5-0.1,0.8c0.3,0,0.5-0.1,0.8-0.1
	C35.6,24.8,35.8,24.8,35.9,24.8z"/>
<path fill="#F68D1E" d="M24,27.4c0.1,0,0.2,0,0.3-0.1c-0.1,0-0.2,0-0.3-0.1c-0.2,0-0.3,0-0.4,0C23.7,27.3,23.8,27.3,24,27.4z"/>
<path fill="#F68D1E" d="M43.3,46.2c-0.2-0.4-1-1.3-3.5-0.2c-3.1,1.3-6.9,4.9-8.7,8.8c0.2,0.1,0.4,0.2,0.6,0.3
	c1.5,0.6,2.9,1.1,4.4,1.5c1.5,0.5,3,0.9,4.5,1.2c-3.1-0.4-6.2-1.2-9.1-2.2c-3-1-5.9-2.3-8.6-3.9c-2.7-1.7-5.2-3.7-7.2-6.1
	c-1-1.2-1.8-2.6-2.5-4c-0.6-1.4-1.1-3-1.3-4.5c0.7,3.1,2.2,5.9,4.2,8.2s4.5,4.3,7.1,5.9c1,0.6,2.1,1.2,3.1,1.7
	c0.7-1.5,4.4-8,10.9-10.8c0,0,2.8-1.4,4.5-0.1c-1.5-3.5-4-7.2-8.2-10.4c0,0-3.1-2.5-7.7-3.7l0,0c-0.3,0-0.6,0-0.9,0.1
	c0.3,0.1,0.7,0.3,1,0.5c0.3-0.1,0.7-0.1,1.2,0c0,0,0.8,0.6,0.5,0.7c0,0-0.2-0.1-0.6-0.1c0.2,0.1,0.4,0.3,0.7,0.4
	c0.3-0.1,0.7-0.1,1.2,0.1c0,0,0.6,0.3,0.4,0.6c0-0.2-0.2-0.2-0.5-0.2c0.3,0.2,0.6,0.5,0.9,0.7c0.5,0,0.9,0.1,1.1,0.4
	c0.3,0.5,0,0.6,0,0.6l0,0c0.3,0.3,0.6,0.5,0.9,0.8c0.2,0,0.3,0,0.5,0c0.7,0.2,0.5,0.9,0.5,0.9l0,0c0.3,0.3,0.6,0.6,0.9,0.9
	c0.6-0.1,0.7,0.3,0.9,0.4c0.2,0.2-0.1,0.4-0.1,0.4c0.3,0.3,0.6,0.7,0.9,1c0.2,0,0.3,0,0.5,0c0,0,0.8,0.5,0.3,0.7c-0.1,0-0.1,0-0.2,0
	c0.3,0.4,0.6,0.7,0.8,1c0.2,0,0.3,0,0.4,0c0.5,0.1,0.6,0.9,0.6,0.9c-0.1,0-0.2,0-0.2,0l0.1,0.1c-0.1,0.7-1.5,0.7-1.5,0.7
	c-0.1-0.1-0.2-0.2-0.2-0.3c-0.7,0.3-1.2,0.7-1.2,0.7C34,39.7,34,39.3,34,39.3c0.2-0.4,0.7-0.7,1.3-1c-0.2-0.4-0.5-0.7-0.8-1.1
	c-0.3,0.2-0.7,0.4-1.1,0.7c0,0-0.6,0.3-0.6-0.4c0,0,0.5-0.5,1.2-0.9c-0.3-0.4-0.6-0.8-0.9-1.1c-0.6,0.3-1.1,0.8-1.1,0.8
	c-0.6,0.1-0.5-0.5-0.5-0.5c0.3-0.4,1-0.9,1.1-0.9c-0.4-0.4-0.8-0.8-1.1-1.2c-0.5,0.3-1,0.6-1,0.6c-0.3,0.2-0.9,0.3-0.7-0.3
	c0.1-0.3,0.5-0.6,1-0.9c-0.4-0.4-0.8-0.7-1.1-1c-0.5,0.3-0.9,0.6-0.9,0.6c-0.4,0-0.5-0.4-0.5-0.4c0.1-0.3,0.4-0.6,0.4-0.6
	c0.1-0.1,0.2-0.2,0.3-0.3c-0.3-0.3-0.7-0.5-1-0.8c-0.1,0.1-0.3,0.1-0.4,0.2l-0.4,0.4c0,0-0.6,0.3-0.6-0.4c0,0,0.2-0.4,0.6-0.8
	c-0.3-0.2-0.6-0.4-0.9-0.6c-0.3,0.1-0.5,0.3-0.8,0.5c0,0-0.3,0.3-0.7,0c0,0,0.3-0.5,0.8-0.9c-0.4-0.2-0.7-0.5-1.1-0.6
	c-0.7,0.4-0.8,1-0.8,1c-0.4,0-0.5-0.2-0.5-0.2c0.1-0.5,0.3-0.9,0.6-1.2c-0.4-0.2-0.6-0.3-0.6-0.3c0-0.1,0-0.1,0.1-0.1
	c-9.2,0.2-11,9.4-11,9.4c-0.6-2-0.3-3.4-0.3-3.4c2.1-5.8,7.2-6.5,8.4-6.6c-1.9,0-3.8,0.4-5.8,1.2c0,0-8.2,7.2,2.3,22.1
	c0,0,9.4,12.4,25.6,7.7c0,0,0.8-0.6,1.1-2C43.8,55.3,44.5,51.3,43.3,46.2z"/>
</svg>

