<?xml version="1.0" encoding="utf-8"?>
<!-- Generator: Adobe Illustrator 18.1.1, SVG Export Plug-In . SVG Version: 6.00 Build 0)  -->
<!DOCTYPE svg PUBLIC "-//W3C//DTD SVG 1.1//EN" "http://www.w3.org/Graphics/SVG/1.1/DTD/svg11.dtd">
<svg version="1.1" id="Layer_1" xmlns="http://www.w3.org/2000/svg" xmlns:xlink="http://www.w3.org/1999/xlink" x="0px" y="0px"
	 viewBox="0 0 75 75" enable-background="new 0 0 75 75" xml:space="preserve">
<path fill="#F68D1E" d="M17.1,29.1h4.7v22.2h-4.7C17.1,51.3,17.1,29.1,17.1,29.1z"/>
<path fill="#F68D1E" d="M23.2,24.9h4.7v26.4h-4.7V24.9z"/>
<path fill="#F68D1E" d="M29.3,32.5H34v18.8h-4.7V32.5z"/>
<path fill="#F68D1E" d="M35.5,21.3h4.7v30h-4.7V21.3z"/>
<path fill="#F68D1E" d="M41.6,29.1h4.7v22.2h-4.7C41.6,51.3,41.6,29.1,41.6,29.1z"/>
<path fill="#F68D1E" d="M47.7,24.9h4.7v26.4h-4.7V24.9z"/>
<path fill="#F68D1E" d="M53.9,35h4.7v16.2h-4.7V35z"/>
<path fill="#F68D1E" d="M14.9,21.2h-0.7v32.6h46.6V53H14.9L14.9,21.2z"/>
</svg>

