<?xml version="1.0" encoding="utf-8"?>
<!-- Generator: Adobe Illustrator 18.1.1, SVG Export Plug-In . SVG Version: 6.00 Build 0)  -->
<!DOCTYPE svg PUBLIC "-//W3C//DTD SVG 1.1//EN" "http://www.w3.org/Graphics/SVG/1.1/DTD/svg11.dtd">
<svg version="1.1" id="Layer_1" xmlns="http://www.w3.org/2000/svg" xmlns:xlink="http://www.w3.org/1999/xlink" x="0px" y="0px"
	 viewBox="0 0 75 75" enable-background="new 0 0 75 75" xml:space="preserve">
<g>
	<path fill="#F78E1E" d="M61.7,42.5v18.2l-18-13.4v-6.6l-0.1,0.1c0-2.6-1-5.6-3-8.3l-0.2-0.2l-0.1-0.1L40,31.9
		c-2-2.7-4.5-4.5-6.9-5.2v-0.2l5.7-3.7c2.6-2,6.3-0.6,9.1,3.2l0.1,0.2l0.1,0.1l0.1,0.2c2.5,3.3,3,6.6,1.5,8.7L61.7,42.5z"/>
	<path fill="#F78E1E" d="M37.5,23.6l-2.9,1.9l-1.4-0.1v1.4c-2-0.6-4-0.5-5.6,0.7l-2.5,1.5c-1.4-0.2-2.8,0-4,0.4l-2.2-1.6V15.2
		l12.7,7.7L37.5,23.6z"/>
	<path fill="#F78E1E" d="M45.4,22.2l1.9-1.2c1.1-0.8,2.4-0.7,3.7,0.2l0.7-0.4c0.8-0.6,1.8-0.2,2.7,0.9l0,0l0,0l0,0.1
		c0.8,1.1,0.9,2.2,0.1,2.8l-0.6,0.5c0.5,1.5,0.2,2.8-0.8,3.6l-1.7,1.5c-0.3-1.4-1-2.9-2.1-4.4l-0.1-0.2L49,25.6l-0.1-0.2
		C47.8,24,46.6,22.9,45.4,22.2z"/>
	<path fill="#F78E1E" d="M39.7,33.1l-0.2-0.2l-0.1-0.1l-0.2-0.2c-1.8-2.4-4-4-6.1-4.7c-1.9-0.6-3.8-0.5-5.2,0.6l-1.2,0.7
		c3.1,0.8,6.4,2.9,8.9,6c2.7,3.4,4.1,7.3,4,10.7l0.8-0.7C43.5,42.9,43,37.6,39.7,33.1z"/>
	<path fill="#F78E1E" d="M35,35.9c-4.9-6.1-12.4-8.2-16.8-4.7c-3.9,3.2-4,9.7-0.4,15.5l-1.5,1.1c-0.2,0.2-0.4,0.4-0.5,0.6
		c-0.1,0-0.1,0-0.2,0c-1.2,0-2.2,1-2.2,2.2c0,1.2,1,2.2,2.2,2.2c1.1,0,2-0.8,2.1-1.8c0.2-0.1,0.4-0.1,0.6-0.3l1.6-1.1
		c4.9,5.5,12,7.2,16.1,3.9C40.3,49.8,39.9,42,35,35.9z M26.9,43.2l-9.3,6.5c0,0-0.1,0-0.1,0.1c-0.2-0.5-0.5-0.9-0.9-1.1
		c0.1,0,0.1-0.1,0.1-0.1l9.3-6.5c0.2-0.1,0.4-0.2,0.5-0.2c0.2,0,0.4,0.1,0.6,0.3C27.5,42.5,27.3,43,26.9,43.2z"/>
</g>
</svg>

