<?xml version="1.0" encoding="utf-8"?>
<!-- Generator: Adobe Illustrator 18.1.1, SVG Export Plug-In . SVG Version: 6.00 Build 0)  -->
<!DOCTYPE svg PUBLIC "-//W3C//DTD SVG 1.1//EN" "http://www.w3.org/Graphics/SVG/1.1/DTD/svg11.dtd">
<svg version="1.1" id="Layer_1" xmlns="http://www.w3.org/2000/svg" xmlns:xlink="http://www.w3.org/1999/xlink" x="0px" y="0px"
	 viewBox="0 0 75 75" enable-background="new 0 0 75 75" xml:space="preserve">
<path fill="#F78E1E" d="M59.9,47.3c0-0.2-0.1-0.3-0.1-0.5l0.6,0.2l-1.2-1.4c0,0,0,0,0-0.1c-0.2-0.3-0.4-0.7-0.7-1l0.1-0.1
	c0,0-0.1-0.1-0.1-0.1l0,0c0,0,0,0-0.1-0.1c-0.2-0.2-0.4-0.4-0.6-0.6c-0.1-0.1-0.3-0.2-0.4-0.4c-0.2-0.2-0.3-0.3-0.5-0.5c0,0,0,0,0,0
	c3.4-4.1,4.8-8.7,3.5-12.9c-2.6-8.2-14.6-11.7-26.9-7.8c-5.3,1.7-9.8,4.5-12.9,7.8c-1.5-0.4-3-0.9-4.6-1.3l0,0
	c-0.1,0-0.1-0.1-0.2-0.1c0,0-0.1,0-0.1,0c0.1,0,0.3,0.1,0.3,0.1l34.3,13.6c0,0,0.2,0.2,0.4,0.4c0.5-0.2,1.4-0.3,2.8,0
	c1.7,0.3,2.7,1.7,2.7,1.7l-0.3-0.1c0.5,0.3,1.4,1.4,1.4,1.4c-0.1-0.1-0.5-0.3-0.5-0.3c1,0.8,1.4,2.4,1.4,2.4c-0.9-0.5-1.4-0.1-1.4,0
	c0,0.1,0.3,0.9,0.3,0.9c-3,0-3.4-1.2-3.4-1c0,0.2,0.3,0.5,0.3,0.5c-1.2-0.3-1.9-1.2-1.8-0.9c0.1,0.2,0.3,0.3,0.3,0.3
	c-3.1-0.7-2.8-3.5-2.8-3.5c-0.4-0.5,0.3-1,0.7-1.3c-0.3-0.2-0.9-0.2-1.1,0.6c-0.2,1,0.2,1.1,0.2,1.1c-0.3,0.2-0.8,0-0.8,0L15.8,29
	c1.2,0.7,2.4,1.5,3.5,2.2c-3.3,4-4.6,8.6-3.3,12.7c0.3,1,0.8,1.9,1.4,2.8c2.9,4.2,3.1-4.4,7.7-2.9c4.8,1.6,0.8,3.8-0.7,5.8
	c-1.6,2,1.9,2.9,1.9,2.9c4.8,1.3,10.7,1.2,16.7-0.7c2.9-0.9,5.6-2.2,7.9-3.7c0.2,0.2,0.5,0.3,0.7,0.5c0.1,0.1,0.3,0.3,0.4,0.4
	c0.4,0.3,0.9,0.6,1.5,0.8c0.3,0.2,0.6,0.3,0.8,0.4c0.3,0.1,0.7,0.2,1,0.3L57,51l-0.2-0.4c0,0,0.1,0,0.1,0l2.6,0.1l-0.1-0.3l1.4,0.6
	L59.9,47.3z M29.3,27.3C29,28.6,29,28.6,29,28.6s-0.2,1.3-1.4,1.1c-1.3-0.2-1.5-0.1-2.2,0.1c-0.6,0.1-1.5-0.8-0.1-2
	C26.7,26.7,29.6,26,29.3,27.3z M37.5,24.3c-0.2,0.5-0.1,0.6-0.4,1c-0.3,0.4-0.5,0.9-1.1,0.8c-0.6-0.1-0.2-0.4-1,0
	c-0.8,0.4-0.7,0.5-1.2,0.5c-0.5-0.1-0.6-0.5-0.6-0.5s1.2-0.7,0.4-0.8c-0.8-0.1-1.6-0.3-0.8-1c0.8-0.7,1.4-1,2.2-1
	c0.8,0.1,1.2-0.2,1.8,0C37.3,23.5,37.7,23.8,37.5,24.3z M46.8,24.6c-0.4,0.3-1.7,0.6-1.7,0.6c-0.3,0.1-1.1,0.2-1.1,0.2
	s-0.7,0.4-1.1-0.2c-0.4-0.5-0.6-0.2-0.7-0.9c-0.1-0.7-1-0.8-0.2-1.1c0.9-0.3,0.2,0,1.2-0.2c0.9-0.2,1.2-1.1,2.2-0.4
	c0.9,0.7,1.1,0.4,1.3,1C46.9,24.1,47.2,24.3,46.8,24.6z M50,28.2c-0.1-1.1-0.8-0.8,0-1.6s0.9-1.9,2-1c1.1,0.9,1.6,0.1,2.2,1.4
	c0.6,1.3,1.5,1.2,0.4,1.8c-1.1,0.6-1.8,1.1-2.2,0.6c-0.4-0.6-0.4-0.6-0.4-0.6C50.6,28.3,50.1,29.3,50,28.2z M56.5,36.1
	c-0.7,0-1.5,0.5-1.6,1c-0.1,0.6-0.5,0.9-1.5,0.9c-1,0-1.5,0.2-1.5-0.6c0-0.8-0.8-0.5-0.6-1.3c0.2-0.8,0.1-1.5,0.7-1.6
	c0.6-0.1,0.8-0.8,0.8-0.8s1.4-0.9,2.2,0c0.8,0.9,1,0.3,1.6,0.5C57.1,34.4,57.2,36.1,56.5,36.1z M22.8,35.5c0,0-0.5,0.9-1.5,0.5
	s-0.7-0.8-1.4-0.5c-0.8,0.3-0.8-1.1,0-1.7c0.8-0.6,1.6-0.9,1.7,0c0.1,0.9,1.2-0.7,1.8,0C23.8,34.5,23.3,35.1,22.8,35.5z M27.6,42.8
	c-1.3,0-2.4-0.9-2.4-2c0-1.1,1.1-2,2.4-2c1.3,0,2.4,0.9,2.4,2C30,41.9,28.9,42.8,27.6,42.8z"/>
</svg>
