<?xml version="1.0" encoding="utf-8"?>
<!-- Generator: Adobe Illustrator 18.1.1, SVG Export Plug-In . SVG Version: 6.00 Build 0)  -->
<!DOCTYPE svg PUBLIC "-//W3C//DTD SVG 1.1//EN" "http://www.w3.org/Graphics/SVG/1.1/DTD/svg11.dtd">
<svg version="1.1" id="Layer_1" xmlns="http://www.w3.org/2000/svg" xmlns:xlink="http://www.w3.org/1999/xlink" x="0px" y="0px"
	 viewBox="0 0 75 75" enable-background="new 0 0 75 75" xml:space="preserve">
<path fill="#F68D1E" d="M37.5,13.5c-13.3,0-24,10.7-24,24s10.7,24,24,24s24-10.7,24-24C61.5,24.3,50.8,13.5,37.5,13.5z M37.5,59.2
	c-6.3,0-12.9-9.7-12.9-21.7s7.3-21.7,12.9-21.7c12,0,21.7,9.7,21.7,21.7S49.5,59.2,37.5,59.2z M41.5,40c0.4-0.7,0.6-1.6,0.6-2.5
	s-0.2-1.7-0.6-2.5c-0.9-1.6-2.6-2.7-4.6-2.7l0,0c-1.1,0-3.3,2.2-3.3,5.2c0,3.1,2.1,5.2,3.3,5.2l0,0C38.9,42.7,40.6,41.6,41.5,40z
	 M37.8,16.5c-0.3,0-0.6,0-0.9,0v1.6L37.8,16.5z M38,58.5c0.1,0,0.2,0,0.3,0l0,0C38.2,58.4,38.1,58.4,38,58.5L38,58.5z M39.5,58.3
	L39.5,58.3C39.6,58.3,39.6,58.3,39.5,58.3L39.5,58.3z M39.2,16.6L39.2,16.6c0.1,0,0.2,0,0.3,0l0,0C39.4,16.6,39.3,16.6,39.2,16.6z
	 M38.1,16.6l-1.2,2v2l2.3-3.9C38.8,16.6,38.5,16.5,38.1,16.6L38.1,16.6z M41.1,58.1L41.1,58.1L41.1,58.1L41.1,58.1z M51.9,52.3
	L51.9,52.3L51.9,52.3L51.9,52.3z M40.8,16.9L40.8,16.9C40.7,16.8,40.7,16.9,40.8,16.9L40.8,16.9z M51.3,52.8L51.3,52.8L51.3,52.8
	L51.3,52.8z M49.1,54.6L49.1,54.6L49.1,54.6L49.1,54.6z M44.5,57.1c0.1,0,0.2-0.1,0.4-0.1l0,0C44.8,57,44.7,57,44.5,57.1L44.5,57.1z
	 M42.8,57.7c0.1,0,0.2-0.1,0.3-0.1l0,0C43,57.6,42.9,57.6,42.8,57.7L42.8,57.7z M51.8,22.6c-0.1-0.1-0.1-0.1-0.2-0.2l0,0
	C51.6,22.5,51.7,22.6,51.8,22.6L51.8,22.6z M57.4,32.7c0-0.1,0-0.1,0-0.2C57.4,32.6,57.4,32.7,57.4,32.7L57.4,32.7z M57.9,39
	c0-0.1,0-0.1,0-0.2l0,0C57.9,38.9,57.9,39,57.9,39z M56.9,31.1c0-0.1-0.1-0.2-0.1-0.3l0,0C56.9,30.9,56.9,31,56.9,31.1L56.9,31.1z
	 M56.3,29.2L56.3,29.2c0,0.1,0,0.1,0.1,0.2C56.3,29.4,56.3,29.3,56.3,29.2z M44.2,17.8L44.2,17.8L44.2,17.8L44.2,17.8z M42,17.1
	c-0.1,0-0.2,0-0.2-0.1l0,0C41.9,17.1,42,17.1,42,17.1L42,17.1z M41.4,58L41.4,58c-0.1,0-0.2,0.1-0.3,0.1C41.2,58.1,41.3,58,41.4,58z
	 M56.9,31.1l-5.2,9c0-0.2,0.1-0.4,0.1-0.7l4.9-8.6c-0.1-0.4-0.3-0.8-0.4-1.2L52,37.2c0-0.2,0-0.3,0-0.5l4.3-7.5
	c-0.2-0.4-0.4-0.8-0.6-1.3c0,0.1,0.1,0.1,0.1,0.2l-4,6.9c0-0.1,0-0.3-0.1-0.4l3.9-6.8c-0.2-0.3-0.4-0.7-0.6-1l-3.7,6.4
	c0-0.1-0.1-0.2-0.1-0.3l3.6-6.3c-0.2-0.3-0.4-0.6-0.6-1l-3.5,6c0-0.1-0.1-0.2-0.1-0.3l3.4-6c-0.2-0.3-0.4-0.6-0.7-0.9L50,30.1
	c0-0.1-0.1-0.2-0.1-0.2l3.3-5.7c-0.2-0.3-0.4-0.5-0.7-0.8l-3.2,5.5c-0.1-0.1-0.1-0.1-0.2-0.2l3.2-5.5c-0.2-0.3-0.5-0.5-0.7-0.8
	l-3,5.6c-0.1-0.1-0.1-0.1-0.2-0.2l3.1-5.4c-0.2-0.2-0.5-0.4-0.8-0.7l-3,5.3c-0.1-0.1-0.1-0.1-0.2-0.2l3-5.2
	c-0.3-0.2-0.5-0.5-0.8-0.7l-3,5.2c-0.1-0.1-0.1-0.1-0.2-0.2l3-5.2c-0.3-0.2-0.5-0.4-0.8-0.6l-3,5.2c-0.1,0-0.1-0.1-0.2-0.1l3-5.2
	c-0.3-0.2-0.6-0.3-0.9-0.5l-3,5.1c-0.1,0-0.1-0.1-0.2-0.1l3-5.1c-0.3-0.2-0.6-0.4-0.9-0.5l-3,5.2c-0.1,0-0.1-0.1-0.2-0.1l3-5.2
	c-0.3-0.2-0.6-0.3-0.9-0.4l-3,5.2c-0.1,0-0.2-0.1-0.2-0.1l3-5.2c-0.3-0.1-0.6-0.3-0.9-0.4l-3,5.2c-0.1,0-0.2,0-0.2-0.1l3-5.2
	c-0.3-0.1-0.6-0.2-1-0.3L40,22.8c-0.1,0-0.2,0-0.2-0.1l3.1-5.3c-0.3-0.1-0.7-0.2-1-0.3l-3.1,5.4c-0.1,0-0.2,0-0.3,0l3.1-5.5
	c-0.3-0.1-0.7-0.2-1-0.2l-3.2,5.6c-0.1,0-0.2,0-0.3,0l3.2-5.6c-0.4-0.1-0.7-0.1-1.1-0.2L36.7,21v9.2c4,0,7.3,3.3,7.3,7.3
	s-3.3,7.3-7.3,7.3v8.1l0.2-0.3c0.1,0,0.2,0,0.3,0l-0.5,0.8v2l1.7-2.9c0.1,0,0.2,0,0.3,0l-2,3.4v2l3.3-5.7c0.1,0,0.2-0.1,0.3-0.1
	l-3.6,6.2v0.2c0.4,0,0.7,0,1.1-0.1l3.9-6.8c0.1,0,0.2-0.1,0.4-0.1l-3.9,6.9c0.4,0,0.8-0.1,1.2-0.1l4.3-7.4c0.1-0.1,0.3-0.1,0.4-0.2
	l-4.4,7.6c-0.1,0-0.1,0-0.2,0c0.5-0.1,1-0.1,1.4-0.2l5-8.6c0.2-0.1,0.3-0.2,0.5-0.4l-5,8.9c0.5-0.1,0.9-0.2,1.3-0.3l14.5-25.3
	C57.2,32,57.1,31.5,56.9,31.1z M57.3,32.4L57.3,32.4c0,0.1,0,0.1,0,0.2C57.3,32.5,57.3,32.5,57.3,32.4z M40.5,16.8L40.5,16.8
	L40.5,16.8C40.6,16.8,40.6,16.8,40.5,16.8z M47.8,19.6c-0.1,0-0.1-0.1-0.2-0.1l0,0C47.7,19.5,47.7,19.5,47.8,19.6L47.8,19.6z
	 M44.2,17.8c0.1,0,0.1,0,0.2,0.1C44.4,17.9,44.3,17.8,44.2,17.8z M52.6,23.6c-0.1-0.1-0.1-0.1-0.2-0.2l0,0
	C52.5,23.5,52.6,23.5,52.6,23.6L52.6,23.6z M54.9,26.6L54.9,26.6c0,0.1,0.1,0.1,0.1,0.2C55,26.8,54.9,26.7,54.9,26.6z M53.5,24.6
	c-0.1-0.1-0.1-0.1-0.2-0.2l0,0C53.4,24.5,53.4,24.5,53.5,24.6L53.5,24.6z M50.8,21.8c-0.1-0.1-0.1-0.1-0.2-0.2l0,0
	C50.7,21.7,50.8,21.7,50.8,21.8L50.8,21.8z M55.6,27.9L55.6,27.9c0,0,0,0.1,0.1,0.1C55.6,28,55.6,27.9,55.6,27.9z M45.6,18.4
	L45.6,18.4L45.6,18.4L45.6,18.4z M49.7,20.8L49.7,20.8l0.1,0.1C49.7,20.9,49.7,20.8,49.7,20.8z M44.5,17.9
	C44.4,17.9,44.4,17.9,44.5,17.9C44.4,17.9,44.4,17.9,44.5,17.9L44.5,17.9z M56.4,29.5v-0.1C56.3,29.5,56.4,29.5,56.4,29.5L56.4,29.5
	z M57.2,43L57.2,43C57.2,43,57.2,43,57.2,43L57.2,43z M51.3,52.8l6.1-10.6c0.2-0.9,0.4-1.8,0.4-2.8l-8.7,15.2
	C49.9,54.1,50.6,53.5,51.3,52.8z M57.2,43.1l-5.3,9.2C54.4,49.7,56.2,46.6,57.2,43.1z M57.9,39.4c0-0.1,0-0.3,0-0.4
	C57.9,39.2,57.8,39.3,57.9,39.4L57.9,39.4z M57.3,42.6c0,0.1-0.1,0.2-0.1,0.3C57.2,42.8,57.3,42.7,57.3,42.6z M57.4,42.2L57.4,42.2
	c-0.1,0.2-0.1,0.3-0.1,0.5C57.3,42.5,57.4,42.3,57.4,42.2z M48.6,55c0.2-0.1,0.3-0.2,0.5-0.3C48.9,54.7,48.8,54.8,48.6,55L48.6,55z
	 M46.5,56.2c0.1-0.1,0.3-0.1,0.4-0.2l0,0C46.7,56.1,46.6,56.1,46.5,56.2L46.5,56.2z M57.9,37.5c0-1.6-0.2-3.2-0.6-4.8L43.1,57.6
	c0.5-0.2,1-0.3,1.4-0.5l13.1-22.8c0,0.1,0,0.3,0.1,0.4L44.9,56.9c0.5-0.2,1.1-0.5,1.6-0.7l11.4-19.8c0,0.1,0,0.3,0,0.5L46.9,56
	c0.6-0.3,1.2-0.7,1.8-1.1l9.2-16.1C57.9,38.4,57.9,38,57.9,37.5z M46.7,18.9c-0.1,0-0.1-0.1-0.2-0.1l0,0
	C46.6,18.9,46.7,18.9,46.7,18.9L46.7,18.9z M43.3,17.5c-0.1,0-0.2,0-0.2-0.1l0,0C43.1,17.4,43.2,17.5,43.3,17.5L43.3,17.5z
	 M45.4,18.3L45.4,18.3c0,0,0.1,0,0.1,0.1C45.5,18.3,45.4,18.3,45.4,18.3z M48.9,20.2c-0.1,0-0.1-0.1-0.2-0.1l0,0
	C48.7,20.1,48.8,20.2,48.9,20.2L48.9,20.2z M55,26.9L55,26.9L55,26.9L55,26.9z M54.3,25.7c0-0.1-0.1-0.1-0.2-0.2l0,0
	C54.2,25.5,54.2,25.6,54.3,25.7L54.3,25.7z M49.9,21C49.8,20.9,49.8,20.9,49.9,21C49.8,20.9,49.8,20.9,49.9,21L49.9,21z"/>
</svg>

