<?xml version="1.0" encoding="utf-8"?>
<!-- Generator: Adobe Illustrator 18.1.1, SVG Export Plug-In . SVG Version: 6.00 Build 0)  -->
<!DOCTYPE svg PUBLIC "-//W3C//DTD SVG 1.1//EN" "http://www.w3.org/Graphics/SVG/1.1/DTD/svg11.dtd">
<svg version="1.1" id="Layer_1" xmlns="http://www.w3.org/2000/svg" xmlns:xlink="http://www.w3.org/1999/xlink" x="0px" y="0px"
	 viewBox="0 0 75 75" enable-background="new 0 0 75 75" xml:space="preserve">
<g>
	<g>
		<g>
			<g>
				<g>
					<g>
						<g>
							<g>
								<g>
									<g>
										<path fill="#F78E1E" d="M41.9,47.1c0,0.1,0,0.1,0,0.1c0,0,0,0.1,0,0.1C41.8,47.3,41.8,47.1,41.9,47.1c0-0.1,0-0.1,0-0.1
											C41.9,47,41.9,47,41.9,47.1z"/>
									</g>
									<g>
										<path fill="#F78E1E" d="M41.9,47.4l-0.1,0c0,0,0-0.1,0-0.1c0,0,0,0,0,0l0.1,0l-0.1,0c0,0,0,0,0-0.1c0-0.1,0-0.1,0-0.2
											l0.1,0c0,0,0,0.1,0,0.1c0,0,0,0.1,0,0.1h0c0,0,0,0,0,0l0,0l0,0l-0.1,0l0.1,0C41.9,47.3,41.9,47.3,41.9,47.4z"/>
									</g>
								</g>
								<g>
									<g>
										<path fill="#F78E1E" d="M47.8,44.5L47.8,44.5c-0.3-0.3-0.7-0.5-1-0.7c-0.3-0.2-0.7-0.3-1.1-0.5l0,0c0-0.1,0-0.3,0-0.4
											v-0.1c0-0.2,0-0.3,0-0.5l0,0c0.3-0.2,0.7-0.4,1-0.6c0.3-0.2,0.7-0.4,0.9-0.7l0,0l0-0.1c0-0.2,0-0.4-0.1-0.6
											c0-0.1,0-0.2,0-0.2l0-0.1l0-0.1l-0.1,0c-0.3-0.2-0.6-0.2-1-0.3c-0.4-0.1-0.9-0.2-1.3-0.3c-0.1-0.1-0.1-0.2-0.1-0.3
											c0,0,0-0.1,0-0.1c0-0.2-0.1-0.3-0.1-0.5v0l0,0c0.2-0.3,0.6-0.5,0.8-0.8c0.3-0.3,0.6-0.6,0.8-0.9l0-0.1l0-0.1v0
											c-0.1-0.3-0.2-0.5-0.4-0.8l0-0.1l-0.1,0c-0.1-0.1-0.3-0.1-0.4-0.1c-0.3,0-0.5,0-0.7-0.1c-0.4,0-0.8,0.1-1.2,0.1l0,0
											c-0.1-0.1-0.1-0.2-0.2-0.3c0,0,0-0.1-0.1-0.1c0,0,0-0.1-0.1-0.1c-0.1-0.1-0.1-0.2-0.2-0.3v0c0.1-0.1,0.1-0.2,0.2-0.3
											c0.1-0.1,0.1-0.1,0.1-0.1c0.1-0.2,0.2-0.3,0.3-0.5l0.1-0.1c0.2-0.3,0.4-0.7,0.5-1l0-0.1l0-0.1c0-0.1-0.1-0.2-0.2-0.3
											c-0.1-0.2-0.2-0.3-0.4-0.5l-0.1-0.1l-0.1,0c-0.2,0-0.3,0.1-0.5,0.1c-0.6,0.1-1.2,0.3-1.8,0.5l0,0
											c-0.2-0.2-0.4-0.4-0.6-0.7l0,0v0c0.1-0.2,0.1-0.3,0.2-0.5c0.1-0.4,0.3-0.9,0.4-1.3c0-0.1,0.1-0.3,0.1-0.4l0-0.1l0-0.1
											c-0.2-0.2-0.4-0.4-0.7-0.6l0,0l-0.1,0h-0.1c-0.5,0.1-1.1,0.5-1.6,0.7c-0.2,0.1-0.3,0.2-0.5,0.3l0,0h0c0,0,0,0,0,0
											c-0.3-0.1-0.5-0.3-0.8-0.5l0,0l0-0.1c0-0.4,0.1-0.7,0.1-1.1c0-0.4,0-0.8,0-1.2c0,0,0-0.1,0-0.1l-0.1-0.1
											c-0.3-0.2-0.5-0.3-0.8-0.4l-0.1,0h0l-0.1,0c-0.3,0.2-0.6,0.5-0.8,0.7c-0.3,0.3-0.6,0.5-0.9,0.8l0,0h0
											c-0.1,0-0.3,0-0.4-0.1l-0.1,0c-0.2-0.1-0.5-0.2-0.6-0.3l0,0c-0.3-0.7-0.1-1.5-0.4-2.2l0-0.1l-0.1,0
											c-0.3-0.1-0.6-0.1-0.9-0.2h0l-0.1,0l-0.1,0c-0.1,0.1-0.2,0.2-0.3,0.3c-0.1,0.2-0.3,0.4-0.5,0.6c-0.2,0.3-0.4,0.7-0.6,1
											l0,0c-0.1,0-0.2,0-0.3,0c0,0-0.1,0-0.1,0c-0.2,0-0.3,0-0.5-0.1l0,0c-0.1-0.1-0.1-0.3-0.2-0.5c-0.1-0.2-0.2-0.4-0.3-0.6v0
											c-0.2-0.3-0.3-0.7-0.6-1l-0.1-0.1l0,0l-0.1,0h-0.4c-0.2,0-0.3,0-0.5,0l0,0l-0.1,0c-0.1,0.1-0.1,0.2-0.2,0.3
											c-0.2,0.6-0.5,1.2-0.7,1.8l0,0C26.6,26.9,26.3,27,26,27h0l0,0c-0.1-0.1-0.2-0.3-0.3-0.4c-0.2-0.3-0.5-0.6-0.7-0.9
											c-0.1-0.2-0.3-0.3-0.5-0.4l0,0l-0.1,0h0c-0.3,0-0.6,0.1-0.8,0.2l-0.1,0l-0.1,0.1c-0.3,0.7-0.2,1.5-0.3,2.3v0l0,0
											c-0.1,0.1-0.2,0.1-0.4,0.2c-0.2,0.1-0.3,0.2-0.5,0.2h0c-0.7-0.3-1.2-1-1.9-1.4l0,0l-0.1,0l-0.1,0C20,26.9,19.9,27,19.7,27
											c-0.1,0.1-0.3,0.2-0.4,0.2l-0.1,0.1l0,0.1c0,0.2,0,0.4,0,0.5c0,0.6,0.2,1.2,0.2,1.8v0l0,0c-0.1,0.1-0.2,0.1-0.2,0.2
											c-0.2,0.1-0.3,0.3-0.5,0.4l0,0h0c-0.3-0.1-0.6-0.3-1-0.5c-0.4-0.2-0.8-0.3-1.1-0.4l-0.1,0l-0.1,0l-0.1,0
											c-0.2,0.2-0.5,0.4-0.6,0.6l0,0.1l0,0.1c0,0.1,0.1,0.3,0.1,0.4c0.1,0.2,0.1,0.5,0.2,0.7c0.1,0.4,0.3,0.7,0.5,1.1l0,0l0,0
											c-0.1,0.1-0.1,0.2-0.2,0.3c0,0-0.1,0.1-0.1,0.1c-0.1,0.1-0.2,0.3-0.3,0.4l0,0c-0.2,0-0.3-0.1-0.5-0.1
											c-0.6-0.1-1.2-0.2-1.8-0.2h-0.1l-0.1,0l-0.1,0c-0.1,0.1-0.1,0.2-0.2,0.3c0,0,0,0.1,0,0.1c0,0-0.1,0.1-0.1,0.1
											c-0.1,0.1-0.1,0.2-0.2,0.3l0,0.1c0,0,0,0.1,0,0.1c0.1,0.3,0.3,0.6,0.5,0.9c0.2,0.4,0.5,0.7,0.8,1.1l0,0
											c0,0.1-0.1,0.2-0.1,0.3c-0.1,0.2-0.2,0.4-0.3,0.6l0,0c-0.8,0.1-1.5,0-2.3,0.2l0,0l-0.1,0l-0.1,0.1
											c-0.1,0.2-0.1,0.3-0.2,0.5c0,0.1-0.1,0.3-0.1,0.4l0,0l0,0.1c0.1,0.1,0.2,0.2,0.3,0.3c0.4,0.5,1,0.8,1.5,1.3l0,0v0
											c0,0.1,0,0.2-0.1,0.3c0,0,0,0.1,0,0.1c0,0.2-0.1,0.3-0.1,0.5l0,0c-0.6,0.2-1.2,0.3-1.8,0.5c-0.2,0.1-0.3,0.1-0.5,0.2l0,0
											l0,0.1c-0.1,0.1-0.1,0.2-0.1,0.3v0.1c0,0.1,0,0.1,0,0.2c0,0.1,0,0.2,0,0.3c0,0,0,0.1,0,0.1c0.1,0.1,0.2,0.2,0.3,0.2
											c0.6,0.3,1.2,0.6,1.8,0.9c0,0,0,0,0,0c0,0.1,0,0.2,0,0.3c0,0.2,0,0.5,0,0.6l0,0c-0.1,0.1-0.2,0.1-0.3,0.2
											c-0.1,0-0.1,0-0.2,0.1c-0.5,0.3-1.1,0.6-1.5,1l0,0l0,0.1c0,0,0,0,0,0.1c0,0.3,0.1,0.5,0.1,0.7v0c0,0,0,0.1,0,0.1l0,0l0,0
											c0.1,0.1,0.3,0.1,0.4,0.2c0.4,0.2,0.9,0.3,1.3,0.4c0.1,0,0.1,0,0.2,0c0.1,0,0.3,0,0.4,0.1l0,0c0,0.2,0.1,0.3,0.1,0.4
											c0.1,0.2,0.1,0.3,0.1,0.5l0,0l0,0c-0.1,0.1-0.3,0.3-0.4,0.4c-0.2,0.2-0.3,0.3-0.5,0.5c-0.3,0.3-0.5,0.5-0.7,0.8l0,0l0,0.1
											l0,0c0,0.1,0.1,0.2,0.1,0.3c0.1,0.2,0.2,0.4,0.3,0.6l0.1,0.1l0.1,0c0.1,0,0.3,0.1,0.4,0.1h0.1c0.6,0.1,1.2,0,1.8,0l0,0
											c0.1,0.1,0.2,0.3,0.3,0.4c0.1,0.1,0.2,0.3,0.2,0.5v0c-0.1,0.2-0.2,0.3-0.3,0.4c-0.2,0.4-0.5,0.7-0.7,1.1
											c-0.1,0.2-0.2,0.3-0.2,0.5l0,0v0l0,0.1c0.1,0.2,0.4,0.5,0.5,0.7l0,0l0.1,0l0.1,0c0.4,0,0.7-0.1,1.1-0.2
											c0.4-0.1,0.8-0.2,1.2-0.3h0c0.3,0.2,0.5,0.5,0.7,0.7l0,0c-0.1,0.3-0.3,0.7-0.4,1c-0.1,0.4-0.2,0.8-0.3,1.2l0,0.1l0,0.1
											c0.1,0.1,0.1,0.1,0.2,0.2c0,0,0.1,0,0.1,0.1c0.1,0.1,0.3,0.2,0.4,0.3l0,0l0.1,0h0.1c0.1,0,0.3-0.1,0.4-0.1
											c0.2-0.1,0.4-0.2,0.6-0.3c0.4-0.2,0.7-0.4,1-0.6l0,0h0c0.1,0.1,0.3,0.2,0.4,0.3c0.1,0.1,0.3,0.2,0.4,0.3l0,0
											c0,0.1,0,0.2,0,0.3c0,0.1,0,0.1,0,0.2c-0.1,0.6-0.1,1.2,0,1.8l0,0l0,0.1c0.1,0.1,0.2,0.1,0.3,0.1c0.1,0.1,0.4,0.2,0.5,0.3
											l0.1,0l0.1,0c0.7-0.3,1.2-1,1.8-1.5l0,0h0c0.1,0,0.2,0.1,0.3,0.1c0,0,0.1,0,0.1,0.1c0.1,0,0.1,0,0.1,0
											c0.1,0,0.3,0.1,0.4,0.1l0,0c0,0.1,0.1,0.2,0.1,0.3c0,0.1,0,0.1,0,0.2c0,0.2,0.1,0.4,0.1,0.6c0.1,0.4,0.2,0.8,0.3,1.2l0,0
											l0.1,0.1l0,0c0.1,0,0.2,0.1,0.4,0.1c0.2,0,0.4,0.1,0.5,0.1h0l0.1,0c0.1-0.1,0.2-0.2,0.3-0.3c0.5-0.5,0.7-1.1,1.1-1.6
											l0.1,0c0.3,0,0.6,0,0.9,0.1l0,0c0.4,0.7,0.5,1.5,1,2.1l0.1,0l0.1,0c0.1,0,0.3,0,0.4,0c0.2,0,0.3,0,0.5,0l0.1,0l0.1-0.1
											c0.1-0.1,0.1-0.2,0.2-0.3c0.2-0.4,0.4-0.8,0.5-1.3c0,0,0-0.1,0-0.1c0-0.2,0.1-0.3,0.1-0.4l0,0c0.3-0.1,0.6-0.1,0.9-0.2h0
											l0,0c0.1,0.1,0.1,0.2,0.2,0.3c0,0.1,0.1,0.1,0.1,0.2c0.1,0.2,0.2,0.3,0.4,0.5l0,0c0.2,0.3,0.5,0.6,0.8,0.8l0.1,0l0.1,0
											c0.1,0,0.2,0,0.3-0.1c0.2,0,0.4-0.1,0.6-0.2l0.1-0.1c0.1-0.1,0.1-0.3,0.1-0.4c0-0.4,0.2-0.9,0.2-1.4c0-0.2,0-0.4,0.1-0.6
											l0,0v0c0.1-0.1,0.2-0.1,0.3-0.1c0,0,0.1,0,0.1,0c0.2-0.1,0.3-0.1,0.5-0.2l0,0h0v0c0.1,0.1,0.3,0.2,0.4,0.3
											c0.2,0.2,0.4,0.3,0.5,0.4c0.3,0.2,0.6,0.5,1,0.6l0,0l0.1,0l0.1,0c0.3-0.1,0.5-0.3,0.7-0.4l0,0l0.1-0.1l0-0.1
											c0-0.1,0-0.3,0-0.4c-0.1-0.2,0-0.5-0.1-0.7c0-0.4-0.1-0.8-0.2-1.2v0l0,0c0.2-0.2,0.5-0.4,0.8-0.6l0,0
											c0.1,0,0.2,0.1,0.3,0.1c0,0,0.1,0.1,0.1,0.1c0.5,0.3,1.1,0.6,1.7,0.7h0l0.1,0c0.1-0.1,0.2-0.1,0.2-0.2
											c0.2-0.1,0.3-0.3,0.4-0.4l0,0l0-0.1c0-0.1,0-0.3-0.1-0.4c-0.3-0.6-0.5-1.2-0.7-1.8v0c0.1-0.1,0.1-0.2,0.2-0.3
											c0.2-0.1,0.3-0.3,0.4-0.5l0,0c0.1,0,0.2,0,0.3,0.1c0,0,0.1,0,0.2,0.1c0.6,0.2,1.3,0.3,1.8,0.2l0.1,0l0.1-0.1
											c0.2-0.2,0.3-0.4,0.5-0.7c0,0,0,0,0-0.1v0l0-0.1c-0.2-0.5-0.6-1.1-0.9-1.5c-0.1-0.1-0.1-0.1-0.1-0.2
											c-0.1-0.1-0.2-0.2-0.2-0.3l0,0c0-0.1,0.1-0.2,0.1-0.3c0,0,0.1-0.1,0.1-0.1c0-0.1,0.1-0.1,0.1-0.2c0.1-0.1,0.1-0.2,0.2-0.3
											v0l0,0c0.4-0.1,0.8,0,1.2,0c0.4,0,0.7-0.1,1.1-0.2c0,0,0.1,0,0.1,0l0.1-0.1c0.1-0.2,0.2-0.6,0.3-0.8V49l0-0.1
											c-0.1-0.2-0.3-0.3-0.4-0.4c-0.1-0.2-0.3-0.3-0.4-0.4c-0.3-0.3-0.6-0.5-0.9-0.8l0,0c0-0.1,0-0.2,0-0.3
											c0.1-0.2,0.1-0.4,0.2-0.6v0l0,0c0.2-0.1,0.3-0.1,0.5-0.1c0.2-0.1,0.5-0.1,0.7-0.2c0.3-0.1,0.7-0.2,1-0.4l0.1,0l0-0.1
											c0.1-0.2,0.1-0.5,0.1-0.8L47.8,44.5L47.8,44.5z M41.9,46.8C41.9,46.8,41.9,46.8,41.9,46.8c0,0.1,0,0.1,0,0.1
											c0,0,0,0,0,0.1c0,0.1-0.1,0.2-0.1,0.3c0,0,0,0,0,0c-1.6,5.1-6.1,8.8-11.4,9.3c-5.5,0.6-10.9-2.5-13.3-7.5
											c-2.5-5.1-1.4-11.4,2.6-15.3c4-4,10.3-4.9,15.3-2.4C40.6,34.3,43.5,40.8,41.9,46.8z"/>
									</g>
								</g>
								<g>
									<g>
										<path fill="#F78E1E" d="M40.9,38.9l-0.1-0.2c-1.9-4.8-6.7-8-11.8-8h-0.2c-9,0.1-15.1,9.7-11.4,17.9
											c3.6,8.1,14.7,10,20.8,3.5C41.6,48.6,42.6,43.4,40.9,38.9z M33.5,46.9c-0.1,0.1-0.1,0.1-0.1,0.2c0,0-0.1,0.1-0.1,0.1
											c0,0,0,0,0,0c0,0,0,0,0,0c0,0-0.1,0.1-0.1,0.1c0,0,0,0,0,0c0,0,0,0-0.1,0.1c-2.5,2.6-7,2.1-8.9-1c-1.8-3-0.4-7.1,2.9-8.3
											v0c0,0,1.2-0.3,1.2-0.3c0,0,0.1,0,0.1,0C33.3,37.3,36.5,43.1,33.5,46.9z"/>
									</g>
								</g>
								<g>
									<g>
										<path fill="#F78E1E" d="M41.7,47.6c0-0.1,0-0.2,0.1-0.3C41.7,47.5,41.7,47.6,41.7,47.6z"/>
									</g>
								</g>
								<g>
									<g>
										<path fill="#F78E1E" d="M41.9,47C41.9,47,41.9,47,41.9,47c-0.1,0.2-0.1,0.3-0.1,0.4c0,0,0-0.1,0-0.1c0,0,0-0.1,0-0.1
											C41.9,47,41.9,47,41.9,47z"/>
									</g>
								</g>
							</g>
						</g>
					</g>
				</g>
			</g>
		</g>
		<g>
			<g>
				<g>
					<g>
						<g>
							<g>
								<g>
									<path fill-rule="evenodd" clip-rule="evenodd" fill="#F78E1E" d="M27.7,37.9"/>
								</g>
							</g>
						</g>
					</g>
				</g>
			</g>
		</g>
	</g>
	<g enable-background="new    ">
		<g>
			<g>
				<g>
					<g>
						<g>
							<g>
								<g>
									<g>
										<path fill="#F78E1E" d="M44.8,18.5C44.8,18.5,44.8,18.5,44.8,18.5c0-0.1,0-0.1,0-0.2l0-0.1l0,0l-0.1,0
											c-0.1-0.1-0.3-0.1-0.4-0.2l-0.1,0c-0.7-0.3-1.3-0.3-1.9-0.4l0,0l0,0c-0.1-0.3-0.2-0.5-0.3-0.7v0l0,0
											c0.5-0.7,1-1.3,1.4-2.1v-0.1l0-0.1c-0.2-0.2-0.3-0.4-0.5-0.6l0,0c0,0,0,0-0.1,0l-0.1,0c-0.2,0-0.4,0.1-0.6,0.1
											c-0.7,0.2-1.2,0.5-1.8,0.8l0,0l0,0c-0.2-0.1-0.4-0.3-0.7-0.4l0,0l0,0c0-0.2,0-0.4,0-0.5c0-0.4,0-0.7,0-1.1
											c0-0.3-0.1-0.7-0.2-1l0-0.1l0,0l-0.1,0c-0.2-0.1-0.5-0.1-0.7-0.2l-0.1,0l-0.1,0l-0.1,0c-0.1,0.1-0.3,0.3-0.4,0.4
											c-0.4,0.5-0.7,1.1-1,1.7l0,0l0,0c-0.3,0-0.5,0-0.7,0H36l0,0c-0.1-0.2-0.2-0.3-0.3-0.5c-0.2-0.3-0.5-0.6-0.7-0.9
											c-0.2-0.2-0.4-0.4-0.7-0.6l0,0l-0.1,0l-0.1,0c-0.2,0.1-0.4,0.2-0.6,0.2c0,0-0.1,0-0.1,0.1l0,0.1l0,0.1
											c0,0.2,0,0.4-0.1,0.6c0,0.6,0,1.3,0.2,2v0.1l0,0c-0.2,0.2-0.4,0.4-0.6,0.5l0,0l-0.1,0c-0.2-0.1-0.3-0.1-0.5-0.2
											c-0.3-0.1-0.7-0.2-1-0.3c-0.3,0-0.6-0.1-1-0.1l-0.1,0l0,0l0,0c-0.1,0.2-0.3,0.4-0.4,0.6l0,0l0,0.1v0l0,0.1
											c0.1,0.2,0.2,0.3,0.3,0.5c0.4,0.6,0.8,1,1.3,1.5c0,0,0,0,0,0v0c0,0.2-0.1,0.6-0.2,0.8v0l0,0c-0.8,0.3-1.6,0.4-2.4,0.9l0,0
											l0,0l0,0.1c0,0.3,0,0.5,0,0.8c0,0,0,0.1,0,0.1l0,0l0.1,0c0.1,0.1,0.3,0.1,0.4,0.2c0.7,0.3,1.3,0.4,2,0.5l0,0l0,0
											c0.1,0.2,0.2,0.5,0.3,0.7l0,0v0l0,0c0,0-0.1,0.1-0.1,0.2c-0.1,0.1-0.1,0.2-0.2,0.2c-0.4,0.5-0.8,1.1-1,1.7v0.1l0,0.1l0,0
											c0.1,0.2,0.3,0.4,0.5,0.6l0,0l0.1,0h0.1c0.2,0,0.4-0.1,0.5-0.1c0.4-0.1,0.7-0.2,1-0.3c0.3-0.1,0.6-0.3,0.9-0.5l0,0l0,0
											c0.2,0.1,0.5,0.3,0.7,0.4l0,0v0.1c0,0.5,0,0.9,0.1,1.5c0,0.3,0,0.7,0.1,1v0l0,0l0.1,0c0.2,0.1,0.5,0.1,0.7,0.2l0.1,0l0,0
											l0.1,0l0.1,0c0.1-0.1,0.2-0.3,0.3-0.4c0.5-0.6,0.7-1.1,1.1-1.7l0,0l0,0c0.3,0,0.6,0,0.8,0l0,0l0,0
											c0.1,0.2,0.2,0.3,0.3,0.5c0.4,0.6,0.8,1.1,1.3,1.5l0.1,0l0.1,0h0c0.2-0.1,0.5-0.2,0.7-0.3c0,0,0.1,0,0.1,0l0-0.1l0-0.1
											c0-0.2,0-0.4,0.1-0.5c0-0.7-0.1-1.3-0.2-2l0,0c0,0,0,0,0,0c0.2-0.2,0.4-0.3,0.6-0.5l0,0l0,0c0.2,0.1,0.3,0.2,0.5,0.2
											c0.6,0.2,1.3,0.4,2,0.4h0.1l0.1,0l0,0c0.1-0.2,0.3-0.4,0.4-0.6l0,0l0-0.1l0,0l0-0.1c-0.4-0.8-1-1.4-1.6-2l0,0
											c0.1-0.3,0.1-0.5,0.2-0.8l0,0l0,0c0.8-0.2,1.6-0.4,2.4-0.9l0.1,0l0,0l0-0.1C44.8,18.9,44.8,18.7,44.8,18.5z M38.3,21.1
											C38.3,21.1,38.3,21.1,38.3,21.1c-0.1,0.1-0.1,0.1-0.1,0.1c0,0,0,0,0,0c-1.4,0.9-3.3,0.2-3.7-1.4c-0.4-1.5,0.6-3,2.2-3.2
											c0.9-0.1,1.9,0.4,2.3,1.2c0,0,0,0,0,0l0,0c0,0.1,0.1,0.2,0.1,0.3c0,0,0,0,0,0C39.5,19.3,39.2,20.4,38.3,21.1z"/>
									</g>
								</g>
							</g>
						</g>
					</g>
				</g>
			</g>
		</g>
	</g>
	<g enable-background="new    ">
		<g>
			<g>
				<g>
					<g>
						<g>
							<g>
								<g>
									<g>
										<g>
											<path fill="#F78E1E" d="M66.5,32.5L66.5,32.5l-0.1-0.1c-0.1-0.1-0.3-0.2-0.4-0.3c-0.3-0.2-0.5-0.3-0.8-0.5
												c-0.3-0.1-0.5-0.2-0.8-0.3l0,0l0,0v0c0-0.3-0.1-0.5-0.1-0.8l0,0l0,0c0.6-0.4,1.3-0.8,1.8-1.4l0,0l0,0v-0.1
												c-0.1-0.3-0.1-0.5-0.2-0.7l0,0l0,0l-0.1,0c-0.1,0-0.2,0-0.4-0.1c-0.6-0.1-1.2-0.1-1.9-0.1l0,0c-0.1-0.2-0.2-0.4-0.3-0.6
												c0,0,0-0.1-0.1-0.1l0,0l0,0c0.1-0.1,0.2-0.2,0.3-0.4c0.3-0.4,0.6-1,0.9-1.5l0-0.1l0,0l0,0c-0.1-0.2-0.3-0.4-0.5-0.6l0,0
												l0,0l-0.1,0h0c-0.1,0-0.3,0-0.4,0.1l0,0c-0.6,0.1-1.1,0.3-1.7,0.5l0,0l0,0c-0.2-0.1-0.4-0.3-0.6-0.5l0-0.1l0,0v0
												c0-0.1,0.1-0.3,0.1-0.5c0.1-0.6,0.2-1.2,0.2-1.7l0,0l0-0.1l0,0l-0.1,0c-0.2-0.1-0.4-0.2-0.6-0.3l-0.1,0h0l-0.1,0
												c-0.1,0.1-0.3,0.2-0.4,0.2c-0.5,0.3-0.9,0.7-1.3,1.1l0,0l0,0l0,0c-0.2,0-0.5-0.1-0.8-0.2l0,0c0-0.1,0-0.3-0.1-0.5
												c-0.1-0.6-0.3-1.2-0.5-1.7l0,0l-0.1,0c-0.2-0.1-0.5-0.1-0.7-0.1l0,0l0,0l0,0c-0.5,0.6-0.8,1.3-1.1,2l0,0l0,0
												c-0.3,0-0.5,0-0.8,0.1h0l0,0c-0.3-0.4-0.5-0.8-0.8-1.1l0-0.1c-0.2-0.2-0.4-0.4-0.6-0.6l0,0h-0.1
												c-0.2,0.1-0.4,0.1-0.6,0.2c0,0-0.1,0-0.1,0l-0.1,0l0,0l0,0.1c0,0.1-0.1,0.3-0.1,0.4c-0.1,0.6-0.1,1.2-0.1,1.8l0,0
												c-0.2,0.1-0.5,0.3-0.7,0.4l0,0c-0.1-0.1-0.2-0.2-0.4-0.3c-0.5-0.4-1-0.6-1.5-0.8l0,0l0,0l0,0l-0.1,0
												c-0.2,0.1-0.4,0.3-0.6,0.4l0,0l0,0l0,0v0c0,0.1,0,0.3,0.1,0.5c0.1,0.6,0.3,1.1,0.5,1.7l0,0l0,0c-0.1,0.2-0.3,0.4-0.5,0.6
												l0,0l0,0c-0.1,0-0.2,0-0.3-0.1c-0.1,0-0.1,0-0.2,0c-0.5-0.1-1.1-0.2-1.7-0.2l-0.1,0l0,0c0,0,0,0.1-0.1,0.1
												c-0.1,0.2-0.2,0.4-0.3,0.6l0,0l0,0c0,0,0,0.1,0,0.1c0.1,0.1,0.2,0.3,0.2,0.4c0.3,0.5,0.8,0.9,1.2,1.4v0
												c-0.1,0.3-0.2,0.5-0.2,0.8l0,0c-0.1,0-0.2,0-0.3,0c-0.6,0.1-1.3,0.3-1.9,0.5l-0.1,0l0,0l0,0.2c0,0.2-0.1,0.4-0.1,0.6v0
												l0,0c0,0,0.1,0.1,0.1,0.1c0.1,0.1,0.3,0.2,0.4,0.3c0.5,0.3,1,0.5,1.5,0.8l0,0l0,0c0,0.2,0.1,0.6,0.1,0.8v0l0,0
												c-0.6,0.5-1.2,0.8-1.8,1.3l0,0l0,0l0,0.1v0c0,0.2,0.1,0.5,0.2,0.7l0,0l0,0l0,0c0.2,0,0.3,0.1,0.5,0.1c0.3,0,0.6,0,0.9,0
												c0.3,0,0.6,0,0.8,0c0,0,0.4,0.6,0.5,0.8l0,0l0,0c-0.1,0.1-0.1,0.4-0.2,0.5c-0.3,0.6-0.7,1-0.9,1.4l0,0v0.1l0,0l0,0
												c0.1,0.2,0.3,0.4,0.5,0.6l0,0l0,0h0.1c0.1,0,0.3,0,0.5-0.1c0.6-0.1,1.1-0.3,1.6-0.5l0,0l0,0c0.1,0.1,0.5,0.5,0.6,0.5l0,0
												v0c0,0.1-0.1,0.3-0.1,0.4c-0.1,0.3-0.1,0.6-0.2,1c0,0.3,0,0.5,0,0.8l0,0l0,0l0,0c0.2,0.1,0.4,0.2,0.6,0.4l0,0l0,0
												c0,0,0.1,0,0.1,0c0.1-0.1,0.2-0.1,0.4-0.2l0,0c0.5-0.3,0.9-0.7,1.3-1.1l0,0l0,0c0.3,0.1,0.5,0.2,0.8,0.2l0,0l0,0
												c0,0.2,0,0.3,0.1,0.5c0.1,0.6,0.3,1.1,0.5,1.7c0,0,0,0.1,0.1,0.1l0.1,0c0.3,0,0.5,0.1,0.7,0.1h0l0,0l0.1,0
												c0.1-0.1,0.2-0.3,0.3-0.4c0.2-0.3,0.4-0.5,0.5-0.8c0.1-0.2,0.2-0.5,0.3-0.8v0l0.1,0c0.3,0,0.6,0,0.8-0.1h0l0,0
												c0.4,0.6,0.8,1.2,1.4,1.8l0,0l0,0l0,0h0c0.2,0,0.5-0.1,0.7-0.2l0,0l0.1-0.1l0,0c0-0.1,0.1-0.3,0.1-0.4
												c0.1-0.5,0.1-1.1,0.1-1.7v0l0,0c0.3-0.2,0.5-0.3,0.7-0.4l0,0l0,0c0.1,0.1,0.2,0.2,0.4,0.3c0.4,0.3,0.9,0.6,1.5,0.8l0.1,0
												h0l0.1,0c0.2-0.2,0.4-0.3,0.6-0.4l0,0l0-0.1v0c0-0.1,0-0.2-0.1-0.4v-0.1c-0.1-0.6-0.4-1.1-0.6-1.7v0l0,0
												c0.2-0.2,0.4-0.5,0.5-0.6l0,0h0c0.1,0,0.3,0.1,0.4,0.1c0.3,0.1,0.6,0.1,0.9,0.1c0.3,0,0.6,0.1,0.8,0l0,0l0.1,0l0-0.1
												c0.1-0.2,0.2-0.4,0.3-0.6l0,0l0-0.1v0l0,0c-0.1-0.1-0.2-0.3-0.3-0.4c-0.2-0.3-0.4-0.5-0.6-0.7c-0.2-0.2-0.4-0.4-0.6-0.6
												l0,0c0.1-0.3,0.2-0.5,0.2-0.7l0,0l0,0c0.5-0.1,0.9-0.1,1.4-0.3c0.3-0.1,0.6-0.2,0.8-0.3c0,0,0,0,0.1-0.1l0,0c0,0,0,0,0,0
												C66.4,33,66.5,32.8,66.5,32.5L66.5,32.5L66.5,32.5z M61.7,34.9C61.7,34.9,61.7,34.9,61.7,34.9L61.7,34.9
												c-1.6,3-5.1,4.6-8.3,3.7c-3.2-0.9-5.5-3.8-5.4-7.2s2.4-6.3,5.7-7c3.4-0.8,6.9,1,8.3,4.2c0,0,0,0,0,0c0,0,0,0,0,0
												c0.1,0.3,0.2,0.5,0.3,0.9c0,0,0,0,0,0v0c0,0,0,0,0,0c0,0,0,0,0,0c0,0,0,0,0,0c0,0,0,0,0,0v0
												C62.8,31.5,62.6,33.4,61.7,34.9z M62.1,30.8C62.1,30.7,62.1,30.7,62.1,30.8c0-0.1,0-0.1,0-0.1c0,0,0,0,0,0
												c0,0,0-0.1,0-0.2c0,0,0,0,0,0c0,0,0,0,0,0c-0.1-0.3-0.2-0.7-0.3-1v0c-0.9-2.6-3.4-4.5-6.2-4.6c-2.7-0.3-5.5,1.6-6.6,4.1
												c-1.2,2.6-0.5,5.9,1.6,7.8C55.2,40.8,62.7,36.9,62.1,30.8L62.1,30.8z M55.3,34.3c-3.6,0-3.6-5.6,0-5.6
												C59,28.7,59,34.3,55.3,34.3z"/>
										</g>
									</g>
								</g>
							</g>
						</g>
					</g>
				</g>
			</g>
		</g>
	</g>
</g>
</svg>
