<?xml version="1.0" encoding="utf-8"?>
<!-- Generator: Adobe Illustrator 18.1.1, SVG Export Plug-In . SVG Version: 6.00 Build 0)  -->
<!DOCTYPE svg PUBLIC "-//W3C//DTD SVG 1.1//EN" "http://www.w3.org/Graphics/SVG/1.1/DTD/svg11.dtd">
<svg version="1.1" id="Layer_1" xmlns="http://www.w3.org/2000/svg" xmlns:xlink="http://www.w3.org/1999/xlink" x="0px" y="0px"
	 viewBox="0 0 75 75" enable-background="new 0 0 75 75" xml:space="preserve">
<path fill="#F68D1E" d="M44.8,25.1c-1.4-0.1-2.7-0.2-4.1,0.2c-0.5-0.3-1.1-0.4-1.6-0.5c1.5-3.4,4.1-6.3,4-8.1
	c-0.1-2.2-2.4-1.5-2.4-1.5c-1.3,1.4-2.2,4.5-2.7,7.1c-0.2-0.1-0.4-0.3-0.7-0.4c2.4-5-8.8-3.7-8.8-3.7c4.1,6.7,7.2,5.2,8.3,4.3
	c0.4,0.3,0.7,0.7,0.9,1c-0.1,0.4-0.1,0.8-0.2,1.2c-1,0.1-1.9,0.4-2.7,0.9c-1.5-0.6-3.1-0.4-4.8-0.4c-7.8,0-12.3,8.9-8.9,17.6
	c3.7,9.5,7.6,17.5,13.9,16.1c0.8-0.2,1.6-0.5,2.4-0.9c0.7,0.4,1.5,0.7,2.4,0.9c6.3,1.4,9.6-5.9,13.9-16.1
	C57.3,34.2,53.2,25.8,44.8,25.1z"/>
</svg>
