<?xml version="1.0" encoding="utf-8"?>
<!-- Generator: Adobe Illustrator 18.1.1, SVG Export Plug-In . SVG Version: 6.00 Build 0)  -->
<!DOCTYPE svg PUBLIC "-//W3C//DTD SVG 1.1//EN" "http://www.w3.org/Graphics/SVG/1.1/DTD/svg11.dtd">
<svg version="1.1" id="Layer_1" xmlns="http://www.w3.org/2000/svg" xmlns:xlink="http://www.w3.org/1999/xlink" x="0px" y="0px"
	 viewBox="0 0 75 75" enable-background="new 0 0 75 75" xml:space="preserve">
<g>
	<path fill="#F78E1E" d="M39.5,48.4L26.3,35.8c1,0,2.2,0.1,3.8,0.4l8.8,8.4c-0.2-0.7-0.4-1.5-0.7-2.4l-5.7-5.4
		c1.2,0.3,2.7,0.8,4.3,1.3c-0.1-0.3-0.2-0.7-0.4-1v0c-0.5-1.4-0.9-2.6-1.2-3.8c-4.1-1-6.9-0.9-8.7-0.3c-0.3,0.1-1.2,0.8-1.1,3.7
		l13.1,12.5c-1,0-2.2-0.2-3.8-0.5l-8.7-8.3c0.2,0.7,0.4,1.5,0.7,2.4l5.5,5.3c-1.2-0.3-2.6-0.8-4.2-1.3c0.1,0.4,0.3,0.8,0.5,1.2l0,0
		c0.5,1.3,0.9,2.5,1.2,3.6c4.3,1.1,7.2,0.9,9,0.3C39.1,51.6,39.7,50.7,39.5,48.4z"/>
	<path fill="#F78E1E" d="M24.5,49.5c-0.5-1.5-1-2.8-1.3-4c-12-2.8-12.1,3.8-12.1,3.8s0.5-3.5,13.7,1C24.7,50,24.6,49.7,24.5,49.5
		L24.5,49.5z"/>
	<path fill="#F78E1E" d="M51.5,36.5L38.1,23.7c1,0,2.2,0.1,3.8,0.4l9.1,8.7c0,0,0,0,0,0c-0.2-0.7-0.4-1.5-0.6-2.4l-6-5.7
		c1.3,0.3,2.8,0.8,4.5,1.4c-0.1-0.4-0.3-0.8-0.5-1.2v0c-0.5-1.3-0.8-2.5-1.2-3.5c-4.3-1.1-7.2-0.9-9.1-0.3c-0.4,0.4-1,1.4-0.8,3.9
		l12.9,12.3c-1,0-2.2-0.2-3.8-0.5l-8.4-8c0.2,0.7,0.4,1.5,0.7,2.4l5.2,5c-1.2-0.3-2.5-0.7-3.9-1.2c0.1,0.3,0.2,0.7,0.4,1l0,0
		c0.5,1.4,0.9,2.6,1.2,3.8c4.1,1,6.8,0.9,8.7,0.3C50.7,39.8,51.6,39.2,51.5,36.5z"/>
	<path fill="#F78E1E" d="M52.2,22.8c0.1,0.2,0.2,0.5,0.3,0.7h0c0.5,1.5,1,2.8,1.3,4c12,2.8,12.1-3.8,12.1-3.8S65.4,27.2,52.2,22.8z"
		/>
	<path fill="#F78E1E" d="M52,23.7l0-0.1c-1.3-3.5-2.2-6.4-2.7-8.8c-0.8,0-1.5,0.2-1.8,0.6c-0.4,0.4-0.4,0.8-0.4,1.2
		c0.2,2.2,0.9,5,2,8.1c2.6,6.7,3.6,11.6,2.9,14.1c0.4-0.3,0.8-0.6,1.1-1.2C54.2,35.8,55,31.9,52,23.7z"/>
	<path fill="#F78E1E" d="M28,48.4L28,48.4c-2.6-6.8-3.6-11.6-2.9-14.1c-0.4,0.3-0.8,0.6-1.1,1.2c-1.2,1.8-1.9,5.6,1.1,13.8l0,0.1
		c1.3,3.4,2.2,6.4,2.7,8.8c0.8,0,1.4-0.3,1.8-0.6c0.4-0.4,0.4-0.8,0.4-1.2C29.8,54.2,29.2,51.5,28,48.4z"/>
	<path fill="#F78E1E" d="M40,36l-0.1-0.1c-2.6-6.7-3.5-11.4-2.8-13.9c-0.4,0.3-0.8,0.6-1.1,1.2C34.8,24.9,34,28.8,37,37
		c2.6,6.7,3.6,11.6,2.9,14.1c0.4-0.3,0.8-0.6,1.1-1.2C42.2,48.1,43,44.2,40,36z"/>
</g>
</svg>

