<?xml version="1.0" encoding="utf-8"?>
<!-- Generator: Adobe Illustrator 18.1.1, SVG Export Plug-In . SVG Version: 6.00 Build 0)  -->
<!DOCTYPE svg PUBLIC "-//W3C//DTD SVG 1.1//EN" "http://www.w3.org/Graphics/SVG/1.1/DTD/svg11.dtd">
<svg version="1.1" id="Layer_1" xmlns="http://www.w3.org/2000/svg" xmlns:xlink="http://www.w3.org/1999/xlink" x="0px" y="0px"
	 viewBox="0 0 75 75" enable-background="new 0 0 75 75" xml:space="preserve">
<path fill="#F68D1E" d="M29.7,43v-0.7h4.7V43H29.7z"/>
<path fill="#F68D1E" d="M26.7,37.5l-1-0.5h8.6v0.7H27C27,37.7,26.8,37.6,26.7,37.5z"/>
<path fill="#F68D1E" d="M34.3,32.5h-8.8l0.3-0.4c0.1-0.1,0.1-0.2,0.2-0.2l0.1-0.1h8.3v0.7L34.3,32.5z"/>
<path fill="#F68D1E" d="M39,42.3h4l0.1,0.1l0.1,0.1l0.4,0.5h-5.4C38.2,43,39,42.3,39,42.3z"/>
<path fill="#F68D1E" d="M27.5,47.5h37.1v0.7h-38l0.6-0.4c0.1-0.1,0.1-0.1,0.2-0.2L27.5,47.5z"/>
<path fill="#F68D1E" d="M36.5,31.8h28.1v0.7H36.5V31.8z"/>
<path fill="#F68D1E" d="M54.3,37h10.3v0.7h-9.8l-0.1-0.1c-0.1-0.1-0.1-0.2-0.1-0.2S54.3,37,54.3,37z"/>
<path fill="#F68D1E" d="M64.5,26.6v0.7H27.8l0.1-0.7H64.5z"/>
<path fill="#F68D1E" d="M54.7,42.3h9.8V43H54.2l0.4-0.5c0-0.1,0.1-0.1,0.1-0.1S54.7,42.3,54.7,42.3z"/>
<path fill="#F68D1E" d="M42.8,37.8h-1.7l-0.2-0.7l0.3-0.1h2.2l-0.3,0.4c0,0.1-0.1,0.1-0.1,0.2v0.2C43,37.8,42.8,37.8,42.8,37.8z"/>
<path fill="#F68D1E" d="M17.9,42.5c0,0.1,0,0.2,0,0.2h0.6c0-0.1,0-0.2,0-0.2H17.9z"/>
<path fill="#F68D1E" d="M18.9,43h-1.1v-0.2c0-0.1,0-0.1,0-0.2v-0.3h1.1v0.3v0.1C18.9,42.7,18.9,43,18.9,43z"/>
<path fill="#F68D1E" d="M21.8,42.5c0,0.1,0,0.1-0.1,0.2h1c0-0.1,0-0.2,0-0.2H21.8z"/>
<path fill="#F68D1E" d="M23.1,43h-1.6l0.1-0.3c0-0.1,0-0.2,0.1-0.3l0.1-0.2h1.3V43z"/>
<path fill="#F68D1E" d="M21.4,37.5c0.1-0.1,0.3-0.1,0.4-0.2h-1.4c-0.1,0.1-0.1,0.2-0.2,0.2H21.4L21.4,37.5z"/>
<path fill="#F68D1E" d="M22.8,37L22.8,37l-0.9,0.5c-0.1,0.1-0.2,0.1-0.4,0.2h-1.9l0.4-0.5c0-0.1,0.1-0.1,0.1-0.1l0.1-0.1
	C20.2,37,22.8,37,22.8,37z"/>
<path fill="#F68D1E" d="M25.3,42.5c0,0.1,0,0.2,0,0.2H26c0-0.1-0.1-0.2-0.1-0.2H25.3z"/>
<path fill="#F68D1E" d="M26.5,43h-1.3L25,42.3h1.2l0.1,0.1c0,0.1,0.1,0.2,0.1,0.2S26.5,43,26.5,43z"/>
<path fill="#F68D1E" d="M24.6,27c0,0,0-0.1,0.1-0.1h-1.2c0,0.1,0,0.2,0,0.2h1.1C24.6,27,24.6,27,24.6,27z"/>
<path fill="#F68D1E" d="M24.6,27.3h-1.4l0.1-0.7h1.9l-0.5,0.7H24.6z"/>
<path fill="#F68D1E" d="M22.8,37L22.8,37L22.8,37L22.8,37z"/>
<path fill="#F68D1E" d="M9.7,27.3v4.5h10.1L19,32.5H9.7V37h5.7l-0.1,0.4v0.1l-0.1,0.2H9.7v4.5h5.1L15,43H9.7v4.5h8.5
	c0.1,0.1,0.2,0.1,0.2,0.2l0.9,0.5H9V26.6h11.8v0.7C20.8,27.3,9.7,27.3,9.7,27.3z"/>
<path fill="#F68D1E" d="M28.8,40.8c-0.2-0.7-0.6-1.3-1.1-1.8s-1.1-0.9-1.8-1.1c-0.5-0.2-1.2-0.3-1.8-0.3c-0.1,0-0.3,0-0.4,0
	c-0.1-0.6-0.2-1.2-0.3-1.7c-0.1-0.6-0.2-1.2-0.2-1.8c0.6-0.5,1.1-1,1.7-1.6c0.5-0.6,1-1.3,1.4-2.1s0.7-1.7,0.9-2.6
	c0.2-1,0.2-2,0.1-3.1c0-0.3-0.1-0.8-0.3-1.4s-0.4-1.1-0.6-1.6s-0.5-0.9-0.9-1.2c-0.2-0.2-0.4-0.3-0.6-0.3s-0.3,0-0.5,0.1
	c-0.6,0.4-1.1,1-1.6,1.8c-0.4,0.8-0.7,1.7-0.9,2.7s-0.3,2-0.3,3.1S21.7,30,22,31c-0.6,0.5-1.2,1-1.9,1.6s-1.4,1.2-2,2
	c-0.6,0.7-1.2,1.5-1.7,2.4s-0.8,1.8-0.8,2.8c-0.2,1.4,0,2.7,0.4,3.9c0.5,1.1,1.1,2.1,2,2.8c0.9,0.8,1.9,1.3,3.1,1.7
	c0.8,0.2,1.7,0.4,2.6,0.4c0.4,0,0.7,0,1.1,0c0,0.5,0.1,1,0.2,1.5s0.2,1.1,0.3,1.6c0.1,0.5,0.1,1,0.2,1.5c0,0.5-0.1,1-0.2,1.4
	c-0.2,0.4-0.5,0.8-0.8,1.1s-0.8,0.5-1.3,0.6c-0.3,0.1-0.6,0.1-0.8,0.1s-0.4,0-0.6-0.1S21,56,20.7,55.7c0.3,0,0.6-0.2,0.9-0.3
	c0.3-0.2,0.6-0.5,0.7-0.8c0.2-0.3,0.3-0.7,0.3-1c0-0.4,0-0.7-0.2-1.1c-0.1-0.3-0.3-0.6-0.6-0.8s-0.7-0.3-1.1-0.4c0,0-0.1,0-0.2,0
	c-0.4,0-0.8,0.1-1.2,0.4s-0.7,0.7-0.9,1.1c-0.2,0.4-0.3,0.9-0.2,1.4c0,0.5,0.2,1,0.6,1.4c0.3,0.4,0.7,0.7,1.1,0.9s0.9,0.3,1.4,0.4
	c0.2,0,0.5,0.1,0.8,0.1s0.5,0,0.8-0.1s1-0.2,1.5-0.4c0.4-0.2,0.8-0.5,1.2-0.8c0.3-0.3,0.6-0.7,0.8-1.2c0.2-0.6,0.2-1.1,0.2-1.6
	s-0.1-1-0.2-1.5l-0.3-1.5c-0.1-0.5-0.2-1-0.1-1.6c0.4-0.3,0.9-0.6,1.3-0.9s0.8-0.7,1.2-1.1c0.3-0.4,0.6-0.9,0.9-1.4
	c0.2-0.5,0.4-1.1,0.4-1.8C29.1,42.2,29,41.4,28.8,40.8L28.8,40.8z M22.5,27.6c0.1-0.5,0.2-1.1,0.3-1.6s0.3-1,0.6-1.4
	c0.2-0.4,0.5-0.7,0.9-0.9c0.3-0.2,0.6-0.2,1-0.2c0.1,0,0.2,0,0.3,0c0.4,0.4,0.6,0.8,0.6,1.3c0.1,0.5,0,0.9-0.1,1.4s-0.4,1-0.7,1.4
	c-0.3,0.5-0.6,0.9-1,1.3s-0.7,0.8-1.1,1.1c-0.3,0.2-0.6,0.5-0.8,0.6c0-0.4,0-0.8,0-1.2C22.4,28.7,22.4,28.1,22.5,27.6z M23.1,47.6
	h-0.2c-0.6,0-1.2-0.1-1.7-0.3s-1-0.4-1.5-0.6c-0.5-0.3-0.8-0.5-1.1-0.8c-0.6-0.6-1.1-1.2-1.3-2c-0.2-0.7-0.3-1.4-0.2-2.2
	c0.1-0.7,0.3-1.5,0.6-2.2c0.4-0.7,0.8-1.4,1.3-2.1s1-1.2,1.6-1.8c0.6-0.5,1.1-0.9,1.6-1.2c0.1,0.2,0.1,0.4,0.2,0.7s0.1,0.6,0.2,0.9
	l0.2,1v0.1l0,0l0,0c0,0.2,0.1,0.5,0.2,0.7c-0.4,0.1-0.7,0.3-1.1,0.5s-0.8,0.5-1.1,0.8c-0.3,0.3-0.6,0.7-0.8,1
	c-0.2,0.4-0.4,0.8-0.5,1.3s-0.1,1.1,0,1.5c0.1,0.5,0.3,0.9,0.5,1.3c0.3,0.4,0.6,0.7,0.9,1c0.4,0.3,0.8,0.5,1.2,0.7l0.2,0.1l-0.1-0.2
	c-0.1-0.2-0.2-0.4-0.3-0.5l-0.5-0.5c-0.1-0.1-0.3-0.3-0.4-0.5s-0.2-0.4-0.2-0.6c-0.2-0.9,0-1.6,0.4-2.2c0.4-0.5,1.1-0.8,2-0.8
	c0.2,1.1,0.4,2.2,0.5,3.4c0.2,1.1,0.4,2.2,0.6,3.3C24,47.5,23.6,47.6,23.1,47.6z M27.1,45.1c-0.1,0.5-0.4,1-0.7,1.4
	s-0.7,0.6-1.2,0.7c-0.1-1.1-0.3-2.2-0.4-3.3c-0.2-1.1-0.4-2.2-0.6-3.2c0.2,0,0.5-0.1,0.7-0.1c0.3,0,0.6,0.1,0.9,0.2
	c0.5,0.2,0.8,0.6,1.1,1c0.3,0.5,0.4,1,0.5,1.6C27.3,44,27.2,44.6,27.1,45.1z"/>
<path fill="#F68D1E" d="M40.4,37.7c-0.1-0.3-0.3-0.6-0.5-0.8s-0.5-0.4-0.7-0.5c-0.3-0.1-0.6-0.2-0.9-0.2s-0.7,0.1-1.1,0.4
	c-0.4,0.2-0.8,0.6-1.3,1.1V28H35v17.1l0.2-0.2l3.5-3.3c0.2-0.2,0.4-0.4,0.6-0.6s0.4-0.5,0.6-0.8c0.2-0.3,0.4-0.5,0.5-0.8
	s0.2-0.5,0.2-0.8S40.6,38,40.4,37.7z M38.1,39.8c-0.2,0.5-0.4,1-0.7,1.4s-0.5,0.9-0.9,1.3c-0.2,0.3-0.5,0.6-0.7,0.9v-4.9l0.4-0.5
	c0.1-0.2,0.3-0.3,0.6-0.4c0.2-0.1,0.5-0.2,0.7-0.2c0.3,0,0.5,0.1,0.6,0.2c0.2,0.2,0.2,0.4,0.2,0.7C38.3,38.9,38.2,39.3,38.1,39.8z"
	/>
<path fill="#F68D1E" d="M48.9,35.4c-3.2,0-5.9,2-5.9,4.5s2.6,4.5,5.9,4.5c3.2,0,5.9-2,5.9-4.5S52.1,35.4,48.9,35.4z M50.1,43.3
	c-1,0.4-2.4-0.8-3-2.7c-0.6-1.8-0.4-3.6,0.7-4c1-0.4,2.4,0.8,3,2.7C51.4,41.1,51.1,42.9,50.1,43.3z"/>
</svg>

