<?xml version="1.0" encoding="utf-8"?>
<!-- Generator: Adobe Illustrator 18.1.1, SVG Export Plug-In . SVG Version: 6.00 Build 0)  -->
<!DOCTYPE svg PUBLIC "-//W3C//DTD SVG 1.1//EN" "http://www.w3.org/Graphics/SVG/1.1/DTD/svg11.dtd">
<svg version="1.1" id="Layer_1" xmlns="http://www.w3.org/2000/svg" xmlns:xlink="http://www.w3.org/1999/xlink" x="0px" y="0px"
	 viewBox="0 0 75 75" enable-background="new 0 0 75 75" xml:space="preserve">
<path opacity="0.25" fill="#F68D1E" d="M46.3,27.4L46.3,27.4c-0.1,0.3-0.2,0.6-0.4,0.8c-0.1,0.1-0.1,0.1-0.1,0.2s-0.1,0.3-0.1,0.3
	s-0.1,0,0,0.1c0,0.1,0.2,0.4,0.2,0.4s0,0.1,0.1,0.1s0.2,0.1,0.2,0.1c0,0.1,0.1,0.1,0.1,0.1l0.1,0.1l0.1,0.1c0.1,0.1,0.1,0.1,0.1-0.2
	l0.1-1.2c0,0,0.1-0.3,0.1-0.4c0.1,0,0.1-0.2,0.1-0.2l0.1-0.2v-0.1c0.1-0.3,0.4-0.6,0.6-0.9c0.1,0,0.2-0.2,0.2-0.2
	c0.1-0.1,0.2-0.2,0.2-0.2c0-0.1,0.1-0.2,0.1-0.2c0-0.1,0-0.1,0-0.1c0-0.1,0.1-0.1,0.1-0.2c0.1-0.1,0.3-0.6,0.4-0.7s0.1,0,0-0.3
	c0-0.1-0.1-0.2-0.1-0.3s0-0.1-0.1-0.2c-0.3-0.2-0.4-0.4-0.4-0.7c-0.1-0.1,0-0.1-0.1-0.1s-0.2-0.1-0.2-0.3v-0.3c0-0.1,0-0.2,0-0.2
	v-0.1l0.1-0.1l-0.1-0.1c0-0.1,0-0.1,0-0.2s0-0.1-0.1-0.2c0-0.1,0-0.2,0-0.3c-0.1-0.1,0.1-0.3,0.1-0.3V21c0.1,0,0.1-0.1,0.1-0.2
	s0.2-0.1,0.2-0.2s0.1-0.1,0.2-0.2s0.2-0.1,0.3-0.1s0.2-0.1,0.2-0.1c0.1,0,0.2-0.1,0.3-0.1c0,0,0.3,0,0.4,0c0.3,0.1,0.4,0.2,0.4,0.2
	s0.1,0.2,0.2,0.2c0,0.1,0.1,0.2,0.2,0.3c0.1,0.2,0,0.2,0.1,0.3s0.1,0.2,0.1,0.3c0,0,0,0.1,0,0.2s0,0.2,0,0.2V22v0.1
	c0.1-0.1,0.1,0.1,0.1,0.1s0.1,0.2,0,0.4c0,0.1,0,0.2,0,0.2c-0.1,0.2-0.2,0.3-0.3,0.3c-0.1,0.1-0.1,0.1-0.1,0.2c0,0,0,0.5,0,0.6
	s0,0.1,0.1,0.1s0.1,0,0.3-0.2c0,0,0.2,0.3,0.3,0.4c0.1,0,0,0,0.1,0s0.8,0.3,0.9,0.3c0.1,0.1,0.3,0.2,0.3,0.2c0.1,0,0.3,0.1,0.3,0.1
	c0.2,0.1,0.7,0.2,0.8,0.3c0,0.1,0.1,0.1,0.2,0.1s0.1,0.1,0.1,0.1s0,0.1,0.1,0.1c0.1,0.1,0.1,0.1,0.2,0.3c0.1,0.1,0.1,0.2,0.2,0.2
	c0.3,0.1,0.8,0.7,1,0.9c0,0,0.3,0.3,0.4,0.4c0.1,0,0.4,0.4,0.4,0.4c0,0.1,0.6,0.7,0.6,0.7l0.4,0.5c0.2,0.2,0.4,0.5,0.4,0.6l0.1,0.3
	c0.1,0.1,0,0.1-0.1,0.5c-0.1,0.1,0,0.1,0,0.1v0.1l0.1,0.1c0,0,0,0.1,0,0.2s0,0.2,0,0.2c0,0.1,0,0.2-0.1,0.3c0,0.1,0,0.1-0.2,0h-0.1
	c-0.1,0-0.1,0-0.1,0c-0.1,0-0.1,0-0.2,0c-0.1-0.1-0.1,0-0.2,0s-0.1,0-0.1,0c-0.1,0-0.1,0.1-0.1,0.1L56,31.6c0,0-0.5,0.8-0.7,1
	l-0.4,0.5c-0.1,0.1-0.7,0.7-0.7,0.7c-0.1,0.1-0.2,0.2-0.4,0.3l-0.2,0.2c-0.3,0.3-0.7,0.2-0.8,0.2s-0.1,0-0.1,0.1s0,0.3,0,0.3
	s-0.1,0.1,0,0.1v0.1v0.3c0,0.2,0,0.8,0,1c0,0.1,0,0.3,0,0.4s0,0.2,0,0.3s0,0.2,0,0.2v0.1c0,0-0.1,0.2-0.1,0.3
	c-0.1,0.1-0.1,0.3-0.1,0.4c0,0-0.2,0.8-0.2,0.9c0,0.2,0,0.3,0,0.4c0,0.2,0,0.7-0.1,0.9c0,0.1-0.1,0.4-0.1,0.5c0,0-0.3,0.9-0.3,1
	s-0.1,0.3-0.1,0.4c0,0,0,0,0.2,0.1c0.3,0.1,0.2,0.3,0.1,0.6c0,0.2,0.1,0.2,0.1,0.2c0.1,0,0.1,0.1,0.1,0.2s0.1,0.2,0.1,0.3
	c0.1,0.1,0.2,0.5,0.2,0.7c0,0.1,0.1,0.4,0.1,0.5c0.1,0.4,0.2,1.6,0.2,2c0,0.3,0.2,1.3,0.2,1.5c0.1,0.4,0.1,0.8,0,1.1
	c-0.1,0.2-0.1,0.5-0.1,0.7s0,0.4-0.2,0.6c0,0.1,0,0.2,0,0.2s0,0.3,0,0.4c-0.1,0.1,0,0.1,0,0.1c0.1,0,0.1,0.2,0.1,0.4
	c0,0.3,0,0.3-0.2,0.4c-0.2,0-0.2,0-0.3,0c-0.2-0.1-0.2-0.1-0.2,0c-0.1,0.1-0.1,0.2-0.3,0.3c-0.5,0.1-0.9,0.1-1.5,0
	c-0.2,0-0.5,0-0.7-0.1c-0.1-0.1-0.1,0-0.1-0.2c0,0,0-0.1,0.1-0.1V52c0-0.1,0.1-0.2,0.2-0.3c0.2-0.1,0,0-0.1,0
	c-0.1,0.1-0.4,0.1-0.5,0.1c-0.5,0.1-1.1,0-1.5-0.2c-0.2,0-0.1,0-0.1-0.2c0,0,0-0.1,0.1-0.1v-0.1c0.1-0.2,0.3-0.2,0.6-0.6
	c0.1,0,0.2,0,0.3,0l0.2-0.1c0.2-0.1,0.3-0.2,0.3-0.2c0-0.1,0.1-0.2,0.2-0.2s0.1-0.1,0.1-0.1c0.1-0.1,0.1-0.1,0.1-0.2
	s0.1-0.4,0.2-0.5c0.1-0.1,0,0,0-0.2c0-0.1,0-0.1,0.2-0.4c0.1-0.2,0.1-0.1,0-0.3c-0.1-0.1-0.1-0.1-0.1-0.3c0-0.1-0.1-1.1-0.1-1.2
	c-0.1-0.1-0.1-0.6-0.1-0.7c0,0,0-0.7,0-0.8s0.1-1.4,0.1-1.5c0-0.3,0-0.2-0.1-0.3s-0.1-0.2,0-0.7c0-0.2-0.1-0.2-0.1-0.2
	c-0.1,0-0.1-0.1-0.1-0.1c-0.1-0.2,0-0.2,0-0.3c0.1-0.1,0.1-0.1,0-0.2c-0.1,0-0.1-0.1-0.1-0.2s-0.1-0.4-0.1-0.4
	c0-0.1-0.1-0.2-0.1-0.2c-0.2-0.2-0.2-0.4-0.3-0.7c0-0.1-0.1-0.4-0.1-0.4c-0.1-0.1-0.4-1.3-0.4-1.5s-0.2-0.7-0.2-0.8
	C48,37.8,48,37.6,48,37.5s-0.1-0.7-0.1-0.8c-0.1-0.2-0.1-0.3-0.1-0.5v-0.3v-0.3v-0.5V35v-0.1v-0.2c0-0.1,0-0.2,0-0.2
	c0-0.1,0-0.3,0-0.3l-0.1-0.1c-0.1,0-0.1-0.1-0.2-0.2c-0.1,0-0.1-0.1-0.1,0s0,0.1,0,0.1c0.1,0.1,0.1,0.1,0.1,0.2s0,0.1,0,0.1l0.1,0.1
	c0,0.1,0,0.1-0.1,0.2c0,0.1,0,0.1,0,0.1l-0.1,0.1c-0.1,0,0,0.1,0,0.1c0.1,0.1,0.1,0.1,0,0.2v0.1c0,0,0,0.1-0.1,0.1l0,0v0.1l0,0v0.1
	c0,0,0,0.1,0,0.2s0,0.3,0,0.5c0.1,0.2,0,0.2,0,0.2s0,0,0,0.2c0,0.1,0,0.2,0,0.2c0.1,0.1,0.1,0.3,0.1,0.4c0.1,0.3,0.1,0.9,0.1,1.1
	c0,0.1,0.1,1.4,0.1,1.5c0,0.2,0,0.8,0,1c0,0.1,0,2.3,0,2.3c0,0.1-0.1,2.1-0.1,2.2c0,0-0.1,0.6-0.1,0.7s0,0.4,0,0.5s-0.1,1.3-0.1,1.4
	s0,0.6,0,0.7c0,0.5,0,0.8-0.2,1.5c0,0.1,0,0.1,0.1,0.1s0,0,0,0.2S47,51,46.9,51.1c-0.1,0-0.1,0,0.1,0.1c0,0.1,0,0.1,0,0.1s0,0,0,0.1
	s0.1,0.1,0.1,0.1c0,0.1,0.2,0.1,0.2,0.1c0.2,0.3-0.4,0.4-0.5,0.4s-0.7,0.1-0.9,0.1c-0.1,0-0.1,0.1-0.1,0.1c0.1,0.1,0.1,0.2,0.1,0.3
	s0.1,0.2,0.1,0.2v0.2c-0.1,0.1,0.1,0.2-0.7,0.2c0,0-0.7,0-0.8,0c-0.3,0-0.4-0.1-0.4-0.4c0-0.1,0,0-0.1-0.1c-0.1,0-0.1-0.2-0.1-0.3
	s0-0.5,0-0.6s-0.1,0-0.1,0c-0.1,0.1-0.1-0.1-0.1-0.2v-0.1v-0.2c0,0-0.1-0.3-0.1-0.4c-0.1-0.1,0-0.1,0-0.1c0-0.1,0-0.1,0-0.2
	c0-0.2,0-0.4,0-0.5s0-0.3,0-0.3c0-0.1,0-0.4,0-0.4c0-0.1,0-1.1,0-1.1c0-0.1,0-0.5,0-0.6s0-0.4,0-0.5c0-0.3,0-0.4,0.1-0.7
	c0-0.1,0-0.2,0-0.2s0-0.2,0-0.4s-0.1-0.2-0.1-0.3c-0.2-0.3-0.1-1.2-0.1-1.7c0-0.1,0-0.3,0-0.3v-0.3c0-0.1-0.3-1.9-0.3-2
	s-0.1-0.7-0.1-0.8S43,40,43,40s-0.2-0.5-0.2-0.6c-0.1-0.3-0.1-0.1-0.1,0s0,0.2,0,0.2s0,0.1,0,0.2s0,0.2,0,0.2s0,0.6,0,0.7
	s0,1.1,0,1.2c0,0.6-0.2,2.2-0.5,2.8c-0.1,0.1-0.1,0.1,0,0.2c0,0,0.2,0.2,0.2,0.3c0.1,0.2,0.1,0.3-0.1,0.7c0,0.2-0.1,0.5-0.1,0.6
	S42,47.1,42,47.2c0,0.1-0.4,1.2-0.4,1.3s0,0.1,0.2,0.1c0.1,0.1,0.1,0.1,0,0.3c0,0-0.2,0.5-0.3,0.6c-0.1,0.2,0,0.2,0,0.2l0.1,0.2
	c0,0.1,0,0.1,0,0.1l0.1,0.1c0,0.1,0.3,0.2,0.3,0.2c0.1,0.1,0.1,0.1,0.3,0.1c0.1,0,0.1,0.1,0.1,0.1c0.1,0,0.1,0.2,0.1,0.3
	s0.1,0.1,0.1,0.1l0.1,0.1c0,0.3,0,0.3-0.1,0.3h-0.1c0-0.1,0,0,0,0h-0.2c-0.1-0.1-0.1,0-0.1,0h-0.3c-0.1,0-0.1,0-0.1,0h-0.2
	c0,0,0,0-0.1,0s-0.2,0-0.2,0c-0.1-0.1,0,0-0.1,0h-0.1c0-0.1,0,0,0,0h-0.2c0,0-0.1,0-0.2,0c-0.3,0-0.3-0.2-0.4-0.4
	C40.2,50.8,40.1,51,40,51s-0.2,0-0.2,0s-0.5-0.1-0.6-0.1c-0.1-0.1-0.1-0.1-0.1-0.3c0-0.3,0-0.3-0.1-0.2l-0.1,0.1v0.1
	c0.1,0,0,0.1,0,0.1c0,0.1,0.2,0.2,0.2,0.2c0,0.1,0,0.1-0.1,0c0,0,0,0,0,0.1c0.1,0,0.1,0.2,0.1,0.2c0,0.2,0.1,0.3,0,0.4
	c0,0.1,0.1,0.1,0.1,0.1c0.1,0,0.1,0.2,0.1,0.3c0,0,0,0.1-0.1,0.1s-0.2,0-0.2,0h-0.1c-0.1,0-0.3,0-0.3,0c-0.1,0-0.1,0-0.1,0
	c-0.1,0-0.2,0-0.3,0s-0.1,0-0.1,0c-0.1,0-0.1,0-0.2,0s-0.1,0-0.1,0h-0.1c0,0,0,0-0.1,0h-0.1c-0.1,0-0.1,0-0.2,0s-0.1,0-0.2,0
	c-0.2,0-0.2-0.2-0.2-0.4c0-0.1,0-0.2,0-0.3c0.1,0,0-0.2,0-0.3c0-0.2,0.1-0.2-0.1-0.3c-0.1-0.1-0.1-0.1-0.1-0.2s-0.1-0.3-0.1-0.4
	c-0.1-0.1-0.1-0.3,0-0.4v-0.2c0,0,0.1-0.4,0.1-0.5c0-0.6,0-0.7,0.2-1.1c0-0.2,0-0.2,0-0.3s-0.1-0.6-0.1-0.7c0,0-0.1-0.3-0.1-0.4
	c-0.1-0.3-0.1-0.8-0.1-1.1c0-0.1,0-0.3,0-0.4s-0.1-0.3,0-0.4c0.1-0.2,0.2-0.9,0.2-1.1s0.1-0.9,0.2-1.1c0-0.1,0-0.2,0-0.2v-0.2v-0.2
	c0-0.1,0-0.4,0-0.5s0-0.2,0-0.3s0-0.4,0-0.5s0-0.2,0-0.2s0-0.3,0-0.4c0.1-0.1,0-0.2,0-0.3s0-0.2,0-0.3v-0.2
	c-0.1-0.1-0.1-0.2-0.1-0.4c0-0.1-0.1-0.4-0.1-0.5c-0.1-0.1,0-0.5,0-0.6s0-0.2-0.1-0.1s-0.1,0-0.1,0.2c0,0.3-0.2,1.6-0.3,1.9
	c-0.1,0.1-0.1,0.5-0.1,0.5L36.1,41c0,0.2-0.2,1.3-0.2,1.5c0,0.1-0.1,1.2-0.1,1.3c0,0.4,0,0.3-0.2,0.4s-0.8,0.2-1.1,0.2
	c-0.1,0-0.1,0-0.1,0.2c0,0.4-0.1,1.3-0.2,1.7c0,0-0.1,0.8-0.1,0.9s0,0.2,0,0.3s0,1,0,1.1c-0.1,0.7,0.1,1.3,0.3,1.6
	c0,0.1,0,0.2,0.1,0.3c0,0.1,0.1,0.3,0.1,0.4c0.1,0.1,0.1,0.1,0.1,0.1c0,0.1,0.1,0.2,0.1,0.3s0,0.1,0,0.1c0,0.1,0,0.2,0.1,0.3
	s0.1,0.1,0.1,0.1c0.1,0,0.2,0.1,0.2,0.1c0.1,0,0.1,0.1,0.2,0.1v0.1c-0.1,0,0,0,0.1,0c0.1,0.1,0.1,0.1,0.1,0.1s0,0.1-0.2,0.2
	c-0.1,0.1-0.1,0.1-0.1,0.1c0,0.1,0,0.2,0.1,0.2c0.1,0.1,0.1,0.1,0.1,0.2s0.1,0.2,0.1,0.2c0,0.1,0,0.2,0,0.2l0.1,0.1
	c0,0,0.2,0.2,0,0.2c0,0.1-0.5,0.1-0.6,0.1c-0.2,0.1-0.3,0-0.5,0c-0.1,0-0.6-0.2-0.7-0.2c-0.1-0.1-0.2-0.2-0.2-0.4c-0.1,0,0,0-0.2,0
	c0,0-0.1,0-0.2,0s0,0,0-0.1l0.1-0.3c0-0.2-0.1-0.4-0.3-0.6c-0.1-0.2,0-0.1-0.2-0.1c-0.1,0-0.1,0,0,0.2s0.1,0.1-0.1,0.2s0,0-0.2,0
	c-0.1,0-0.1,0-0.2,0c-0.2,0-0.1,0,0-0.3c0-0.2,0-0.1-0.1-0.1s-0.3,0-0.4,0c-0.3-0.1-0.5-0.3-0.6-0.5c-0.1-0.1-0.5-0.3-0.7-0.4
	s-0.2,0-0.2,0c-0.1,0-0.1,0.1-0.1,0.2c0,0.2,0,0.3,0,0.3c0,0.1,0,0.1-0.1,0.1s-0.1,0-0.1,0s0,0,0-0.1c0.1-0.2-0.2-0.4-0.3-0.6
	s-0.1-0.1-0.1,0.1c0.1,0.2,0.1,0.6,0.1,0.7l0.1,0.3c0,0.1,0.1,0.2,0.1,0.2v0.3v0.2c0.1,0.1-0.1,0.1-0.1,0.1c0,0.1-0.4,0.1-0.5,0.1
	c0.1,0-0.2,0-0.4,0c-0.1,0-0.3-0.1-0.4-0.2s-0.1-0.3-0.1-0.5c0.1-0.3-0.1-0.6-0.1-0.7c-0.1-0.2-0.1-0.3,0-0.4s0.1-0.3,0.1-0.3
	c0.1-0.1,0-0.2,0-0.2v-0.1c0,0,0,0,0-0.1c0,0,0,0,0-0.1s0-0.1,0-0.1s0,0,0-0.1v-0.1c0.1-0.1,0-0.1,0-0.2s0-0.5,0-0.5v-0.2
	c0,0-0.1-0.2-0.1-0.3s-0.1-0.1-0.1-0.1s0,0-0.1-0.1s-0.1-0.1-0.1-0.6c0-0.2-0.1-0.8-0.1-0.8c0-0.1,0-0.4,0-0.4s0-0.1,0-0.2
	c0.1-0.1,0-0.3,0-0.3c0-0.1-0.1-0.7-0.1-0.7c0-0.1,0-0.3,0-0.4s0-0.5,0-0.6s0-0.1,0-0.2c-0.1-0.2,0-0.4,0.1-0.5c0-0.1,0-0.4,0-0.5
	s0-0.2,0-0.2s0-0.2,0-0.3c0-0.2-0.1-0.3,0-0.4c0-0.1,0-0.2,0-0.3s-0.1-0.1-0.1-0.1c-0.2-0.2-0.2-0.5-0.1-0.7c0-0.1,0-0.2,0-0.3
	s-0.1-0.4-0.1-0.4s-0.1-0.3-0.1-0.4s-0.1-0.5-0.1-0.5s-0.1-0.3-0.1-0.4c0,0,0-0.1-0.2,0.1c-0.1,0-0.1,0-0.1,0c0-0.1-0.1,0-0.1,0
	c-0.1,0.1-0.1,0.1-0.1,0.3l-0.2,1.6l-0.1,1.2L26.5,43c-0.1,0-0.1,0.3-0.1,0.3s-0.1,0.6-0.1,0.7c-0.1,0.2-0.2,1-0.3,1.1
	c0,0.1-0.1,0.4-0.1,0.4l-0.1,0.6l-0.1,0.6c0,0.1-0.1,0.6-0.1,0.6c-0.1,0.2-0.1,0.6-0.1,0.6l-0.1,0.6c0,0.1-0.1,0.3-0.1,0.4
	s0,0.1-0.1,0.2c-0.2,0.1-0.1,0.1-0.1,0.1c0,0.1,0.1,0.1,0.1,0.1c0.2,0.1,0.3,0.1,0.4,0.3c0,0.1,0,0.1,0,0.1s0.2,0.2,0.2,0.3
	s0,0.1,0,0.1l0.2,0.1c0.1,0.1,0.2,0.2,0.2,0.2c0.1,0.1,0.2,0.1,0.2,0.1c0.1,0,0.3,0.1,0.3,0.1s0.1,0,0,0.1c-0.1,0,0,0,0,0
	s0.1,0,0.2,0c0,0,0.5-0.1,0.6-0.1c0.2-0.1,0.3,0.1,0.3,0.3c0,0.1,0.1,0.1,0.1,0.1l0.1,0.2c0.1,0.1,0.1,0.1,0,0.2l-0.2,0.1v0.1
	l-0.3,0.1c-0.1,0-0.1,0-0.1,0h-0.2l0,0H27l0,0h-0.2l0,0c0,0,0.1,0,0,0c-0.2,0-0.2,0-0.2,0c-0.1,0,0,0-0.1,0h-0.2l0,0c0,0,0,0-0.1,0
	h-0.1c0,0,0.1,0,0,0c-0.1,0.1-0.1,0-0.1,0l0,0c0,0,0,0-0.1,0s-0.1,0-0.1-0.1s0-0.1-0.7-0.1c-0.2,0-0.1,0.1-0.1,0.1h-0.1l0,0
	c0,0-0.1,0-0.2,0s0,0.1,0,0.1c0.1,0,0.1,0.1,0.1,0.1l0,0L25,52c0,0.1,0,0.1,0,0.1c0,0.1,0.1,0.1,0.1,0.1s0.1,0.3,0.1,0.4
	c0,0.1,0,0.1,0,0.1l0,0h0.1v0.2c0,0.1-0.1,0.1-0.1,0.1h-0.1h-0.4c-0.1,0-0.4,0-0.4,0c-0.1-0.1-0.1,0-0.1,0c-0.1,0-0.3,0-0.3,0
	c0-0.1,0,0,0,0h-0.2c-0.1,0-0.1,0-0.1,0c-0.1,0-0.2,0-0.2,0c-0.1,0-0.1,0-0.1,0s0,0-0.1,0s-0.1,0-0.1,0H23h-0.1h-0.1c0,0,0,0-0.1,0
	s-0.1,0-0.1,0c-0.1,0-0.1,0-0.1,0l-0.1-0.1c-0.1,0-0.1-0.1-0.1-0.1s0,0-0.1-0.1s-0.1,0-0.2,0s-0.1,0-0.2,0c-0.1-0.1-0.2-0.1-0.3-0.2
	s0-0.3,0-0.5c0-0.1,0-0.1,0.1-0.2s0-0.1,0-0.1s0-0.1,0-0.2c0,0-0.1-0.1-0.1-0.2s0-0.1,0-0.2L21.4,51c0-0.1,0-0.5,0-0.6
	c0.1-0.1,0-0.4,0-0.5c0,0-0.1-0.6-0.1-0.7c0,0,0-0.3,0-0.4s0-0.8,0-0.8s0-0.3,0-0.4c0-0.3,0-1,0-1.2c0-0.1,0-0.4,0-0.5
	s0.1-0.8,0.1-0.9c0.1-0.5,0.2-2,0.3-2.4c0-0.1,0-0.2,0-0.2c0-0.1,0-0.4,0-0.4s0-0.1,0-0.2c0-0.1,0-0.5,0-0.6s0-0.8,0-0.9
	c0-0.3,0.1-1.3,0.1-1.6c0-0.2,0-0.2,0-0.3c0-0.2,0-0.7,0-0.9c0-0.1,0-0.1,0-0.1v-0.2V37c0.1,0,0-0.2,0-0.2c0-0.1-0.1-0.4-0.1-0.5
	c0-0.2,0-0.2-0.1-0.2c0,0-0.1-0.2-0.1-0.3s-0.1-0.2-0.1-0.3c0-0.2,0-0.3,0.1-0.6c0.1-0.2,0.1-0.1,0.1-0.5c0-0.1,0-1,0-1.1
	c0.1-0.2,0-0.2,0-0.4c0-0.1-0.1-0.2-0.2-0.3s-0.1-0.2-0.1-0.4s0-0.1-0.1-0.2s0-0.1,0-0.7c0-0.1,0-0.5,0-0.6s0-0.6,0-0.7s0-0.6,0-0.7
	c0-0.4,0-0.9,0.1-1.2c0-0.1,0-0.3,0-0.3c0-0.1,0.2-0.4,0.2-0.5c0.2-0.4,0.3-0.5,0.7-0.8l0.2-0.2c0-0.1,0.1-0.1,0.1-0.1l0.1-0.1
	l0.1-0.1l0.2-0.1H23l0.1-0.1h0.1h0.1h0.1c0-0.1,0.1-0.1,0.1-0.1v-0.1l0.1-0.2v-0.1c0-0.1,0-0.1,0.1,0c0,0.1,0.1,0.1,0.1,0.1
	c0.1,0,0.2,0.1,0.2,0.1s0.2-0.2,0.2-0.3c0-0.1,0.1-0.3,0.1-0.4s0-0.2,0-0.3c0-0.1-0.1-0.2-0.1-0.2s-0.1-0.1-0.1-0.2S24,23.9,24,23.8
	s0-0.1,0.1-0.3c0.1-0.1,0-0.3,0-0.3s0-0.2,0-0.3c0.1-0.1,0-0.3,0.1-0.4c0-0.1,0-0.2,0.2-0.4c0.1-0.1,0.3-0.3,0.4-0.3
	s0.2-0.1,0.3-0.1c0.1,0,0.3-0.1,0.4-0.1s0.2,0,0.4,0c0.1,0.1,0.2,0.1,0.3,0.1s0.2,0,0.3,0.1c0.1,0.1,0.2,0.1,0.2,0.2
	c0.1,0,0.1,0,0.2,0.2s0.1,0.1,0.2,0.4c0,0.1,0,0.2,0,0.3s0,0.3,0,0.4c-0.1,0-0.1,0.2-0.1,0.2v0.1c0,0.2,0,0.1,0,0.3
	c0,0.4-0.1,0.8-0.2,1.1c0,0.1-0.2,0.3-0.2,0.3l-0.1,0.2l-0.1,0.1c-0.1,0-0.1,0-0.1,0.1c0,0-0.1,0.3-0.1,0.4c-0.1,0.2-0.1,0.1,0,0.2
	s0.2,0.3,0.2,0.4c0.1,0,0.1,0.1,0.1,0.1l0.1,0.1c0,0,0,0.1,0.1,0.1c0,0.1,0.1,0.2,0.1,0.2s0,0.1,0.1,0.1c0.2,0.1,0.4,0.6,0.4,0.8
	s0,0.3,0.1,0.1c0.1,0,0.2-0.3,0.2-0.3l0.1-0.2l0.1-0.2c0.1-0.2,0.1-0.2,0.3-0.3c0.1-0.1,0.6-0.3,0.6-0.3c0.2,0,0.2,0,0.2-0.1
	s0.1-0.3,0.2-0.4v-0.1c-0.1,0-0.2,0-0.3-0.1c0-0.1-0.2-0.2-0.2-0.3s-0.1-0.2,0-0.3c0.1-0.1-0.2,0-0.3-0.2c0-0.2-0.1-0.3,0-0.5
	s0-0.3,0-0.4c-0.1-0.1-0.1-0.2,0.1-0.3s0.4,0,0.4-0.2s-0.2-0.3,0-0.5c0.1-0.1,0.2-0.2,0.3-0.4c0.1-0.1,0.2-0.3,0.4-0.4
	s0.5-0.2,0.6-0.2c0.2-0.1,0.1-0.1,0.4-0.1c0.2,0,0.2-0.1,0.4-0.1c0.1,0,0.3,0,0.5,0.1c0.1,0,0.3,0.1,0.5,0.4
	c0.1,0.1,0.3,0.3,0.4,0.6s0.2,0.4,0.2,0.6s0.1,0.5,0.1,0.7s0,0.6-0.1,0.7c0,0.2,0,0.1-0.1,0.2s0.1,0.3,0,0.4s-0.2,0.2-0.3,0.3
	c-0.2,0-0.3,0.2-0.5,0.1h-0.1c0,0,0,0,0,0.1c-0.1,0.1-0.2,0.5-0.1,0.5c0.1,0.1,0.3,0.3,0.3,0.3c0,0.1,0,0.1,0.1,0.1
	c0.1,0.1,0.2,0.1,0.3,0.2c0,0,0.1,0.1,0.2,0.1c0,0,0.1,0.1,0.2,0.1s0.1,0,0.2,0c0.1-0.1,0.2-0.1,0.2-0.1s0.1,0,0-0.1s0,0-0.1-0.1
	c0,0-0.2,0.1-0.1-0.1c0-0.1,0-0.3,0.1-0.4c0.1-0.2,0.1-0.4,0.1-0.5s0-0.5,0-0.6s0-0.6,0-0.7C33,25,33,24.8,33,24.3
	c0.1-0.2,0.1-0.3,0.2-0.4c0.2-0.1,0.1-0.2,0.4-0.4c0.1-0.1,0.2-0.2,0.4-0.2c0,0,0.1-0.1,0.2-0.1c0.2,0,0.2,0,0.3,0s0.1,0,0.3,0.1
	c0.1,0.1,0.1,0.1,0.2,0.1s0.3,0.1,0.4,0.2c0.1,0.1,0.2,0.1,0.3,0.4c0.1,0.2,0.1,0.5,0.1,0.6c0,0.2,0,0.4,0,0.5s-0.1,0.9-0.1,1
	s-0.1,0.7-0.1,0.8s0,0.4,0.1,0.5s0.1,0.1,0.1,0.1c0.1,0,0,0-0.1-0.1s-0.1-0.1-0.1-0.1s0,0,0,0.1s-0.1-0.1-0.1-0.1c0-0.1,0,0,0,0.1
	s0-0.1-0.1-0.2s0,0.2,0,0.3s-0.1,0-0.1,0s0,0,0,0.1s-0.1-0.1-0.1-0.1c0-0.1,0,0,0,0c0,0.1-0.1-0.1-0.1-0.1c-0.1,0,0,0.1,0,0.1
	s0.1,0.1,0.1,0.2c0.1,0.4,0.1,0.4,0.2,0.4c0.1,0.1,0.5,0.3,0.6,0.3c0.1,0.1,0.1,0.1,0.2,0s0.1-0.1,0.1-0.2c0-0.2,0.2-0.5,0.3-0.6
	c0-0.1,0.2-0.2,0.2-0.2c0.1,0,0.2-0.1,0.3-0.1c0,0,0.1,0,0.2-0.1s0.3-0.2,0.4-0.2c0.1,0,0.2-0.1,0.3-0.1l0.5-0.2
	c0.1,0,0.3-0.1,0.3-0.1l0.2-0.1c0.1,0,0,0,0.1-0.1c0-0.1,0.2-0.2,0.2-0.3c0.1-0.1,0-0.1,0.1-0.2c0.1,0,0.1,0,0.1-0.1s0-0.4,0-0.5
	s-0.1-0.1-0.1-0.1c0-0.1-0.1-0.1-0.1-0.2c-0.1,0-0.2-0.3-0.2-0.4s-0.1-0.3,0-0.4c0.1,0,0.1-0.1,0.2,0c0.1,0,0-0.1,0-0.2s0-0.4,0-0.5
	s0-0.1,0-0.2c0.1-0.1,0-0.1,0.1-0.2s0-0.2,0.1-0.2c0.1-0.1,0.1,0,0.1-0.1s0-0.2,0.1-0.2s0-0.2,0.1-0.2s0.2-0.1,0.2-0.1
	c0-0.1,0-0.1,0.1-0.1h0.1c0.1,0,0.1,0,0.2,0s0.2,0,0.2,0s0,0,0.1,0s0.1,0,0.2,0c0.1,0.1,0.1,0.1,0.2,0.1c0.1,0.1,0.2,0.1,0.2,0.1
	c0,0.1,0,0.1,0.1,0.1s0.2,0,0.2,0.1c0,0,0,0.1,0.1,0.1s0.2,0.1,0.2,0.2s0,0.1,0.1,0.2s0.1,0.2,0.1,0.3c0,0.1,0,0.1,0,0.3
	c-0.1,0-0.1,0.1-0.1,0.2c0,0,0,0.1,0,0.2c-0.1,0.1-0.1,0.2-0.1,0.2H42c0,0,0.1,0.1,0.1,0.2L42,24.7c0,0.1-0.1,0.3-0.1,0.4
	s0,0.2-0.1,0.2s-0.1,0-0.1,0.1c0,0.2,0,0.4-0.2,0.5c0,0-0.1,0-0.1,0.2s0,0.2,0,0.2c0.1,0.1,0.2,0.3,0.2,0.5c0,0.1,0,0.1,0.1,0.1
	s0.2,0.1,0.2,0.1H42c0.1,0,0.2,0.1,0.2,0.1s0.3,0.2,0.4,0.2c0.1,0,0.3,0.1,0.3,0.1c0.1,0,0.2,0.1,0.2,0.1l0.2,0.1
	c0,0.1,0.1,0.1,0.1,0.1c0.1,0,0.2,0.1,0.2,0.1c0.1,0.1,0.1,0.1,0.2,0.1s0.2-0.1,0.3-0.1s0.1-0.1,0.1-0.2c0,0,0-0.3,0-0.4v-0.1
	c0,0,0,0.1-0.1,0S44,26.9,44,26.9c-0.1-0.1-0.1-0.2-0.1-0.3s0-0.3,0-0.3s0-0.2,0.1-0.2V26c0,0,0-0.2,0-0.3c0.1-0.1,0.1-0.2,0.1-0.3
	c0,0,0.1-0.2,0.1-0.3s0.1-0.1,0.1-0.2c0,0-0.1-0.1-0.1-0.2c-0.1-0.2-0.1-0.3,0-0.4c0-0.1,0-0.2,0.1-0.3s0.1-0.2,0.2-0.2
	c0.1,0,0.2,0.1,0.3,0c0,0,0,0,0-0.1c0,0,0.1,0,0.2,0s0.1,0,0.2,0s0.2,0,0.3,0.1c0,0,0.1,0,0.2,0s0.1,0,0.2,0.1s0.1,0.2,0.2,0.2
	c0.1,0,0.2,0.1,0.2,0.2s0.2,0.1,0.2,0.2s0,0.2,0,0.3c-0.1,0.1-0.1,0.2-0.1,0.3c0.1,0.1,0.1,0.2,0.1,0.2c0,0.1,0.1,0.1,0.1,0.3
	c0,0.1,0,0.3,0,0.4c0,0,0,0.2,0,0.3s0,0.1,0,0.2s0.1,0,0.1,0.2c-0.1,0-0.1,0.2-0.1,0.2c0,0.1,0,0.2-0.1,0.3c0,0,0,0.2-0.1,0.2
	C46.4,27.4,46.4,27.5,46.3,27.4L46.3,27.4z M47.1,33.6C47,33.7,47,33.7,47.1,33.6c0.2,0.1,0.1,0.3,0.1,0.2c-0.1,0.1,0,0.1,0,0.1
	c0.1,0,0.1,0.1,0,0.2l0,0c0.1,0,0.1,0,0.2,0c0,0.1,0,0,0,0c0-0.1,0.1-0.1,0.1-0.1v-0.1c0,0,0,0-0.1-0.1c0,0-0.1,0-0.1-0.1
	c-0.1-0.1,0-0.3,0.1-0.2c0.1,0,0.1,0,0-0.1c0,0-0.1-0.1,0-0.1c0,0,0-0.1-0.1-0.1c0,0-0.1-0.3-0.2-0.3C47,32.6,47,32.6,47,33
	C47.1,33.1,47.1,33.5,47.1,33.6z M39.9,41.6C39.9,41.5,39.8,41.5,39.9,41.6c-0.2,0.2-0.2,0.1-0.1,0.2c0,0.1,0,0.2,0,0.3
	s-0.2,0.8-0.2,0.9c0,0.1,0,0.1,0,0.1s-0.1,0.3-0.1,0.4c0,0.1,0,0.2,0,0.3s0,0.3,0,0.3c0,0.1,0,0.8,0,0.9s0,0.2,0,0.3V46
	c0,0,0,0.1,0,0.2s0,0.2,0,0.3l-0.1,0.4v0.4c0,0,0.1,0.6,0.1,0.7v0.5c0,0.1,0.1,0,0.1-0.1c0.1-0.2,0.1-0.3,0.1-0.4
	c0,0-0.1-0.6-0.1-0.7c0-0.2-0.1-0.5,0-0.6c0,0,0.1-0.4,0.1-0.5s0-0.3,0-0.4v-0.3v-0.3v-0.3c0-0.1,0-0.2,0-0.2s0-0.2,0-0.3
	s0-0.4,0.1-0.4c0.1-0.1,0-0.5,0-0.6c0,0,0-0.5,0-0.6c0,0,0-0.9,0-1S39.9,41.7,39.9,41.6z M30.5,41.6C30.5,41.7,30.5,41.7,30.5,41.6
	c0,0.1,0,0.3,0,0.4c0,0.2,0,0.8,0,1c0,0,0,0.3,0,0.4s0,0.2,0,0.3c0.1,0.1,0.1,0.5,0.1,0.5c0,0.2,0.1,0.2,0,0.3c0,0-0.2,0.6-0.2,0.8
	c-0.1,0.2-0.1,0.5-0.1,0.5s0,0.3,0,0.4c0,0.1,0,0.5,0,0.6s0,0.1,0,0.1V47c0,0,0,0.1,0,0.2s0,0.2,0,0.2v0.7c0,0.1,0,0.1,0,0.1v0.1
	v0.2v0.2c0,0-0.1,0.2-0.1,0.3c-0.1,0.1,0,0.2,0,0.2s0,0.1,0.1,0.1c0,0,0.1,0.1,0.1,0.2c0,0,0,0.1,0.1,0.2c0,0.1,0,0.1,0.1-0.1
	c0-0.1,0.1-0.3,0.1-0.3l0.1-0.2c0,0,0-0.3,0-0.4s0-0.1,0-0.1c0-0.1,0-0.1,0-0.1s0-0.3,0-0.4c0-0.1,0-0.1,0-0.1s-0.1-0.1-0.2-0.1
	c-0.1-0.1-0.1-0.1-0.1-0.3c0,0,0.1-0.6,0.1-0.8s0-0.4,0-0.5s0-0.2,0-0.2s0-0.4,0-0.5s0.1-0.5,0.1-0.6v-0.1v-0.1v-0.4
	c0-0.1,0-0.1,0-0.2c0,0,0-0.2,0-0.3c0-0.2,0.1-0.2,0.1-0.4c0.1-0.2,0-0.1,0-0.2l-0.1-0.1c-0.1,0-0.1-0.2,0-0.3c0-0.1,0-0.2,0-0.3
	s0-0.3,0-0.3V42c0-0.1,0-0.1,0.1-0.2c0.1,0,0-0.1,0-0.2s-0.1-0.3-0.1-0.4v-0.3c0,0-0.1-0.7-0.1-0.8c0-0.4-0.1-0.2-0.1,0.1
	C30.5,40.7,30.4,41.6,30.5,41.6z M32.6,46.8c0,0.1-0.1,1.4-0.3,1.5c0,0.1-0.1,0.2-0.2,0.2s-0.1-0.1-0.1,0s0,0.1,0,0.2c0,0,0,0,0,0.1
	c0,0,0,0.2,0,0.3s0.1,0.2,0.1,0.3s0.2,0.3,0.2,0.4s0.2,0.3,0.2,0.4c0.1,0.2,0.1,0.2,0.2,0c0.1-0.1,0.2-0.2,0.2-0.4s0.1-0.8,0.1-1
	c0,0,0-0.5,0-0.7s0-0.2,0-0.3s-0.1-0.3-0.1-0.4c-0.1,0-0.2-0.5-0.2-0.6C32.6,46.2,32.7,46.3,32.6,46.8z M39.3,49.5
	C39.4,49.5,39.3,49.5,39.3,49.5c0.1,0.2,0.1,0.2,0,0.2c0,0,0,0,0-0.1S39.3,49.4,39.3,49.5z M26.5,49.9c0.1,0,0.1,0,0.1,0.1l0.1,0.1
	c0,0,0,0-0.1,0C26.5,50,26.4,50,26.5,49.9C26.5,49.9,26.5,49.8,26.5,49.9z M53.6,30.3c0,0.3-0.1,0.8-0.2,1.1c0,0-0.2,0.6-0.2,0.7
	c-0.1,0.3-0.2,0.6-0.4,0.8c0,0-0.1,0.1-0.2,0.2c0,0.1,0.1,0.1,0.2,0.1c0,0,0.2,0.2,0.3,0.2s0.1,0,0.2,0h0.1l0.1-0.1
	c0,0,0.2-0.3,0.3-0.3l0.2-0.3l0.2-0.2c0,0,0.3-0.4,0.3-0.5s0.2-0.3,0.2-0.3l0.1-0.3c0-0.1,0-0.1-0.1-0.1c0,0-0.1,0,0-0.1l0.1-0.2
	c0-0.1,0-0.2,0.1-0.2l0.1-0.2c0-0.1,0-0.1,0.2-0.1c0.1,0,0,0,0-0.1h-0.1c-0.1,0-0.2,0-0.2,0c-0.1,0-0.2-0.1-0.2-0.2
	c-0.3-0.2-0.4-0.4-0.5-0.6c0,0-0.1-0.2-0.2-0.2c-0.1-0.1,0-0.1-0.1,0.6C53.7,29.9,53.6,30.2,53.6,30.3z M46.7,30.9v-0.2
	C46.6,30.8,46.7,30.8,46.7,30.9z"/>
<path fill="#F68D1E" d="M47.2,24.4C47.2,24.3,47.2,24.4,47.2,24.4c0-0.1,0.1-0.2-0.1-0.2c0.1-0.1,0.2-0.2,0.2-0.3s0-0.1,0-0.1v-0.1
	c0,0,0,0-0.1-0.1c0-0.1-0.1-0.1-0.1-0.2s0-0.1,0-0.2c0-0.2-0.1-0.5-0.1-0.5c-0.1-0.1-0.1-0.1,0-0.1s0.3-0.1,0.3-0.2c0,0,0-0.1,0-0.2
	S47.2,22,47.2,22c0-0.1-0.1-0.1-0.1-0.2s-0.2-0.1-0.2-0.2s-0.1-0.2-0.1-0.3c-0.1-0.1-0.2-0.1-0.2-0.2c-0.1-0.1-0.1-0.1-0.2-0.2
	c-0.2-0.1-0.3-0.2-0.5-0.2c-0.1,0-0.1,0-0.2-0.1c0-0.1-0.1-0.1-0.1-0.1h-0.1c0-0.1,0-0.1-0.1-0.1s-0.1,0-0.1,0c-0.1,0-0.1,0-0.1,0
	h-0.1H45c0,0,0,0-0.1,0c0,0-0.1,0.1-0.2,0.1s-0.1,0-0.2,0s-0.2,0.1-0.2,0.1c-0.1,0-0.3,0-0.4,0.1c0,0,0,0.1-0.1,0.1s-0.1,0-0.2,0.1
	s-0.1,0.2-0.1,0.2s0,0.1-0.1,0.1s-0.1,0.2-0.1,0.2c-0.1,0.1-0.2,0.2-0.2,0.3S43,22.2,43,22.3s0,0.3,0,0.4l0.1,0.3
	c0,0.1,0.2,0.5,0.2,0.5c0,0.1,0,0,0,0l0.1,0.2c0,0.1-0.1-0.1,0,0c0,0.1,0,0.2,0,0.1c-0.1,0,0.1,0.1,0.1,0.1c0.1,0,0.1,0,0.1,0
	c0.1,0,0,0.2,0,0.2c-0.1,0,0,0-0.1,0s-0.2,0.1-0.3,0.1c-0.1,0.1-0.3,0.3-0.3,0.3l-0.1,0.2c0,0,0,0.1-0.1,0.1l-0.4,0.1
	c0,0.1-0.2,0.1-0.3,0.1s-0.4,0.1-0.5,0.1c-0.2,0-0.7,0.2-0.8,0.2c-0.1,0.1-0.3,0.2-0.4,0.2s-0.2,0.2-0.3,0.3
	c-0.1,0.2-0.5,0.7-0.6,0.8s-0.5,0.6-0.6,0.8c-0.1,0.2-0.4,0.6-0.4,0.7c-0.1,0-0.4,0.6-0.4,0.7s-0.5,0.9-0.5,1s-0.2,0.4-0.2,0.4
	c-0.1,0-0.1,0,0,0.1s0.5,0.3,0.5,0.3s0,0,0,0.1c-0.1,0.1-0.1,0.4-0.1,0.5c0,0.2,0,0.8,0,1c0,0.1,0.1,0.9,0.1,1
	c0.1,0.3,0.4,1,0.4,1.1s0.2,0.5,0.2,0.6s0.1,0.3,0.1,0.4s0.1,0.3,0.1,0.3c0.1,0,0.1,0.1,0.1,0.2s0.1,0.1,0.1,0.2s0.1,0.3,0.1,0.3
	c0,0.1,0.1,0.3,0.1,0.4s-0.1,0.4-0.1,0.6c0,0.2,0,0.4,0,0.5s-0.1,0.2-0.1,0.6c-0.1,0.2-0.1,1.4-0.1,1.6s0.1,1.3,0.1,1.5s0,1.3,0,1.5
	s-0.1,1.9-0.1,2.1c0,0.1,0,1.4,0,1.5c0,0.2,0,1.4,0,1.6c-0.1,0.2-0.1,1.4-0.1,1.6s-0.1,0.6-0.1,0.7c0,0.1-0.1,0.2-0.1,0.3
	s0,0.3,0.1,0.5s0.2,0.7,0.2,0.7c0,0.1,0,0.1,0,0.1c0,0.1-0.1,0.2-0.1,0.2l-0.2,0.2c0,0.1,0,0.1,0,0.1c-0.1,0-0.3,0.2-0.3,0.2
	c0,0.1-0.1,0.1-0.1,0.2v0.1c0,0.1,0,0.1,0,0.1c0,0.1,0,0.1,0,0.1c0,0.1,0,0.1,0,0.1c-0.1,0-0.1,0-0.1,0c0,0.1,0,0.3,0,0.3
	c0,0.1,0.1,0.1,0.1,0.1c0.1,0,0.2,0,0.2,0c0.1,0,0.1,0,0.1,0h0.2h0.1h0.2l0,0H39h0.1h0.2l0,0h0.1h0.1h0.2h0.1h0.1l0,0l0.1-0.1v-0.2
	c0,0,0-0.1,0.1-0.1s0.1-0.1,0.2-0.1s0.3,0,0.3,0s0.1,0,0.2,0s0.1,0,0.1,0H41c0,0,0,0,0.1,0c0.1-0.1,0.1-0.1,0.1-0.1l0,0v-0.5l0,0
	c0,0,0,0,0-0.1c0,0,0.1-0.1,0.1-0.2c0,0,0.1-0.1,0.1-0.2s0-0.2,0-0.3s0-0.6,0-0.7c-0.1-0.1-0.3-1.3-0.3-1.4c0,0,0-0.1,0.1-0.3
	c0.1-0.1,0.2-0.5,0.2-0.7s0.2-1.4,0.2-1.5c0-0.2,0-0.5,0-0.6s0.2-0.4,0.2-0.5c0,0,0.2-0.4,0.2-0.5s0.1-0.5,0.1-0.7s0-0.6,0-0.8
	s0.1-0.8,0.1-0.9c0-0.1,0.3-1.4,0.3-1.5s0-0.2,0-0.2s0.2-1,0.3-1.1c0.1-0.2,0.1-0.1,0.1,0s0.1,0.9,0.1,1s0.2,1.4,0.2,1.5
	s0.1,1,0.1,1.1s0,0.8,0,1c0,0.1,0.1,1.4,0.1,1.5c0,0.2,0.1,0.7,0.1,0.8s0.2,0.6,0.2,0.7c0,0-0.2,0.6-0.2,0.7s-0.3,0.9-0.3,1
	S43,51.1,43,51.2s0.2,0.6,0.3,0.7c0.2,0.1,0.3,0.3,0.3,0.3c0.1,0,0.1,0.2,0.1,0.2s-0.1,0-0.1,0.1s0,0.5,0,0.5c0,0.1,0,0.1,0,0.1
	c0.1,0,0.1,0,0.1,0c0.1,0,0.1,0,0.1,0h0.1c0,0.1,0,0.1,0.1,0.1s0.2,0,0.2,0v0.1c0,0.1,0,0.4,0,0.4c0,0.1,0,0.1,0,0.1c0-0.1,0,0,0,0
	c0.1,0,0.1,0,0.1,0h0.1h0.1c0.1,0,0,0.1,0.1,0.1s0.1,0,0.1,0c0.1,0,0.1,0,0.1,0h0.1H45h0.2h0.1h0.2h0.1h0.2h0.1H46
	c0-0.1,0.1-0.1,0.1-0.1c0-0.1,0.1,0,0.1-0.1s0-0.1,0-0.1c0-0.1,0-0.1,0-0.1v-0.2l-0.1-0.1c0,0,0,0,0-0.1s0-0.2-0.1-0.3
	c-0.1,0-0.1-0.1-0.1-0.1l-0.3-0.3c-0.1-0.1-0.1,0,0-0.1c0-0.1,0.1-0.2,0.1-0.2c0.1-0.1,0.1-0.1,0.1-0.1c0.1,0,0.1-0.2,0.1-0.3
	c0.1,0,0.1-0.2,0-0.3c-0.1,0-0.3-0.4-0.3-0.5s0.1-0.4,0.1-0.5c0,0,0.4-1.1,0.4-1.2c0.1-0.2,0.4-1.1,0.4-1.2c0.1-0.3,0.1-1,0.1-1.2
	s-0.1-1-0.1-1.2c0-0.1,0.1-1.2,0.1-1.4s0-1,0-1.2s0.2-1.5,0.2-1.7s0.1-1.2,0.1-1.3v-0.1l0.1-0.1c0,0,0.1-0.1,0.2-0.1
	c0.3-0.1,0.6-0.4,0.5-0.3c0.1-0.1,0.3-0.3,0.3-0.3c0.1,0,0.1-0.2,0.1,0s0,0.9,0,1s0,0.5,0,0.6c0,0.2-0.1,1.3-0.1,1.4s-0.1,1-0.1,1.1
	c0,0-0.1,0.3-0.1,0.4s0,0.2,0,0.3c-0.1,0.1-0.1,0.1,0,0.1s0.3,0.1,0.3,0.1l0,0c0,0.1,0,0.8,0,0.9s0.1,0.5,0.1,0.6
	c0.1,0.2,0.1,0.2,0.1,0.3c0.1,0,0,0.1,0,0.1s0,0.1,0,0.2c0,0.1,0,0.5,0,0.5c0,0.1,0.2,0.7,0.2,0.8c0.1,0.1,0.2,0.8,0.2,0.9
	s0,0.5,0,0.6c-0.1,0.1,0.1,0.8,0.1,0.9c0,0.2,0.3,0.8,0.3,0.9s0,0.2,0,0.3s0,0.2,0,0.3s0.1,0.3,0.1,0.4c0,0.1,0,0.2,0.1,0.2
	s0.1,0.1,0.1,0.1v0.2c0,0.1-0.2,0.1-0.3,0.2c-0.1,0-0.1,0.1-0.1,0.2s0,0.1,0.1,0.1s0.1-0.1,0.1,0c-0.1,0.1-0.2,0.4-0.2,0.4
	c0,0.1-0.1,0.1-0.1,0.2s0,0.1,0,0.1s0,0.2,0.1,0.3c0.2,0.1,0.4,0.1,0.7,0.1s0.5,0,0.6,0s0.3-0.1,0.3-0.1c0.1,0,0.1-0.1,0.1-0.2
	s0-0.1,0-0.1c0.1,0.1,0.1,0,0.1,0.1v0.2c0,0.1,0.2,0.1,0.4,0.1c0.3,0,0.6,0,0.8,0s0.3,0,0.4-0.1c0.1,0,0.1-0.2,0.1-0.3
	c0.1-0.1,0-0.2,0-0.2v-0.1l0,0c0.1,0.1,0.1,0,0.1,0.1c0.1,0.1,0.1,0.2,0.1,0.2s0,0,0,0.1c0.1,0.1,0.1,0.2,0.1,0.2l0,0
	c-0.1-0.2-0.1-0.2-0.1-0.3s0-0.1,0-0.1s0,0,0-0.1c-0.1-0.1-0.2-0.2-0.2-0.2s0,0,0-0.1s0-0.5,0-0.5c0-0.1-0.1-0.1,0-0.1
	c0,0,0-0.1,0.1-0.1c0,0,0.1,0,0.1-0.1c0.1,0,0.2-0.4,0.2-0.6s0.2-1,0.2-1.2s0-0.8,0-1s0-0.3,0-0.4c0-0.1,0-0.6,0-0.6
	c0-0.1-0.1-0.1,0-0.2c0,0,0.1-0.1,0.1-0.3s0-0.9,0-0.9c0-0.1-0.1-0.1,0-0.1c0.1-0.1,0.1-0.2,0.1-0.2v-0.8c-0.1,0-0.1-0.1-0.1-0.2
	s0-1.1,0-1.1c0-0.1,0-0.1,0.1-0.1c0.1-0.1,0.2-0.1,0.2-0.1c0-0.1,0-0.1,0.1-0.1c0-0.1,0.1-0.1,0.1-0.2c0,0,0-0.4-0.1-0.5
	s-0.2-0.6-0.2-0.7c0-0.1-0.2-0.8-0.2-0.9s-0.1-0.3-0.1-0.4c0-0.1-0.2-0.8-0.2-0.8c0-0.1,0-0.2,0-0.2c0.1-0.1,0-0.4,0-0.5
	c-0.1-0.1-0.1-0.1-0.1-0.2c0.1-0.1,0.1-0.1,0.1-0.1c0.1,0,0.3,0.1,0.4,0.1c0.2,0,0.2,0,0.2,0s0,0.2,0,0.3s0,0.4,0,0.5
	s0.1,1.2,0.1,1.3s0.1,1.1,0.1,1.2s0.1,0.8,0.1,0.9c0,0.1,0.1,0.7,0.1,0.8c0,0,0,0.1,0,0.2s0.1,0.9,0.1,1c0,0.2,0,0.3,0,0.4
	c0,0,0,0.5,0,0.6c0,0.2,0,1.2,0,1.3c0,0.2,0,1,0,1.1s0,0.4,0,0.6c0,0.2,0.1,0.9,0.1,1S54,51.8,54,51.8c0,0.1,0,0.1,0.1,0.1
	s0.1,0,0.1,0.1c0,0,0.1,0.2,0.2,0.2c0.1,0.1,0.4,0.1,0.6,0.1c0.1,0,0.1,0,0.1,0.1l-0.2,0.4v0.1c0,0,0,0.1-0.1,0.2
	c0,0-0.2,0.1-0.2,0.2s0,0.1,0,0.2c0.1,0.1,0,0.1,0,0.1c0,0.1,0,0.4,0,0.4s0.1,0.1,0.2,0.1c0.3,0.1,1,0.1,1.2,0s0.3-0.2,0.3-0.2
	c0-0.1,0-0.4,0-0.4c0-0.1,0-0.1,0-0.1s0,0.1,0.1,0s0.2-0.1,0.2-0.1s0-0.1,0-0.2v-0.4c0-0.1-0.1-0.1-0.1-0.1v-0.1
	c0,0,0.1-0.1,0.1-0.2c0,0,0-0.1-0.1-0.2c0-0.1,0,0,0-0.1s0-0.1,0-0.2s0.1-0.5,0.1-0.6c0-0.2,0.1-0.4,0.1-0.5s0-0.5,0-0.7
	s0-0.6,0-0.7s0-0.4,0-0.5s0.1-0.7,0.1-0.8c0-0.2,0-1,0-1.1s0.1-0.3,0.1-0.4c0-0.1-0.1-0.7-0.1-0.8s0-0.1,0-0.2S57,45,57,44.9
	s0-0.3,0-0.5c-0.1-0.1,0-0.5,0-0.6s0.1-0.4,0.1-0.6c0-0.2,0.1-1.3,0.1-1.5s0.1-0.8,0.1-1c0.1-0.4,0.1-0.3,0.1-0.1s0.1,0.7,0.1,0.9
	s0.2,1.8,0.2,1.9s0.1,0.8,0.1,0.9c0,0.3,0.2,0.7,0.2,0.8s0.2,1.2,0.2,1.3s0.1,1,0.1,1.1c0,0.2,0.1,1.2,0.1,1.3
	c0.1,0.1,0.2,1.3,0.2,1.5c0.1,0.1,0.2,0.7,0.2,0.9c0.1,0.2,0.1,0.8,0.1,0.8c0,0.1,0,0.1,0,0.2c0,0.3,0.1,0.3,0.1,0.3l0.2,0.2
	c0,0.1,0,0.1,0,0.2c-0.1,0.1-0.1,0.2-0.1,0.3c0,0,0,0,0.1,0.1s0.3,0.2,0.3,0.2s0,0,0.1,0c0,0,0.1,0,0.1,0.1v0.2
	c0,0.1,0.4,0.4,0.8,0.4c0.8,0.1,0.9,0,0.9-0.1s0-0.2,0-0.3v-0.1c0,0,0,0-0.1-0.3c-0.1-0.1-0.2-0.2-0.2-0.2c-0.1,0-0.2-0.2-0.2-0.2
	c0-0.1,0-0.1,0-0.1l-0.1-0.1l-0.1-0.2c0-0.1,0,0,0.1-0.1s0-0.4,0-0.5s-0.1-0.4-0.1-0.6s0-0.6,0-0.7c0-0.1,0-0.1,0-0.2
	s0.1-0.5,0.1-0.6s0-0.9,0-1.1s0-0.5,0-0.6s0-0.2,0-0.3s0-0.8,0-0.9c0-0.1,0-0.2,0-0.2c0-0.1,0.2-0.7,0.2-0.9c0-0.1,0-0.6,0-0.7
	c0.1-0.1,0.3-1.1,0.3-1.2s0.1-0.3,0.1-0.5c0-0.1-0.1-1.2-0.1-1.4c-0.1-0.2-0.2-1-0.2-1.1s0-0.4,0-0.4l0.1-0.1l0.1-0.1
	c0.1,0,0.1-0.2,0.1-0.2c0-0.1,0-0.2,0-0.2c0-0.1,0-0.2,0-0.3s0-0.1,0-0.2s0-0.2,0-0.3s0-0.4,0-0.5c0.1-0.1,0.1-0.3,0.1-0.3l0,0
	c0,0,0.1-0.2,0-0.4c0-0.1,0,0,0-0.1c0,0,0-0.2,0-0.4s0.1-0.6,0.1-0.7c0-0.1,0.2-0.9,0.2-0.9h0.1h0.2c0,0,0.1-0.2,0.1-0.3
	s0-0.3,0-0.4s0.1-0.2,0-0.2S62,34.9,62,34.8s0-0.2,0-0.4s0-0.6,0-0.7c0.1-0.1,0-0.7,0-0.8s-0.1-0.7-0.1-0.8s-0.1-0.6-0.1-0.7
	s-0.1-1-0.2-1.2c-0.1-0.3-0.4-1-0.4-1.1c-0.1-0.1-0.2-0.4-0.3-0.5c-0.1,0-0.2-0.1-0.2-0.1c0-0.1-0.2-0.1-0.3-0.2
	c-0.1,0-0.8-0.3-0.9-0.3s0-0.1-0.1-0.2c0,0,0,0,0-0.1s0-0.2-0.1-0.3c-0.1-0.1-0.3-0.2-0.4-0.3c0-0.1,0-0.1,0-0.1s0,0,0-0.1
	s0-0.2,0-0.2c-0.1-0.1-0.1-0.1,0-0.1c0,0,0.2,0,0.2-0.1s0-0.1,0-0.1l0,0l0,0l0,0c0,0,0,0-0.1,0l0,0c0.1,0,0.1,0,0.1,0
	c-0.1,0-0.1,0-0.2-0.1S58.8,26,58.8,26c0-0.1,0-0.1,0-0.2s0,0,0,0s0,0,0.1,0s0-0.1,0.1-0.1v-0.1l0,0l0,0l0,0c-0.1,0-0.1-0.1-0.1-0.1
	l0,0c-0.1-0.1-0.1-0.1-0.1-0.1l0,0l0,0l0,0c0-0.1,0-0.1,0-0.1l0,0v-0.1l-0.1-0.1l0,0l-0.2-0.2c0,0-0.2-0.2-0.3-0.2s-0.1,0-0.1-0.1
	s0,0,0-0.1s-0.4-0.4-0.4-0.4c-0.1,0-0.1,0-0.1,0c-0.1,0-0.1,0-0.1,0c-0.1,0-0.2-0.1-0.3-0.2c-0.1,0-0.4-0.2-0.4-0.2
	c-0.1,0-0.3-0.1-0.4-0.1s-0.5,0-0.9,0.2s-0.9,0.5-1,0.6s-0.3,0.4-0.3,0.4s-0.1,0.1-0.1,0.2c0,0-0.1,0.3-0.1,0.4
	c-0.1,0.1-0.1,0.3-0.1,0.4c0.1,0,0.1,0.1,0.1,0.1c0.1,0.1,0.1,0.1,0.1,0.1c0,0.1,0.2,0.3,0.2,0.4s0.1,0.2,0.1,0.2
	c0.1,0,0.2,0,0.2,0.1s0,0.1,0,0.1c0,0.1,0,0.1,0,0.1s-0.1,0,0,0s0.1,0,0.1,0s0,0,0,0.1s0,0.1,0,0.2s0,0.3,0,0.3s0,0.1,0.1,0.1h0.1
	H55l0.1,0.1l0.1,0.1h0.1c0-0.1,0,0,0,0l0,0l0,0v0.1l0.1,0.1h0.1c0,0.1,0,0.1,0,0.1h-0.1l-0.2,0.3c-0.1,0.1-0.1,0.1-0.1,0.1
	c-0.1,0,0,0,0,0H55c0,0-0.2,0.1-0.3,0.1c-0.1,0.1-0.3,0.1-0.4,0.2c-0.1,0-0.2,0.2-0.3,0.3c0,0.1,0,0.2-0.1,0.2
	c-0.1,0.1-0.1,0.2-0.1,0.3s-0.1,0.3-0.1,0.4c-0.1,0.1-0.2,0.5-0.2,0.7s-0.1,0.3-0.1,0.4c-0.1,0-0.2,0.4-0.2,0.6
	c-0.1,0.3-0.1,0.5,0,0.8c0,0.1,0,0.2,0,0.3s-0.1,0.7-0.1,0.8s0,0.5,0,0.5s0.1,0,0,0s-0.4-0.2-0.5-0.2c0,0-0.2-0.1-0.3-0.1
	s-0.1,0-0.1,0s-0.1,0-0.1-0.1c-0.1,0-0.1,0-0.1-0.1v-0.1c-0.1-0.1-0.1-0.1-0.1-0.1c0-0.1,0-0.2,0-0.2l-0.1-0.1c0,0,0,0,0-0.1
	s0.1-0.4,0.1-0.5v-0.1c0,0,0.1-0.1,0.1-0.2c0-0.1,0-0.1,0-0.1h0.1c0,0,0.2,0,0.2-0.1c0-0.1,0.1-0.2,0.1-0.2s0-0.2,0-0.3
	c0,0,0.1-0.2,0-0.2s-0.1,0.1-0.1,0c0-0.2,0-0.2,0-0.4c0,0,0-0.2,0-0.3s0-0.1,0-0.2l-0.1-0.2c-0.1,0-0.2-0.3-0.2-0.3
	c0-0.1,0-0.1,0-0.1l0,0l0,0l0,0l0,0l0,0c-0.1,0-0.1-0.1-0.1-0.1c0-0.1-0.1-0.1-0.1-0.1c-0.1-0.1,0-0.1-0.1-0.1s-0.1-0.1-0.2-0.1
	c-0.1,0-0.1-0.1-0.2-0.1h-0.1c-0.1,0-0.1,0-0.1,0H51c0,0,0,0-0.1,0c0,0,0,0-0.1,0s-0.1,0-0.2,0c0,0-0.1,0-0.2,0
	c0,0.1-0.1,0.1-0.1,0.1h-0.1c0,0.1,0,0.1-0.1,0.1l-0.2,0.1c0,0-0.1,0.1-0.2,0.2c-0.1,0.2-0.2,0.4-0.2,0.4c0,0.1,0,0.1,0,0.1l0,0l0,0
	l0,0c0,0-0.1,0,0,0s0,0,0,0.1s0,0.3,0,0.4s0.1,0.4,0.1,0.5s0.1,0.1,0,0.1s-0.1,0-0.1,0s0,0.1,0,0.2s0.1,0.2,0.1,0.3
	c0,0.1,0.1,0.2,0.1,0.2c0.1,0,0.1,0.1,0.2,0.1s0.1,0,0.1,0s0,0,0,0.1s0.1,0.2,0.1,0.2c0,0.1,0.1,0.4,0.1,0.5s0,0.1,0,0.1
	c0,0.1,0.1,0.1,0,0.1c0,0.1-0.1,0.1-0.2,0.1c0,0-0.1,0-0.1,0.1c-0.1,0-0.1,0.1-0.1,0.1c0,0.1,0,0.1,0,0.2c0.1,0.1,0,0.1,0,0.1v0.1
	c0,0,0,0-0.1,0S49.5,34,49.4,34c-0.1,0.1-0.5,0.2-0.5,0.2c-0.1,0-0.1,0-0.2,0c-0.1,0.1-0.1,0.1-0.1,0s0.1-0.7,0.1-0.8s0-0.4,0-0.5
	s0-0.1,0.1-0.1c0,0,0.6-0.2,0.7-0.2c0,0,0.1-0.1,0.1-0.2c-0.1-0.2-0.2-0.7-0.2-0.8c0-0.2-0.3-1.4-0.3-1.5s-0.3-1.3-0.3-1.4
	s-0.3-1.1-0.3-1.2c-0.1-0.1-0.2-0.3-0.2-0.4c-0.1,0-0.3-0.2-0.4-0.3s-0.7-0.5-0.8-0.6s-0.3-0.3-0.4-0.4c0-0.1-0.2-0.2-0.2-0.2
	s0,0,0-0.1s0.1-0.3,0.1-0.3l0,0l0.1-0.1l0,0h0.2C47,25.1,47,25,47,25c0.1-0.1,0-0.4,0-0.4c0-0.1,0-0.1,0.1-0.1L47.2,24.4L47.2,24.4z
	 M47.4,23.5l0.1,0.1c0,0,0,0,0,0.1l-0.2,0.1h-0.1c0-0.1,0,0,0-0.1l0.1-0.1C47.4,23.7,47.4,23.5,47.4,23.5z M47.2,24
	C47.2,23.9,47.2,24,47.2,24c0-0.1,0-0.1,0.1-0.1s0.2-0.1,0.2-0.1c0.1,0,0.1,0,0.1,0s-0.1,0.1-0.1,0.2c-0.1,0-0.2,0.2-0.2,0.2
	c0,0.1-0.1,0.1-0.1,0.1s0-0.1,0-0.2V24z M49.7,52.2c0,0.1-0.1,0.2-0.1,0.2s0,0-0.1,0s-0.2,0-0.1-0.1C49.5,52.2,49.6,52.2,49.7,52.2
	C49.7,52.1,49.8,52.1,49.7,52.2z M60.4,33.3c0-0.1-0.1-0.1-0.1-0.2s0-0.1,0-0.1s0,0,0.1-0.1c0-0.1,0-0.2,0-0.1s0.1,0.1,0,0.2
	S60.5,33.3,60.4,33.3c0,0.5,0.1,0.7,0.2,0.8c0,0.1,0,0.1,0,0.2c0,0,0,0.1,0,0.2c0,0,0,0.1,0,0.2c0,0,0,0.1,0.1,0.1c0,0,0,0-0.1,0.1
	s0,0.1-0.1,0s-0.1-0.1-0.1-0.2c0-0.1-0.1-0.3-0.1-0.4s0-0.1,0-0.2c0,0,0.1-0.1,0.1-0.2C60.5,33.8,60.5,33.4,60.4,33.3z M39.6,31.6
	c0,0,0.1,0,0-0.2c0.1,0,0.1-0.1,0.1,0.1c0,0.1,0,0.6,0,0.7s0,0.2,0,0.3c0.1,0.1,0,0.3,0,0.4c-0.1,0.2-0.1,0.3-0.1,0.1
	c0-0.1,0-0.2,0-0.4c0.1-0.2,0-0.5,0-0.6S39.6,31.6,39.6,31.6z"/>
<path fill="#F68D1E" d="M35.2,28.3c0.5,0.5,0.5,2.1,0.4,2.8c-0.1,0.8-0.3,1.6-0.7,2.4c-0.2,0.3-0.3,0.7-0.5,1
	c-0.2,0.4-0.4,0.3-0.7,0.3c-0.2,0-0.4,0.3-0.4,0.5c-0.1,0.4,0.8,0.4,0.3,0.8c-0.2,0.2,0.1,1.8,0.1,2.2c0,0.8,0,1.7-0.3,2.4
	c-0.3,0.9-0.1,1.9-0.2,2.8c-0.1,1-0.3,2.1-0.4,3.1c-0.1,1.8,0,3.6-0.2,5.4c-0.1,0.4,0,0.8,0,1.2c0,0.3,0.3,0.8,0.2,1.1
	c-0.1,0.4-0.7,0.2-0.9,0.4c-0.4,0.3-0.5,0.6-1.1,0.6c-0.2,0-2.1-0.1-2-0.4s0.4-0.6,0.7-0.9c0.7-0.7-0.1-1.2,0.2-1.9
	c0.2-0.6,0.2-1.2,0.3-1.8c0.1-1.9,0.5-3.9-0.2-5.8c0.1,0.2-0.3,1.3-0.5,1.6c-0.2,0.2,0,0.8,0,1c0,0.5,0,1-0.1,1.4
	c-0.1,0.9-0.3,1.9-0.3,2.8c0,0.2-0.1,0.3,0,0.5c0.1,0.1,0.4,0.8,0.3,0.9c-0.3,0.5-1.2,0-1.4,0.6c-0.3,0.7-1.8,0.5-2.3,0.1
	c-0.2-0.1,0.4-0.9,0.5-0.9c0.8-0.5,0.4-0.8,0.7-1.5c0.2-0.5,0.5-1,0.5-1.5c0.1-0.7-0.1-1.3-0.2-2c-0.1-0.8-0.2-1.6-0.2-2.4
	c0-0.6,0.1-1.3-0.1-2c-0.1-0.8,0-1.7,0.1-2.4c0-0.2,0.2-0.5,0-0.6c-0.6-0.4-0.2-0.6,0-1l0.1-0.8l0.1-0.6c0-0.2,0.4-1,0.3-1.1
	c-0.1-0.2-0.2,0-0.1-0.3s0.1-0.3,0.1-0.6c0,0,0.3-0.3,0.1-0.3s-0.2-0.2-0.1-0.2c-0.1,0-0.2,0.2-0.3,0.1c-0.1,0-0.1-0.3-0.2-0.4
	c-0.2-0.2-0.2-0.8-0.4-0.9c-0.3-0.1-1.2-1.6-0.8-1.8c-0.3,0.2-1.2-1.3-1.3-1.5c-0.2-0.4,0.2-1.8,0.5-2.2s0.6-1,1.1-1.1
	c0.7-0.2-0.2-0.8,0-0.9c-0.6,0.4-0.4-1.3-0.5-1.5c-0.3-1.1,1.5-1.3,2.1-1.1c0.5,0.1,1,0.3,1.1,0.8c0,0.2,0,0.7-0.1,0.8s0,0.2,0,0.4
	c0.1,0.2-0.1,0.5-0.2,0.6c-0.1,0.2-0.1,0.2-0.3,0.2c0.1,0-0.5,0.7-0.5,0.7s0.8,0.2,0.9,0.2c0.4,0.1,0.5,0.4,0.7,0.8
	c0.1,0.3,0.1,0.4,0.5,0.3c0.3-0.1,0.9-0.4,1-0.7c0.2-0.5,0-0.7,0-1.2c0-0.4,0-1.1-0.1-1.5c-0.2-0.5,0.1-0.8,0.1-1.3
	c0-0.3,0.2-0.7,0.4-1c0.7-1.2,3-0.9,3.3,0.6c0.1,0.4,0.2,0.7,0.4,1.1c0.2,0.5-0.1,0.9,0.1,1.4c0.3,0.5,0,1,0.2,1.5
	C35.2,27.5,35,28.1,35.2,28.3z"/>
<path fill="#F68D1E" d="M25.8,30.5c0.1-0.2,0-0.3,0-0.4c0,0,0,0,0-0.1s0-0.2-0.1-0.2c0,0-0.1-0.1-0.1-0.2s-0.1-0.3-0.1-0.3
	c0-0.1,0-0.1,0-0.1c0-0.1,0-0.1-0.1-0.2c0-0.1-0.1-0.1-0.1-0.1l-0.1-0.1c0,0-0.2-0.2-0.3-0.2c-0.1-0.1-0.1-0.2-0.2-0.2
	c0-0.1-0.4-0.7-0.5-0.7L24,27.5c-0.1-0.1-0.1-0.2-0.3-0.2c-0.1,0-0.1-0.1-0.1-0.1c-0.1-0.1-0.2-0.2-0.4-0.2c-0.1,0-0.2,0-0.3-0.1
	c-0.1,0-0.1-0.1-0.1-0.1c0-0.1-0.2-0.1-0.4-0.1c-0.1,0-0.1,0-0.1-0.1c-0.1-0.2-0.1-0.2-0.3-0.2c-0.1,0-0.3-0.1-0.3-0.2
	c0,0-0.1,0-0.2-0.1c-0.1,0,0,0,0-0.2c0-0.1,0-0.1,0-0.1c0-0.1,0.2-0.4,0.2-0.6c0-0.1,0.1-0.1,0.1-0.1c0.1-0.1,0.2-0.3,0.2-0.4
	s0-0.1,0.1-0.1c0,0,0,0,0.1-0.1l0.1-0.1c0-0.1,0.1-0.1,0.1-0.2c0,0,0.1-0.1,0.1-0.2c0,0,0-0.1,0-0.2l0.1-0.2v-0.1c0,0,0-0.2-0.1-0.1
	c0,0-0.1,0,0,0c0-0.1,0.1-0.1,0.1-0.2c0,0,0.1-0.2,0.1-0.3s0.1-0.2,0-0.3s0-0.2,0-0.3s0-0.2-0.1-0.3c-0.1-0.1-0.1-0.2-0.1-0.3
	c0,0-0.1-0.2-0.2-0.3s-0.1-0.1-0.1-0.1s0,0-0.1-0.1c0,0-0.1-0.1-0.4-0.2c-0.1,0-0.2-0.1-0.3-0.1s-0.1-0.1-0.2,0c0,0-0.3,0-0.4,0
	s-0.2,0-0.2,0.1c-0.1,0-0.1,0.1-0.2,0.1s-0.3,0.1-0.3,0.2c-0.1,0.1-0.1,0.1-0.2,0.2s-0.1,0.1-0.1,0.2s0,0.1-0.1,0.2
	c0,0,0,0.2-0.1,0.3c0,0.1-0.1,0.3-0.1,0.4c0,0,0,0.2,0,0.3s0,0.1,0,0.1s0,0.1-0.1,0.1c-0.1-0.1-0.1,0-0.1,0s0,0.2-0.1,0.2v0.5V24
	c0.1,0.1,0.1,0.2,0.2,0.2s0.1,0,0.1,0v0.1c0,0,0,0.5,0,0.6s-0.1,0.2-0.1,0.2s-0.3,0.4-0.3,0.5c-0.1,0.1-0.2,0.1-0.3,0.1
	c-0.2,0-0.4,0.1-0.4,0.2c0,0,0,0-0.1,0h-0.1c0,0-0.1,0-0.1,0.1c-0.1,0-0.3,0.1-0.4,0.2s-0.2,0.1-0.3,0.1s-0.6,0.2-0.8,0.3
	c-0.1,0.1-0.1,0-0.2,0.1c-0.1,0-0.1,0-0.1,0s-0.3,0.1-0.4,0.1c-0.1,0-0.1,0-0.2,0s-0.3,0.1-0.3,0.1L15.3,27c-0.1,0-0.3,0.2-0.4,0.3
	l-0.1,0.1c-0.1,0-0.3,0.2-0.3,0.2c-0.1,0.1-0.2,0.1-0.4,0.2s-0.8,0.5-0.9,0.5l-0.3,0.2c-0.3,0.2-0.6,0.4-0.8,0.7l-0.3,0.4
	c0,0-0.1,0.2-0.2,0.3s-0.1,0.6,0.1,1.2c0.1,0.3,0.4,0.7,0.6,0.8c0.1,0,0.2,0.1,0.2,0.2l0.5,0.6c0.1,0.1,0.3,0.4,0.5,0.5
	c0.1,0,0.1,0.1,0.2,0.1c0.1,0.1,0.1,0.1,0.3,0.2c0.1,0,0.1,0,0.1,0l0.1,0.1c0,0,0.2,0.2,0.3,0.2s0.1,0.2,0.2,0.2
	c0.1,0.1,0.3,0.1,0.4,0.1s0.1,0,0.1,0l0.1,0.1h0.1l0,0c0,0,0,0.1,0.1,0.1s0.4,0.4,0.5,0.5c0,0,0.5,0.3,0.6,0.4s0.1,0.1,0,0.2
	c0,0.1-0.1,0.1-0.1,0.2c0,0,0,0.1-0.1,0.1c0,0,0,0.1,0,0.2s0,0.1,0,0.1s0,0,0,0.1c0,0,0,0.1,0,0c0,0,0,0.1,0,0.3s-0.1,0.6-0.1,0.7
	c0,0.1,0,0.2-0.1,0.2c0,0.1-0.1,0.2-0.1,0.3c0,0.2,0,0.4,0.1,0.4c0,0,0,0.5,0,0.6v1c0,0.2,0,0.7,0.1,0.9c0,0,0,0.2,0,0.3v0.5
	c0.1,0.2,0,1.4,0,1.4c0,0.1-0.1,1.8-0.1,1.8s0,1.2,0,1.3s-0.1,1.3-0.1,1.3c0,0.1-0.1,0.6-0.1,0.8c0,0.1-0.1,1.3-0.1,1.3
	c0,0.1-0.1,1.3-0.1,1.4c-0.1,0.3,0,1.2,0.2,1.4c0.1,0.1,0.1,0.6,0.1,0.7s0,0.1,0,0.1s0.1,0.5,0.2,0.5c0,0.1,0,0.1,0,0.1
	c-0.1,0-0.1,0.2-0.1,0.2c0,0.1-0.1,0.4-0.2,0.5s-0.2,0.2-0.3,0.3c0,0-0.1,0.2-0.2,0.2c0,0,0,0.1-0.1,0.1c-0.1,0.1-0.2,0.2-0.2,0.3
	s0,0.1-0.1,0.1c0,0-0.1,0.2-0.2,0.2c-0.1,0.2,0,0.2,0.1,0.3c0.1,0,0.7,0.1,0.7,0.1s0.9,0,1,0c0.2,0,0.5-0.1,0.6-0.1
	c0.2-0.1,0.3-0.2,0.2-0.5c-0.1-0.2,0-0.1,0.1-0.1s0.1,0,0.1,0c0.1,0,0.3-0.1,0.4-0.2c0.2-0.2,0.1-0.1,0.1-0.7c0-0.1,0-0.1-0.1-0.2
	c-0.1,0-0.1-0.2-0.1-0.3s0,0,0-0.1s0,0,0,0c0.1-0.1,0.1-0.2,0.1-0.2l0.1-0.3c0-0.1,0-0.1,0-0.1l0,0c0,0,0.1-0.3,0.1-0.4
	c0-0.1,0.1-0.7,0.2-0.8c0.1-0.2,0.1-0.9,0.2-1.1c0-0.1,0.1-0.7,0.1-0.8c0-0.2,0-1.3,0.1-1.6c0-0.1,0-0.7,0-1.1s0-0.5,0-0.5l0.1-0.7
	l0.1-0.4l0.1-0.3c0-0.1,0.1-0.3,0.1-0.4s0.1-0.3,0.1-0.3c0-0.1,0.1-0.4,0.1,0c0,0,0.1,0.4,0.1,0.5v0.1c-0.1,0.1-0.1,0.4-0.1,0.5
	c-0.1,0.3-0.1,1-0.1,1.2V47c0,0,0,0.3,0,0.4c0,0.1,0,0.2,0,0.2c-0.1,0.2-0.1,0.6,0,0.8v0.1c0,0.1-0.2,0.7-0.2,0.7
	C19.1,48.8,19,49.8,19,50c0,0.1,0,0.3,0,0.3c-0.1,0.1-0.1,0.5-0.1,0.6V51v0.4c0,0.1,0,0.1,0,0.2c0,0,0,0,0,0.1l-0.1,0.4
	c0,0-0.1,0.1-0.1,0.3s-0.1,0.1-0.1,0.1c-0.1,0.1-0.1,0.2-0.1,0.4c0,0.3-0.1,0.4,0.1,0.5s0.7,0.1,1,0.2c0.3,0,0.3-0.1,0.3-0.1
	c0-0.2,0.1-0.1,0.3-0.1s0.8,0.4,0.8,0.4c0.3,0.1,0.8,0.2,1.1,0.2s0.6,0,0.9-0.1s0.4-0.1,0.5-0.2s0.1-0.1,0.1-0.2s0-0.1-0.2-0.1
	c-0.1,0-0.1-0.1-0.1-0.1c-0.1-0.1-0.3-0.2-0.6-0.2c-0.2,0-0.2-0.1-0.2-0.2c-0.1-0.2-0.2-0.2-0.5-0.2c-0.1,0-0.1,0-0.2-0.1
	s-0.2-0.2-0.3-0.3c-0.1-0.1,0-0.1,0-0.1h0.1l0.1-0.1c0,0,0.1-0.1,0.2-0.1s0.1-0.1,0.1-0.7c0,0,0,0,0-0.1c0,0,0-0.7,0-0.8
	c0,0,0-1,0-1.2s0-0.2,0-0.2l0.1-0.3c0,0,0.4-0.9,0.5-1.1s0.1-0.5,0.1-0.5c0-0.1,0.2-1.2,0.2-1.3s0.1-1.4,0.2-1.5v-1l0.1-1.1
	c0-0.1,0-0.4,0-0.4c0-0.1,0.1-0.9,0.1-1l0.1-0.9c0-0.1,0.1-0.6,0.1-0.7c0,0,0-0.6,0-0.7c0,0,0-0.5,0-0.6v-0.3c0,0,0-0.1,0-0.2
	s0-0.5-0.1-0.7c0-0.1-0.1-0.3-0.1-0.4s-0.1-0.6-0.1-0.7c0-0.1,0-0.1,0-0.1l0.3-0.3l0.1-0.1c0,0,0.1-0.1,0.2-0.1
	c0.3-0.2,0.3-0.5,0.3-0.4c0,0,0,0,0.1-0.1v-0.1l0.1-0.1c0,0,0.1-0.1,0.1-0.2c0.1-0.1,0,0,0,0s0.1,0,0.2,0s0-0.1,0.1-0.2
	c0-0.1,0.1-0.3,0.2-0.4c0-0.1,0.3-0.4,0.4-0.5s0.1-0.4,0.1-0.4s0.1-0.2,0.1-0.3c0.1-0.1,0-0.1,0-0.1c0-0.1,0.1-0.4,0.1-0.5
	c0,0,0.1-0.4,0.1-0.5C25.8,30.8,25.9,30.7,25.8,30.5C25.8,30.5,25.8,30.5,25.8,30.5z M16.3,33.1c0-0.1-0.1-0.1-0.1-0.1
	c0.1-0.1,0-0.1,0-0.1c-0.2-0.1-0.2-0.2-0.4-0.4S15.2,32,15.2,32c0-0.1,0-0.1-0.1-0.2c0-0.2-0.1-0.2-0.2-0.2c-0.2,0-0.4-0.2-0.4-0.2
	l0.1-0.1c0.1-0.2,0-0.2-0.1-0.2c-0.2,0-0.2-0.1-0.2-0.1c0-0.3-0.1-0.3-0.2-0.4v-0.1c0.5-0.1,0.6-0.3,0.7-0.3c0,0,0.5-0.1,0.5,0
	l0.2,0.1c0,0.1,0.1,0.4,0.1,0.4s0.4,1.2,0.5,1.3c0,0.1,0.4,1,0.5,1.1c0,0.1,0,0.1,0,0.2C16.5,33.2,16.4,33.1,16.3,33.1z M23.6,31.8
	l-0.1,0.1c0,0,0,0.1,0.1,0.3c0,0.2,0.2,0.3,0.1,0.3c0,0-0.1,0.2-0.1,0.3L23.5,33c-0.2,0.3-0.1,0.3-0.2,0.3c0,0.1-0.1,0-0.2,0
	c-0.1-0.1-0.3,0-0.4,0l0,0c0.1-0.1,0-0.2,0.1-0.3c0.2-0.4,0.2-0.7,0.2-0.7s0-0.2,0-0.3c0.1-0.4,0-1.2,0-1.2c0-0.1,0-0.1,0.1-0.2
	c0-0.1,0.1-0.1,0.2-0.1l0.3-0.1c0,0,0,0,0.1,0c0,0,0,0.2,0.1,0.2c0,0,0.1,0.1,0,0.1c0,0-0.1,0.1-0.2,0.1c-0.1,0.1-0.1,0.2-0.1,0.2
	s0.2-0.1,0.2,0s0,0.2,0,0.2c0,0.1,0.1,0.2,0.1,0.2C23.8,31.6,23.6,31.8,23.6,31.8z"/>
</svg>

