<?xml version="1.0" encoding="utf-8"?>
<!-- Generator: Adobe Illustrator 18.1.1, SVG Export Plug-In . SVG Version: 6.00 Build 0)  -->
<!DOCTYPE svg PUBLIC "-//W3C//DTD SVG 1.1//EN" "http://www.w3.org/Graphics/SVG/1.1/DTD/svg11.dtd">
<svg version="1.1" id="Layer_1" xmlns="http://www.w3.org/2000/svg" xmlns:xlink="http://www.w3.org/1999/xlink" x="0px" y="0px"
	 viewBox="0 0 75 75" enable-background="new 0 0 75 75" xml:space="preserve">
<path fill="#F68D1E" d="M54.2,38.9l-0.8,0.4c-0.8,1.2-2.2,2.4-4.1,3.5c-2.4,1.4-5.6,2.2-8.6,2.2c-4.4,0-8-1.6-10.2-4.5
	c-0.1,0-0.2,0-0.3,0c-0.2,0-0.4,0-0.6-0.1c-0.2,0-0.3-0.1-0.4-0.1c0,0.2,0.1,0.4,0.3,0.7c0.6,1.1,0.3,1.8,0.1,2.2
	c-0.3,0.5-0.9,0.9-1.6,0.9c-0.5,0-1-0.2-1.3-0.5c0.1,0.5,0.1,0.9-0.2,1.4c-0.2,0.4-0.6,0.6-1.2,0.7c-0.1,0-0.2,0-0.3,0
	c-0.3,0-0.7-0.1-1-0.3c0.2,0.3,0.4,0.6,0.6,0.7c0.4,0.4,0.6,0.9,0.4,1.4c-0.1,0.4-0.5,0.7-0.9,0.8c2.2,2,6,5,10.4,6.2l0,0
	c0,0-2.5,3.3-3.3,4.1s-2.4,1.3-3.3,1.3s-1,0.6-0.5,0.7c0.5,0.1,2.4-0.3,2.4-0.3c-0.5,0.1-1,0.7-1,0.7c-0.2,0.6,0.6,0.7,0.9,0.4
	c0.3-0.4,1.8-1.2,1.8-1.2c1.6-0.6,2.2,0.5,2.7,0.3c0.6-0.2,0.1-0.6,0.1-0.6c-0.9-0.2-1.5-1.2-1.5-1.2c0.4-1.3,3-3.9,3-3.9
	c1.4,0.3,2.9,0.3,4.4,0.1l0,0c0,0-1.2,3.7-2,4.2s-0.4-0.1-2.3,0.6c-1.9,0.7-0.6,1-0.6,1c1.2-0.3,2.2-0.3,2.2-0.3
	c-1.7,1.7-0.6,2-0.4,2c0.3-0.1,0.8-0.3,0.8-0.3c0.1-0.6,1-1.9,1.7-2.1c0.6-0.2,1.1,0.1,2.3,0.6c1,0.4,1.7,0.6,1.7,0.6
	s0.4-0.3-0.2-1.1c-0.6-0.8-2.7-0.7-3.1-1.1c-0.5-0.4,2.5-5,2.5-5l0,0c0.1,0,0.2-0.1,0.2-0.1c8.4-3.8,12-11.1,11.8-15.5
	C54.6,38.7,54.4,38.8,54.2,38.9L54.2,38.9z M56.7,27c1.5-4.2-0.8-4.3-1.3-4.3h-0.1C55.2,20.3,53.8,20,53,20c-0.3,0-0.6,0.1-0.6,0.1
	c-0.3-0.2-0.5-0.3-0.8-0.3c-1.5,0-2.9,3.5-3.3,4.5c-0.4,1.2-2.1,3.8-4.7,5.3c-0.7,0.4-1.8,0.6-2.9,0.6c-2.3,0-4.9-0.6-6.2-0.9
	c0,0,0,0,0,0.1c-0.1,0.5-0.5,0.8-1,1c0.1,0.2,0.3,0.4,0.4,0.7c0.6,0.9,0.7,1.8,0.4,2.4c-0.2,0.4-0.6,0.7-1.1,0.7c-0.1,0-0.2,0-0.3,0
	l0,0c0,0,0,0.1,0.1,0.1c0.5,0.5,0.6,1.3,0.3,1.9s-0.8,1-1.5,1c-0.2,0-0.5-0.1-0.7-0.1H31c-0.1,0-0.2,0.4-0.1,0.6
	c0.4,1.1,0.5,2,0.1,2.5l-0.1,0.1c2.4,3,6,4.2,9.5,4.2c3.1,0,6.1-0.8,8.2-2.1c5.6-3.2,4.5-6.1,4.5-6.1c0.9,1.6,0.5,2.1,0.5,2.1
	c5.5-2.6,3.3-6.4,3.3-6.4C60.4,29.4,56.7,27,56.7,27z M24.1,46.8c-1.4-1.3-2.5-5.5-2.2-5.5c0,0,0.1,0.1,0.2,0.2
	c0.7,1.2,1.8,3.5,3,3.5c0.1,0,0.1,0,0.2,0c1.3-0.2,0.6-1.3,0.3-2.6c-0.1-0.4-0.1-0.6,0.1-0.6c0.3,0,1,0.8,1.6,1.3
	c0.2,0.2,0.6,0.3,0.9,0.3c0.8,0,1.5-0.6,0.8-1.9c-0.7-1.4-0.6-1.9,0.2-1.9c0.2,0,0.5,0.1,0.8,0.1c0.2,0,0.3,0.1,0.4,0.1
	c0.9,0,0.5-1.3,0.2-2C30.1,37,30.5,36,31.2,36c0.1,0,0.2,0,0.4,0.1c0.1,0.1,0.3,0.1,0.4,0.1c0.7,0,1.1-0.9,0.5-1.5
	c-0.6-0.7-0.1-1.5,0.5-1.5c0.1,0,0.1,0,0.2,0s0.1,0,0.2,0c0.6,0,0.7-0.8,0.1-1.9c-0.6-1-1.5-2-1-2c0.1,0,0.2,0,0.3,0.1
	c0.2,0.1,0.3,0.1,0.5,0.1c0.7,0,0.8-0.8,0.3-1.1c-0.6-0.3-5.1-5.4-7.5-9.7c-1-1.8-2.1-2.7-3.2-3.1c0.1,0.5-0.2,1.3-1.1,1.3
	c-1,0-1.3,1.4-1.3,2.4c-0.1,0-0.2,0-0.2,0c0-0.9,0.2-2.5,1.2-2.6c1.3-0.1,1.2-1.6,0.7-1.7s-1.6-0.1-1.6-0.4c0-0.3-0.9-0.5-1.1,0
	s-0.3,0.7-0.8,0.6c-0.5-0.1-0.8,0.3-0.7,0.7c0.2,0.4,0.2,0.6,0,0.9c-0.1,0.2,0.4,0.6,0.5,0.9c0,0,0,0,0-0.1c0,0.1,0,0.2,0,0.3l0,0
	c-1.2,0.1-2.1,2-1.9,1.8s1.9,0,1.9,0c1.6,0.4,1.3-1.6,0.2-1.8l0,0c1.4-0.1,1.9,2.4,0,2c0,0-0.3,0-0.7-0.1c-0.1,0.3-0.4,0.9-0.8,1.3
	c-0.6,0.6-0.3,2.4,0.9,2.2c1.2-0.1,1.4-0.5,2,0s2.2-0.2,2.1-0.8c-0.1-0.6,0.3-0.8,1-1c0.5-0.1,1.3-0.1,1.4-0.4c0,0,0.1,0,0.1,0.1
	c1.1,0.6-0.3,0.7-1.1,0.8s-1.2,0.3-1.1,1s-1.6,1.4-2.2,0.9c-0.5-0.4-0.7-0.3-1.5-0.1c0,1.9-0.1,4.8-0.2,8.9
	c-0.4,11.9,3.5,14.5,5.1,14.5C24.3,47.6,24.6,47.2,24.1,46.8L24.1,46.8z M22.2,17.5c0.8,0,0.8,1.3,0.8,1.3c-0.5-0.2-1.7,0-1.7,0
	S21.4,17.5,22.2,17.5z M21.6,20.5c-0.2,0-0.3-0.1-0.5-0.1c0.3-1.2,3.1-0.5,3.6-0.4c0.2,0.1,0.5,0.2,0.6,0.4
	C25.4,20.4,22.4,19.5,21.6,20.5z"/>
</svg>

