<?xml version="1.0" encoding="utf-8"?>
<!-- Generator: Adobe Illustrator 18.1.1, SVG Export Plug-In . SVG Version: 6.00 Build 0)  -->
<!DOCTYPE svg PUBLIC "-//W3C//DTD SVG 1.1//EN" "http://www.w3.org/Graphics/SVG/1.1/DTD/svg11.dtd">
<svg version="1.1" id="Layer_1" xmlns="http://www.w3.org/2000/svg" xmlns:xlink="http://www.w3.org/1999/xlink" x="0px" y="0px"
	 viewBox="0 0 75 75" enable-background="new 0 0 75 75" xml:space="preserve">
<g>
	<g>
		<path fill="#F78E1E" d="M43.3,22.3h-6.6c0.9-0.8,1.4-1.9,1.4-3.1c0-2.3-1.9-4.2-4.3-4.2c-2.4,0-4.3,1.9-4.3,4.2
			c0,1.2,0.5,2.4,1.4,3.1h-6.6c-0.3,0-0.6,0.2-0.7,0.5L19.9,39c-0.1,0.4,0.2,0.9,0.7,0.9h26.5c0.5,0,0.8-0.4,0.7-0.9L44,22.9
			C44,22.6,43.7,22.3,43.3,22.3z M33.8,22.1c-1.6,0-2.9-1.3-2.9-2.9c0-1.6,1.3-2.9,2.9-2.9c1.6,0,2.9,1.3,2.9,2.9
			C36.8,20.8,35.5,22.1,33.8,22.1z M58.5,43.9v-1.5h-1.9v-0.8h1.9v-1.7h-2.8V39h2.8v-1.7h-1.9v-0.8h1.9v-1.7h-2.8V34h2.8v-1.7h-1.9
			v-0.8h1.9v-1.7h-2.8V29h2.8v-1.7h-1.9v-0.8h1.9v-0.8c0-1.4-1.2-2.5-2.6-2.5s-2.6,1.1-2.6,2.5v18.2c-2.5,1-4.3,3.4-4.3,6.3
			c0,3.7,3.1,6.8,6.9,6.8c3.8,0,6.9-3,6.9-6.8C62.8,47.3,61.1,44.9,58.5,43.9z M56,54.9c-2.7,0-4.8-2.1-4.8-4.8c0-1,0.3-1.9,0.9-2.7
			c0.8,0.5,2.1,1,3.5,0.2c2.1-1.3,3.3,0.5,4.4,0.5c0.1,0,0.2,0,0.3,0c0.3,0.6,0.5,1.4,0.5,2.1C60.8,52.8,58.6,54.9,56,54.9z
			 M41.8,49.1h-0.5v-2.6H39v3.3h-0.5v-3.3h-2.3v2.6h-0.5v-2.6h-2.3v5h-0.5v-5h-2.3v2.6H30v-2.6h-2.3v3.3h-0.5v-3.3h-2.3v2.6h-0.5
			v-2.6h-2.3v5h-0.5v-5h-2.3v2.6h-0.5v-2.6h-2.3v3.3h-0.5v-3.3h-2.3v2.6h-0.5v-2.6h-2.3v5h0v3.3h33.1v-8.3h-2.1V49.1z"/>
	</g>
</g>
</svg>

