<?xml version="1.0" encoding="utf-8"?>
<!-- Generator: Adobe Illustrator 18.1.1, SVG Export Plug-In . SVG Version: 6.00 Build 0)  -->
<!DOCTYPE svg PUBLIC "-//W3C//DTD SVG 1.1//EN" "http://www.w3.org/Graphics/SVG/1.1/DTD/svg11.dtd">
<svg version="1.1" id="Layer_1" xmlns="http://www.w3.org/2000/svg" xmlns:xlink="http://www.w3.org/1999/xlink" x="0px" y="0px"
	 viewBox="0 0 75 75" enable-background="new 0 0 75 75" xml:space="preserve">
<g>
	<path fill="#F78E1E" d="M35.5,32.6c1.7-2.7,4.6-4.4,7.7-4.4c4.7,0,8.5,3.7,9.2,8.5c1.5,0.4,2.7,1.2,3.6,2.4
		c3.6-2.5,5.9-6.6,5.9-11.3c0-7.6-6.2-13.8-13.8-13.8s-13.8,6.2-13.8,13.8c0,1.7,0.3,3.3,0.9,4.8C35.3,32.6,35.4,32.6,35.5,32.6z"/>
	<path fill="#F78E1E" d="M58.7,47.4c-1.9-0.8-3.2-1.5-4.1-2.2c0.4-0.7,0.6-1.4,0.6-2.2c0-2.5-2-4.5-4.5-4.5c-0.1,0-0.2,0-0.4,0
		c0-0.1,0-0.2,0-0.3c0-4.4-3.3-8-7.4-8c-3,0-5.7,2-6.8,4.8c-0.5-0.3-1.1-0.5-1.7-0.5c-0.8,0-1.6,0.3-2.2,0.8
		c-1.1-1.5-2.7-2.5-4.5-2.5c-2.4,0-4.4,1.6-5.3,3.9c-0.4-0.1-0.9-0.2-1.4-0.2c-3.2,0-5.9,2.7-5.9,6c0,0.8,0.2,1.6,0.5,2.3
		c-1.3,0.5-2.1,1.4-2.1,2.5c0,0.4,0.1,0.7,0.3,1c-1.1,0.7-2.7,1.6-3.3,1.8c-1.1,0.3-2.3,1.3,8.8,1.2c11-0.1,16.8-0.7,20.3,0
		c3.5,0.7,8.6,0.4,11,0.2c2.4-0.3,6.2,0.3,8.3-0.3C59.1,51.3,65.7,50.4,58.7,47.4z M47.7,46.8c0,0-0.7-5.8-4.4-6.8
		c-3.8-1-6.9,2.4-6.9,2.4s0.5-1.1,1.5-2.2c-0.8-0.4-1.7-0.7-2.6-0.4c-2.5,0.7-3,3.7-3,3.7s-0.5-3.8,2.8-4.8c1.4-0.4,2.6,0.2,3.4,0.9
		c1.2-1.1,3-1.9,5.4-1.2C48.9,39.9,47.7,46.8,47.7,46.8z"/>
</g>
</svg>

