<?xml version="1.0" encoding="utf-8"?>
<!-- Generator: Adobe Illustrator 18.1.1, SVG Export Plug-In . SVG Version: 6.00 Build 0)  -->
<!DOCTYPE svg PUBLIC "-//W3C//DTD SVG 1.1//EN" "http://www.w3.org/Graphics/SVG/1.1/DTD/svg11.dtd">
<svg version="1.1" id="Layer_1" xmlns="http://www.w3.org/2000/svg" xmlns:xlink="http://www.w3.org/1999/xlink" x="0px" y="0px"
	 viewBox="0 0 75 75" enable-background="new 0 0 75 75" xml:space="preserve">
<path opacity="0.25" fill="#F68D1E" d="M27.9,37.8c0.1,0.9,0.2,2.7,0.1,3.3l-9,2.1L18.7,43c1.4-3.8,2.8-7.7,4.1-11.5L20.7,32
	c-1.7,0.4-2,0.7-2.2,1.1c-0.1,0.4-0.3,0.9-0.3,1.8L17.7,35c-0.3-1.3-0.4-2.5-0.6-3.4l0.4-0.1c0.3,0.3,0.5,0.3,1.1,0.2l6.9-1.6
	l0.2,0.2c-1.3,3.8-2.7,7.5-4,11.4c0.6-0.1,1.1-0.1,2.1-0.4c1.3-0.3,2.5-0.7,2.9-1.3c0.3-0.5,0.5-1.1,0.6-2.2
	C27.3,37.8,27.9,37.8,27.9,37.8z"/>
<path opacity="0.25" fill="#F68D1E" d="M55.7,45.9c-0.7-1-2.1-3-3.3-4.8c-0.4-0.5-0.6-0.6-0.8-0.6v3.1c0,1.5,0.2,1.6,1.5,1.7v0.6H48
	v-0.6c1.2-0.1,1.4-0.2,1.4-1.7v-6.5c0-1.5-0.2-1.6-1.4-1.7v-0.6h5v0.6c-1.2,0.1-1.3,0.2-1.3,1.7V40c0.4-0.1,0.8-0.4,1.3-0.9
	c1.1-1.2,1.8-2,2.4-2.7c0.4-0.5,0.4-0.8-0.4-0.9h-0.3v-0.6h4.4v0.6c-1.1,0.1-1.7,0.3-2.7,1.2s-1.7,1.7-2.5,2.5
	c1.1,1.6,2.3,3.3,3.6,4.9c0.7,0.9,1.2,1.2,1.8,1.3V46L55.7,45.9L55.7,45.9z"/>
<path opacity="0.25" fill="#F68D1E" d="M28.1,28.8c-0.2,0.5-0.8,1.7-1,2.1l-6.2-1.4L21,29c1.1,0.2,1.3,0.1,1.5-1l1.1-4.9
	c0.3-1.1,0.1-1.2-0.8-1.5l0.1-0.4l3.9,0.9l-0.1,0.4c-1-0.1-1.1-0.1-1.4,1l-1.2,5c-0.1,0.6-0.1,0.8,0.1,1c0.2,0.1,0.5,0.2,0.9,0.3
	c0.6,0.1,1,0.1,1.4-0.1c0.3-0.2,0.6-0.6,1-1.2C27.5,28.5,28.1,28.8,28.1,28.8z"/>
<path opacity="0.25" fill="#F68D1E" d="M23.8,57.6l0.1-0.4c0.9,0.1,1,0,1.3-1.1l1-4.7h-0.1L22,57.2l-0.3-0.1l-1.1-6.8l-0.8,3.2
	c-0.3,1-0.4,1.6-0.4,2c-0.1,0.6,0.1,0.7,0.9,1L20,56.8l-3-0.6l0.1-0.4c0.7,0.1,1-0.1,1.2-0.5s0.4-1,0.8-2.3l0.7-2.4
	c0.4-1.4,0.4-1.6-0.7-1.9l0.1-0.4l2.5,0.6l1.2,5.9l3.6-4.8l2.5,0.5l-0.1,0.4c-1-0.1-1.1,0-1.3,1l-0.9,4.6c-0.2,1.1-0.2,1.2,0.8,1.5
	l-0.1,0.4C27.4,58.4,23.8,57.6,23.8,57.6z"/>
<path opacity="0.25" fill="#F68D1E" d="M38.7,30.5c-0.1,0-0.3,0-0.5,0c-1.9-0.2-2.5-0.6-3.1-1.6c-0.4-0.7-0.8-1.5-1.2-2.3
	c-0.2-0.5-0.5-0.7-1-0.7h-0.3l-0.1,2.3c0,1.3,0.1,1.4,1.3,1.6v0.5L29.1,30v-0.5c1.2-0.1,1.3-0.2,1.4-1.5l0.2-6
	c0-1.2-0.1-1.4-1.2-1.6v-0.5l4.4,0.2c1.4,0.1,2.1,0.2,2.8,0.7c0.6,0.4,1,1.1,1,2.1c-0.1,1.4-1,2.1-2,2.4c0.2,0.5,0.8,1.5,1.2,2.3
	c0.5,0.9,0.8,1.4,1.1,1.7c0.3,0.4,0.6,0.6,0.9,0.7C38.9,30,38.7,30.5,38.7,30.5z M33.1,25.2c0.7,0,1.2-0.1,1.5-0.3
	c0.5-0.4,0.8-1,0.8-1.8c0.1-1.7-0.9-2.3-1.7-2.3c-0.4,0-0.6,0-0.7,0.1s-0.1,0.2-0.2,0.6l-0.1,3.8C32.7,25.3,33.1,25.2,33.1,25.2z"/>
<path opacity="0.25" fill="#F68D1E" d="M55.2,22c1.8,0.8,3,1.9,3.5,3.2c0.4,1,0.5,2.3-0.2,3.7c-0.8,1.8-2.1,2.7-3.6,3
	c-1.4,0.3-3.1,0-4.9-0.8l-3.7-1.7l0.2-0.5c1.2,0.4,1.4,0.4,1.9-0.8l2.6-5.5c0.6-1.2,0.5-1.4-0.5-2l0.2-0.5
	C50.7,20.1,55.2,22,55.2,22z M50.6,28.8c-0.5,1-0.4,1.5,0.6,2c1.9,0.9,4-0.1,5.2-2.6c0.6-1.4,0.7-2.7,0.4-3.6s-0.9-1.5-1.9-2
	c-0.5-0.2-0.9-0.3-1-0.2c-0.2,0.1-0.3,0.3-0.5,0.7L50.6,28.8z"/>
<path opacity="0.25" fill="#F68D1E" d="M51.4,50.1c-0.4-0.5-0.8-0.8-1.1-0.9s-0.6,0-1.3,0.4l-0.5,0.3l2.8,5.2C51.8,56,52,56,53,55.6
	l0.2,0.4l-3.6,2l-0.2-0.4c0.9-0.6,1-0.7,0.4-1.6L47,50.8L46.6,51c-0.9,0.5-1.1,0.7-1.1,1c-0.1,0.3,0,0.7,0.1,1.4l-0.4,0.2
	c-0.4-0.8-0.8-1.7-1.1-2.2l0.3-0.1c0.3,0.1,0.5,0.1,0.8-0.1l4.4-2.4c0.3-0.2,0.4-0.3,0.5-0.6l0.3-0.2c0.3,0.5,0.8,1.4,1.3,2.1
	C51.7,50.1,51.4,50.1,51.4,50.1z"/>
<path opacity="0.25" fill="#F68D1E" d="M30.7,33.1c-0.5,0.1-0.7,0.3-0.7,0.7c0,0.3,0.1,0.8,0.2,1.6l0.7,3.8l-0.5,0.1l-4.9-4.1
	l0.4,2.2c0.2,0.9,0.3,1.3,0.4,1.6c0.1,0.4,0.3,0.6,1,0.5l0.1,0.3L25,40.4V40c0.5-0.1,0.7-0.3,0.7-0.8c0-0.3,0-0.8-0.2-1.6l-0.4-2
	c-0.1-0.6-0.2-0.8-0.4-1s-0.5-0.2-0.9-0.2l-0.1-0.3l1.8-0.3l4.5,3.5l-0.3-1.7c-0.2-0.9-0.3-1.3-0.4-1.6c-0.1-0.4-0.3-0.5-1.1-0.4
	l-0.1-0.3l2.4-0.4C30.5,32.9,30.7,33.1,30.7,33.1z"/>
<path opacity="0.25" fill="#F68D1E" d="M29.1,48c-0.3,0.3-0.8,0.5-1.1,0.5c-0.3,0.1-1,0.1-2.3-0.1c-0.5,0.2-1.3,0.4-1.9,0.1
	c-0.7-0.2-1.2-0.7-1.6-1.3c-0.7-1.3-0.5-3,1.1-3.9c1.3-0.7,3-0.4,3.8,1.1c0.7,1.2,0.4,2.5-0.3,3.3c0.6,0.1,1.6,0.1,2.3,0.1
	C29.1,47.8,29.1,48,29.1,48z M26.2,47.6c0.1,0,0.2,0,0.3,0c0.3-0.3,0.3-1.2-0.3-2.4c-0.8-1.4-1.9-2-2.8-1.5
	c-0.8,0.4-0.8,1.6-0.1,2.8c0.6,1.1,1.6,1.8,2.5,1.6C25.8,48.1,26.2,47.6,26.2,47.6z"/>
<path opacity="0.25" fill="#F68D1E" d="M44.2,45.5c-0.9-0.1-1,0-1.2,1l-0.9,4.6c-0.2,1-0.1,1.1,0.8,1.3l-0.1,0.4l-3.6-0.7l0.1-0.4
	c1,0.1,1.1,0,1.3-1l0.4-2.2l-3.2-0.6l-0.4,2.2c-0.2,1-0.1,1.1,0.8,1.4L38,51.9l-3.5-0.7l0.1-0.4c0.9,0.1,1,0,1.2-1l0.9-4.6
	c0.2-1,0.1-1.1-0.8-1.4l0.1-0.4l3.6,0.7l-0.1,0.4c-0.9-0.1-1,0-1.2,1L38,47.2l3.2,0.6l0.3-1.8c0.2-1,0.1-1.1-0.8-1.4l0.1-0.4
	l3.6,0.7C44.4,44.9,44.2,45.5,44.2,45.5z"/>
<path opacity="0.25" fill="#F68D1E" d="M43.8,55c0.8,0,1.4,0.2,1.8,0.5c0.5,0.4,0.7,0.9,0.7,1.6c-0.1,1.4-1.1,2-2.2,2
	c-0.2,0-0.3,0-0.4,0L43,58.9l-0.1,1.4c-0.1,0.9,0,1,0.9,1.1v0.4l-3.2-0.2v-0.4c0.8,0,0.9-0.1,0.9-1l0.2-4c0.1-0.9,0-1-0.8-1.1v-0.4
	C40.9,54.7,43.8,55,43.8,55z M42.9,58.4c0.1,0.1,0.3,0.1,0.6,0.1c0.4,0,1.2-0.2,1.3-1.6c0.1-1.2-0.6-1.6-1.2-1.6
	c-0.2,0-0.3,0-0.4,0.1s-0.1,0.2-0.1,0.3C43.1,55.7,42.9,58.4,42.9,58.4z"/>
<path opacity="0.25" fill="#F68D1E" d="M65.6,36.6c-0.6,0.2-0.9,0.5-0.8,1c0,0.4,0.1,0.9,0.3,1.7l0.4,1.3c0.3,1.3,0.4,2.4-0.1,3.3
	c-0.4,0.7-1.1,1.3-2,1.5c-0.8,0.2-1.6,0.2-2.3,0c-0.8-0.4-1.4-1.2-1.8-2.6l-0.8-2.9c-0.3-1.1-0.4-1.2-1.4-1L57,38.5l3.6-1l0.1,0.4
	c-0.9,0.3-1,0.4-0.7,1.6l0.7,2.6c0.5,1.8,1.4,2.7,2.7,2.3c1.4-0.4,1.8-1.6,1.2-3.7l-0.3-1.3c-0.2-0.9-0.4-1.3-0.6-1.7
	s-0.5-0.6-1.4-0.4l0.2-0.3l3-0.8C65.5,36.2,65.6,36.6,65.6,36.6z"/>
<path opacity="0.25" fill="#F68D1E" d="M19.4,37.9c-0.7,0.2-0.9,0.4-1.1,1.5c-0.2,0.9-0.8,3.7-1.2,6.2l-0.6,0.1
	c-1.1-1.9-2.7-4.4-3.4-5.5c-0.5-0.8-0.7-0.9-1.4-0.9l-0.1-0.4l3.3-0.6l0.1,0.4c-0.8,0.3-0.8,0.4-0.5,0.9c0.5,0.8,1.8,3,2.4,3.9l0,0
	c0.3-1.8,0.6-3.1,0.7-4.2c0.1-0.8,0.1-1-0.9-0.9V38l2.6-0.5C19.3,37.5,19.4,37.9,19.4,37.9z"/>
<path opacity="0.25" fill="#F68D1E" d="M43.4,17.8c0.3,0.5,0.8,1.4,0.9,1.7L40.1,23l-0.3-0.3c0.7-0.6,0.7-0.8,0.1-1.5l-2.8-3.5
	c-0.6-0.8-0.8-0.8-1.4-0.3L35.4,17l3.9-3.2c0.1,0.2,0.7,0.8,1.2,1.3l-0.3,0.3c-0.3-0.3-0.7-0.5-1-0.5c-0.3-0.1-0.6,0.1-1,0.4
	l-0.4,0.3c-0.3,0.2-0.3,0.3-0.1,0.6l1.6,1.9l0.6-0.5c0.7-0.6,0.8-0.7,0.4-1.4l0.3-0.2l1.5,1.8L41.8,18c-0.6-0.6-0.8-0.5-1.5,0.1
	l-0.6,0.5l1.3,1.6c0.4,0.4,0.6,0.6,0.8,0.6c0.2-0.1,0.5-0.3,0.8-0.5c0.4-0.3,0.7-0.6,0.7-1c0-0.3-0.1-0.7-0.2-1.3
	C43.1,18,43.4,17.8,43.4,17.8z"/>
<path opacity="0.25" fill="#F68D1E" d="M15.2,26c-0.6,0-0.8,0.1-1.2,0.7c-0.4,0.5-0.7,0.9-1.3,1.7c-0.2,0.2-0.2,0.3-0.2,0.6
	l-0.1,1.2c-0.1,0.9,0,0.9,0.8,1.1v0.3L10,31.3V31c0.8,0,0.9,0,1-0.9l0.1-1.1c0-0.2,0-0.3-0.1-0.5c-0.2-0.5-0.5-1.2-0.9-2.3
	c-0.3-0.7-0.4-0.8-0.9-0.9V25l2.7,0.3v0.3c-0.6,0-0.6,0.1-0.5,0.5c0.3,0.7,0.6,1.4,0.9,2.2c0.3-0.5,0.9-1.3,1.2-1.9
	c0.2-0.4,0.2-0.5-0.5-0.7v-0.3l2.2,0.3C15.2,25.7,15.2,26,15.2,26z"/>
<path opacity="0.25" fill="#F68D1E" d="M46.4,32.3c-1.1,0.2-1.3,0.4-1.8,1.7c-0.3,1-1.3,3.8-2.6,8.2h-0.8c-0.9-2.4-1.7-4.6-2.6-7
	l0,0c-0.8,2.4-1.6,4.8-2.4,7h-0.8c-0.9-2.9-1.7-5.5-2.5-8.3c-0.4-1.2-0.6-1.5-1.6-1.6v-0.6H36v0.6c-1.2,0.1-1.2,0.4-1,1.2
	c0.5,1.9,1.1,3.7,1.6,5.5l0,0c0.8-2.3,1.6-4.7,2.3-7.1h0.8c0.9,2.4,1.8,4.8,2.7,7.2h0.1c0.6-2,1.3-4.4,1.5-5.4s0.2-1.2-1.1-1.3v-0.6
	h3.7v0.5L46.4,32.3z"/>
<path opacity="0.25" fill="#F68D1E" d="M28.4,18.4c0.3,1.1-0.3,2-1.3,2.2c-1,0.3-1.9-0.3-2.2-1.3c-0.2-0.9,0.2-1.9,1.4-2.2
	C27.2,16.9,28.2,17.4,28.4,18.4z M25.7,19.1c0.2,0.9,0.8,1.5,1.4,1.4c0.5-0.1,0.8-0.7,0.5-1.6c-0.3-1-0.8-1.5-1.4-1.4
	C25.8,17.5,25.5,18.2,25.7,19.1z"/>
<path opacity="0.25" fill="#F68D1E" d="M49.8,20.3c-0.2,0.4-0.7,0.9-0.9,1.1c-0.2,0-1-0.1-1.6-0.3c-2.2-0.7-2.6-2.4-2.1-3.7
	c0.6-1.7,2.2-2.4,4.2-1.7c0.7,0.2,1.2,0.6,1.4,0.7c-0.1,0.5-0.1,0.9-0.3,1.4h-0.3c0.1-1-0.5-1.5-1.1-1.8c-1.2-0.4-2.2,0.5-2.6,1.7
	c-0.5,1.5,0,2.7,1.1,3.1c0.7,0.2,1.3,0,2-0.7C49.6,20.1,49.8,20.3,49.8,20.3z"/>
<path opacity="0.25" fill="#F68D1E" d="M61,30.2c-0.3-0.1-0.6-0.1-0.8-0.1c-0.3,0.1-0.4,0.2-0.7,0.7l-0.2,0.4
	c-0.2,0.3-0.2,0.3,0.1,0.5l1.7,1l0.4-0.6c0.4-0.7,0.4-0.8-0.1-1.2l0.2-0.3l1.5,0.9l-0.2,0.3c-0.6-0.2-0.7-0.2-1.1,0.5l-0.4,0.6
	l1.2,0.7c0.7,0.4,0.8,0.4,1.3-0.2l0.3,0.2L62.8,36l-0.3-0.2c0.3-0.6,0.3-0.7-0.4-1.1L59.3,33c-0.7-0.4-0.8-0.4-1.2,0.2L57.8,33
	l2.2-3.6c0.1,0.1,0.7,0.4,1.2,0.6C61.2,30,61,30.2,61,30.2z"/>
<path opacity="0.25" fill="#F68D1E" d="M21.3,22.2c-0.4,0.2-0.4,0.2-0.3,0.8l0.1,0.7c0.1,0.3,0.1,0.6,0.2,0.8
	c-0.5,0.2-1.2,0.5-1.8,0.7c-1.9,0.4-3.4-0.5-3.7-2.1c-0.4-1.9,1-3.2,2.7-3.5c0.7-0.1,1.4-0.1,1.7-0.1c0.1,0.3,0.2,0.7,0.4,1.3
	l-0.3,0.1c-0.4-0.9-1.1-1.2-1.9-1c-1,0.2-1.7,1.3-1.4,2.8c0.3,1.3,1.1,2.4,2.5,2.2c0.2,0,0.4-0.1,0.4-0.2c0.1-0.1,0.2-0.2,0.1-0.5
	l-0.2-0.8c-0.1-0.6-0.2-0.6-1.1-0.5l-0.1-0.3l2.5-0.5C21.1,22.1,21.3,22.2,21.3,22.2z"/>
<path opacity="0.25" fill="#F68D1E" d="M37.6,59.7v-0.3c0.6-0.1,0.6-0.2,0.5-0.9l-0.4-3.1c-0.1-0.7-0.2-0.7-0.8-0.7v-0.3l2.3-0.3
	v0.3c-0.6,0.1-0.6,0.2-0.5,0.9l0.4,3.1c0.1,0.7,0.2,0.7,0.7,0.7v0.3L37.6,59.7z"/>
<path opacity="0.25" fill="#F68D1E" d="M16.5,31.1c-0.6,0-0.7,0-0.8,0.7l-0.5,2.9c-0.2,1-0.4,1.8-1.3,2.3c-0.4,0.2-0.8,0.3-1.2,0.4
	l-0.1-0.3c0.5-0.1,0.8-0.4,1-0.9s0.3-1,0.4-1.7l0.5-2.8c0.1-0.7,0-0.8-0.6-1l0.1-0.3l2.6,0.4C16.6,30.8,16.5,31.1,16.5,31.1z"/>
<path opacity="0.25" fill="#F68D1E" d="M43.7,24.3c-0.3-0.5-0.8-1-1.5-0.8c-0.5,0.1-0.7,0.6-0.6,1.1s0.5,0.6,1.4,0.8
	c1,0.2,1.7,0.4,2,1.3s-0.3,1.9-1.5,2.3c-0.3,0-0.6,0-0.9,0s-0.4,0-0.6,0c-0.1-0.2-0.5-0.9-0.7-1.3l0.3-0.2c0.3,0.5,1.1,1.3,1.9,1
	c0.5-0.2,0.7-0.6,0.6-1.1s-0.6-0.7-1.3-0.8c-1-0.2-1.7-0.4-1.9-1.2c-0.3-0.9,0.2-1.8,1.4-2.2c0.5-0.2,1.1-0.1,1.2-0.1
	c0.1,0.3,0.3,0.7,0.5,1.2C44,24.3,43.7,24.3,43.7,24.3z"/>
<path opacity="0.25" fill="#F68D1E" d="M33.3,60.1l-0.1-0.3c0.6-0.3,0.5-0.4,0.3-0.6c-0.1-0.1-0.4-0.5-1.4-1.5
	c-0.3,0.8-0.5,1.5-0.7,1.9c-0.1,0.5,0,0.5,0.6,0.5l0.1,0.3l-2.4,0.5l-0.1-0.3c0.5-0.2,0.8-0.4,1-0.8c0.2-0.5,0.7-1.5,1.1-2.4
	c-0.6-0.6-1.2-1.2-1.8-1.9c-0.4-0.4-0.7-0.5-1.3-0.4l-0.1-0.3l2.8-0.6l0.1,0.3c-0.5,0.2-0.5,0.3-0.3,0.5c0.2,0.3,0.6,0.7,1.2,1.2
	c0.2-0.4,0.4-1,0.6-1.5c0.1-0.4,0.1-0.5-0.6-0.4L32.2,54l2.3-0.5l0.1,0.3c-0.6,0.2-0.8,0.4-1.1,0.9c-0.2,0.4-0.5,1.1-0.8,1.8
	c0.8,0.8,1.4,1.4,2.1,2.1c0.5,0.5,0.8,0.6,1.4,0.5l0.1,0.3L33.3,60.1z"/>
<path opacity="0.25" fill="#F68D1E" d="M56.7,50.7c1.1,0.4,1.7,1,1.5,1.9c-0.1,0.7-0.6,1.1-1.2,1.3s-1.3,0.2-2.1,0l-2.5-0.5l0.1-0.3
	c0.8,0.1,0.9,0,1-0.8l0.8-3.7c0.2-0.8,0.1-0.9-0.6-1.1l0.1-0.3l2.8,0.6c0.8,0.2,1.2,0.4,1.5,0.7s0.4,0.8,0.3,1.2
	C58.3,50.5,57.4,50.7,56.7,50.7C56.7,50.7,56.7,50.7,56.7,50.7z M55.5,50.3c0.9,0.2,1.4-0.1,1.6-0.9c0.2-0.9-0.3-1.3-0.8-1.4
	c-0.2,0-0.4,0-0.5,0c-0.1,0.1-0.1,0.2-0.2,0.4l-0.4,1.8C55.2,50.2,55.5,50.3,55.5,50.3z M54.8,52.5c-0.2,0.7,0,1,0.5,1.1
	s1.2-0.2,1.4-1.1c0.2-0.9-0.3-1.5-1.4-1.7h-0.2L54.8,52.5z"/>
<path opacity="0.25" fill="#F68D1E" d="M57.1,18c-0.3,0.4-0.3,0.5,0.1,0.9l1.8,1.7c0.6,0.6,1.1,1.1,1,2c0,0.4-0.1,0.7-0.3,1
	l-0.3-0.1c0.1-0.4,0.1-0.7-0.2-1.1c-0.3-0.3-0.6-0.7-1-1l-1.8-1.7c-0.5-0.4-0.5-0.4-1,0l-0.2-0.2l1.5-1.6C56.7,17.9,57.1,18,57.1,18
	z"/>
<path opacity="0.25" fill="#F68D1E" d="M18.4,47.2c-0.4,0-0.6,0.1-0.7,0.4c-0.1,0.2-0.1,0.6-0.2,1.3l-0.3,3h-0.4l-2.7-4.1l-0.2,1.7
	c-0.1,0.7-0.1,1-0.1,1.2c0,0.3,0.1,0.5,0.7,0.6v0.3l-1.9-0.2v-0.3c0.4,0,0.6-0.1,0.7-0.4c0.1-0.2,0.1-0.6,0.2-1.2l0.2-1.6
	c0.1-0.5,0.1-0.6-0.1-0.8c-0.1-0.2-0.3-0.3-0.6-0.3v-0.3l1.4,0.2l2.5,3.6L17,49c0.1-0.7,0.1-1,0.1-1.3s-0.1-0.5-0.7-0.6v-0.3
	l1.8,0.2C18.2,47,18.4,47.2,18.4,47.2z"/>
<path fill="#F68D1E" d="M57.1,22.7c-2.9,0.9-3.5,1.6-4.2,5.4c-0.5,3-2,11.1-3.9,23.9l-2.3,0.3c-3.4-6.2-6.7-12.2-10.1-18.5h-0.1
	c-1.3,7-2.6,13.9-3.7,20.5l-2.3,0.3C26.9,47,23.7,39.9,20,32.4c-1.6-3.3-2.4-3.8-5.1-3.8l-0.2-1.5l13-1.9l0.2,1.5
	c-3.2,0.9-3.2,1.5-2.3,3.7c2.2,4.9,4.5,9.9,6.7,14.5h0.1c1.2-6.6,2.4-13.6,3.5-20.6L38,24c3.5,6.3,7,12.7,10.3,18.8h0.1
	c0.9-5.7,1.7-12.8,1.9-15.5s-0.1-3.5-3.7-3.2l-0.2-1.5l10.4-1.5C56.8,21.1,57.1,22.7,57.1,22.7z"/>
</svg>

