<?xml version="1.0" encoding="utf-8"?>
<!-- Generator: Adobe Illustrator 18.1.1, SVG Export Plug-In . SVG Version: 6.00 Build 0)  -->
<!DOCTYPE svg PUBLIC "-//W3C//DTD SVG 1.1//EN" "http://www.w3.org/Graphics/SVG/1.1/DTD/svg11.dtd">
<svg version="1.1" id="Layer_1" xmlns="http://www.w3.org/2000/svg" xmlns:xlink="http://www.w3.org/1999/xlink" x="0px" y="0px"
	 viewBox="0 0 75 75" enable-background="new 0 0 75 75" xml:space="preserve">
<path fill="#F68D1E" d="M62,30.8c0,0-6.7-1.5-14.5,4.8c0.8-9-2.8-16.7-9.1-18.3c-0.8-0.2-1.5-0.3-2.3-0.3c-0.9-0.6-1.9-1-3-1.3
	c-8-2-16.9,5.2-19.8,16.2s1.2,21.5,9.2,23.6c0.8,0.2,1.7,0.3,2.5,0.3c0.9,0.6,1.8,1,2.8,1.2c6.7,1.7,14.1-4,17.6-13.1
	c5.7-4.6,15-9.5,24.9-4.2C70.4,39.8,66.3,36.5,62,30.8z M44.9,38c-1.2,1.2-2.4,2.6-3.5,4.3c0.4-1,0.7-1.9,1-3
	c1.9-7.2,0.8-14.2-2.5-18.8C44.3,23.1,46.4,30.2,44.9,38z M27.9,32.8c-0.1,0.4-0.4,0.7-0.7,0.6s-0.5-0.5-0.3-0.9
	c0.1-0.4,0.4-0.7,0.7-0.6C27.8,32,28,32.4,27.9,32.8z M28.1,34.7c0.2,0.1,0.3,0.3,0.3,0.7c-0.1,0.3-0.3,0.5-0.5,0.4
	s-0.3-0.3-0.3-0.7C27.6,34.9,27.9,34.7,28.1,34.7z M27.4,37.4c0.3,0.1,0.5,0.5,0.3,0.9c-0.1,0.4-0.4,0.7-0.7,0.6s-0.5-0.5-0.3-0.9
	C26.7,37.6,27.1,37.3,27.4,37.4z M31.6,39.8c2.2,0.6,3.4,3.5,2.6,6.6s-3.3,5.1-5.5,4.5s-3.4-3.5-2.6-6.6S29.4,39.2,31.6,39.8z
	 M29.9,35.9c0.3,0.1,0.5,0.5,0.3,0.9c-0.1,0.4-0.4,0.7-0.7,0.6s-0.5-0.5-0.3-0.9C29.3,36.1,29.6,35.8,29.9,35.9z M29.3,33.1
	c0.1-0.4,0.4-0.7,0.7-0.6s0.5,0.5,0.3,0.9c-0.1,0.4-0.4,0.7-0.7,0.6S29.1,33.5,29.3,33.1z M37.4,28.8c2.2,0.6,3.4,3.5,2.6,6.6
	s-3.3,5.1-5.5,4.5s-3.4-3.5-2.6-6.6C32.7,30.3,35.2,28.3,37.4,28.8z M26.6,24.2c0.8-3.1,3.3-5.1,5.5-4.5s3.4,3.5,2.6,6.6
	c-0.8,3.1-3.3,5.1-5.5,4.5C26.9,30.1,25.8,27.2,26.6,24.2z M25.9,34.9c0.3,0.1,0.5,0.5,0.3,0.9c-0.1,0.4-0.4,0.7-0.7,0.6
	s-0.5-0.5-0.3-0.9C25.3,35.1,25.6,34.8,25.9,34.9z M17.4,29.7c0.8-3.1,3.3-5.1,5.5-4.5s3.4,3.5,2.6,6.6s-3.3,5.1-5.5,4.5
	C17.7,35.6,16.6,32.7,17.4,29.7z M19.6,48.5C17.4,48,16.2,45,17,42c0.8-3.1,3.3-5.1,5.5-4.5s3.4,3.5,2.6,6.6
	C24.3,47.1,21.8,49.1,19.6,48.5z M39.2,49.6h-1.4c0.4-0.7,1.4-2.2,1.8-2.8l2,0.2C40.5,48.1,39.6,49.1,39.2,49.6z M42.5,46.1
	l-2.4-0.3c0.5-0.9,1.1-1.8,1.6-2.6l3.3,0.6C44.1,44.6,43.2,45.4,42.5,46.1z M46.1,43l-3.7-0.7c1.1-1.6,2.2-2.9,3.3-4.1l5,1.8
	C48.9,40.9,47.4,41.9,46.1,43z M51.8,39.4l-5.4-2c1.8-1.8,3.6-3,5.4-3.9l5.4,4C55.2,37.9,53.4,38.6,51.8,39.4z M61.5,37
	c-1,0-2.1,0.1-3.1,0.2L52.7,33c2.4-1,4.6-1.4,6.5-1.5c0.8,0,1.4,0.1,1.7,0.1c1.5,1.9,4.7,5,6.5,6.4C66.3,37.8,65,37,61.5,37z"/>
</svg>

