<?xml version="1.0" encoding="utf-8"?>
<!-- Generator: Adobe Illustrator 18.1.1, SVG Export Plug-In . SVG Version: 6.00 Build 0)  -->
<!DOCTYPE svg PUBLIC "-//W3C//DTD SVG 1.1//EN" "http://www.w3.org/Graphics/SVG/1.1/DTD/svg11.dtd">
<svg version="1.1" id="Layer_1" xmlns="http://www.w3.org/2000/svg" xmlns:xlink="http://www.w3.org/1999/xlink" x="0px" y="0px"
	 viewBox="0 0 75 75" enable-background="new 0 0 75 75" xml:space="preserve">
<path fill="#F68D1E" d="M37.6,35.4c0,0.8,0.5,1.4,1.4,1.8v-3.4C38.1,34,37.6,34.6,37.6,35.4z"/>
<path fill="#F68D1E" d="M40.2,41.2v4.1c0.6-0.1,1-0.3,1.4-0.6c0.3-0.3,0.5-0.8,0.5-1.3c0-0.4-0.1-0.7-0.3-1.1
	C41.5,42.1,41,41.7,40.2,41.2z"/>
<path fill="#F68D1E" d="M59,34.1c0,0,2.1-0.5,0.7-2.8c-0.9-1.5-2.8-1.3-3.4-0.8c0.3,0.2,0.6,0.4,0.9,0.6c0.2,0.2,0.5,0.3,0.7,0.4
	c0.1,0.1,0.2,0.1,0.3,0.1h0.1c0,0,0,0,0-0.1c0-0.2-0.1-0.4-0.4-0.6c-0.2-0.2-0.5-0.3-0.8-0.3c0.3-0.1,0.6,0,0.9,0.1s0.6,0.3,0.6,0.8
	c0,0.1,0,0.2-0.1,0.3s-0.3,0.1-0.4,0.1c-0.2,0-0.3-0.1-0.5-0.2c-0.3-0.1-0.5-0.3-0.8-0.5c-0.5-0.3-0.9-0.7-1.4-0.9
	c-0.2-0.1-0.5-0.2-0.8-0.2c-0.1,0-0.2,0-0.3,0c-3.3-2.7-8.1-4.2-13.8-3.9c-10.8,0.6-14.1,4.6-14.1,4.6c-2.1-2.9-3.5-2.3-3.5-2.3
	C22,28,21,28,20.1,28.6s0.5,4,0.5,4c-2.2,0.4-3.7,3.8-4.5,4.7s-1.7,0.8-2.4,0.8c-0.6,0-2.4-0.8-2.4,2.1v0.1c0,0.6,0.1,1.1,0.1,1.5
	c0.3,1.5,1,1.9,1,1.9c-0.3,0.1-0.1,0.4,0.3,0.6c0.3,0.2,2.3,1.6,2.3,1.6c6.7,4.6,8.8,3.5,8.8,3.5c0,0.5,0.4,0.4,0.9,2.2
	c0.4,1.8,0.6,5.8,0.6,5.8S23.6,59,27.5,59c3.8,0.1,2.3-0.2,3.3-0.9s3.1-5.7,3.1-5.7c6.4,1.6,11.8-0.1,11.8-0.1
	c0.9,0.6,1.4,0.3,1.4,0.3c0.2,0.9,0.8,2.3,0.8,2.3c0,2.6,0.1,3.6,0.1,3.6c0.8,0.9,4.4,0,4.4,0s0,0,0-0.4s0.5-1.3,0.5-1.3
	c2.1-3.2,1.7-4.7,1.7-4.7c0.2-3.7,3.4-3.6,4.3-9.5c0.1-0.7,0.2-1.5,0.2-2.4c0.1-2.4-0.5-4.5-1.6-6.4C58,34.1,58.5,34.2,59,34.1
	L59,34.1z M19.6,38.5c-1.1-0.1-0.9-0.3-0.9-0.3s0.5-1.6,1.3-1.6C20,36.6,20.7,38.6,19.6,38.5z M43.4,45.1c-0.7,0.8-1.8,1.3-3.2,1.5
	v1.7H39v-1.7c-1.1-0.1-2-0.3-2.7-0.7s-1.1-0.9-1.1-1.5c0-0.3,0.1-0.6,0.3-0.8s0.5-0.4,0.9-0.4c0.5,0,1,0.3,1.3,0.9
	c0.4,0.8,0.8,1.2,1.4,1.3v-4.7c-1.5-0.6-2.5-1.3-3-2s-0.7-1.4-0.7-2.2c0-0.9,0.3-1.7,0.9-2.4s1.5-1.2,2.7-1.3v-1.5h1.2v1.5
	c1,0,1.9,0.3,2.7,0.8s1.2,1.1,1.2,1.8c0,0.3-0.1,0.6-0.3,0.8s-0.5,0.3-0.8,0.3c-0.6,0-1-0.5-1.4-1.4c-0.2-0.6-0.7-1-1.4-1.2v3.9
	c1.7,0.7,2.9,1.4,3.5,2.2c0.6,0.7,0.9,1.5,0.9,2.4C44.5,43.3,44.1,44.3,43.4,45.1z"/>
<path fill="#F68D1E" d="M39.7,12.4c-3,0-5.4,2.4-5.4,5.4s2.4,5.4,5.4,5.4s5.4-2.4,5.4-5.4C45.1,14.9,42.7,12.4,39.7,12.4z
	 M39.7,22.6c-2.6,0-4.7-2.1-4.7-4.7s2.1-4.7,4.7-4.7s4.7,2.1,4.7,4.7S42.3,22.6,39.7,22.6z"/>
<path fill="#F68D1E" d="M39.7,13.4c-2.5,0-4.5,2-4.5,4.5s2,4.5,4.5,4.5s4.5-2,4.5-4.5S42.2,13.4,39.7,13.4z M41.3,16.7l-0.1-0.5
	c0-0.2,0-0.4-0.1-0.5c-0.1-0.3-0.5-0.4-0.8-0.5s-0.6-0.1-0.9,0l0,0l0,0c-0.4,0.1-0.9,0.3-1.2,0.5c-0.2,0.1-0.3,0.3-0.3,0.4
	c0,0,0,0.1,0,0.2v0.1c0,0.1,0,0.2,0,0.3s0,0.2,0,0.3c0,0,0,0,0,0.1l0,0c0,0,0,0,0.1,0.1c0,0.1,0,0,0,0.1s0,0.1,0,0.2
	c0,0.2-0.1,0.4-0.2,0.7c0.1,0,0.2,0,0.3,0.1s0.1,0.2,0.1,0.3s0,0.4,0,0.6c0,0,0.1,0.1,0.2,0.1s0.2,0,0.3,0s0.1,0,0.2,0
	s0.2,0.1,0.2,0.2c0,0.2,0,0.3-0.1,0.4c-0.1,0.3-0.2,0.5-0.3,0.7s-0.2,0.5-0.4,0.7c0.2-0.2,0.2-0.5,0.3-0.7s0.1-0.5,0.2-0.7
	c0-0.1,0-0.3,0-0.3s0,0-0.2,0c-0.1,0-0.3,0.1-0.4,0c-0.1,0-0.3,0-0.5-0.2l0,0v-0.1c0-0.2-0.1-0.4-0.1-0.7l0,0c-0.1,0-0.2,0-0.3-0.1
	c-0.2-0.2-0.1-0.3-0.1-0.4c0.1-0.2,0.1-0.4,0.1-0.6c0-0.1-0.1-0.1-0.1-0.2c-0.1-0.2-0.1-0.3-0.1-0.4s0-0.3,0-0.4s0-0.1,0-0.2
	s0-0.1,0-0.2c0.1-0.3,0.3-0.5,0.5-0.7c0.4-0.3,0.9-0.5,1.4-0.6l0,0c0.4-0.1,0.8-0.1,1.2,0.1c0.3,0.1,0.7,0.3,0.9,0.7
	c0.1,0.2,0.1,0.4,0.1,0.6L41.3,16.7c-0.1,0.4-0.1,0.7,0,1.1C41.4,17.4,41.4,17,41.3,16.7z"/>
</svg>

