<?xml version="1.0" encoding="utf-8"?>
<!-- Generator: Adobe Illustrator 18.1.1, SVG Export Plug-In . SVG Version: 6.00 Build 0)  -->
<!DOCTYPE svg PUBLIC "-//W3C//DTD SVG 1.1//EN" "http://www.w3.org/Graphics/SVG/1.1/DTD/svg11.dtd">
<svg version="1.1" id="Layer_1" xmlns="http://www.w3.org/2000/svg" xmlns:xlink="http://www.w3.org/1999/xlink" x="0px" y="0px"
	 viewBox="0 0 75 75" enable-background="new 0 0 75 75" xml:space="preserve">
<g>
	<g>
		<path fill="#F78E1E" d="M48.4,23.7c-0.1,0.5-0.3,1-0.5,1.4c1.4,1,2.6,2.3,3.6,3.6c-0.6,0.5-1.6,1.1-3.5,1.7
			c-0.9,0.3-2,0.5-3.1,0.7c0,0,0-0.1,0-0.1l-1.1,2.1c0.3,2,0.5,4.2,0.5,6.4c0,1.2,0,2.4-0.1,3.6c-2,0.2-4.2,0.4-6.7,0.4
			c-2.4,0-4.7-0.1-6.7-0.4c-0.1-1.2-0.1-2.4-0.1-3.6c0-2.2,0.2-4.4,0.5-6.4l-1.1-2.1c0,0,0,0.1,0,0.1c-1.1-0.2-2.2-0.4-3.1-0.7
			c-1.8-0.5-2.9-1.1-3.5-1.7c1-1.4,2.3-2.6,3.6-3.6c-0.2-0.5-0.4-0.9-0.5-1.4c-4.9,3.5-8.1,9.3-8.1,15.8c0,4.1,1.3,7.9,3.4,11
			c0.1,0.1,0.2,0.3,0.3,0.4c3.5,4.8,9,7.9,15.3,7.9c6.3,0,11.9-3.1,15.3-7.9c0.1-0.1,0.2-0.3,0.3-0.4c2.1-3.1,3.4-6.9,3.4-11
			C56.5,33,53.3,27.2,48.4,23.7z M37.5,45c2.2,0,4.4-0.1,6.5-0.3c-0.4,3-1,5.8-2,8c-0.1,0.1-0.1,0.2-0.2,0.4
			c-1.4,0.1-2.9,0.2-4.3,0.2c-1.5,0-3-0.1-4.3-0.2c-0.1-0.1-0.1-0.2-0.2-0.4c-1-2.3-1.6-5-2-8C33.1,44.9,35.3,45,37.5,45z
			 M19.9,39.6c0-3.5,1-6.8,2.7-9.5c1.4,1.2,4,2.1,7.2,2.6c-0.4,2.2-0.6,4.5-0.6,7c0,1.2,0,2.3,0.1,3.4c-4.9-0.7-8.2-2-9.5-3.2
			C19.9,39.7,19.9,39.6,19.9,39.6z M23.5,50.4c-1.9-2.5-3.1-5.5-3.5-8.7c2.1,1.3,5.5,2.3,9.5,2.8c0.4,3.2,1,6,2,8.4
			c-1.7-0.2-3.2-0.5-4.6-0.9C25.3,51.4,24.2,50.9,23.5,50.4z M26.2,53.2c1.7,0.5,3.8,0.9,6,1.2c0.5,1.1,1.1,2,1.8,2.7
			C31.1,56.5,28.4,55.1,26.2,53.2z M37.5,57.5c-1.2,0-2.5-1.1-3.6-2.9c1.2,0.1,2.4,0.1,3.6,0.1c1.2,0,2.4,0,3.6-0.1
			C40,56.4,38.7,57.5,37.5,57.5z M41,57.1c0.7-0.7,1.3-1.6,1.8-2.7c2.2-0.2,4.3-0.6,6-1.2C46.6,55.1,43.9,56.5,41,57.1z M51.5,50.4
			c-0.6,0.5-1.7,1-3.4,1.5c-1.3,0.4-2.9,0.7-4.6,0.9c0.9-2.3,1.6-5.2,2-8.4c3.9-0.5,7.4-1.5,9.5-2.8C54.6,44.9,53.3,47.9,51.5,50.4z
			 M45.6,43c0.1-1.1,0.1-2.3,0.1-3.4c0-2.5-0.2-4.8-0.6-7c3.1-0.5,5.8-1.4,7.2-2.6c1.7,2.8,2.7,6,2.7,9.5c0,0.1,0,0.1,0,0.2
			C53.8,41,50.5,42.3,45.6,43z M36.7,39.9c0.2,0.3,0.5,0.5,0.8,0.5s0.7-0.2,0.8-0.5l7.2-14.3c1-1.5,1.5-3.3,1.5-5.1
			c0-5.3-4.2-9.6-9.5-9.6c-5.2,0-9.5,4.3-9.5,9.6c0,1.8,0.5,3.6,1.5,5.1L36.7,39.9z M37.5,13.7c3.1,0,5.6,2.6,5.6,5.7
			c0,3.2-2.5,5.7-5.6,5.7s-5.6-2.6-5.6-5.7C31.9,16.2,34.4,13.7,37.5,13.7z"/>
	</g>
</g>
</svg>

