<?xml version="1.0" encoding="utf-8"?>
<!-- Generator: Adobe Illustrator 18.1.1, SVG Export Plug-In . SVG Version: 6.00 Build 0)  -->
<!DOCTYPE svg PUBLIC "-//W3C//DTD SVG 1.1//EN" "http://www.w3.org/Graphics/SVG/1.1/DTD/svg11.dtd">
<svg version="1.1" id="Layer_1" xmlns="http://www.w3.org/2000/svg" xmlns:xlink="http://www.w3.org/1999/xlink" x="0px" y="0px"
	 viewBox="0 0 75 75" enable-background="new 0 0 75 75" xml:space="preserve">
<path fill="#F68D1E" d="M44.5,23.5l-3.3,3H27.4v22.9h21.3v-11l3-2.5v16.5H24.5V23.5C24.5,23.5,44.5,23.5,44.5,23.5z M54.3,20.9
	c0,0-0.8-1.1-1.8-0.2L50.3,23l4.6,4.5l2.2-2.1c0,0,0.9-0.7,0-1.6C57.1,23.8,54.3,20.9,54.3,20.9z M49.4,23.8L37.5,35.6l5,4.3
	l11.8-11.5C54.3,28.4,49.4,23.8,49.4,23.8z M34.9,43.3l2.5-0.6L35.5,41L34.9,43.3z M36.9,36.4l-1,3.3l2.9,2.4l3.1-1.6
	C41.9,40.5,36.9,36.4,36.9,36.4z"/>
</svg>

